<?xml version="1.0" encoding="UTF-8"?>
<svg width="98px" height="20px" viewBox="0 0 98 20" version="1.1" xmlns="http://www.w3.org/2000/svg" xmlns:xlink="http://www.w3.org/1999/xlink">
    <title>编组 8</title>
    <defs>
        <filter id="filter-1">
            <feColorMatrix in="SourceGraphic" type="matrix" values="0 0 0 0 1.000000 0 0 0 0 1.000000 0 0 0 0 1.000000 0 0 0 1.000000 0"></feColorMatrix>
        </filter>
        <linearGradient x1="50%" y1="0%" x2="50%" y2="100%" id="linearGradient-2">
            <stop stop-color="#51A2FF" offset="0%"></stop>
            <stop stop-color="#4884FF" offset="100%"></stop>
        </linearGradient>
        <filter id="filter-3">
            <feColorMatrix in="SourceGraphic" type="matrix" values="0 0 0 0 0.200000 0 0 0 0 0.200000 0 0 0 0 0.200000 0 0 0 1.000000 0"></feColorMatrix>
        </filter>
    </defs>
    <g id="组件规范" stroke="none" stroke-width="1" fill="none" fill-rule="evenodd">
        <g id="编组-8" transform="translate(-24.000000, -9.000000)" filter="url(#filter-1)">
            <g transform="translate(24.000000, 9.000000)">
                <path d="M24.2488489,9.69122576 C22.4738979,7.61041553 19.8071696,7.31539422 17.5874054,8.38754482 C17.1735657,8.58775296 16.7734919,8.82986514 16.3996595,9.12277007 C16.2022038,9.27726473 16.011631,9.44403431 15.8292318,9.6230788 L16.8590991,10.6656003 C17.2238976,10.421795 17.6428996,10.2237032 18.0842713,10.0725948 C18.8680717,9.80423966 19.7258643,9.68953267 20.4984799,9.76487527 C22.8210587,9.99132634 23.9726689,11.2137389 24.2109924,12.5508584 C24.5809531,14.6295522 22.7423345,16.9846434 19.6591853,16.3044436 C18.5286543,16.0551358 17.7698047,15.5061507 16.863401,14.7552643 C16.8134993,14.7137836 16.7640278,14.671033 16.7149865,14.6287057 C16.5489344,14.4860627 16.3858936,14.3370706 16.2245735,14.184269 C15.712221,13.697505 15.2170759,13.1620646 14.7034328,12.5957253 C14.694829,12.5864133 13.4102911,11.1853796 13.1250772,10.8924746 C13.0700133,10.835756 13.0149494,10.7794607 12.9598855,10.7227421 C12.8764292,10.6368177 12.7921126,10.55047 12.707796,10.4645456 C12.5602419,10.3138604 12.4101067,10.1652916 12.2599714,10.0167227 C11.5622084,9.32594113 10.82917,8.66394211 9.95847177,8.11665007 C8.98754004,7.50671363 7.92971057,7.15285738 6.87575277,7.04026675 C7.16483834,6.73212398 7.52533492,6.43371649 7.93788412,6.15901229 C9.19015805,5.32516442 10.9225205,4.71057197 12.5980983,4.71057197 C14.9740203,4.71057197 17.0995736,5.57489551 18.5342467,6.9374114 C19.1076858,6.76852546 19.6966116,6.68768031 20.2816657,6.69953196 C20.1427154,6.46038269 19.9934405,6.22842907 19.8342714,6.00536418 C18.2116066,3.73873709 15.5706895,2.35336445 12.6488604,2.35294118 C9.24651253,2.35336445 6.24423847,4.24751127 4.78246354,7.13550318 C3.26347376,7.44406922 1.89375881,8.27749383 0.986064548,9.58625405 C0.376489775,10.4658154 0.0917060775,11.4033652 0.0190044991,12.3752001 C-0.0141198887,12.8213298 -0.00250484358,13.274232 0.0426647761,13.7322134 C0.160535974,14.9262666 0.598036005,16.0191576 1.50400952,16.9596703 C3.10301406,18.6201704 5.5821809,19.2487309 7.77054143,18.5291667 C7.85399768,18.501654 7.94218598,18.4665223 8.03381578,18.4267346 C8.24761865,18.3505455 8.46701395,18.2514996 8.68985074,18.1355228 C9.31534242,17.8091793 9.96922644,17.3410393 10.6084841,16.8068687 L10.5443863,16.742108 L10.0118149,16.2032814 L9.76230657,15.9505874 L9.48741717,15.672497 C9.15875441,15.824452 8.80255969,15.9645554 8.42571601,16.0868813 C7.65955322,16.3366124 6.80090026,16.5084612 5.86180236,16.5224292 C2.67153664,16.5702591 0.638903756,14.6481763 0.981332493,12.120813 C1.27687086,10.0827533 3.3176773,8.78372837 5.63853538,9.21038759 C6.63613869,9.39366482 7.39627887,9.90921137 8.12845689,10.4628525 C8.93462706,11.0723657 9.66465415,11.739444 10.364138,12.4298023 C10.5637447,12.6266242 10.7620608,12.8251393 10.9577958,13.0253474 C11.2331154,13.3064007 12.6329434,14.7628832 12.6948904,14.8263742 C13.2205787,15.3660473 13.7565915,15.8976782 14.32874,16.3996801 C14.5821201,16.6218984 14.8406624,16.839884 15.1121103,17.0477111 C15.3487131,17.2288719 15.592629,17.4036837 15.8464392,17.57003 C18.2894704,19.1733883 21.5709357,18.9261968 23.5979762,16.9495117 C24.3787653,16.1876203 25.0309286,15.2627687 25.2679615,14.0581336 C25.2903313,13.9463896 25.3122708,13.8325291 25.3268971,13.7135894 C25.3785196,13.3008982 25.3862629,12.8738157 25.3471159,12.448003 C25.2554861,11.4499252 24.9057442,10.4607361 24.2488489,9.69122576 Z" id="Fill-3" fill="url(#linearGradient-2)"></path>
                <g filter="url(#filter-3)" id="编组-97">
                    <g transform="translate(32.268293, 0.000000)">
                        <path d="M6.62507301,15.6350059 L15.3529558,15.6350059 C16.5911066,15.6350059 17.5984542,14.6325734 17.5984542,13.3998982 L17.5984542,11.0369407 L15.9311006,11.0369407 L15.9311006,13.3998982 C15.9311006,13.7178254 15.6718734,13.9757877 15.3529558,13.9757877 L8.5925844,13.9757877 L9.70566943,7.88255926 L18.5904529,7.88255926 L19.0071491,6.22277536 L5.68480608,6.22277536 L5.68480608,7.88255926 L8.01557658,7.88255926 L6.62507301,15.6350059 Z" id="Fill-8" fill="#FFFFFF"></path>
                        <polygon id="Fill-10" fill="#FFFFFF" points="17.3187617 1.1314137 6.8217673 1.1314137 6.8217673 2.79063189 16.9026339 2.79063189"></polygon>
                        <path d="M56.3131206,7.56859196 L62.412349,7.56859196 L62.412349,11.0476891 C62.412349,11.3650506 62.1525534,11.623013 61.8336358,11.623013 L56.3131206,11.623013 L56.3131206,7.56859196 Z M56.8912654,17.2913956 C56.5723478,17.2913956 56.3131206,17.0334333 56.3131206,16.715506 L56.3131206,13.2827969 L61.8336358,13.2827969 C63.0717865,13.2827969 64.0797027,12.2797986 64.0797027,11.0476891 L64.0797027,5.90937376 L56.3131206,5.90937376 L56.3131206,2.79063189 L64.7266336,2.79063189 L65.1433299,1.1314137 L54.6451985,1.1314137 L54.6451985,16.715506 C54.6451985,17.9481813 55.6531146,18.9506138 56.8912654,18.9506138 L65.3144426,18.9506138 L65.7317073,17.2913956 L56.8912654,17.2913956 Z" id="Fill-12" fill="#FFFFFF"></path>
                        <path d="M3.69626092,17.6528823 C3.54333963,17.634214 3.40633581,17.5567121 3.31139954,17.4362166 C3.21646328,17.3145896 3.17439572,17.1641116 3.19315558,17.0113707 L4.52510564,6.22277536 L1.00540644e-13,6.22277536 L1.00540644e-13,7.88199355 L2.64059243,7.88199355 L1.53830853,16.8088477 C1.46497453,17.4011427 1.62812846,17.9866493 1.99707238,18.4573174 C2.36658477,18.9279855 2.89811414,19.2266787 3.49217638,19.2996549 C3.58370176,19.3109691 3.67579561,19.3166261 3.76732099,19.3166261 L18.7484905,19.3166261 L19.1657552,17.6568422 L3.76732099,17.6568422 C3.74344481,17.6568422 3.7201371,17.6557108 3.69626092,17.6528823" id="Fill-14" fill="#FFFFFF"></path>
                        <polygon id="Fill-16" fill="#FFFFFF" points="4.84970807 2.2628274 5.45305185e-14 2.2628274 5.45305185e-14 3.9220456 4.4324433 3.9220456"></polygon>
                        <polygon id="Fill-18" fill="#FFFFFF" points="31.038757 2.22492504 31.038757 0.565706851 26.7541186 0.565706851 27.1708149 2.22492504"></polygon>
                        <polygon id="Fill-20" fill="#FFFFFF" points="38.4295734 0.565706851 34.1443665 0.565706851 34.1443665 2.22492504 38.0123086 2.22492504"></polygon>
                        <path d="M25.0111571,4.91486112 C25.0111571,4.59749958 25.2703842,4.33897154 25.5893019,4.33897154 L33.1887506,4.33897154 L33.1887506,2.9506295e-13 L31.521397,2.9506295e-13 L31.521397,2.67975335 L25.5893019,2.67975335 C24.3511511,2.67975335 23.343235,3.6827516 23.343235,4.91486112 L23.343235,6.86145839 L25.0111571,6.86145839 L25.0111571,4.91486112 Z" id="Fill-22" fill="#FFFFFF"></path>
                        <path d="M39.5119605,5.06364202 L39.5119605,7.04870736 L41.1793141,7.04870736 L41.1793141,5.06364202 C41.1793141,3.8315325 40.171398,2.82853425 38.9332472,2.82853425 L33.5758859,2.82853425 L33.5758859,4.48775245 L38.9332472,4.48775245 C39.2527333,4.48775245 39.5119605,4.74628048 39.5119605,5.06364202" id="Fill-24" fill="#FFFFFF"></path>
                        <path d="M28.4214723,6.75057985 L36.0709473,6.75057985 L36.0601462,7.62063699 L28.4214723,7.62063699 L28.4214723,6.75057985 Z M26.7541186,9.28042089 L36.0601462,9.28042089 C36.9873381,9.28042089 37.7411434,8.5297279 37.7411434,7.60762573 L37.7411434,5.09136166 L26.7541186,5.09136166 L26.7541186,9.28042089 Z" id="Fill-26" fill="#FFFFFF"></path>
                        <path d="M33.6128372,14.3717825 L39.7660713,14.3717825 L40.1827676,12.7125643 L33.6128372,12.7125643 L33.6128372,11.8425072 L38.7899901,11.8425072 L39.2066864,10.1827233 L25.7433601,10.1827233 L25.7433601,11.8425072 L31.9454836,11.8425072 L31.9454836,12.7125643 L24.8957555,12.7125643 L24.8957555,14.3717825 L31.9454836,14.3717825 L31.9454836,15.1015444 L23.343235,15.1015444 L23.343235,16.7607626 L31.9454836,16.7607626 L31.9454836,17.3032754 C31.9454836,17.620637 31.6862564,17.8785993 31.3673388,17.8785993 L27.7597608,17.8785993 L28.1440537,19.5378175 L31.3673388,19.5378175 C32.6054895,19.5378175 33.6128372,18.535385 33.6128372,17.3032754 L33.6128372,16.7607626 L41.3316669,16.7607626 L41.7483632,15.1015444 L33.6128372,15.1015444 L33.6128372,14.3717825 Z" id="Fill-28" fill="#FFFFFF"></path>
                        <path d="M51.2041854,3.49833116 L51.2041854,2.20449331e-14 L49.5231882,2.20449331e-14 L49.5231882,3.51190813 L46.1179894,3.51190813 L46.1179894,5.17112632 L49.5231882,5.17112632 C50.4498116,5.17112632 51.2041854,4.42043333 51.2041854,3.49833116" id="Fill-30" fill="#FFFFFF"></path>
                        <path d="M49.528873,6.76415681 L49.528873,20 L51.1962266,20 L51.2098702,6.75057985 L53.5287026,6.75057985 L53.9453989,5.09136166 L51.2098702,5.09136166 C50.2832468,5.09136166 49.528873,5.84205465 49.528873,6.76415681" id="Fill-32" fill="#FFFFFF"></path>
                        <polygon id="Fill-34" fill="#FFFFFF" points="47.2549506 16.8863495 48.9223042 16.8863495 48.9223042 7.91989591 47.2549506 7.91989591"></polygon>
                        <polygon id="Fill-36" fill="#FFFFFF" points="51.8027954 16.8863495 53.4701491 16.8863495 53.4701491 7.91989591 51.8027954 7.91989591"></polygon>
                    </g>
                </g>
            </g>
        </g>
    </g>
</svg>