<?xml version="1.0" encoding="UTF-8"?>
<svg width="16px" height="17px" viewBox="0 0 16 17" version="1.1" xmlns="http://www.w3.org/2000/svg" xmlns:xlink="http://www.w3.org/1999/xlink">
    <title>切片</title>
    <g id="任务管理" stroke="none" stroke-width="1" fill="none" fill-rule="evenodd">
        <g id="画板" transform="translate(-320.000000, -260.000000)">
            <g id="按钮/图标/4字备份-5" transform="translate(314.000000, 253.500000)">
                <g id="icon/*16/默认" transform="translate(6.000000, 7.000000)">
                    <polyline id="路径-2" stroke="#4885FF" stroke-linecap="round" stroke-linejoin="round" points="10 9.45353951 10.7937744 10.3805081 12 9"></polyline>
                    <path d="M8,1.892 L2.44922381,4.66533333 L4.66622381,5.77333333 L10.2152238,2.99933333 L8,1.892 Z M15.1653333,4.64833333 L15.1663333,4.66533333 L15.1666667,11.3333333 C15.1666667,11.491155 15.0923603,11.6376889 14.9695637,11.7311635 L14.8902735,11.7805469 L8.21630394,15.1174579 L8.21630394,15.1174579 C8.19055021,15.1295403 8.17114547,15.1370779 8.15119917,15.1433982 C8.13929707,15.1470306 8.12762303,15.1502617 8.11587135,15.1530609 C8.10032224,15.156879 8.08396743,15.1599319 8.06735393,15.1621689 C8.05239683,15.1641346 8.03769869,15.1654621 8.02297751,15.1661388 C8.01564,15.1664862 8.00784108,15.1666667 8,15.1666667 L7.93433333,15.1613333 L7.88229034,15.1527322 L7.88229034,15.1527322 L7.84333333,15.1413333 L7.83633333,15.1383333 L7.84033333,15.1403333 L7.84333333,15.1413333 L7.8490809,15.1434869 L7.84033333,15.1403333 L7.8285368,15.1363673 L7.8285368,15.1363673 L7.81943452,15.1330684 L7.83133333,15.1363333 L7.83433333,15.1383333 L7.83633333,15.1383333 L7.83133333,15.1363333 L7.7763932,15.1138803 L7.7763932,15.1138803 L4.50833333,13.4793333 L5.25333333,12.7343333 L7.49922381,13.8563333 L7.49833333,10.4893333 L8.49833333,9.48933333 L8.49922381,13.8563333 L14.166,11.024 L14.1652238,5.47533333 L10.8603333,7.12733333 L13.0943333,4.89333333 L13.5492238,4.66633333 L13.3973333,4.59033333 L14.1423333,3.84533333 L14.8902735,4.21945307 C14.8977782,4.22320543 14.9051604,4.22713136 14.9124163,4.23122461 C14.9273705,4.23959899 14.9417399,4.24868578 14.9556486,4.25851539 C14.9662065,4.26608282 14.9766979,4.27414796 14.9868238,4.28258846 L15.0068831,4.30009449 L15.0068831,4.30009449 L15.0260555,4.31885403 C15.0330135,4.32622227 15.0397875,4.33366353 15.0463246,4.34129381 C15.0593067,4.35626072 15.071723,4.37266365 15.0831908,4.38997391 C15.0895071,4.39958153 15.0954566,4.40924158 15.1010729,4.41909507 L15.1075953,4.43090294 L15.1075953,4.43090294 L15.1138803,4.44305987 L15.1263333,4.47233333 L15.1363333,4.49633333 L15.1394576,4.50393486 L15.1539096,4.55393224 L15.1539096,4.55393224 L15.1603333,4.59433333 L15.1623333,4.60833333 L15.1613333,4.59733333 L15.1633932,4.60924958 L15.1633932,4.60924958 L15.1633333,4.61533333 L15.1653333,4.64833333 Z M0.90895136,4.40228069 L0.915367991,4.39216181 L0.915367991,4.39216181 L0.916333333,4.38933333 L0.949574325,4.3459766 L0.949574325,4.3459766 C0.957357295,4.33682468 0.965424533,4.32784552 0.973822017,4.31915551 C0.987909275,4.30441649 1.00265531,4.29092609 1.01807919,4.27841732 L1.04733333,4.25633333 L1.10972654,4.21945307 L1.10972654,4.21945307 L7.7763932,0.886119738 C7.8890042,0.82981424 8.0175655,0.81855314 8.13655663,0.852336439 L8.2236068,0.886119738 L12.2573333,2.90233333 L11.5113333,3.64833333 L11.3332238,3.55833333 L5.78522381,6.33333333 L7.81233333,7.34733333 L7.06633333,8.09233333 L1.83222381,5.47433333 L1.833,11.024 L3.36733333,11.7913333 L2.62233333,12.5363333 L1.10972654,11.7805469 C0.968566524,11.7099669 0.870733475,11.5779733 0.84204357,11.4263376 L0.833333333,11.3333333 L0.833665867,4.64839215 L0.833665867,4.64839215 C0.834200676,4.62919304 0.836106868,4.60906143 0.839268603,4.58898589 C0.841199642,4.57755982 0.843267143,4.56681488 0.845677146,4.55617678 C0.84996905,4.53670602 0.855839037,4.51659886 0.863051194,4.49671879 L0.872368819,4.47296739 L0.872368819,4.47296739 C0.876367852,4.4634053 0.881055805,4.45318773 0.886119738,4.44305987 L0.899333333,4.41833333 L0.90895136,4.40228069 L0.90895136,4.40228069 Z" id="形状结合备份" fill="#4885FF" fill-rule="nonzero"></path>
                    <polygon id="路径备份" fill-opacity="0.01" fill="#FFFFFF" fill-rule="nonzero" points="16 0 0 0 0 16 16 16"></polygon>
                    <line x1="2.03075712" y1="2.71865291" x2="14.9692429" y2="13.4813471" id="直线备份-6" stroke="#4885FF" stroke-linecap="round" transform="translate(8.500000, 8.100000) scale(-1, 1) rotate(4.763642) translate(-8.500000, -8.100000) "></line>
                </g>
            </g>
        </g>
    </g>
</svg>