<?xml version="1.0" encoding="UTF-8"?>
<svg width="16px" height="17px" viewBox="0 0 16 17" version="1.1" xmlns="http://www.w3.org/2000/svg" xmlns:xlink="http://www.w3.org/1999/xlink">
    <title>切片</title>
    <g id="任务管理" stroke="none" stroke-width="1" fill="none" fill-rule="evenodd">
        <g id="画板" transform="translate(-81.000000, -198.000000)">
            <g id="按钮/图标/4字备份" transform="translate(75.000000, 191.500000)">
                <g id="icon/*16/默认" transform="translate(6.000000, 7.000000)">
                    <path d="M5.666,6.167 L6.666,7.167 L6.66666333,11 C6.66666333,11.0736461 6.71441312,11.1361251 6.78064654,11.1581709 L6.83333,11.1666667 L10.665,11.166 L11.665,12.166 L11.3048431,12.1665651 C11.3232913,12.2187236 11.33333,12.2748561 11.33333,12.3333333 C11.33333,12.7935576 11.706439,13.1666667 12.1666633,13.1666667 C12.3107995,13.1666667 12.4463909,13.1300699 12.564652,13.0656619 L13.2852625,13.7859701 C12.9757291,14.0246802 12.587775,14.1666667 12.1666633,14.1666667 C11.1541543,14.1666667 10.33333,13.3458424 10.33333,12.3333333 C10.33333,12.2748561 10.3433687,12.2187236 10.3618169,12.1665651 L6.83333,12.1666667 C6.76383183,12.1666667 6.69575316,12.1605902 6.6295963,12.1489395 C6.65399468,12.2049083 6.66666333,12.2676413 6.66666333,12.3333333 C6.66666333,13.3458424 5.84583904,14.1666667 4.83333,14.1666667 C3.82082096,14.1666667 2.99999667,13.3458424 2.99999667,12.3333333 C2.99999667,12.2748561 3.0100354,12.2187236 3.02848354,12.1665651 L1.5,12.1666667 C1.25454011,12.1666667 1.05039163,11.9897915 1.00805567,11.7565423 L1,11.6666667 L1,9.15383333 C1,9.0421938 1.03732427,8.93461808 1.10475528,8.84759085 L1.16086078,8.78643085 L3.49419078,6.63259751 C3.56346155,6.56865555 3.64888875,6.52604043 3.74030035,6.50872924 L3.83333,6.5 L5.666,6.5 L5.666,6.167 Z M5.69515021,12.1665651 L3.97150979,12.1665651 C3.98027835,12.1913565 3.98714707,12.2170457 3.991941,12.2434577 L3.99999667,12.3333333 C3.99999667,12.7935576 4.37310571,13.1666667 4.83333,13.1666667 C5.29355429,13.1666667 5.66666333,12.7935576 5.66666333,12.3333333 C5.66666333,12.2748561 5.67670207,12.2187236 5.69515021,12.1665651 Z M14.1666633,2.5 C14.7680474,2.5 15.2631442,2.95500921 15.3264843,3.53954505 L15.33333,3.66666667 L15.33333,11 C15.33333,11.544352 14.9605381,12.0016176 14.4563234,12.1304276 L13.493,11.166 L14.1666633,11.1666667 C14.2403094,11.1666667 14.3027884,11.1189169 14.3248342,11.0526835 L14.33333,11 L14.33333,3.66666667 C14.33333,3.57461443 14.2587163,3.5 14.1666633,3.5 L6.83333,3.5 C6.75968759,3.5 6.69720637,3.54775323 6.67515958,3.61398527 L6.66666333,3.66666667 L6.666,4.339 L5.70290254,3.37700915 C5.82154829,2.91258599 6.21885719,2.55965507 6.70620744,2.50684581 L6.83333,2.5 L14.1666633,2.5 Z M5.666,7.5 L4.028,7.5 L2,9.372 L2,11.166 L5.666,11.166 L5.666,7.5 Z" id="形状结合" fill="#4885FF" fill-rule="nonzero"></path>
                    <line x1="4.05933937" y1="3.9679474" x2="14.7467474" y2="13.0111388" id="直线备份-7" stroke="#4885FF" stroke-linecap="round" transform="translate(9.403043, 8.489543) rotate(4.763642) translate(-9.403043, -8.489543) "></line>
                </g>
            </g>
        </g>
    </g>
</svg>