<?xml version="1.0" encoding="UTF-8"?>
<svg width="16px" height="16px" viewBox="0 0 16 16" version="1.1" xmlns="http://www.w3.org/2000/svg" xmlns:xlink="http://www.w3.org/1999/xlink">
    <title>收起</title>
    <g id="运单3.0" stroke="none" stroke-width="1" fill="none" fill-rule="evenodd">
        <g id="收起" transform="translate(8.000000, 8.000000) rotate(-90.000000) translate(-8.000000, -8.000000) translate(-0.000000, -0.000000)" fill-rule="nonzero">
            <rect id="矩形" fill="#000000" opacity="0" x="0" y="0" width="16" height="16"></rect>
            <path d="M8,0.666666672 C3.93333333,0.666666672 0.666666672,3.93333333 0.666666672,8 C0.666666672,12.0666667 3.93333334,15.3333333 8,15.3333333 C12.0666667,15.3333333 15.3333333,12.0666667 15.3333333,8 C15.3333333,3.93333334 12.0666667,0.666666672 8,0.666666672 Z M8,14.3333333 C4.53333333,14.3333333 1.66666667,11.5333333 1.66666667,8 C1.66666667,4.53333333 4.46666667,1.66666667 8,1.66666667 C11.5333333,1.66666667 14.3333333,4.46666667 14.3333333,8 C14.3333333,11.4666667 11.4666667,14.3333333 8,14.3333333 Z M8,8.6 L5.4,6 L4.66666667,6.66666667 L8,10 L11.3333333,6.66666667 L10.6,6 L8,8.6 Z" id="形状" fill="#13295C"></path>
        </g>
    </g>
</svg>