<?xml version="1.0" encoding="UTF-8"?>
<svg width="30px" height="30px" viewBox="0 0 30 30" version="1.1" xmlns="http://www.w3.org/2000/svg" xmlns:xlink="http://www.w3.org/1999/xlink">
    <title>客服</title>
    <g id="登陆页" stroke="none" stroke-width="1" fill="none" fill-rule="evenodd">
        <g id="画板" transform="translate(-1028.000000, -30.000000)" fill-rule="nonzero">
            <g id="编组-7" transform="translate(48.000000, 21.000000)">
                <g id="编组-6" transform="translate(0.000000, 0.000000)">
                    <g id="客服" transform="translate(980.000000, 9.000000)">
                        <rect id="矩形" fill="#000000" opacity="0" x="0" y="0" width="30" height="30"></rect>
                        <path d="M27.3578339,16.7043274 L27.3578339,15.8473673 C27.4217862,11.9462801 26.2770409,8.65913449 24.0195265,6.32487741 C22.9244615,5.19705244 21.5948528,4.32374619 20.1248346,3.76678746 C19.8882113,1.68833936 17.6243017,0 14.8679597,0 C12.1116177,0 9.8349177,1.66275847 9.61108482,3.77318268 C8.14297406,4.33022149 6.81546883,5.2035802 5.72278811,6.33127266 C3.48445939,8.65913452 2.30773802,11.9270944 2.37808547,15.8345769 L2.37808547,16.8769985 C1.64406125,17.5905384 1.37444485,18.6566363 1.68100597,19.6333404 C1.92625063,20.5239945 2.58944346,21.2396702 3.45887848,21.5519079 C3.89749389,21.8338241 4.40838293,21.9826483 4.92978021,21.980388 C5.91524386,26.7221619 10.1544932,30.0780098 14.9958642,29.9488382 C19.8324693,30.0717287 24.0645366,26.7173039 25.0491577,21.980388 L25.1514813,21.980388 C25.7992794,21.9738707 26.4258388,21.7484896 26.9293539,21.3408655 C27.5907944,20.9614669 28.0723126,20.3324982 28.2659559,19.5949691 C28.573417,18.5287606 28.216277,17.3818884 27.3578339,16.6787465 L27.3578339,16.7043274 Z M24.3776591,19.2624174 C24.3788851,19.8790894 24.3318431,20.4949115 24.2369642,21.1042422 C22.5304442,23.8392602 19.6394628,25.6150473 16.4283946,25.9006608 C16.0831835,25.5117184 15.5790276,25.3020461 15.0598165,25.3314858 C14.2028563,25.3314858 13.512172,25.7983372 13.512172,26.3803027 C13.512172,26.9622682 14.1964611,27.4291196 15.0598165,27.4291196 C15.7032184,27.4967778 16.3172476,27.143324 16.58188,26.5529738 C17.6575651,26.4319859 18.7117875,26.1652031 19.7155402,25.7599659 C21.1015069,25.2047628 22.3561935,24.3661268 23.3991897,23.2978043 C23.5718608,23.1251332 23.7253462,22.9524621 23.8788316,22.7670006 C22.6445532,26.5529738 19.3382219,28.9831592 15.0406308,28.9831592 L14.9958642,28.9831592 C9.45759943,28.9831592 5.60767406,24.9925389 5.60767406,19.2879983 L5.60767406,18.7444042 C5.60767406,18.5013856 5.64604541,17.8490727 5.67802151,17.2351311 C7.97390725,16.3973566 10.0459601,13.193349 10.8837346,11.716052 C12.2180551,13.5451456 14.0332926,14.9685575 16.127819,15.8281816 C17.1180235,16.1733827 18.1336935,16.4406643 19.1655508,16.6275847 C21.1736515,17.0560648 23.0730333,17.4653592 24.3584735,19.1473034 L24.4096353,19.1920699 L24.3776591,19.2624174 Z" id="形状" fill="#4885FF"></path>
                    </g>
                </g>
            </g>
        </g>
    </g>
</svg>