<?xml version="1.0" encoding="UTF-8"?>
<svg width="16px" height="16px" viewBox="0 0 16 16" version="1.1" xmlns="http://www.w3.org/2000/svg" xmlns:xlink="http://www.w3.org/1999/xlink">
    <title>向左展开</title>
    <g id="组件规范" stroke="none" stroke-width="1" fill="none" fill-rule="evenodd">
        <g id="挑单页" transform="translate(-377.000000, -613.000000)">
            <g id="向左展开" transform="translate(385.000000, 621.000000) scale(-1, 1) translate(-385.000000, -621.000000) translate(377.000000, 613.000000)">
                <rect id="矩形备份" opacity="0.5" x="0" y="0" width="16" height="16" rx="2"></rect>
                <path d="M11.2948542,9.53922573 L13.4138436,8.02625893 C13.5486853,7.92998139 13.5799478,7.74262219 13.4836703,7.60778045 C13.4644116,7.58080762 13.4408164,7.55721248 13.4138436,7.53795377 L11.2948542,6.02498696 C11.1600124,5.92870943 10.9726532,5.95997189 10.8763757,6.09481364 C10.8400533,6.14568509 10.8205283,6.20663176 10.8205283,6.26913954 L10.8205283,9.29507316 C10.8205283,9.46075858 10.9548429,9.59507316 11.1205283,9.59507316 C11.1830361,9.59507316 11.2439827,9.57554815 11.2948542,9.53922573 Z M13.2926341,11.6321072 L2.663158,11.6321072 C2.4084211,11.6321072 2.2,11.8405283 2.2,12.0952652 C2.2,12.3500021 2.4084211,12.5584232 2.663158,12.5584232 L13.2926341,12.5584232 C13.547371,12.5584232 13.7557921,12.3500021 13.7557921,12.0952652 C13.7557921,11.8405283 13.547371,11.6321072 13.2926341,11.6321072 Z M2.65736853,3.926316 L13.2926341,3.926316 C13.547371,3.926316 13.7557921,3.7178949 13.7557921,3.463158 C13.7557921,3.2084211 13.547371,3 13.2926341,3 L2.663158,3 C2.4084211,3 2.2,3.2084211 2.2,3.463158 C2.2,3.7178949 2.40263163,3.926316 2.65736853,3.926316 L2.65736853,3.926316 Z M2.65736853,6.80368507 L9.57000168,6.80368507 C9.82473858,6.80368507 10.0331597,6.59526397 10.0331597,6.34052707 C10.0331597,6.08579017 9.82473858,5.87736907 9.57000168,5.87736907 L2.663158,5.87736907 C2.4084211,5.87736907 2.2,6.08579017 2.2,6.34052707 C2.2,6.59526397 2.40263163,6.80368507 2.65736853,6.80368507 Z M2.65736853,9.68105415 L9.57000168,9.68105415 C9.82473858,9.68105415 10.0331597,9.47263305 10.0331597,9.21789615 C10.0331597,8.96315925 9.82473858,8.75473815 9.57000168,8.75473815 L2.663158,8.75473815 C2.4084211,8.75473815 2.2,8.96315925 2.2,9.21789615 C2.2,9.47263305 2.40263163,9.68105415 2.65736853,9.68105415 L2.65736853,9.68105415 Z" id="形状" fill="#525866" fill-rule="nonzero"></path>
            </g>
        </g>
    </g>
</svg>