<?xml version="1.0" encoding="UTF-8"?>
<svg width="20px" height="20px" viewBox="0 0 20 20" version="1.1" xmlns="http://www.w3.org/2000/svg" xmlns:xlink="http://www.w3.org/1999/xlink">
    <title>DownCircleOutline</title>
    <g id="组件规范" stroke="none" stroke-width="1" fill="none" fill-rule="evenodd">
        <g id="画板备份-2" transform="translate(-1062.000000, -6384.000000)" fill="#B0B9CF" fill-rule="nonzero">
            <g id="编组-88" transform="translate(822.000000, 6128.000000)">
                <g id="矩形-2备份" transform="translate(0.000000, 55.000000)">
                    <g id="编组-44" transform="translate(240.396815, 162.396833)">
                        <g id="DownCircleOutline" transform="translate(9.603179, 48.603179) rotate(-270.000000) translate(-9.603179, -48.603179) translate(0.000000, 39.000000)">
                            <path d="M9.60317896,0 C14.9067566,0 19.2063579,4.29960136 19.2063579,9.60317896 C19.2063579,14.9067566 14.9067566,19.2063579 9.60317896,19.2063579 C4.29960136,19.2063579 0,14.9067566 0,9.60317896 C0,4.29960136 4.29960136,0 9.60317896,0 Z M9.60317896,1.30952533 C5.02288903,1.30952533 1.30952533,5.02290949 1.30952533,9.60317896 C1.30952533,14.1834689 5.02290949,17.8968326 9.60317896,17.8968326 C14.1834689,17.8968326 17.8968326,14.1834484 17.8968326,9.60317896 C17.8968326,5.02288903 14.1834484,1.30952533 9.60317896,1.30952533 Z M6.40357888,7.21853333 L9.87120196,10.3875846 L13.2393011,7.30932026 L13.2393011,7.30932026 C13.3104495,7.24422949 13.420893,7.24914 13.485983,7.32028842 C13.515417,7.35246161 13.5317613,7.39448428 13.5317613,7.43809025 L13.5317613,8.73713938 L13.5317613,8.73713875 C13.5318682,8.78627357 13.5112678,8.83317934 13.4750153,8.86634552 L10.3365127,11.734206 L10.2788936,11.7809125 L10.2788936,11.7809125 C10.1824201,11.8509741 10.0685859,11.8932468 9.94976694,11.9031348 L9.87992565,11.9053173 L9.8711955,11.9053173 L9.87119551,11.9053173 C9.72232601,11.9109525 9.57600394,11.8655159 9.4565118,11.7765474 L9.40587676,11.7342061 L6.16785029,8.77555873 L6.16785028,8.77555871 C6.1315975,8.74239273 6.11099703,8.69548697 6.11110383,8.64635215 L6.11110383,7.34730302 L6.11110383,7.34729816 C6.11110383,7.25086737 6.18933714,7.17275499 6.28576792,7.17275499 C6.32937389,7.17275499 6.37139615,7.18910126 6.40356852,7.21853621 L6.40357888,7.21853333 Z" id="形状"></path>
                        </g>
                    </g>
                </g>
            </g>
        </g>
    </g>
</svg>