<?xml version="1.0" encoding="UTF-8"?>
<svg width="10px" height="7px" viewBox="0 0 10 7" version="1.1" xmlns="http://www.w3.org/2000/svg" xmlns:xlink="http://www.w3.org/1999/xlink">
    <title>形状结合</title>
    <g id="组件规范" stroke="none" stroke-width="1" fill="none" fill-rule="evenodd">
        <g id="画板备份-2" transform="translate(-738.000000, -6311.000000)" fill="#999999">
            <g id="编组-88备份" transform="translate(265.000000, 6128.000000)">
                <g id="矩形-2备份" transform="translate(0.000000, 55.000000)">
                    <g id="编组-45" transform="translate(270.000000, -62.000000)">
                        <g transform="translate(203.000000, 190.000000)">
                            <path d="M9.5,6 C9.77614237,6 10,6.22385763 10,6.5 C10,6.77614237 9.77614237,7 9.5,7 L0.5,7 C0.223857625,7 3.38176876e-17,6.77614237 0,6.5 C-3.38176876e-17,6.22385763 0.223857625,6 0.5,6 L9.5,6 Z M9.5,3 C9.77614237,3 10,3.22385763 10,3.5 C10,3.77614237 9.77614237,4 9.5,4 L0.5,4 C0.223857625,4 3.38176876e-17,3.77614237 0,3.5 C-3.38176876e-17,3.22385763 0.223857625,3 0.5,3 L9.5,3 Z M9.5,0 C9.77614237,-5.07265313e-17 10,0.223857625 10,0.5 C10,0.776142375 9.77614237,1 9.5,1 L0.5,1 C0.223857625,1 3.38176876e-17,0.776142375 0,0.5 C-3.38176876e-17,0.223857625 0.223857625,5.07265313e-17 0.5,0 L9.5,0 Z" id="形状结合"></path>
                        </g>
                    </g>
                </g>
            </g>
        </g>
    </g>
</svg>