<?xml version="1.0" encoding="UTF-8"?>
<svg width="15px" height="14px" viewBox="0 0 15 14" version="1.1" xmlns="http://www.w3.org/2000/svg" xmlns:xlink="http://www.w3.org/1999/xlink">
    <title>RightCircleOutline</title>
    <g id="组件规范" stroke="none" stroke-width="1" fill="none" fill-rule="evenodd">
        <g id="RightCircleOutline" transform="translate(7.722217, 7.000000) scale(-1, 1) rotate(-270.000000) translate(-7.722217, -7.000000) translate(0.722217, 0.000000)" fill="#D3DCE5" fill-rule="nonzero">
            <path d="M7.00000853,0.277778966 C10.7125129,0.277778966 13.7222338,3.28749992 13.7222338,7.00000424 C13.7222338,10.7125086 10.7125129,13.7222295 7.00000853,13.7222295 C3.28750421,13.7222295 0.277783263,10.7125086 0.277783263,7.00000424 C0.277783263,3.28749992 3.28750421,0.277778966 7.00000853,0.277778966 Z M7.00000853,1.1944467 C3.79380558,1.1944467 1.194451,3.79381561 1.194451,7.00000424 C1.194451,10.2062072 3.79381991,12.8055618 7.00000853,12.8055618 C10.2062115,12.8055618 12.8055661,10.2061929 12.8055661,7.00000424 C12.8055661,3.79380129 10.2061972,1.1944467 7.00000853,1.1944467 Z M4.76028848,5.33075229 L7.18762464,7.54908821 L9.54529405,5.39430315 L9.54529405,5.39430315 C9.59509789,5.34873961 9.67240836,5.35217697 9.71797133,5.40198086 C9.73857516,5.4245021 9.75001618,5.45391796 9.75001618,5.48444214 L9.75001618,6.39377653 L9.75001618,6.39377609 C9.75009099,6.42817047 9.73567075,6.4610045 9.71029395,6.48422083 L7.51334218,8.49172317 L7.4730088,8.5244177 L7.4730088,8.5244177 C7.40547731,8.57346085 7.32579339,8.60305175 7.24262012,8.6099733 L7.19373122,8.61150109 L7.18762011,8.61150109 L7.18762012,8.61150109 C7.08341147,8.61544571 6.98098602,8.58364012 6.89734153,8.52136214 L6.86189699,8.49172327 L4.59527847,6.42067008 L4.59527846,6.42067007 C4.56990152,6.39745388 4.55548119,6.36461984 4.55555595,6.33022547 L4.55555595,5.42089108 L4.55555595,5.42088768 C4.55555595,5.35338613 4.61031926,5.29870746 4.67782081,5.29870746 C4.70834498,5.29870746 4.73776057,5.31014985 4.76028123,5.33075432 L4.76028848,5.33075229 Z" id="形状"></path>
        </g>
    </g>
</svg>