<?xml version="1.0" encoding="UTF-8"?>
<svg width="16px" height="17px" viewBox="0 0 16 17" version="1.1" xmlns="http://www.w3.org/2000/svg" xmlns:xlink="http://www.w3.org/1999/xlink">
    <title>切片</title>
    <g id="任务管理" stroke="none" stroke-width="1" fill="none" fill-rule="evenodd">
        <g id="画板" transform="translate(-81.000000, -46.000000)">
            <g id="按钮/图标/2字" transform="translate(75.000000, 39.500000)">
                <g id="icon/*16/默认" transform="translate(6.000000, 7.000000)">
                    <rect id="矩形" x="0" y="0" width="16" height="16"></rect>
                    <g id="编组" transform="translate(1.500000, 3.000000)" stroke="#4885FF" stroke-linejoin="round">
                        <path d="M12.6666633,0 L5.33333,0 C4.96513,0 4.66666333,0.298476667 4.66666333,0.666666667 L4.66666333,8 C4.66666333,8.3682 4.96513,8.66666667 5.33333,8.66666667 L12.6666633,8.66666667 C13.0348633,8.66666667 13.33333,8.3682 13.33333,8 L13.33333,0.666666667 C13.33333,0.298476667 13.0348633,0 12.6666633,0 Z" id="路径"></path>
                        <polygon id="路径" points="0 8.66666667 4.66666333 8.66666667 4.66666333 4 2.33333 4 0 6.15383333"></polygon>
                        <path d="M4.66666333,9.33333333 C4.66666333,10.0697 4.06969667,10.6666667 3.33333,10.6666667 C2.59696333,10.6666667 1.99999667,10.0697 1.99999667,9.33333333" id="路径" stroke-linecap="round"></path>
                        <path d="M11.9999967,9.33333333 C11.9999967,10.0697 11.40303,10.6666667 10.6666633,10.6666667 C9.93029667,10.6666667 9.33333,10.0697 9.33333,9.33333333" id="路径" stroke-linecap="round"></path>
                    </g>
                </g>
            </g>
        </g>
    </g>
</svg>