<?xml version="1.0" encoding="UTF-8"?>
<svg width="87px" height="60px" viewBox="0 0 87 60" version="1.1" xmlns="http://www.w3.org/2000/svg" xmlns:xlink="http://www.w3.org/1999/xlink">
    <title>回单已返</title>
    <defs>
        <polygon id="path-1" points="8.15034315e-14 0 86.8085106 0 86.8085106 60 8.15034315e-14 60"></polygon>
        <path d="M12.7984821,46.3353491 L12.7984821,45.7797307 L22.8948622,45.7797307 L22.8948622,46.3353491 L24.3553449,46.3353491 L24.3553449,32.873509 L11.3379995,32.873509 L11.3379995,46.3353491 L12.7984821,46.3353491 Z M22.8948622,44.4462465 L12.7984821,44.4462465 L12.7984821,34.2069931 L22.8948622,34.2069931 L22.8948622,44.4462465 Z M21.0375093,42.2237729 L21.0375093,36.3500927 L14.6875847,36.3500927 L14.6875847,42.2237729 L21.0375093,42.2237729 Z M19.6087763,40.9696628 L16.0845681,40.9696628 L16.0845681,37.6200776 L19.6087763,37.6200776 L19.6087763,40.9696628 Z M33.0124087,46.7004698 L33.0124087,43.8588785 L39.3623333,43.8588785 L39.3623333,42.4301455 L33.0124087,42.4301455 L33.0124087,41.1760354 L37.9177255,41.1760354 L37.9177255,34.3657413 L35.0285098,34.3657413 C35.4730045,33.7624984 35.8698748,33.0957563 36.2191207,32.365515 L34.758638,31.8416462 C34.3935173,32.7306357 33.9648974,33.5720007 33.4569035,34.3657413 L30.2501915,34.3657413 L31.2026802,33.8894969 C30.7264359,33.1592556 30.2184419,32.5083883 29.6786983,31.9210203 L28.4245882,32.5242631 C28.9167074,33.0640067 29.3770769,33.6831244 29.8215716,34.3657413 L26.6148597,34.3657413 L26.6148597,41.1760354 L31.5201765,41.1760354 L31.5201765,42.4301455 L25.1702519,42.4301455 L25.1702519,43.8588785 L31.5201765,43.8588785 L31.5201765,46.7004698 L33.0124087,46.7004698 Z M31.5201765,37.1120836 L28.0753424,37.1120836 L28.0753424,35.6833506 L31.5201765,35.6833506 L31.5201765,37.1120836 Z M36.4572428,37.1120836 L33.0124087,37.1120836 L33.0124087,35.6833506 L36.4572428,35.6833506 L36.4572428,37.1120836 Z M36.4572428,39.8425512 L33.0124087,39.8425512 L33.0124087,38.3820686 L36.4572428,38.3820686 L36.4572428,39.8425512 Z M31.5201765,39.8425512 L28.0753424,39.8425512 L28.0753424,38.3820686 L31.5201765,38.3820686 L31.5201765,39.8425512 Z M51.5594801,46.1289766 C52.2103474,46.0972269 52.7183414,45.9067292 53.0993368,45.5574833 C53.4327079,45.1923627 53.7025797,44.0017518 53.8930774,42.0015256 L52.4167199,41.5252812 C52.3214711,43.1921364 52.162723,44.1446251 51.908726,44.3827473 C51.6864786,44.573245 51.4166068,44.6684939 51.1308602,44.6684939 L43.2093293,44.6684939 C42.6060865,44.6684939 42.304465,44.3668725 42.304465,43.7636296 L42.304465,39.3980565 L52.1468482,39.3980565 L52.1468482,32.7306357 L40.1296159,32.7306357 L40.1296159,34.1752435 L50.6069914,34.1752435 L50.6069914,37.9534486 L42.304465,37.9534486 L42.304465,35.7785995 L40.7804831,35.7785995 L40.7804831,44.0335014 C40.7804831,45.4304848 41.4472252,46.1289766 42.7965842,46.1289766 L51.5594801,46.1289766 Z M61.3595304,44.493871 C62.7088894,43.73188 63.8677506,42.811141 64.8361141,41.7475286 C65.6933539,42.557144 66.4712197,43.398509 67.1697114,44.2874984 L68.1856993,43.0810128 C67.4395832,42.2237729 66.6299678,41.3982827 65.7409784,40.6045422 C66.5029693,39.4774305 67.1062122,38.2074456 67.5189573,36.7787126 L67.5189573,35.7151002 L60.9467853,35.7151002 L60.9309105,34.2387428 C63.4232559,34.1593687 65.6774791,33.8736221 67.709455,33.3656281 L66.9633389,32.0797684 C64.931363,32.5718876 62.4548924,32.8576342 59.5339271,32.9211334 L59.5339271,36.5882149 C59.4863027,39.4456809 58.9941835,41.6681545 58.0416948,43.2556357 L59.4069286,43.9223778 C60.3276677,42.3666462 60.8356616,40.0489238 60.9309105,36.9850851 L66.0425998,36.9850851 C65.6933539,37.9375738 65.2171096,38.8265633 64.6456164,39.6520535 C63.8201262,38.9853114 62.9628864,38.3344441 62.0421473,37.6994517 L61.1690327,38.763064 C62.0738969,39.3980565 62.9311367,40.0647986 63.7407521,40.7632903 C62.8358879,41.7475286 61.7405259,42.5888936 60.4387913,43.2873853 L61.3595304,44.493871 Z M56.930458,35.6992254 L58.0099452,34.6356131 C57.2797039,33.8101229 56.3907144,32.9687578 55.3429769,32.1432677 L54.2952393,33.127506 C55.4382257,34.048245 56.3113404,34.9054848 56.930458,35.6992254 Z M55.1842287,46.7004698 C55.9938441,45.2717367 56.5653373,44.5573702 56.8987084,44.5573702 C57.0892061,44.5573702 57.2797039,44.6843687 57.4860764,44.9542405 C57.9623208,45.4939841 58.5020643,45.8591048 59.1370568,46.0496025 C59.7879241,46.2083506 60.6134143,46.3035995 61.6294022,46.3194743 C62.6295153,46.3353491 63.5502544,46.3512239 64.4074942,46.3512239 L68.0904505,46.3512239 L68.4238215,44.9224909 C67.9952016,44.9542405 67.3760839,44.9701153 66.5823434,45.0018649 C65.7886028,45.0177397 64.9948622,45.0336146 64.2169965,45.0336146 C63.0105108,45.0336146 61.9468984,45.0177397 61.057909,45.0018649 C60.1371699,44.9701153 59.4386782,44.827242 58.9783087,44.5891198 C58.5973132,44.3827473 58.2321925,44.0652511 57.8511971,43.6207563 C57.7876978,43.5413823 57.7083238,43.4620082 57.6448245,43.398509 L57.6448245,37.3660806 L54.0888668,37.3660806 L54.0888668,38.763064 L56.2319663,38.763064 L56.2319663,43.2556357 C55.5969738,43.5731319 54.8667325,44.3827473 54.0729919,45.668607 L55.1842287,46.7004698 Z" id="path-3"></path>
    </defs>
    <g id="运单3.0" stroke="none" stroke-width="1" fill="none" fill-rule="evenodd">
        <g id="回单已返">
            <mask id="mask-2" fill="white">
                <use xlink:href="#path-1"></use>
            </mask>
            <g id="蒙版"></g>
            <g id="编组-4" mask="url(#mask-2)" fill-rule="nonzero">
                <g transform="translate(43.911907, 19.230769) rotate(-5.000000) translate(-43.911907, -19.230769) translate(3.553565, -21.538462)">
                    <polygon id="路径" fill="#68C12A" points="17.8117574 25.9705899 19.2224465 27.1794872 19.9441427 25.5429785 21.8290407 24.7541811 20.2008211 23.7485634 19.9540947 22.0512821 18.2264613 23.0664558 16.1899844 22.8063993 16.7496025 24.4397528 15.7372154 25.9761586"></polygon>
                    <polygon id="路径" fill="#68C12A" points="53.9025637 63.0769231 52.544428 64.188859 50.7652109 64.0562463 51.4461034 65.6406495 50.7652109 67.225613 52.544428 67.0929994 53.9025637 68.2051282 54.3211143 66.5382025 55.841732 65.640644 54.3211143 64.7437431"></polygon>
                    <polygon id="路径" fill="#68C12A" points="41.7427449 65.9956769 39.8030607 66.4827622 37.9777646 65.6410256 37.9861811 67.3908547 36.5509518 68.5917206 38.4954866 69.1859152 39.4341419 70.7692308 40.6279941 69.3863324 42.6427772 69.1654492 41.4354384 67.7157109"></polygon>
                    <polygon id="路径" fill="#68C12A" points="28.7070823 64.3327319 27.4485059 63.0769231 26.930273 64.6990501 25.3826054 65.4362115 26.8148987 66.4939698 27.1168334 68.2051282 28.5199508 67.2364103 30.2549286 67.5570968 29.6900784 65.9006379 30.4591265 64.3874395"></polygon>
                    <path d="M40.3584422,-2.91504712e-13 C18.1046752,-2.91504712e-13 0,18.2889988 0,40.7692308 C0,63.2495632 18.1047747,81.5384615 40.3584422,81.5384615 C62.6122091,81.5384615 80.7166853,63.2494627 80.7166853,40.7692308 C80.7166853,18.2888983 62.6120101,-2.91504712e-13 40.3584422,-2.91504712e-13 Z M40.3584422,78.8318916 C19.5822363,78.8318916 2.67939163,61.7570596 2.67939163,40.7693313 C2.67939163,19.7816029 19.5822363,2.70677102 40.3584422,2.70677102 C61.1346481,2.70677102 78.0372937,19.7816029 78.0372937,40.7693313 C78.0372937,61.7570596 61.1346481,78.8318916 40.3584422,78.8318916 Z" id="形状" fill="#68C12A"></path>
                    <path d="M39.8506906,6.15384615 C21.2360624,6.15384615 6.09182531,21.4522667 6.09182531,40.2564103 C6.09182531,59.0605538 21.2359632,74.3589744 39.8506906,74.3589744 C58.4654179,74.3589744 73.6095558,59.0605538 73.6095558,40.2564103 C73.6095558,21.4522667 58.4653187,6.15384615 39.8506906,6.15384615 Z M39.8506906,72.8162276 C22.0781754,72.8162276 7.61902365,58.2099675 7.61902365,40.2564103 C7.61902365,22.302853 22.0780762,7.69659289 39.8506906,7.69659289 C57.6233049,7.69659289 72.0823575,22.302853 72.0823575,40.2564103 C72.0823575,46.9327054 70.081684,53.1453544 66.6558603,58.3168548 L66.0222526,56.5773693 L66.8337134,54.8203366 L64.9280109,54.9624465 L63.5386039,53.7243988 L63.0016923,55.5734689 L61.3305188,56.5652627 L62.9046865,57.5652646 L63.2614083,59.4163903 L64.7707698,58.1856221 L66.6433596,58.3360434 C60.8549543,67.0608748 51.0061032,72.8162276 39.8506866,72.8162276 L39.8506906,72.8162276 Z" id="形状" fill="#68C12A"></path>
                    <path d="M52.7958193,24.4252882 C49.0482402,21.2408919 44.3104023,19.4871795 39.4548428,19.4871795 C29.3642968,19.4871795 20.6706839,26.9261102 18.783128,37.1752625 L20.1028505,37.4358974 C21.8696016,27.8416775 30.0083029,20.8782018 39.4548627,20.8782018 C44.0004328,20.8782018 48.4355354,22.5197227 51.9438429,25.5005873 L52.7958193,24.4252727 L52.7958193,24.4252882 Z" id="路径" fill="#68C12A"></path>
                    <path d="M40.246705,60.1473284 C35.7011393,60.1473284 31.2658414,58.5057033 27.7575374,55.5249695 L26.9055618,56.6002779 C30.6530704,59.7846559 35.3911133,61.5384615 40.2466581,61.5384615 C50.3369948,61.5384615 59.0306991,54.0994703 60.9182531,43.850377 L59.5985318,43.5897436 C57.8316827,53.183805 49.6929893,60.1473439 40.2466382,60.1473439 L40.246705,60.1473284 Z" id="路径" fill="#68C12A"></path>
                    <g id="回单已返" fill="none" transform="translate(39.880910, 39.271058) rotate(-18.000000) translate(-39.880910, -39.271058) ">
                        <use fill="#525866" xlink:href="#path-3"></use>
                        <use fill="#68C12A" xlink:href="#path-3"></use>
                    </g>
                </g>
            </g>
        </g>
    </g>
</svg>