<?xml version="1.0" encoding="UTF-8"?>
<svg width="12px" height="12px" viewBox="0 0 12 12" version="1.1" xmlns="http://www.w3.org/2000/svg" xmlns:xlink="http://www.w3.org/1999/xlink">
    <title>编组 15备份 10</title>
    <g id="财务管理" stroke="none" stroke-width="1" fill="none" fill-rule="evenodd">
        <g id="收款管理/客户收款" transform="translate(-1402.000000, -183.000000)">
            <g id="编组-21" transform="translate(1121.000000, 173.000000)">
                <g id="编组-15备份-10" transform="translate(281.000000, 10.000000)">
                    <g id="设-置" transform="translate(0.091429, 0.249824)" fill="#525866">
                        <path d="M4.25103843,10.8862437 L2.3049692,9.6932211 C2.15160741,9.59893528 1.95360718,9.64293533 1.86246422,9.79064979 C1.77194737,9.93836424 1.82285926,10.1351 1.97623333,10.2287597 L3.92229028,11.4217945 C4.07566434,11.5160804 4.27365229,11.4720803 4.36480753,11.3243659 C4.4559505,11.1766514 4.40503861,10.9805295 4.25103843,10.8862437 Z M9.95469239,9.79064979 C9.86418782,9.64293533 9.66618759,9.59893528 9.51218741,9.6932211 L7.56611818,10.8862437 C7.41275639,10.9805295 7.36183223,11.1766514 7.45234907,11.3243659 C7.54286592,11.4720803 7.74086615,11.5160804 7.89486633,11.4217945 L9.84092328,10.2287597 C9.99429734,10.1344738 10.0452092,9.93836424 9.95469239,9.79064979 Z M4.3572573,0.240109654 C4.26675273,0.0923951968 4.07000474,0.0490212624 3.91725679,0.14268097 L1.97936391,1.3325607 C1.82664052,1.42623269 1.77571635,1.62234229 1.8662332,1.76941835 C1.95675004,1.91713281 2.15348576,1.96050675 2.30623371,1.86684704 L4.2434882,0.677593422 C4.39686226,0.583307598 4.44777415,0.387824112 4.3572573,0.240109654 Z M9.77807834,1.27159411 L7.83137072,0.0779454032 C7.67799666,-0.0163404208 7.47999643,0.0276596304 7.38885346,0.175374088 C7.29833662,0.323088546 7.34924851,0.519836542 7.50262257,0.61349625 L9.44867952,1.80651884 C9.60205358,1.90080467 9.80005381,1.85680462 9.89119678,1.70909016 C9.98233974,1.5613757 9.93142785,1.36589221 9.77805379,1.27160639 L9.77807834,1.27159411 Z M0.31428608,4.36732428 C0.140802619,4.36732428 0,4.5081269 0,4.68161036 L0,6.94447013 C0,7.1179536 0.140802619,7.25875621 0.31428608,7.25875621 C0.487769541,7.25875621 0.62857216,7.1179536 0.62857216,6.94447013 L0.62857216,4.68161036 C0.62857216,4.5081269 0.487769541,4.36732428 0.31428608,4.36732428 Z M11.4400133,4.24160985 C11.2665299,4.24160985 11.1257272,4.38241247 11.1257272,4.55589593 L11.1257272,6.94447013 C11.1257272,7.1179536 11.2665299,7.25875621 11.4400133,7.25875621 C11.6134968,7.25875621 11.7542994,7.1179536 11.7542994,6.94447013 L11.7542994,4.55589593 C11.7542994,4.38241247 11.6134968,4.24160985 11.4400133,4.24160985 Z M2.45143142,1.72732121 L1.76000205,1.66446399 C1.76000205,1.66446399 3.13468445,3.97635731 0.188571648,4.24160985 L0.62857216,4.80732479 C0.62857216,4.80732479 3.48228977,4.5137865 2.45143142,1.72732121 L2.45143142,1.72732121 Z M1.76000205,1.66446399 L1.76000205,1.66446404 C1.76000205,1.83803957 1.90071259,1.97875012 2.07428813,1.97875012 C2.24786366,1.97875012 2.38857421,1.83803957 2.38857421,1.66446404 L2.38857421,1.66446404 C2.38857421,1.4908885 2.24786366,1.35017796 2.07428813,1.35017796 C1.90071259,1.35017796 1.76000205,1.4908885 1.76000205,1.66446404 L1.76000205,1.66446399 Z M4.4408921e-16,4.55589593 L4.4408921e-16,4.55589597 C4.4408921e-16,4.72947151 0.140710543,4.87018205 0.31428608,4.87018205 C0.487861617,4.87018205 0.62857216,4.72947151 0.62857216,4.55589597 L0.62857216,4.55589597 C0.62857216,4.38232044 0.487861617,4.24160989 0.31428608,4.24160989 C0.140710543,4.24160989 4.4408921e-16,4.38232044 4.4408921e-16,4.55589597 L4.4408921e-16,4.55589593 Z M9.99429734,1.66446399 L9.30286797,1.72732121 C8.27200963,4.5137865 11.1257272,4.80732479 11.1257272,4.80732479 L11.5657277,4.24160985 C8.61961494,3.97635731 9.99429734,1.66446399 9.99429734,1.66446399 L9.99429734,1.66446399 Z M9.36572518,1.66446399 L9.36572518,1.66446404 C9.36572518,1.83803957 9.50643573,1.97875012 9.68001126,1.97875012 C9.8535868,1.97875012 9.99429734,1.83803957 9.99429734,1.66446404 L9.99429734,1.66446404 C9.99429734,1.4908885 9.8535868,1.35017796 9.68001126,1.35017796 C9.50643573,1.35017796 9.36572518,1.4908885 9.36572518,1.66446404 L9.36572518,1.66446399 Z M11.1257272,4.55589593 L11.1257272,4.55589597 C11.1257272,4.72947151 11.2664378,4.87018205 11.4400133,4.87018205 C11.6135888,4.87018205 11.7542994,4.72947151 11.7542994,4.55589597 L11.7542994,4.55589597 C11.7542994,4.38232044 11.6135888,4.24160989 11.4400133,4.24160989 C11.2664378,4.24160989 11.1257272,4.38232044 11.1257272,4.55589597 L11.1257272,4.55589593 Z M0.62857216,6.69304127 L0.188571648,7.25875621 C3.13468445,7.52400876 1.76000205,9.83590207 1.76000205,9.83590207 L2.45143142,9.77304485 C3.48228977,6.98657956 0.62857216,6.69304127 0.62857216,6.69304127 Z M1.76000205,9.89875929 L1.76000205,9.89875933 C1.76000205,10.0723349 1.90071259,10.2130454 2.07428813,10.2130454 C2.24786366,10.2130454 2.38857421,10.0723349 2.38857421,9.89875933 L2.38857421,9.89875933 C2.38857421,9.7251838 2.24786366,9.58447325 2.07428813,9.58447325 C1.90071259,9.58447325 1.76000205,9.7251838 1.76000205,9.89875933 L1.76000205,9.89875929 Z M1.49880108e-15,6.94447013 L1.49880108e-15,6.94447018 C1.49880108e-15,7.11804572 0.140710543,7.25875626 0.31428608,7.25875626 C0.487861617,7.25875626 0.62857216,7.11804572 0.62857216,6.94447018 L0.62857216,6.94447018 C0.62857216,6.77089465 0.487861617,6.6301841 0.31428608,6.6301841 C0.140710543,6.6301841 1.49880108e-15,6.77089465 1.49880108e-15,6.94447018 L1.49880108e-15,6.94447013 Z M11.5657277,7.25875621 L11.1257272,6.69304127 C11.1257272,6.69304127 8.27200963,6.98657956 9.30286797,9.77304485 L9.99429734,9.83590207 C9.99429734,9.83590207 8.61961494,7.52400876 11.5657277,7.25875621 Z M9.36572518,9.83590207 L9.36572518,9.83590212 C9.36572518,10.0094777 9.50643573,10.1501882 9.68001126,10.1501882 C9.8535868,10.1501882 9.99429734,10.0094777 9.99429734,9.83590212 L9.99429734,9.83590212 C9.99429734,9.66232658 9.8535868,9.52161604 9.68001126,9.52161604 C9.50643573,9.52161604 9.36572518,9.66232658 9.36572518,9.83590212 L9.36572518,9.83590207 Z M11.1257272,6.94447013 L11.1257272,6.94447018 C11.1257272,7.11804572 11.2664378,7.25875626 11.4400133,7.25875626 C11.6135888,7.25875626 11.7542994,7.11804572 11.7542994,6.94447018 L11.7542994,6.94447018 C11.7542994,6.77089465 11.6135888,6.6301841 11.4400133,6.6301841 C11.2664378,6.6301841 11.1257272,6.77089465 11.1257272,6.94447018 L11.1257272,6.94447013 Z M4.03982836,10.7379031 L4.30760992,11.3784206 C4.30760992,11.3784206 5.70932584,9.08286771 7.32034892,11.5632233 L7.61515172,10.9101343 C7.6145256,10.9101343 6.02172129,8.52407688 4.03982836,10.7379031 Z M4.43834557,10.9535083 L4.43834557,10.9535083 C4.35704934,10.8001453 4.16688465,10.7416304 4.01343324,10.8227604 L4.01343325,10.8227604 C3.86007023,10.9040566 3.80155532,11.0942213 3.88268533,11.2476727 L3.88268534,11.2476727 C3.96398182,11.4010431 4.15415608,11.4595592 4.30760994,11.3784206 L4.30760995,11.3784206 C4.46097296,11.2971244 4.51948788,11.1069597 4.43835787,10.9535083 L4.43834557,10.9535083 Z M7.81692093,11.0955509 L7.81692093,11.0955509 C7.73562028,10.9421928 7.54545633,10.883684 7.3920086,10.9648152 L7.39200861,10.9648152 C7.23864559,11.0461115 7.18013068,11.2362761 7.26126069,11.3897275 C7.34234895,11.5431016 7.53281122,11.6015637 7.68618529,11.5204755 C7.83955935,11.4393872 7.89800919,11.2489372 7.81693321,11.0955631 L7.81692093,11.0955509 Z M7.32034892,0 C5.70932584,2.48035556 4.30760992,0.18480267 4.30760992,0.18480267 L4.03982836,0.825320157 C6.02172129,3.03852028 7.6145256,0.65308893 7.6145256,0.65308893 L7.32034892,0 Z M4.24475271,0.18480267 L4.24475273,0.18480268 C4.09129886,0.103664572 3.90112509,0.162180589 3.81982812,0.3155506 L3.81982811,0.315550617 C3.73869836,0.469002024 3.79721327,0.6591672 3.95057603,0.740462942 C4.1039501,0.821551206 4.2944001,0.763089085 4.37548836,0.609715022 C4.45657662,0.45634096 4.3981145,0.265890961 4.24474044,0.184814974 L4.24475271,0.18480267 Z M7.46202319,0.625515237 L7.46202319,0.625515237 C7.63023868,0.66831474 7.80130115,0.566644543 7.84410053,0.398428812 C7.88690004,0.230213326 7.78522984,0.0591508501 7.61701411,0.01635147 C7.61672498,0.0162779058 7.61643574,0.0162047536 7.6161464,0.0161320136 L7.61614641,0.016132016 C7.44793093,-0.0266674869 7.27686845,0.0750027095 7.23406907,0.243218441 C7.19126957,0.411433927 7.29293976,0.582496403 7.46115549,0.625295783 C7.46144463,0.625369347 7.46173386,0.625442499 7.4620232,0.62551524 L7.46202319,0.625515237 Z" id="形状" fill-rule="nonzero"></path>
                        <path d="M6.00286413,3.11017996 C7.47811808,3.11017996 8.67429581,4.30635769 8.67429581,5.78161164 C8.67429581,7.25686559 7.47811808,8.45304332 6.00286413,8.45304332 C4.52761018,8.45304332 3.33143245,7.25686559 3.33143245,5.78161164 C3.33143245,4.30635769 4.52761018,3.11017996 6.00286413,3.11017996 Z M6.00286413,3.73875212 C4.87646773,3.73875212 3.96000461,4.65521524 3.96000461,5.78161164 C3.96000461,6.90800804 4.87646773,7.82447116 6.00286413,7.82447116 C7.12926053,7.82447116 8.04572365,6.90800804 8.04572365,5.78161164 C8.04572365,4.65521524 7.12926053,3.73875212 6.00286413,3.73875212 Z" id="形状结合"></path>
                    </g>
                    <rect id="矩形" x="0" y="0" width="12" height="12"></rect>
                </g>
            </g>
        </g>
    </g>
</svg>