<?xml version="1.0" encoding="UTF-8"?>
<svg width="87px" height="60px" viewBox="0 0 87 60" version="1.1" xmlns="http://www.w3.org/2000/svg" xmlns:xlink="http://www.w3.org/1999/xlink">
    <title>已结算</title>
    <defs>
        <polygon id="path-1" points="0 0 87 0 87 60 0 60"></polygon>
    </defs>
    <g id="运单3.0" stroke="none" stroke-width="1" fill="none" fill-rule="evenodd">
        <g id="运单详情3.0" transform="translate(-255.000000, -376.000000)">
            <g id="已结算" transform="translate(255.000000, 376.000000)">
                <mask id="mask-2" fill="white">
                    <use xlink:href="#path-1"></use>
                </mask>
                <g id="蒙版"></g>
                <g id="编组-4" mask="url(#mask-2)" fill="#68C12A" fill-rule="nonzero">
                    <g transform="translate(43.116437, 19.230769) rotate(-5.000000) translate(-43.116437, -19.230769) translate(2.758095, -21.538462)">
                        <polygon id="路径" points="17.8117574 25.9705899 19.2224465 27.1794872 19.9441427 25.5429785 21.8290407 24.7541811 20.2008211 23.7485634 19.9540947 22.0512821 18.2264613 23.0664558 16.1899844 22.8063993 16.7496025 24.4397528 15.7372154 25.9761586"></polygon>
                        <polygon id="路径" points="53.9025637 63.0769231 52.544428 64.188859 50.7652109 64.0562463 51.4461034 65.6406495 50.7652109 67.225613 52.544428 67.0929994 53.9025637 68.2051282 54.3211143 66.5382025 55.841732 65.640644 54.3211143 64.7437431"></polygon>
                        <polygon id="路径" points="41.7427449 65.9956769 39.8030607 66.4827622 37.9777646 65.6410256 37.9861811 67.3908547 36.5509518 68.5917206 38.4954866 69.1859152 39.4341419 70.7692308 40.6279941 69.3863324 42.6427772 69.1654492 41.4354384 67.7157109"></polygon>
                        <polygon id="路径" points="28.7070823 64.3327319 27.4485059 63.0769231 26.930273 64.6990501 25.3826054 65.4362115 26.8148987 66.4939698 27.1168334 68.2051282 28.5199508 67.2364103 30.2549286 67.5570968 29.6900784 65.9006379 30.4591265 64.3874395"></polygon>
                        <path d="M40.3584422,-2.91504712e-13 C18.1046752,-2.91504712e-13 0,18.2889988 0,40.7692308 C0,63.2495632 18.1047747,81.5384615 40.3584422,81.5384615 C62.6122091,81.5384615 80.7166853,63.2494627 80.7166853,40.7692308 C80.7166853,18.2888983 62.6120101,-2.91504712e-13 40.3584422,-2.91504712e-13 Z M40.3584422,78.8318916 C19.5822363,78.8318916 2.67939163,61.7570596 2.67939163,40.7693313 C2.67939163,19.7816029 19.5822363,2.70677102 40.3584422,2.70677102 C61.1346481,2.70677102 78.0372937,19.7816029 78.0372937,40.7693313 C78.0372937,61.7570596 61.1346481,78.8318916 40.3584422,78.8318916 Z" id="形状"></path>
                        <path d="M39.8506906,6.15384615 C21.2360624,6.15384615 6.09182531,21.4522667 6.09182531,40.2564103 C6.09182531,59.0605538 21.2359632,74.3589744 39.8506906,74.3589744 C58.4654179,74.3589744 73.6095558,59.0605538 73.6095558,40.2564103 C73.6095558,21.4522667 58.4653187,6.15384615 39.8506906,6.15384615 Z M39.8506906,72.8162276 C22.0781754,72.8162276 7.61902365,58.2099675 7.61902365,40.2564103 C7.61902365,22.302853 22.0780762,7.69659289 39.8506906,7.69659289 C57.6233049,7.69659289 72.0823575,22.302853 72.0823575,40.2564103 C72.0823575,46.9327054 70.081684,53.1453544 66.6558603,58.3168548 L66.0222526,56.5773693 L66.8337134,54.8203366 L64.9280109,54.9624465 L63.5386039,53.7243988 L63.0016923,55.5734689 L61.3305188,56.5652627 L62.9046865,57.5652646 L63.2614083,59.4163903 L64.7707698,58.1856221 L66.6433596,58.3360434 C60.8549543,67.0608748 51.0061032,72.8162276 39.8506866,72.8162276 L39.8506906,72.8162276 Z" id="形状"></path>
                        <path d="M52.7958193,24.4252882 C49.0482402,21.2408919 44.3104023,19.4871795 39.4548428,19.4871795 C29.3642968,19.4871795 20.6706839,26.9261102 18.783128,37.1752625 L20.1028505,37.4358974 C21.8696016,27.8416775 30.0083029,20.8782018 39.4548627,20.8782018 C44.0004328,20.8782018 48.4355354,22.5197227 51.9438429,25.5005873 L52.7958193,24.4252727 L52.7958193,24.4252882 Z" id="路径"></path>
                        <path d="M40.246705,60.1473284 C35.7011393,60.1473284 31.2658414,58.5057033 27.7575374,55.5249695 L26.9055618,56.6002779 C30.6530704,59.7846559 35.3911133,61.5384615 40.2466581,61.5384615 C50.3369948,61.5384615 59.0306991,54.0994703 60.9182531,43.850377 L59.5985318,43.5897436 C57.8316827,53.183805 49.6929893,60.1473439 40.2466382,60.1473439 L40.246705,60.1473284 Z" id="路径"></path>
                        <path d="M28.527488,47.1021934 C29.1804481,47.0703417 29.6900755,46.8792315 30.072296,46.5288626 C30.406739,46.1625679 30.6774785,44.9681287 30.8685888,42.9614709 L29.3874842,42.4836952 C29.2919291,44.1559101 29.1326705,45.1114614 28.8778568,45.3503493 C28.6548948,45.5414596 28.3841553,45.6370147 28.0974899,45.6370147 L20.1504878,45.6370147 C19.5453053,45.6370147 19.242714,45.3344234 19.242714,44.7292409 L19.242714,40.3496305 L29.1167447,40.3496305 L29.1167447,33.6607711 L17.0608718,33.6607711 L17.0608718,35.110024 L27.5719366,35.110024 L27.5719366,38.9003777 L19.242714,38.9003777 L19.242714,36.7185354 L17.7138319,36.7185354 L17.7138319,44.9999805 C17.7138319,46.4014558 18.3827178,47.1021934 19.7364155,47.1021934 L28.527488,47.1021934 Z M32.9230242,43.7418378 C34.5156098,43.5348017 36.1878247,43.1366553 37.9715205,42.5314728 L37.9715205,41.177775 C36.8885623,41.5599956 35.8056041,41.8625869 34.7385718,42.0855488 C35.6622714,40.9388872 36.7930072,39.1074138 38.1467049,36.6229803 L36.8248589,36.1452046 C36.5063418,36.7344613 36.2196764,37.2918662 35.933011,37.8333453 C35.2959767,37.9289004 34.6748684,38.0085297 34.0696858,38.0722332 C34.8659786,36.8618681 35.6304197,35.3011342 36.3948608,33.3741057 L34.9774596,32.8326266 C34.4041288,34.5844707 33.7033911,36.1770563 32.9070984,37.6103833 C32.7159881,37.8811229 32.508952,38.0722332 32.28599,38.1677883 L32.6522847,39.5533377 C33.5122809,39.4259309 34.3563512,39.3144499 35.152644,39.2029689 C34.3722771,40.5088891 33.719317,41.4166629 33.2096896,41.958142 C33.0185793,42.1333264 32.7956174,42.2766591 32.5248778,42.3881401 L32.9230242,43.7418378 Z M46.316669,39.6966705 L46.316669,38.2314917 L43.115572,38.2314917 L43.115572,36.2248339 L46.7785188,36.2248339 L46.7785188,34.7596551 L43.115572,34.7596551 L43.115572,32.9600334 L41.6026157,32.9600334 L41.6026157,34.7596551 L37.923743,34.7596551 L37.923743,36.2248339 L41.6026157,36.2248339 L41.6026157,38.2314917 L38.4492962,38.2314917 L38.4492962,39.6966705 L46.316669,39.6966705 Z M40.3126213,47.5640433 L40.3126213,46.927009 L44.5170473,46.927009 L44.5170473,47.5640433 L45.982226,47.5640433 L45.982226,40.9388872 L38.8315167,40.9388872 L38.8315167,47.5640433 L40.3126213,47.5640433 Z M44.5170473,45.493682 L40.3126213,45.493682 L40.3126213,42.3722142 L44.5170473,42.3722142 L44.5170473,45.493682 Z M32.6363588,47.0544159 C34.7067201,46.6881212 36.5381935,46.2103455 38.1626308,45.6370147 L38.1626308,44.2036877 C36.5381935,44.7770185 34.6270908,45.2388683 32.4452485,45.5892371 L32.6363588,47.0544159 Z M49.6770246,36.8618681 C50.1388744,36.3522407 50.5529467,35.7789099 50.9192413,35.1737274 L52.0021995,35.1737274 C52.288865,35.5559479 52.5436786,35.9540943 52.7666406,36.3681666 L54.0088574,35.9222426 C53.8655247,35.6833548 53.7062661,35.4285411 53.5151559,35.1737274 L55.2829259,35.1737274 L55.2829259,33.8996589 L51.5881273,33.8996589 C51.6836824,33.6448452 51.7951634,33.3900315 51.9066444,33.1033661 L50.4733174,32.784849 C50.0592451,33.9633623 49.3744333,35.0463205 48.418882,36.0655753 L49.6770246,36.8618681 Z M59.1051313,47.6436725 L59.1051313,45.0955356 L62.5928937,45.0955356 L62.5928937,43.7736896 L59.1051313,43.7736896 L59.1051313,42.945545 L60.9684564,42.945545 L60.9684564,36.4796476 L56.5251426,36.4796476 C56.8755114,36.0655753 57.2099544,35.6037255 57.4966198,35.110024 L58.5477263,35.110024 C58.8343917,35.5240962 59.1051313,35.9381685 59.3440191,36.3840924 L60.57031,35.9381685 C60.4269773,35.6833548 60.2517929,35.3966894 60.0288309,35.110024 L62.4017834,35.110024 L62.4017834,33.8359555 L58.1177282,33.8359555 C58.1973575,33.6129935 58.2769868,33.3741057 58.3725419,33.1352178 L56.923289,32.8167007 C56.588846,33.8518813 56.0314411,34.8233586 55.2510741,35.7311323 L56.4136616,36.4796476 L50.2025778,36.4796476 L50.2025778,42.945545 L52.1933098,42.945545 L52.1933098,43.4392466 L52.1614581,43.7736896 L48.3870303,43.7736896 L48.3870303,45.0955356 L51.6996083,45.0955356 C51.6677566,45.159239 51.619979,45.2229424 51.5562756,45.3025717 C51.1422033,45.7484957 50.3936881,46.1307162 49.294804,46.4333075 L50.075171,47.6277467 C51.3173877,47.2773778 52.2092357,46.7996022 52.7666406,46.1625679 C53.0214543,45.8599767 53.2284904,45.5096078 53.387749,45.0955356 L57.6240267,45.0955356 L57.6240267,47.6436725 L59.1051313,47.6436725 Z M59.4873518,38.3270468 L51.6836824,38.3270468 L51.6836824,37.6263092 L59.4873518,37.6263092 L59.4873518,38.3270468 Z M59.4873518,40.0151876 L51.6836824,40.0151876 L51.6836824,39.3622275 L59.4873518,39.3622275 L59.4873518,40.0151876 Z M59.4873518,41.7988834 L51.6836824,41.7988834 L51.6836824,41.0662941 L59.4873518,41.0662941 L59.4873518,41.7988834 Z M57.6240267,43.7736896 L53.6744144,43.7736896 C53.6744144,43.6622086 53.6903403,43.5507276 53.6903403,43.4392466 L53.6903403,42.945545 L57.6240267,42.945545 L57.6240267,43.7736896 Z" id="已结算" transform="translate(39.826883, 40.214261) rotate(-18.000000) translate(-39.826883, -40.214261) "></path>
                    </g>
                </g>
            </g>
        </g>
    </g>
</svg>