<?xml version="1.0" encoding="UTF-8"?>
<svg width="87px" height="60px" viewBox="0 0 87 60" version="1.1" xmlns="http://www.w3.org/2000/svg" xmlns:xlink="http://www.w3.org/1999/xlink">
    <title>回单已回</title>
    <defs>
        <polygon id="path-1" points="8.15034315e-14 0 86.8085106 0 86.8085106 60 8.15034315e-14 60"></polygon>
        <path d="M14.4203812,48.2668153 L14.4203812,47.7111969 L24.5167613,47.7111969 L24.5167613,48.2668153 L25.977244,48.2668153 L25.977244,34.8049752 L12.9598986,34.8049752 L12.9598986,48.2668153 L14.4203812,48.2668153 Z M24.5167613,46.3777128 L14.4203812,46.3777128 L14.4203812,36.1384594 L24.5167613,36.1384594 L24.5167613,46.3777128 Z M22.6594084,44.1552392 L22.6594084,38.2815589 L16.3094838,38.2815589 L16.3094838,44.1552392 L22.6594084,44.1552392 Z M21.2306754,42.9011291 L17.7064672,42.9011291 L17.7064672,39.5515438 L21.2306754,39.5515438 L21.2306754,42.9011291 Z M34.6343078,48.631936 L34.6343078,45.7903447 L40.9842324,45.7903447 L40.9842324,44.3616117 L34.6343078,44.3616117 L34.6343078,43.1075016 L39.5396246,43.1075016 L39.5396246,36.2972075 L36.6504089,36.2972075 C37.0949036,35.6939647 37.4917739,35.0272226 37.8410198,34.2969812 L36.3805371,33.7731125 C36.0154164,34.6621019 35.5867965,35.5034669 35.0788026,36.2972075 L31.8720906,36.2972075 L32.8245793,35.8209631 C32.348335,35.0907218 31.840341,34.4398546 31.3005974,33.8524865 L30.0464873,34.4557294 C30.5386065,34.995473 30.998976,35.6145906 31.4434707,36.2972075 L28.2367588,36.2972075 L28.2367588,43.1075016 L33.1420756,43.1075016 L33.1420756,44.3616117 L26.792151,44.3616117 L26.792151,45.7903447 L33.1420756,45.7903447 L33.1420756,48.631936 L34.6343078,48.631936 Z M33.1420756,39.0435499 L29.6972415,39.0435499 L29.6972415,37.6148168 L33.1420756,37.6148168 L33.1420756,39.0435499 Z M38.0791419,39.0435499 L34.6343078,39.0435499 L34.6343078,37.6148168 L38.0791419,37.6148168 L38.0791419,39.0435499 Z M38.0791419,41.7740174 L34.6343078,41.7740174 L34.6343078,40.3135348 L38.0791419,40.3135348 L38.0791419,41.7740174 Z M33.1420756,41.7740174 L29.6972415,41.7740174 L29.6972415,40.3135348 L33.1420756,40.3135348 L33.1420756,41.7740174 Z M53.1813792,48.0604428 C53.8322465,48.0286932 54.3402405,47.8381954 54.7212359,47.4889496 C55.054607,47.1238289 55.3244788,45.9332181 55.5149765,43.9329918 L54.038619,43.4567475 C53.9433702,45.1236027 53.7846221,46.0760914 53.5306251,46.3142135 C53.3083777,46.5047113 53.0385059,46.5999601 52.7527593,46.5999601 L44.8312284,46.5999601 C44.2279856,46.5999601 43.9263641,46.2983387 43.9263641,45.6950959 L43.9263641,41.3295227 L53.7687473,41.3295227 L53.7687473,34.6621019 L41.751515,34.6621019 L41.751515,36.1067098 L52.2288905,36.1067098 L52.2288905,39.8849149 L43.9263641,39.8849149 L43.9263641,37.7100657 L42.4023822,37.7100657 L42.4023822,45.9649677 C42.4023822,47.3619511 43.0691243,48.0604428 44.4184833,48.0604428 L53.1813792,48.0604428 Z M57.6792425,48.2668153 L57.6792425,47.7111969 L67.7756226,47.7111969 L67.7756226,48.2668153 L69.2361052,48.2668153 L69.2361052,34.8049752 L56.2187598,34.8049752 L56.2187598,48.2668153 L57.6792425,48.2668153 Z M67.7756226,46.3777128 L57.6792425,46.3777128 L57.6792425,36.1384594 L67.7756226,36.1384594 L67.7756226,46.3777128 Z M65.9182696,44.1552392 L65.9182696,38.2815589 L59.568345,38.2815589 L59.568345,44.1552392 L65.9182696,44.1552392 Z M64.4895366,42.9011291 L60.9653285,42.9011291 L60.9653285,39.5515438 L64.4895366,39.5515438 L64.4895366,42.9011291 Z" id="path-3"></path>
    </defs>
    <g id="运单3.0" stroke="none" stroke-width="1" fill="none" fill-rule="evenodd">
        <g id="回单已回">
            <mask id="mask-2" fill="white">
                <use xlink:href="#path-1"></use>
            </mask>
            <g id="蒙版"></g>
            <g id="编组-4" mask="url(#mask-2)" fill-rule="nonzero">
                <g transform="translate(43.911907, 19.230769) rotate(-5.000000) translate(-43.911907, -19.230769) translate(3.553565, -21.538462)">
                    <polygon id="路径" fill="#68C12A" points="17.8117574 25.9705899 19.2224465 27.1794872 19.9441427 25.5429785 21.8290407 24.7541811 20.2008211 23.7485634 19.9540947 22.0512821 18.2264613 23.0664558 16.1899844 22.8063993 16.7496025 24.4397528 15.7372154 25.9761586"></polygon>
                    <polygon id="路径" fill="#68C12A" points="53.9025637 63.0769231 52.544428 64.188859 50.7652109 64.0562463 51.4461034 65.6406495 50.7652109 67.225613 52.544428 67.0929994 53.9025637 68.2051282 54.3211143 66.5382025 55.841732 65.640644 54.3211143 64.7437431"></polygon>
                    <polygon id="路径" fill="#68C12A" points="41.7427449 65.9956769 39.8030607 66.4827622 37.9777646 65.6410256 37.9861811 67.3908547 36.5509518 68.5917206 38.4954866 69.1859152 39.4341419 70.7692308 40.6279941 69.3863324 42.6427772 69.1654492 41.4354384 67.7157109"></polygon>
                    <polygon id="路径" fill="#68C12A" points="28.7070823 64.3327319 27.4485059 63.0769231 26.930273 64.6990501 25.3826054 65.4362115 26.8148987 66.4939698 27.1168334 68.2051282 28.5199508 67.2364103 30.2549286 67.5570968 29.6900784 65.9006379 30.4591265 64.3874395"></polygon>
                    <path d="M40.3584422,-2.91504712e-13 C18.1046752,-2.91504712e-13 0,18.2889988 0,40.7692308 C0,63.2495632 18.1047747,81.5384615 40.3584422,81.5384615 C62.6122091,81.5384615 80.7166853,63.2494627 80.7166853,40.7692308 C80.7166853,18.2888983 62.6120101,-2.91504712e-13 40.3584422,-2.91504712e-13 Z M40.3584422,78.8318916 C19.5822363,78.8318916 2.67939163,61.7570596 2.67939163,40.7693313 C2.67939163,19.7816029 19.5822363,2.70677102 40.3584422,2.70677102 C61.1346481,2.70677102 78.0372937,19.7816029 78.0372937,40.7693313 C78.0372937,61.7570596 61.1346481,78.8318916 40.3584422,78.8318916 Z" id="形状" fill="#68C12A"></path>
                    <path d="M39.8506906,6.15384615 C21.2360624,6.15384615 6.09182531,21.4522667 6.09182531,40.2564103 C6.09182531,59.0605538 21.2359632,74.3589744 39.8506906,74.3589744 C58.4654179,74.3589744 73.6095558,59.0605538 73.6095558,40.2564103 C73.6095558,21.4522667 58.4653187,6.15384615 39.8506906,6.15384615 Z M39.8506906,72.8162276 C22.0781754,72.8162276 7.61902365,58.2099675 7.61902365,40.2564103 C7.61902365,22.302853 22.0780762,7.69659289 39.8506906,7.69659289 C57.6233049,7.69659289 72.0823575,22.302853 72.0823575,40.2564103 C72.0823575,46.9327054 70.081684,53.1453544 66.6558603,58.3168548 L66.0222526,56.5773693 L66.8337134,54.8203366 L64.9280109,54.9624465 L63.5386039,53.7243988 L63.0016923,55.5734689 L61.3305188,56.5652627 L62.9046865,57.5652646 L63.2614083,59.4163903 L64.7707698,58.1856221 L66.6433596,58.3360434 C60.8549543,67.0608748 51.0061032,72.8162276 39.8506866,72.8162276 L39.8506906,72.8162276 Z" id="形状" fill="#68C12A"></path>
                    <path d="M52.7958193,24.4252882 C49.0482402,21.2408919 44.3104023,19.4871795 39.4548428,19.4871795 C29.3642968,19.4871795 20.6706839,26.9261102 18.783128,37.1752625 L20.1028505,37.4358974 C21.8696016,27.8416775 30.0083029,20.8782018 39.4548627,20.8782018 C44.0004328,20.8782018 48.4355354,22.5197227 51.9438429,25.5005873 L52.7958193,24.4252727 L52.7958193,24.4252882 Z" id="路径" fill="#68C12A"></path>
                    <path d="M40.246705,60.1473284 C35.7011393,60.1473284 31.2658414,58.5057033 27.7575374,55.5249695 L26.9055618,56.6002779 C30.6530704,59.7846559 35.3911133,61.5384615 40.2466581,61.5384615 C50.3369948,61.5384615 59.0306991,54.0994703 60.9182531,43.850377 L59.5985318,43.5897436 C57.8316827,53.183805 49.6929893,60.1473439 40.2466382,60.1473439 L40.246705,60.1473284 Z" id="路径" fill="#68C12A"></path>
                    <g id="回单已回" fill="none" transform="translate(41.098002, 41.202524) rotate(-18.000000) translate(-41.098002, -41.202524) ">
                        <use fill="#525866" xlink:href="#path-3"></use>
                        <use fill="#68C12A" xlink:href="#path-3"></use>
                    </g>
                </g>
            </g>
        </g>
    </g>
</svg>