<?xml version="1.0" encoding="UTF-8"?>
<svg width="12px" height="11px" viewBox="0 0 12 11" version="1.1" xmlns="http://www.w3.org/2000/svg" xmlns:xlink="http://www.w3.org/1999/xlink">
    <title>形状</title>
    <g id="首页" stroke="none" stroke-width="1" fill="none" fill-rule="evenodd">
        <g id="首页交互" transform="translate(-140.000000, -54.000000)" fill="#D3DCE5" fill-rule="nonzero">
            <g id="编组-8备份-6" transform="translate(0.000000, 8.000000)">
                <g id="编组-4" transform="translate(0.000000, 40.000000)">
                    <g id="编组-7" transform="translate(8.368143, 0.000000)">
                        <path d="M134.75974,8.84328178 L131.631857,11.0666149 L134.75974,13.2899481 L134.75974,8.84328178 Z M132.125777,6.98277448 L142.725393,6.98277448 C142.996764,6.98277448 143.216729,6.76275809 143.216729,6.49138724 C143.216729,6.22001639 142.996712,6 142.725444,6 L132.125728,6 C131.854358,6 131.634341,6.22001639 131.634341,6.49138724 C131.634341,6.76275809 131.854358,6.98277448 132.125728,6.98277448 L132.125777,6.98277448 Z M142.731928,15.1562279 L132.125777,15.1562279 C131.854406,15.1562279 131.63439,15.3762443 131.63439,15.6476151 C131.63439,15.918986 131.854406,16.1390024 132.125777,16.1390024 L142.725393,16.1390024 L142.725393,16.1390024 C142.997054,16.1390024 143.217725,15.9196266 143.219324,15.6479706 L143.219324,15.6479692 C143.220883,15.3779597 143.003269,15.1578027 142.73326,15.1562279 C142.7328,15.1562279 142.73234,15.1562279 142.731881,15.1562279 L142.731928,15.1562279 Z M142.731928,12.1043876 L136.093058,12.1043876 L136.093058,12.1043876 C135.821673,12.1043876 135.601671,12.3243891 135.601671,12.5957748 C135.601671,12.8671605 135.821673,13.0871621 136.093058,13.0871621 C136.093058,13.0871621 136.093058,13.0871621 136.093058,13.0871621 L142.726146,13.0871621 L142.726146,13.0871621 C142.997807,13.0871621 143.218477,12.8677863 143.220076,12.5961303 L143.220076,12.5961305 C143.221636,12.326121 143.004022,12.105964 142.734012,12.1043876 C142.733317,12.1043876 142.732621,12.1043876 142.731925,12.1043876 L142.731928,12.1043876 Z M142.731928,9.05254727 L136.093058,9.05254727 L136.093058,9.05254727 C135.821673,9.05254724 135.601671,9.27254881 135.601671,9.54393451 C135.601671,9.81532021 135.821673,10.0353217 136.093058,10.0353217 C136.093058,10.0353217 136.093058,10.0353217 136.093058,10.0353217 L142.726146,10.0353217 L142.726146,10.0353217 C142.997807,10.0353217 143.218477,9.81594597 143.220081,9.54428997 L143.220081,9.54428958 C143.222028,9.27428314 143.004733,9.05381128 142.734726,9.05185081 C142.733792,9.0518385 142.732858,9.0518385 142.731924,9.0518385 L142.731924,9.05254823 L142.731928,9.05254727 Z" id="形状"></path>
                    </g>
                </g>
            </g>
        </g>
    </g>
</svg>