<?xml version="1.0" encoding="UTF-8"?>
<svg width="86px" height="86px" viewBox="0 0 86 86" version="1.1" xmlns="http://www.w3.org/2000/svg" xmlns:xlink="http://www.w3.org/1999/xlink">
    <title>上传/图片默认</title>
    <defs>
        <rect id="path-1" x="0" y="0" width="86" height="86" rx="4"></rect>
        <mask id="mask-2" maskContentUnits="userSpaceOnUse" maskUnits="objectBoundingBox" x="0" y="0" width="86" height="86" fill="white">
            <use xlink:href="#path-1"></use>
        </mask>
    </defs>
    <g id="组件规范" stroke="none" stroke-width="1" fill="none" fill-rule="evenodd">
        <g id="画板备份-3" transform="translate(-442.000000, -9158.000000)">
            <g id="上传/图片默认" transform="translate(442.000000, 9158.000000)">
                <use id="Rectangle-7-Copy-2" stroke="#CCD2DE" mask="url(#mask-2)" stroke-width="2" fill="#FAFBFE" stroke-dasharray="3" xlink:href="#path-1"></use>
                <g id="分组-4" transform="translate(19.000000, 19.000000)">
                    <path d="M24,-7.10542736e-15 C24.5154658,-7.07386418e-15 24.9333333,0.417867567 24.9333333,0.933333333 L24.933,13.066 L37.0666667,13.0666667 C37.5821324,13.0666667 38,13.4845342 38,14 C38,14.5154658 37.5821324,14.9333333 37.0666667,14.9333333 L24.933,14.933 L24.9333333,27.0666667 C24.9333333,27.5821324 24.5154658,28 24,28 C23.4845342,28 23.0666667,27.5821324 23.0666667,27.0666667 L23.066,14.933 L10.9333333,14.9333333 C10.4178676,14.9333333 10,14.5154658 10,14 C10,13.4845342 10.4178676,13.0666667 10.9333333,13.0666667 L23.066,13.066 L23.0666667,0.933333333 C23.0666667,0.417867567 23.4845342,-7.13699053e-15 24,-7.10542736e-15 Z" id="Combined-Shape-Copy-2" fill="#C9CED9"></path>
                    <text id="上传图片" font-family="PingFangSC-Regular, PingFang SC" font-size="12" font-weight="normal" line-spacing="12" fill="#9DA1B0">
                        <tspan x="0" y="49">上传图片</tspan>
                    </text>
                </g>
            </g>
        </g>
    </g>
</svg>