<?xml version="1.0" encoding="UTF-8"?>
<svg width="42px" height="43px" viewBox="0 0 42 43" version="1.1" xmlns="http://www.w3.org/2000/svg" xmlns:xlink="http://www.w3.org/1999/xlink">
    <title>交易账单备份</title>
    <g id="首页" stroke="none" stroke-width="1" fill="none" fill-rule="evenodd">
        <g id="画板" transform="translate(-492.000000, -324.000000)">
            <g id="交易账单备份" transform="translate(492.000000, 324.000000)">
                <rect id="矩形" fill="#FFA01F" opacity="0.200000003" x="0" y="0" width="42" height="42.2047146" rx="7.0656"></rect>
                <g id="编组" transform="translate(11.000000, 10.000000)" fill-rule="nonzero">
                    <path d="M8.17617555,0 L17.2608151,0 C18.7660074,0 19.9862069,1.04209585 19.9862069,2.32758621 L19.9862069,19.3965517 C19.9862069,20.6820421 18.7660074,21.7241379 17.2608151,21.7241379 L2.72539183,21.7241379 C1.22019948,21.7241379 0,20.6820421 0,19.3965517 L0,6.98275862 C0,3.12628752 3.66059848,0 8.17617555,0 Z" id="路径" fill="#FF8814"></path>
                    <path d="M19.9862069,15.6413793 L12.0865204,15.6413793 C10.4504417,15.6413793 9.12413793,14.5909467 9.12413793,13.2951724 L9.12413793,0 L17.0238245,0 C18.6599031,0 19.9862069,1.05043262 19.9862069,2.3462069 L19.9862069,15.6413793 L19.9862069,15.6413793 Z" id="路径" fill="#FF8814"></path>
                    <path d="M5.26692623,11.2965517 L11.2431136,11.2965517 C11.5726385,11.2965004 11.8771554,11.4621131 12.0419336,11.730993 C12.2067118,11.999873 12.2067118,12.3311615 12.0419336,12.6000415 C11.8771554,12.8689214 11.5726385,13.0345341 11.2431136,13.0344828 L5.26692623,13.0344828 C4.75764055,13.0344034 4.34482759,12.6453775 4.34482759,12.1655172 C4.34482759,11.685657 4.75764055,11.2966311 5.26692623,11.2965517 L5.26692623,11.2965517 Z" id="路径" fill="#FFFFFF"></path>
                    <path d="M5.26692623,15.2068966 L11.2431136,15.2068966 C11.5726385,15.2068452 11.8771554,15.3724579 12.0419336,15.6413378 C12.2067118,15.9102178 12.2067118,16.2415064 12.0419336,16.5103863 C11.8771554,16.7792663 11.5726385,16.9448789 11.2431136,16.9448276 L5.26692623,16.9448276 C4.75764055,16.9447482 4.34482759,16.5557224 4.34482759,16.0758621 C4.34482759,15.5960018 4.75764055,15.2069759 5.26692623,15.2068966 L5.26692623,15.2068966 Z" id="路径备份-2" fill="#FFFFFF"></path>
                </g>
            </g>
        </g>
    </g>
</svg>