<?xml version="1.0" encoding="UTF-8"?>
<svg width="36px" height="36px" viewBox="0 0 36 36" version="1.1" xmlns="http://www.w3.org/2000/svg" xmlns:xlink="http://www.w3.org/1999/xlink">
    <title>发货管理</title>
    <defs>
        <linearGradient x1="109.738495%" y1="-15.0318128%" x2="50%" y2="100%" id="linearGradient-1">
            <stop stop-color="#FF5B00" offset="0%"></stop>
            <stop stop-color="#FFA01F" offset="100%"></stop>
        </linearGradient>
    </defs>
    <g id="首页" stroke="none" stroke-width="1" fill="none" fill-rule="evenodd">
        <g id="画板" transform="translate(-60.000000, -524.000000)">
            <g id="编组-3" transform="translate(60.000000, 524.000000)">
                <path d="M4.45531235,31.4102385 C10.3957288,37.3499206 25.6042712,37.6154699 31.5446877,31.6757878 C37.4851041,25.7361057 37.4851041,10.2638943 31.5446877,4.32421219 C25.6042712,-1.61546988 10.3957288,-1.3499206 4.45531235,4.58976147 C-1.48510412,10.5294435 -1.48510412,25.4705565 4.45531235,31.4102385 Z" id="椭圆形备份" fill="url(#linearGradient-1)"></path>
                <g id="编组" transform="translate(8.181818, 9.000000)" fill="#FFFFFF" fill-rule="nonzero">
                    <path d="M8.18271188,2.45479122 L8.18271188,8.99188946 L9.53934761,8.49444277 C9.69540274,8.43833991 9.86589017,8.43833991 10.0219453,8.49444277 L11.4536518,9.00811056 L11.4536518,2.45479122 L18.0008937,2.45479122 C18.9041388,2.45479122 19.6363636,3.1931381 19.6363636,4.10393511 L19.6363636,16.3508561 C19.6363636,17.2616531 18.9041388,18 18.0008937,18 L1.63546994,18 C0.732224841,18 0,17.2616531 0,16.3508561 L0,4.10393511 C0,3.19313809 0.732224834,2.45479122 1.63546994,2.45479122 L8.18271188,2.45479122 Z M3.26557768,4.90958246 C2.85711235,4.95722156 2.5489167,5.3060105 2.5489167,5.72063683 C2.5489167,6.13526316 2.85711235,6.4840521 3.26557768,6.5316912 L4.9171342,6.5316912 C5.32559953,6.4840521 5.63379517,6.13526316 5.63379517,5.72063683 C5.63379517,5.3060105 5.32559953,4.95722156 4.9171342,4.90958246 L3.26557768,4.90958246 Z M2.4451616,0 L17.191202,0 C17.5996674,0.0476390971 17.907863,0.39642804 17.907863,0.811054369 C17.907863,1.2256807 17.5996674,1.57446964 17.191202,1.62210874 L2.4451616,1.62210874 C2.03669627,1.57446964 1.72850063,1.2256807 1.72850063,0.811054369 C1.72850063,0.39642804 2.03669627,0.0476390971 2.4451616,0 Z" id="形状"></path>
                </g>
            </g>
        </g>
    </g>
</svg>