<?xml version="1.0" encoding="UTF-8"?>
<svg width="36px" height="36px" viewBox="0 0 36 36" version="1.1" xmlns="http://www.w3.org/2000/svg" xmlns:xlink="http://www.w3.org/1999/xlink">
    <title>发货找车</title>
    <defs>
        <linearGradient x1="109.738495%" y1="-15.0318128%" x2="50%" y2="100%" id="linearGradient-1">
            <stop stop-color="#FF5B00" offset="0%"></stop>
            <stop stop-color="#FFA01F" offset="100%"></stop>
        </linearGradient>
    </defs>
    <g id="首页" stroke="none" stroke-width="1" fill="none" fill-rule="evenodd">
        <g id="画板" transform="translate(-324.000000, -1018.000000)">
            <g id="编组-3" transform="translate(324.000000, 1018.000000)">
                <path d="M4.45531235,31.4102385 C10.3957288,37.3499206 25.6042712,37.6154699 31.5446877,31.6757878 C37.4851041,25.7361057 37.4851041,10.2638943 31.5446877,4.32421219 C25.6042712,-1.61546988 10.3957288,-1.3499206 4.45531235,4.58976147 C-1.48510412,10.5294435 -1.48510412,25.4705565 4.45531235,31.4102385 Z" id="椭圆形备份" fill="url(#linearGradient-1)"></path>
                <path d="M25.5,18.5 C27.709139,18.5 29.5,20.290861 29.5,22.5 C29.5,23.2024997 29.3189043,23.8627022 29.0008505,24.43647 L29.0282514,24.4532283 L30.5874382,25.7597654 C30.7989756,25.9372663 30.8265676,26.2526441 30.6490667,26.4641814 C30.4715658,26.6757187 30.156188,26.7033107 29.9446506,26.5258098 L28.4125618,25.2402346 L28.3934669,25.2618659 C27.6650795,26.0247394 26.6380413,26.5 25.5,26.5 C23.290861,26.5 21.5,24.709139 21.5,22.5 C21.5,20.290861 23.290861,18.5 25.5,18.5 Z M25.5,19.5 C23.8431458,19.5 22.5,20.8431458 22.5,22.5 C22.5,24.1568542 23.8431458,25.5 25.5,25.5 C26.2624233,25.5 26.9773694,25.2153112 27.5047103,24.7356604 L27.6437738,24.6000802 L27.974,24.225 L28.1262367,23.9516498 C28.3354245,23.5742757 28.4606063,23.1565889 28.4921033,22.7198555 L28.5,22.5 C28.5,20.8431458 27.1568542,19.5 25.5,19.5 Z" id="路径" fill="#FFFFFF" fill-rule="nonzero"></path>
                <g id="编组-4" transform="translate(5.776471, 10.164706)" fill="#FFFFFF">
                    <path d="M6.24308824,3.38823529 C7.41981494,3.38823529 8.38342742,4.30068574 8.46499537,5.45665634 L8.47058824,5.61573529 L8.47058824,10.4783824 C8.47058824,11.3660402 7.95137085,12.1324283 7.20007414,12.4904086 C7.2,13.7806162 6.15708683,14.8235294 4.87058824,14.8235294 C3.65556179,14.8235294 2.65780752,13.8932766 2.55069602,12.7061416 L2.2275,12.7058824 C1.0507733,12.7058824 0.087160816,11.7934319 0.00559286246,10.6374613 L3.67705866e-13,10.4783824 L3.67705866e-13,8.04705882 C3.67705866e-13,7.23473122 0.713541741,5.95468567 2.14062522,4.20692217 C2.52520825,3.73591947 3.08369976,3.44469191 3.68460149,3.39562738 L3.86601282,3.38823529 L6.24308824,3.38823529 Z M22.0235294,2.2275 L22.0238905,7.33799916 C21.3240118,7.01529581 20.5447915,6.83529412 19.7235294,6.83529412 C16.6859633,6.83529412 14.2235294,9.29772799 14.2235294,12.3352941 C14.2235294,12.4597873 14.2276656,12.5833144 14.2358082,12.7057456 L11.5451471,12.7058824 C10.3149328,12.7058824 9.31764706,11.7085966 9.31764706,10.4783824 L9.31764706,2.2275 C9.31764706,0.99728572 10.3149328,7.46069873e-14 11.5451471,7.46069873e-14 L19.7960294,7.46069873e-14 C21.0262437,7.46069873e-14 22.0235294,0.99728572 22.0235294,2.2275 Z" id="形状"></path>
                </g>
            </g>
        </g>
    </g>
</svg>