<?xml version="1.0" encoding="UTF-8"?>
<svg width="20px" height="20px" viewBox="0 0 20 20" version="1.1" xmlns="http://www.w3.org/2000/svg" xmlns:xlink="http://www.w3.org/1999/xlink">
    <title>编组 74</title>
    <g id="运单3.0" stroke="none" stroke-width="1" fill="none" fill-rule="evenodd">
        <g id="创建运单3.0" transform="translate(-1271.000000, -277.000000)">
            <g id="编组-18" transform="translate(80.000000, 54.000000)">
                <g id="编组-49" transform="translate(22.000000, 71.000000)">
                    <g id="编组-17备份-2" transform="translate(1168.500000, 116.000000)">
                        <g id="编组-74" transform="translate(0.500000, 36.000000)">
                            <rect id="矩形" x="0" y="0" width="20" height="20"></rect>
                            <g id="编组-73" transform="translate(3.000000, 0.500000)">
                                <g id="编组-72" transform="translate(0.164211, -0.000000)" fill="#A2ADC7">
                                    <path d="M6.43578943,3.8191672e-14 C8.36878605,3.8191672e-14 9.93578943,1.56700338 9.93578943,3.5 C9.93578943,4.78866442 8.76912276,7.06023386 6.43578943,10.3147083 C4.10245609,7.06023386 2.93578943,4.78866442 2.93578943,3.5 C2.93578943,1.56700338 4.5027928,3.8191672e-14 6.43578943,3.8191672e-14 Z M6.43578943,1.4 C5.27599145,1.4 4.33578943,2.34020203 4.33578943,3.5 C4.33578943,4.65979797 5.27599145,5.6 6.43578943,5.6 C7.5955874,5.6 8.53578943,4.65979797 8.53578943,3.5 C8.53578943,2.34020203 7.5955874,1.4 6.43578943,1.4 Z" id="形状结合"></path>
                                    <path d="M9.78816465,13.4961599 C10.121284,12.7702534 10.5061607,12.3351059 10.8045733,12.0698768 C10.9674622,11.9251397 11.1376559,11.8051249 11.3171366,11.7282413 C11.2230923,11.600151 11.1502098,11.4866151 11.0778963,11.3779797 C10.9452176,11.1788422 10.8045733,10.951073 10.7362609,10.8399965 C10.2836774,11.0875877 9.85528407,11.5989947 9.51485996,12.0527345 C9.31717243,12.3166054 9.13914171,12.5993439 8.96823221,12.8983804 L9.78816465,13.4961599 Z" id="路径" fill-rule="nonzero"></path>
                                    <path d="M12.0174321,10.9575669 C12.73922,10.6156152 13.3137601,10.5296669 13.7128433,10.5183055 C13.9306587,10.5121334 14.1381787,10.5295952 14.3250886,10.5860669 L14.3373122,10.43498 L14.3373122,10.43498 L14.4024655,9.87601385 L14.4024655,9.87601385 L14.4510648,9.53225218 L14.4510648,9.53225218 C13.9452172,9.43100299 13.2883228,9.54739758 12.7358845,9.676162 C12.4148341,9.75122775 12.0967139,9.85338205 11.7735726,9.97259884 L12.0174321,10.9575669 Z" id="路径备份-10" fill-rule="nonzero"></path>
                                    <path d="M6.31201375,14.6066128 C6.40598461,14.8368597 6.45720974,15.0682446 6.52555885,15.246826 C6.55127236,15.3580493 6.57671057,15.4600774 6.61095854,15.5547641 C6.91836438,15.4600774 7.22503608,15.3653357 7.52495362,15.2377592 C8.0366176,15.0227091 8.64375744,14.7175424 9.02801015,14.3161107 L8.31919091,13.5559562 C8.19117396,13.6840649 8.037884,13.787543 7.84089392,13.9147707 C7.50839859,14.1291968 7.02956935,14.3930677 6.31201375,14.6066128 Z" id="路径" fill-rule="nonzero"></path>
                                    <path d="M2.83578943,14.5551674 C3.07504804,14.7347031 3.32904467,14.8915721 3.59594393,15.0336296 C4.07229542,15.2851668 4.68066496,15.571209 5.37250706,15.6750358 C5.39822057,15.4691441 5.41147192,15.2031075 5.44083782,15.0080996 L5.4920813,14.6663907 C5.30415794,14.6321244 5.08861228,14.5779443 4.86012728,14.4954629 C4.47363542,14.3560299 3.98038018,14.1197446 3.43375243,13.7354001 C3.28855644,13.9488535 3.14007514,14.1404843 3.02378621,14.2990418 L2.83578943,14.5551674 Z" id="路径" fill-rule="nonzero"></path>
                                    <path d="M0,12.0481477 C0.150088518,12.306897 0.322600068,12.55054 0.512775844,12.7855905 C0.852976282,13.2032571 1.30121782,13.7042692 1.89749347,14.0701665 L2.11437536,13.6699864 C2.1507314,13.6029329 2.18657595,13.538958 2.22098498,13.4829475 L2.40167115,13.1884253 C2.2420757,13.0834554 2.06483472,12.949362 1.88674124,12.7841612 C1.58545439,12.5047982 1.22373458,12.0945662 0.870736433,11.5271908 L0.709554773,11.6280526 L0.709554773,11.6280526 L0,12.0481477 Z" id="路径备份-4" fill-rule="nonzero"></path>
                                </g>
                                <path d="M9.8,7 C10.6416051,7 11.3167897,7 13,7 C13.5522847,7 14,7.40701386 14,7.90909091 L14,16.0909091 C14,16.5929861 13.5522847,17 13,17 L1,17 C0.44771525,17 0,16.5929861 0,16.0909091 L0,7.90909091 C0,7.40701386 0.44771525,7 1,7 C1.88148263,7 2.52690829,7 2.93627697,7" id="路径" stroke="#A2ADC7" stroke-width="1.3" stroke-linejoin="round"></path>
                            </g>
                        </g>
                    </g>
                </g>
            </g>
        </g>
    </g>
</svg>