<?xml version="1.0" encoding="UTF-8"?>
<svg width="43px" height="43px" viewBox="0 0 43 43" version="1.1" xmlns="http://www.w3.org/2000/svg" xmlns:xlink="http://www.w3.org/1999/xlink">
    <title>平台支付备份</title>
    <defs>
        <path d="M20.4790464,4.4 L17.5384615,4.4 L17.5384615,4.4 C17.0488311,4.4 16.5792546,4.58542804 16.2330336,4.91549207 C15.8868126,5.24555609 15.6923077,5.69321898 15.6923077,6.16 L15.6923077,11.44 C15.6923077,12.4120212 16.5188589,13.2 17.5384615,13.2 L20.4790464,13.2 C20.8942115,13.2 21.2307692,13.5365578 21.2307692,13.9517228 L21.2307692,15.84 L21.2307692,15.84 C21.2307692,16.8120212 20.404218,17.6 19.3846154,17.6 L1.84615385,17.6 C0.826551231,17.6 0,16.8120212 0,15.84 L0,1.76 C0,0.78797884 0.826551231,0 1.84615385,0 L19.3846154,0 C19.8742458,0 20.3438223,0.185428039 20.6900433,0.515492065 C21.0362643,0.845556091 21.2307692,1.29321898 21.2307692,1.76 L21.2307692,3.64827716 C21.2307692,4.06344222 20.8942115,4.4 20.4790464,4.4 Z" id="path-1"></path>
    </defs>
    <g id="首页" stroke="none" stroke-width="1" fill="none" fill-rule="evenodd">
        <g id="画板" transform="translate(-157.000000, -324.000000)">
            <g id="平台支付备份" transform="translate(157.000000, 324.000000)">
                <rect id="矩形备份-3" fill="#FFA01F" opacity="0.200000003" x="0" y="0" width="42.2" height="42.2" rx="7.0656"></rect>
                <g id="编组" transform="translate(10.000000, 8.000000)">
                    <path d="M3.53846154,5.76048 L14.8001463,0.603109681 C15.5352788,0.266450435 16.4050254,0.571502588 16.768815,1.29359422 L19.0192308,5.76048 L19.0192308,5.76048 L8.3756859,10.56 L3.53846154,5.76048 Z" id="路径" fill="#FF8814" fill-rule="nonzero" opacity="0.300000012"></path>
                    <g id="矩形" transform="translate(0.000000, 4.400000)">
                        <mask id="mask-2" fill="white">
                            <use xlink:href="#path-1"></use>
                        </mask>
                        <use id="蒙版" fill="#FF8814" xlink:href="#path-1"></use>
                        <path d="M-1.35257974,-2.31578947 L22.8461538,-2.31578947 L22.8461538,17.6 L12.9051377,17.6 C5.96728188,17.6 0.153523402,12.3526136 -0.555107122,5.45104232 L-1.35257974,-2.31578947 L-1.35257974,-2.31578947 Z" fill="#FF8814" mask="url(#mask-2)"></path>
                    </g>
                    <path d="M17.6923077,10.12 L22.1153846,10.12 C22.6039442,10.12 23,10.4647407 23,10.89 L23,15.51 C23,15.9352593 22.6039442,16.28 22.1153846,16.28 L17.6923077,16.28 C17.2037481,16.28 16.8076923,15.9352593 16.8076923,15.51 L16.8076923,10.89 C16.8076923,10.4647407 17.2037481,10.12 17.6923077,10.12 Z M19.9038462,14.6666668 C20.4305839,14.6666668 20.9173097,14.3871217 21.1806786,13.9333335 C21.4440475,13.4795452 21.4440475,12.920455 21.1806786,12.4666667 C20.9173097,12.0128784 20.4305839,11.7333333 19.9038462,11.7333333 C19.0895802,11.7333333 18.4294872,12.3899824 18.4294872,13.2000001 C18.4294872,14.0100177 19.0895802,14.6666668 19.9038462,14.6666668 Z" id="形状" fill="#FF8814" fill-rule="nonzero"></path>
                </g>
            </g>
        </g>
    </g>
</svg>