<?xml version="1.0" encoding="UTF-8"?>
<svg width="42px" height="43px" viewBox="0 0 42 43" version="1.1" xmlns="http://www.w3.org/2000/svg" xmlns:xlink="http://www.w3.org/1999/xlink">
    <title>开票记录备份</title>
    <g id="首页" stroke="none" stroke-width="1" fill="none" fill-rule="evenodd">
        <g id="画板" transform="translate(-806.000000, -325.000000)">
            <g id="开票记录备份" transform="translate(806.000000, 325.000000)">
                <rect id="矩形" fill="#FFA01F" opacity="0.200000003" x="0" y="0" width="42" height="42.2047146" rx="7.0656"></rect>
                <g id="编组-6" transform="translate(10.000000, 12.000000)" fill-rule="nonzero">
                    <g id="编组">
                        <path d="M1.5,0 L19.5,0 C20.5,0 21,0.489999999 21,1.47 L21,16.905 C21,17.885 20.5,18.375 19.5,18.375 L1.5,18.375 C0.5,18.375 0,17.885 0,16.905 L0,1.47 C0,0.489999999 0.5,0 1.5,0 Z" id="路径" fill="#FF8814"></path>
                        <path d="M8.53794643,5.60986547 L8.53794643,3.9955157 L7.05133929,3.9955157 L7.05133929,3.60538117 L9,3.60538117 L9,3 L3,3 L3,3.60538117 L4.94866071,3.60538117 L4.94866071,3.9955157 L3.46205357,3.9955157 L3.46205357,5.60986547 L8.53794643,5.60986547 Z M6.38839286,3.9955157 L5.61160714,3.9955157 L5.61160714,3.60538117 L6.38839286,3.60538117 L6.38839286,3.9955157 Z M7.86830357,5.04484305 L7.05133929,5.04484305 L7.05133929,4.56053812 L7.86830357,4.56053812 L7.86830357,5.04484305 Z M6.38839286,5.04484305 L5.61160714,5.04484305 L5.61160714,4.56053812 L6.38839286,4.56053812 L6.38839286,5.04484305 Z M4.94866071,5.04484305 L4.13169643,5.04484305 L4.13169643,4.56053812 L4.94866071,4.56053812 L4.94866071,5.04484305 Z M8.27008929,6.53811659 L8.27008929,5.95964126 L3.77678571,5.95964126 L3.77678571,6.53811659 L8.27008929,6.53811659 Z M5.71205357,9 C6.17410714,9 6.40848214,8.77130045 6.40848214,8.31390135 L6.40848214,7.4529148 L8.89285714,7.4529148 L8.89285714,6.85426009 L3.10714286,6.85426009 L3.10714286,7.4529148 L5.73883929,7.4529148 L5.73883929,8.15919283 C5.73883929,8.32735426 5.65178571,8.41479821 5.49107143,8.41479821 C5.32366071,8.41479821 5.14285714,8.40134529 4.95535714,8.38116592 L5.09598214,9 L5.71205357,9 Z M8.47767857,8.9529148 L8.96651786,8.46188341 C8.55133929,8.15919283 8.04910714,7.85650224 7.453125,7.5470852 L6.99776786,7.99103139 C7.640625,8.33408072 8.12946429,8.65695067 8.47767857,8.9529148 Z M3.50223214,8.9529148 C4.14508929,8.67040359 4.6875,8.34753363 5.12946429,7.97085202 L4.68080357,7.56053812 C4.25223214,7.88340807 3.71651786,8.15919283 3.08035714,8.40134529 L3.50223214,8.9529148 Z" id="票" fill="#FFFFFF"></path>
                    </g>
                    <path d="M11.258051,9.38368243 L17.7363996,9.38368243 C18.0071387,9.38368243 18.2264151,9.59057711 18.2264151,9.84602871 L18.2264151,10.3280793 C18.2264151,10.5834261 18.0070277,10.7904255 17.7363996,10.7904255 L11.258051,10.7904255 C10.9874229,10.7904255 10.7680355,10.5834261 10.7680355,10.3280793 L10.7680355,9.84602871 C10.7680355,9.59057711 10.9873119,9.38297872 11.258051,9.38297872 L11.258051,9.38368243 Z M11.258051,11.8858101 L16.9905616,11.8858101 C17.2613008,11.8858101 17.4805771,12.0927048 17.4805771,12.3481564 L17.4805771,12.8302069 C17.4805771,13.0855537 17.2611897,13.2925532 16.9905616,13.2925532 L11.258051,13.2925532 C10.9874229,13.2925532 10.7680355,13.0855537 10.7680355,12.8302069 L10.7680355,12.3481564 C10.7680355,12.0927048 10.9873119,11.8851064 11.258051,11.8851064 L11.258051,11.8858101 Z" id="形状" fill="#FFFFFF" transform="translate(14.497225, 11.337766) scale(-1, 1) translate(-14.497225, -11.337766) "></path>
                </g>
            </g>
        </g>
    </g>
</svg>