<?xml version="1.0" encoding="UTF-8"?>
<svg width="42px" height="43px" viewBox="0 0 42 43" version="1.1" xmlns="http://www.w3.org/2000/svg" xmlns:xlink="http://www.w3.org/1999/xlink">
    <title>承运商对账</title>
    <g id="首页" stroke="none" stroke-width="1" fill="none" fill-rule="evenodd">
        <g id="画板" transform="translate(-403.000000, -69.000000)">
            <g id="承运商对账" transform="translate(403.000000, 69.000000)">
                <rect id="矩形" fill="#3371FF" opacity="0.100000001" x="0" y="0" width="42" height="42.2047146" rx="7.0656"></rect>
                <g id="编组-6" transform="translate(11.000000, 12.000000)" fill-rule="nonzero">
                    <g id="编组" fill="#487CFF">
                        <path d="M1.5,0 L19.5,0 C20.5,0 21,0.489999999 21,1.47 L21,16.905 C21,17.885 20.5,18.375 19.5,18.375 L1.5,18.375 C0.5,18.375 0,17.885 0,16.905 L0,1.47 C0,0.489999999 0.5,0 1.5,0 Z" id="路径"></path>
                    </g>
                    <path d="M6.03718535,9.38368243 L12.5155339,9.38368243 C12.786273,9.38368243 13.0055494,9.59057711 13.0055494,9.84602871 L13.0055494,10.3280793 C13.0055494,10.5834261 12.786162,10.7904255 12.5155339,10.7904255 L6.03718535,10.7904255 C5.76655724,10.7904255 5.54716981,10.5834261 5.54716981,10.3280793 L5.54716981,9.84602871 C5.54716981,9.59057711 5.76644617,9.38297872 6.03718535,9.38297872 L6.03718535,9.38368243 Z M15.7330788,9.38368243 L17.7363996,9.38368243 C18.0071387,9.38368243 18.2264151,9.59057711 18.2264151,9.84602871 L18.2264151,10.3280793 C18.2264151,10.5834261 18.0070277,10.7904255 17.7363996,10.7904255 L15.7330788,10.7904255 C15.4624507,10.7904255 15.2430633,10.5834261 15.2430633,10.3280793 L15.2430633,9.84602871 C15.2430633,9.59057711 15.4623396,9.38297872 15.7330788,9.38297872 L15.7330788,9.38368243 Z M6.03718535,11.8858101 L11.7696959,11.8858101 C12.0404351,11.8858101 12.2597114,12.0927048 12.2597114,12.3481564 L12.2597114,12.8302069 C12.2597114,13.0855537 12.040324,13.2925532 11.7696959,13.2925532 L6.03718535,13.2925532 C5.76655724,13.2925532 5.54716981,13.0855537 5.54716981,12.8302069 L5.54716981,12.3481564 C5.54716981,12.0927048 5.76644617,11.8851064 6.03718535,11.8851064 L6.03718535,11.8858101 Z" id="形状" fill="#FFFFFF" transform="translate(11.886792, 11.337766) scale(-1, 1) translate(-11.886792, -11.337766) "></path>
                </g>
            </g>
        </g>
    </g>
</svg>