<?xml version="1.0" encoding="UTF-8"?>
<svg width="26px" height="26px" viewBox="0 0 26 26" version="1.1" xmlns="http://www.w3.org/2000/svg" xmlns:xlink="http://www.w3.org/1999/xlink">
    <title>编组 19</title>
    <defs>
        <circle id="path-1" cx="10" cy="10" r="10"></circle>
        <filter x="-22.5%" y="-22.5%" width="145.0%" height="145.0%" filterUnits="objectBoundingBox" id="filter-2">
            <feOffset dx="0" dy="0" in="SourceAlpha" result="shadowOffsetOuter1"></feOffset>
            <feGaussianBlur stdDeviation="1.5" in="shadowOffsetOuter1" result="shadowBlurOuter1"></feGaussianBlur>
            <feColorMatrix values="0 0 0 0 0.615686275   0 0 0 0 0.631372549   0 0 0 0 0.690196078  0 0 0 0.2 0" type="matrix" in="shadowBlurOuter1"></feColorMatrix>
        </filter>
        <linearGradient x1="50%" y1="0%" x2="50%" y2="100%" id="linearGradient-3">
            <stop stop-color="#76B1FF" offset="0%"></stop>
            <stop stop-color="#767AFF" offset="100%"></stop>
        </linearGradient>
        <linearGradient x1="50%" y1="0%" x2="50%" y2="100%" id="linearGradient-4">
            <stop stop-color="#76B1FF" offset="0%"></stop>
            <stop stop-color="#767AFF" offset="100%"></stop>
        </linearGradient>
    </defs>
    <g id="资金流水表" stroke="none" stroke-width="1" fill="none" fill-rule="evenodd">
        <g id="资金流水表-资金费用明细表" transform="translate(-93.000000, -185.000000)">
            <g id="编组-19" transform="translate(96.000000, 188.000000)">
                <g id="椭圆形">
                    <use fill="black" fill-opacity="1" filter="url(#filter-2)" xlink:href="#path-1"></use>
                    <use fill="#FFFFFF" fill-rule="evenodd" xlink:href="#path-1"></use>
                </g>
                <path d="M13.9543769,13.7704911 L6.04575029,13.7704911 C5.88694441,13.770735 5.73593212,13.7027571 5.6322283,13.5843444 C5.52852448,13.4659317 5.48244942,13.3088682 5.50605942,13.1542522 L5.84825193,10.9229864 C5.88736709,10.6597502 6.1174404,10.4650898 6.38764715,10.4666149 L8.72404089,10.4666149 C8.69270133,10.0649102 8.42672899,9.5900254 8.16820719,9.12864718 C7.86864831,8.59379775 7.55880058,8.04066785 7.55880058,7.4980172 C7.55880058,6.16366964 8.65746993,5.08196721 10.0127472,5.08196721 C11.3680246,5.08196721 12.4666939,6.16366964 12.4666939,7.4980172 C12.4666939,8.17683992 12.1347902,8.7962802 11.8419723,9.34306434 C11.6299868,9.73894723 11.4270484,10.1173647 11.3708145,10.4666731 L13.6123618,10.4666731 C13.8826074,10.4651563 14.1126951,10.6598786 14.151757,10.923161 L14.4939495,13.1543104 C14.5175374,13.3088971 14.4714687,13.4659245 14.3677936,13.5843192 C14.2641186,13.7027138 14.1131501,13.7706985 13.9543769,13.7704911 Z M6.31615747,13.0037003 L13.6839106,13.0037003 L13.4123799,11.2334051 L10.6630727,11.2334051 L10.5934752,10.8840967 C10.4981556,10.2087671 10.8313602,9.5864741 11.1536846,8.98484854 C11.4286449,8.4715398 11.6884085,7.98664148 11.6884085,7.49784255 C11.6789553,6.59326596 10.9314724,5.86485958 10.0126585,5.86485958 C9.0938447,5.86485958 8.34636175,6.59326596 8.33690863,7.49784255 C8.33690863,7.84290106 8.59750003,8.30806345 8.84945826,8.7579145 C9.21281976,9.40658025 9.58859882,10.0773689 9.48854876,10.7738899 C9.44995351,11.0380417 9.21973651,11.2339191 8.94868049,11.2332305 L6.58786554,11.2332305 L6.31615747,13.0037003 Z" id="形状" fill="url(#linearGradient-3)" fill-rule="nonzero"></path>
                <path d="M14.2751177,15.0819672 L5.5582156,15.0819672 C5.34196909,15.0819672 5.16666667,14.8984773 5.16666667,14.6721311 C5.16666667,14.4457849 5.34196909,14.2622951 5.5582156,14.2622951 L14.2751177,14.2622951 C14.4913642,14.2622951 14.6666667,14.4457849 14.6666667,14.6721311 C14.6666667,14.8984773 14.4913642,15.0819672 14.2751177,15.0819672 L14.2751177,15.0819672 Z" id="路径" fill="url(#linearGradient-4)" fill-rule="nonzero"></path>
            </g>
        </g>
    </g>
</svg>