<?xml version="1.0" encoding="UTF-8"?>
<svg width="26px" height="26px" viewBox="0 0 26 26" version="1.1" xmlns="http://www.w3.org/2000/svg" xmlns:xlink="http://www.w3.org/1999/xlink">
    <title>编组 30</title>
    <defs>
        <circle id="path-1" cx="10" cy="10" r="10"></circle>
        <filter x="-22.5%" y="-22.5%" width="145.0%" height="145.0%" filterUnits="objectBoundingBox" id="filter-2">
            <feOffset dx="0" dy="0" in="SourceAlpha" result="shadowOffsetOuter1"></feOffset>
            <feGaussianBlur stdDeviation="1.5" in="shadowOffsetOuter1" result="shadowBlurOuter1"></feGaussianBlur>
            <feColorMatrix values="0 0 0 0 0.615686275   0 0 0 0 0.631372549   0 0 0 0 0.690196078  0 0 0 0.2 0" type="matrix" in="shadowBlurOuter1"></feColorMatrix>
        </filter>
        <linearGradient x1="50%" y1="0%" x2="50%" y2="100%" id="linearGradient-3">
            <stop stop-color="#FFC045" offset="0%"></stop>
            <stop stop-color="#FF870D" offset="100%"></stop>
        </linearGradient>
        <linearGradient x1="50%" y1="0%" x2="50%" y2="100%" id="linearGradient-4">
            <stop stop-color="#FFC045" offset="0%"></stop>
            <stop stop-color="#FF870D" offset="100%"></stop>
        </linearGradient>
    </defs>
    <g id="资金流水表" stroke="none" stroke-width="1" fill="none" fill-rule="evenodd">
        <g id="资金流水表-资金费用明细表" transform="translate(-717.000000, -185.000000)">
            <g id="编组-25" transform="translate(720.000000, 188.000000)">
                <g id="编组-30" transform="translate(0.000000, 0.000000)">
                    <g id="椭圆形">
                        <use fill="black" fill-opacity="1" filter="url(#filter-2)" xlink:href="#path-1"></use>
                        <use fill="#FFFFFF" fill-rule="evenodd" xlink:href="#path-1"></use>
                    </g>
                    <path d="M9.83183333,13.6435285 L10.7768333,12.6619828 L13.8333333,12.6619828 L13.8333333,5.88602653 L5.83333332,5.88602653 L5.83333332,12.6619828 L8.93083333,12.6619828 L9.83183333,13.6435285 L9.83183333,13.6435285 Z M5.33333333,4.91803279 L14.3333333,4.91803279 C14.6094757,4.91803279 14.8333333,5.13472557 14.8333333,5.40202966 L14.8333333,13.1459797 C14.8333333,13.2743436 14.7806549,13.3974502 14.6868867,13.4882172 C14.5931185,13.5789842 14.4659416,13.6299766 14.3333333,13.6299766 L11.2113333,13.6299766 L9.81433333,15.0819672 L8.48133334,13.6299766 L5.33333333,13.6299766 C5.20072508,13.6299766 5.07354813,13.5789842 4.97977994,13.4882172 C4.88601175,13.3974502 4.83333333,13.2743436 4.83333333,13.1459797 L4.83333333,5.40202966 C4.83333333,5.13472557 5.05719096,4.91803279 5.33333333,4.91803279 Z" id="形状" fill="url(#linearGradient-3)" fill-rule="nonzero"></path>
                    <path d="M12.6666667,9.70361799 C12.2018219,10.6712181 11.1248152,11.3114754 9.91641782,11.3114754 C8.70901577,11.3114754 7.63200917,10.6725708 7.16666667,9.7058724 L8.07943475,9.34516407 C8.38651104,9.98361784 9.10468134,10.4097046 9.91641782,10.4097046 C10.728652,10.4097046 11.44732,9.98271606 11.7538986,9.3442623 L12.6666667,9.70406887 L12.6666667,9.70361799 Z" id="路径" fill="url(#linearGradient-4)" fill-rule="nonzero"></path>
                </g>
            </g>
        </g>
    </g>
</svg>