<?xml version="1.0" encoding="UTF-8"?>
<svg width="37px" height="36px" viewBox="0 0 37 36" version="1.1" xmlns="http://www.w3.org/2000/svg" xmlns:xlink="http://www.w3.org/1999/xlink">
    <title>满运宝账户</title>
    <defs>
        <linearGradient x1="109.738495%" y1="-15.0318128%" x2="50%" y2="100%" id="linearGradient-1">
            <stop stop-color="#FF5B00" offset="0%"></stop>
            <stop stop-color="#FFA01F" offset="100%"></stop>
        </linearGradient>
    </defs>
    <g id="首页" stroke="none" stroke-width="1" fill="none" fill-rule="evenodd">
        <g id="画板" transform="translate(-60.000000, -706.000000)">
            <g id="编组-3" transform="translate(60.500000, 706.000000)">
                <path d="M4.45531235,31.4102385 C10.3957288,37.3499206 25.6042712,37.6154699 31.5446877,31.6757878 C37.4851041,25.7361057 37.4851041,10.2638943 31.5446877,4.32421219 C25.6042712,-1.61546988 10.3957288,-1.3499206 4.45531235,4.58976147 C-1.48510412,10.5294435 -1.48510412,25.4705565 4.45531235,31.4102385 Z" id="椭圆形备份" fill="url(#linearGradient-1)"></path>
                <g id="编组" transform="translate(9.818182, 8.181818)" fill="#FFFFFF" fill-rule="nonzero">
                    <path d="M8.18181818,9.81818182 C10.8895046,9.81818182 13.0909091,7.6174114 13.0909091,4.90909091 C13.0909091,2.20285054 10.8895046,0 8.18181818,0 C5.47413171,0 3.27272727,2.20285054 3.27272727,4.90909091 C3.27272727,7.61533128 5.47618144,9.81818182 8.18181818,9.81818182 Z M10.0522759,10.6363636 L6.30927405,10.6363636 C2.8291586,10.6363636 0,13.3602383 0,16.7079945 L0,17.0688671 C0,18.8181818 2.7853442,18.8181818 6.30927405,18.8181818 L10.0543623,18.8181818 C13.4405898,18.8181818 16.3636364,18.8181818 16.3636364,17.0688671 L16.3636364,16.7079945 C16.36155,13.3602383 13.5323914,10.6363636 10.0522759,10.6363636 Z" id="形状"></path>
                </g>
            </g>
        </g>
    </g>
</svg>