<?xml version="1.0" encoding="UTF-8"?>
<svg width="42px" height="43px" viewBox="0 0 42 43" version="1.1" xmlns="http://www.w3.org/2000/svg" xmlns:xlink="http://www.w3.org/1999/xlink">
    <title>资金流水表</title>
    <g id="首页" stroke="none" stroke-width="1" fill="none" fill-rule="evenodd">
        <g id="画板" transform="translate(-588.000000, -154.000000)">
            <g id="资金流水表" transform="translate(588.000000, 154.000000)">
                <rect id="矩形" fill="#FFA01F" opacity="0.100000001" x="0" y="0" width="42" height="42.2047146" rx="7.0656"></rect>
                <g id="编组-4" transform="translate(10.500000, 11.500000)">
                    <g id="编组" fill="#FF8814">
                        <path d="M21.875,4.37696512 L21.875,17.6331053 C21.875,18.6429211 21.1754449,19.4615385 20.3125,19.4615385 L1.5625,19.4615385 C0.699555077,19.4615385 0,18.6429211 0,17.6331053 L0,4.37696512 L21.875,4.37696512 Z" id="路径" fill-rule="nonzero"></path>
                        <path d="M0,1.36883607 C0,1.00579818 0.164620053,0.657629365 0.457645644,0.400922805 C0.750671236,0.144216244 1.14809923,0 1.5625,0 L20.3125,0 C20.7269008,0 21.1243288,0.144216244 21.4173544,0.400922805 C21.7103799,0.657629365 21.875,1.00579818 21.875,1.36883607 L21.875,3.57266211 L0,3.57266211 L0,1.36883607 Z" id="路径"></path>
                    </g>
                    <path d="M17.5659452,12.9975217 C17.793966,12.9937703 17.98339,13.3626358 17.9967468,13.8364219 C18.0101036,14.3102081 17.842706,14.72265 17.616039,14.774427 L17.5659452,14.7797737 L15.4251821,14.7797737 C15.1986494,14.7792508 15.0115161,14.4115511 14.9982403,13.9408723 C14.9849644,13.4701935 15.150141,13.0594468 15.3750883,13.0037596 L15.4251821,12.9975217 L17.5659452,12.9975217 Z" id="路径" fill="#FFFFFF" fill-rule="nonzero" transform="translate(16.497493, 13.888634) rotate(90.000000) translate(-16.497493, -13.888634) "></path>
                    <path d="M9.63662244,10.5000284 C10.0928128,10.496277 10.4717842,10.8651424 10.4985065,11.3389286 C10.5252288,11.8127147 10.1903244,12.2251567 9.7368428,12.2769337 L9.63662244,12.2822804 L2.35565632,12.2822804 C1.90244325,12.2817574 1.52805478,11.9140578 1.50149441,11.443379 C1.47493404,10.9727002 1.80539483,10.5619534 2.25543596,10.5062662 L2.35565632,10.5000284 L9.63662244,10.5000284 Z" id="路径" fill="#FFFFFF" fill-rule="nonzero" transform="translate(6.000000, 11.391140) rotate(90.000000) translate(-6.000000, -11.391140) "></path>
                    <path d="M13.5203458,12.0000284 C13.7737849,11.996277 13.9843246,12.3651424 13.9991703,12.8389286 C14.014016,13.3127147 13.827958,13.7251567 13.5760238,13.7769337 L13.5203458,13.7822804 L9.47536462,13.7822804 C9.22357959,13.7817574 9.01558599,13.4140578 9.00083023,12.943379 C8.98607446,12.4727002 9.1696638,12.0619534 9.41968665,12.0062662 L9.47536462,12.0000284 L13.5203458,12.0000284 Z" id="路径备份-11" fill="#FFFFFF" fill-rule="nonzero" transform="translate(11.500000, 12.891140) rotate(90.000000) translate(-11.500000, -12.891140) "></path>
                </g>
            </g>
        </g>
    </g>
</svg>