<?xml version="1.0" encoding="UTF-8"?>
<svg width="36px" height="36px" viewBox="0 0 36 36" version="1.1" xmlns="http://www.w3.org/2000/svg" xmlns:xlink="http://www.w3.org/1999/xlink">
    <title>运单管理G</title>
    <defs>
        <linearGradient x1="50%" y1="0%" x2="50%" y2="100%" id="linearGradient-1">
            <stop stop-color="#CECECE" offset="0%"></stop>
            <stop stop-color="#E0E0E0" offset="100%"></stop>
        </linearGradient>
        <linearGradient x1="50%" y1="0%" x2="50%" y2="100%" id="linearGradient-2">
            <stop stop-color="#FFFFFF" offset="0%"></stop>
            <stop stop-color="#FFFFFF" offset="100%"></stop>
        </linearGradient>
    </defs>
    <g id="首页" stroke="none" stroke-width="1" fill="none" fill-rule="evenodd">
        <g id="画板" transform="translate(-193.000000, -124.000000)">
            <g id="编组-3" transform="translate(193.000000, 124.000000)">
                <path d="M4.45531235,31.4102385 C10.3957288,37.3499206 25.6042712,37.6154699 31.5446877,31.6757878 C37.4851041,25.7361057 37.4851041,10.2638943 31.5446877,4.32421219 C25.6042712,-1.61546988 10.3957288,-1.3499206 4.45531235,4.58976147 C-1.48510412,10.5294435 -1.48510412,25.4705565 4.45531235,31.4102385 Z" id="椭圆形备份" fill="url(#linearGradient-1)"></path>
                <path d="M23.1553877,9.28877005 C24.385602,9.28877005 25.3828877,10.2860558 25.3828877,11.5162701 L25.3839397,21.5860903 C25.2437033,21.5761683 25.10212,21.571123 24.9593583,21.571123 C21.9723444,21.571123 19.5012024,23.7798327 19.0900412,26.6531432 L13.2103877,26.6534759 C11.9801734,26.6534759 10.9828877,25.6561902 10.9828877,24.4259759 L10.9828877,11.5162701 C10.9828877,10.2860558 11.9801734,9.28877005 13.2103877,9.28877005 L23.1553877,9.28877005 Z M19.0299465,18.6064171 L14.371123,18.6064171 C13.9033053,18.6064171 13.5240642,18.9856583 13.5240642,19.4534759 C13.5240642,19.8853076 13.8472046,20.2416658 14.2648697,20.293935 L14.371123,20.3005348 L19.0299465,20.3005348 C19.4977642,20.3005348 19.8770053,19.9212936 19.8770053,19.4534759 C19.8770053,18.9856583 19.4977642,18.6064171 19.0299465,18.6064171 Z M21.9946524,15.2181818 L14.371123,15.2181818 C13.9033053,15.2181818 13.5240642,15.597423 13.5240642,16.0652406 C13.5240642,16.4970723 13.8472046,16.8534306 14.2648697,16.9056997 L14.371123,16.9122995 L21.9946524,16.9122995 C22.4624701,16.9122995 22.8417112,16.5330583 22.8417112,16.0652406 C22.8417112,15.597423 22.4624701,15.2181818 21.9946524,15.2181818 Z M21.9946524,11.8299465 L14.371123,11.8299465 C13.9033053,11.8299465 13.5240642,12.2091877 13.5240642,12.6770053 C13.5240642,13.108837 13.8472046,13.4651953 14.2648697,13.5174644 L14.371123,13.5240642 L21.9946524,13.5240642 C22.4624701,13.5240642 22.8417112,13.144823 22.8417112,12.6770053 C22.8417112,12.2091877 22.4624701,11.8299465 21.9946524,11.8299465 Z" id="形状结合" fill="url(#linearGradient-2)"></path>
                <path d="M26.7360704,25.2052786 L26.1771994,25.2052786 C26.1310117,25.0376833 26.0643695,24.8786657 25.9805718,24.7308651 L26.3758065,24.3356305 C26.478739,24.2326979 26.478739,24.0651026 26.3758065,23.9621701 L25.946261,23.5326246 C25.8433284,23.4296921 25.6757331,23.4296921 25.5728006,23.5326246 L25.177566,23.9278592 C25.0297654,23.8440616 24.8707478,23.7774194 24.7031525,23.7312317 L24.7031525,23.1730205 C24.7031525,23.0278592 24.5843842,22.9090909 24.4392229,22.9090909 L23.8321848,22.9090909 C23.6870235,22.9090909 23.5682551,23.0278592 23.5682551,23.1730205 L23.5682551,23.7318915 C23.4006598,23.7780792 23.2416422,23.8447214 23.0938416,23.9285191 L22.698607,23.5332845 C22.5956745,23.4303519 22.4280792,23.4303519 22.3251466,23.5332845 L21.8956012,23.9628299 C21.7926686,24.0657625 21.7926686,24.2333578 21.8956012,24.3362903 L22.2908358,24.7315249 C22.2070381,24.8793255 22.1403959,25.0383431 22.0942082,25.2059384 L21.5366569,25.2059384 C21.3914956,25.2059384 21.2727273,25.3247067 21.2727273,25.469868 L21.2727273,26.0769062 C21.2727273,26.2220674 21.3914956,26.3408358 21.5366569,26.3408358 L22.0955279,26.3408358 C22.1417155,26.5084311 22.2083578,26.6674487 22.2921554,26.8152493 L21.8969208,27.2104839 C21.7939883,27.3134164 21.7939883,27.4810117 21.8969208,27.5839443 L22.3264663,28.0134897 C22.4293988,28.1164223 22.5969941,28.1164223 22.6999267,28.0134897 L23.0951613,27.6182551 C23.2429619,27.7020528 23.4019795,27.768695 23.5695748,27.8148827 L23.5695748,28.372434 C23.5695748,28.5175953 23.6883431,28.6363636 23.8335044,28.6363636 L24.4405425,28.6363636 C24.5857038,28.6363636 24.7044721,28.5175953 24.7044721,28.372434 L24.7044721,27.813563 C24.8720674,27.7673754 25.031085,27.7007331 25.1788856,27.6169355 L25.5741202,28.0121701 C25.6770528,28.1151026 25.8446481,28.1151026 25.9475806,28.0121701 L26.3771261,27.5826246 C26.4800587,27.4796921 26.4800587,27.3120968 26.3771261,27.2091642 L25.9818915,26.8139296 C26.0656891,26.666129 26.1323314,26.5071114 26.1785191,26.3395161 L26.7360704,26.3395161 C26.8812317,26.3395161 27,26.2207478 27,26.0755865 L27,25.4685484 C27,25.3240469 26.8812317,25.2052786 26.7360704,25.2052786 L26.7360704,25.2052786 Z M24.1363636,27 C23.4585744,27 22.9090909,26.4505165 22.9090909,25.7727273 C22.9090909,25.094938 23.4585744,24.5454545 24.1363636,24.5454545 C24.8141529,24.5454545 25.3636364,25.094938 25.3636364,25.7727273 C25.3636364,26.4505165 24.8141529,27 24.1363636,27 Z" id="形状" fill="#FFFFFF" fill-rule="nonzero"></path>
            </g>
        </g>
    </g>
</svg>