<?xml version="1.0" encoding="UTF-8"?>
<svg width="36px" height="37px" viewBox="0 0 36 37" version="1.1" xmlns="http://www.w3.org/2000/svg" xmlns:xlink="http://www.w3.org/1999/xlink">
    <title>送货管理</title>
    <defs>
        <linearGradient x1="50%" y1="0%" x2="50%" y2="100%" id="linearGradient-1">
            <stop stop-color="#4476FF" offset="0%"></stop>
            <stop stop-color="#6EB4FF" offset="100%"></stop>
        </linearGradient>
    </defs>
    <g id="首页" stroke="none" stroke-width="1" fill="none" fill-rule="evenodd">
        <g id="画板" transform="translate(-61.000000, -609.000000)">
            <g id="编组-3" transform="translate(79.000000, 627.333333) scale(-1, 1) translate(-79.000000, -627.333333) translate(61.000000, 609.333333)">
                <path d="M4.45531235,31.4102385 C10.3957288,37.3499206 25.6042712,37.6154699 31.5446877,31.6757878 C37.4851041,25.7361057 37.4851041,10.2638943 31.5446877,4.32421219 C25.6042712,-1.61546988 10.3957288,-1.3499206 4.45531235,4.58976147 C-1.48510412,10.5294435 -1.48510412,25.4705565 4.45531235,31.4102385 Z" id="椭圆形备份" fill="url(#linearGradient-1)"></path>
                <path d="M13.0195588,13.5529412 C14.1962855,13.5529412 15.159898,14.4653916 15.241466,15.6213622 L15.2470588,15.7804412 L15.2470588,20.6430882 C15.2470588,21.530746 14.7278414,22.2971341 13.9765447,22.6551144 C13.9764706,23.9453221 12.9335574,24.9882353 11.6470588,24.9882353 C10.4320324,24.9882353 9.43427811,24.0579825 9.3271666,22.8708475 L9.00397059,22.8705882 C7.82724389,22.8705882 6.8636314,21.9581378 6.78206345,20.8021672 L6.77647059,20.6430882 L6.77647059,18.2117647 C6.77647059,17.3994371 7.49001233,16.1193916 8.91709581,14.3716281 C9.30167884,13.9006253 9.86017035,13.6093978 10.4610721,13.5603333 L10.6424834,13.5529412 L13.0195588,13.5529412 Z M26.5725,10.1647059 C27.8027143,10.1647059 28.8,11.1619916 28.8,12.3922059 L28.8,20.6430882 C28.8,21.8733025 27.8027143,22.8705882 26.5725,22.8705882 L25.8258046,22.8705139 C25.71885,24.0578082 24.7210226,24.9882353 23.5058824,24.9882353 C22.2907421,24.9882353 21.2929147,24.0578082 21.1859601,22.8705139 L18.3216176,22.8705882 C17.0914034,22.8705882 16.0941176,21.8733025 16.0941176,20.6430882 L16.0941176,12.3922059 C16.0941176,11.1619916 17.0914034,10.1647059 18.3216176,10.1647059 L26.5725,10.1647059 Z" id="形状结合" fill="#FFFFFF"></path>
            </g>
        </g>
    </g>
</svg>