<?xml version="1.0" encoding="UTF-8"?>
<svg width="20px" height="20px" viewBox="0 0 20 20" version="1.1" xmlns="http://www.w3.org/2000/svg" xmlns:xlink="http://www.w3.org/1999/xlink">
    <title>切片</title>
    <defs>
        <filter id="filter-1">
            <feColorMatrix in="SourceGraphic" type="matrix" values="0 0 0 0 0.282353 0 0 0 0 0.521569 0 0 0 0 1.000000 0 0 0 1.000000 0"></feColorMatrix>
        </filter>
    </defs>
    <g id="运单3.0" stroke="none" stroke-width="1" fill="none" fill-rule="evenodd">
        <g id="运单详情3.0" transform="translate(-486.000000, -314.000000)">
            <g id="icon/*20/选中备份" transform="translate(102.000000, 162.000000)" filter="url(#filter-1)">
                <g transform="translate(384.000000, 152.000000)">
                    <rect id="矩形" x="0" y="0" width="20" height="20"></rect>
                    <path d="M8.14632856,12.762346 C5.17992315,13.052537 3,14.0222242 3,15.17375 C3,16.5544619 6.13400675,17.67375 10,17.67375 C13.8659932,17.67375 17,16.5544619 17,15.17375 C17,13.9941848 14.7126231,13.0054215 11.6355987,12.7423636" id="路径" stroke="#9DA1B0"></path>
                    <path d="M10,2.5 C11.2426407,2.5 12.3676407,3.00367966 13.1819805,3.81801948 C13.9963203,4.63235931 14.5,5.75735931 14.5,7 C14.5,8.70739132 12.9582137,11.2704071 9.99993606,14.7118707 C7.04159029,11.2700813 5.5,8.70728278 5.5,7 C5.5,5.75735931 6.00367966,4.63235931 6.81801948,3.81801948 C7.63235931,3.00367966 8.75735931,2.5 10,2.5 Z" id="椭圆形" stroke="#9DA1B0"></path>
                    <circle id="椭圆形" stroke="#9DA1B0" cx="10" cy="7.17375" r="2"></circle>
                </g>
            </g>
        </g>
    </g>
</svg>