<?xml version="1.0" encoding="UTF-8"?>
<svg width="25px" height="25px" viewBox="0 0 25 25" version="1.1" xmlns="http://www.w3.org/2000/svg" xmlns:xlink="http://www.w3.org/1999/xlink">
    <title>编组</title>
    <g id="审批流" stroke="none" stroke-width="1" fill="none" fill-rule="evenodd">
        <g id="创建流程-发起申请" transform="translate(-107.000000, -669.000000)" fill-rule="nonzero">
            <g id="编组" transform="translate(119.992750, 681.007250) rotate(-270.000000) translate(-119.992750, -681.007250) translate(107.992750, 669.007250)">
                <path d="M0.790904597,12.1886129 C0.790904597,14.3185939 2.51655217,16.0452847 4.64524633,16.0452847 C6.7739405,16.0452847 8.49958807,14.3185939 8.49958807,12.1886129 C8.49958807,10.0586319 6.7739405,8.33194109 4.64524633,8.33194109 C2.51655217,8.33194109 0.790904597,10.0586319 0.790904597,12.1886129 Z" id="路径" fill="#93EBCD"></path>
                <path d="M19.3534355,14.7052099 C17.3774922,14.7052099 15.6875927,15.9463618 15.0179601,17.6887228 C10.9909376,15.1365135 9.52249135,14.2092768 8.97676718,13.8663443 C9.18538611,13.3311818 9.29223411,12.7617268 9.29181084,12.1872939 C9.29181084,11.6649813 9.20349316,11.1624533 9.04399407,10.6928995 L15.5531389,7.31237635 C16.3941341,8.5100022 17.784808,9.29479006 19.3547537,9.29479006 C21.9159664,9.29479006 24,7.20949659 24,4.64673555 C24,2.0839745 21.9146482,0 19.3534355,0 C16.7922228,0 14.7081892,2.08529347 14.7081892,4.64805452 C14.7081892,5.07540119 14.767507,5.48823917 14.8755973,5.88129259 L8.28472565,9.30402286 C7.43318504,8.2303803 6.11896523,7.53923939 4.64524633,7.53923939 C2.08403361,7.54055836 0,9.62453286 0,12.1886129 C0,14.7526929 2.08403361,16.8353484 4.64524633,16.8353484 C6.04910199,16.8353484 7.30795848,16.2088371 8.15949909,15.2209277 C9.13362992,15.8342493 12.4013841,17.9037151 14.7081892,19.3664542 C14.7160982,21.9226204 16.7961773,24 19.3534355,24 C21.9146482,24 23.9986818,21.9147065 23.9986818,19.3519455 C23.9986818,16.7891844 21.9146482,14.7052099 19.3534355,14.7052099 L19.3534355,14.7052099 Z M19.3534355,1.58276544 C21.0420168,1.58276544 22.4168726,2.95713344 22.4168726,4.64805452 C22.4168726,6.33765663 21.043335,7.71334359 19.3534355,7.71334359 C17.6648542,7.71334359 16.2899984,6.3389756 16.2899984,4.64805452 C16.2899984,2.95845241 17.663536,1.58276544 19.3534355,1.58276544 Z M4.64524633,15.252583 C2.95666502,15.252583 1.58180919,13.878215 1.58180919,12.1872939 C1.58180919,10.4976918 2.95534684,9.12200484 4.64524633,9.12200484 C6.33382765,9.12200484 7.70868347,10.4963728 7.70868347,12.1872939 C7.70868347,13.878215 6.33382765,15.252583 4.64524633,15.252583 Z M19.3534355,22.4185535 C17.6648542,22.4185535 16.2899984,21.0441855 16.2899984,19.3532645 C16.2899984,17.6636623 17.663536,16.2879754 19.3534355,16.2879754 C21.0420168,16.2879754 22.4168726,17.6623434 22.4168726,19.3532645 C22.4168726,21.0441855 21.0420168,22.4185535 19.3534355,22.4185535 Z" id="形状" fill="#474A54"></path>
            </g>
        </g>
    </g>
</svg>
