<?xml version="1.0" encoding="UTF-8"?>
<svg width="16px" height="16px" viewBox="0 0 16 16" version="1.1" xmlns="http://www.w3.org/2000/svg" xmlns:xlink="http://www.w3.org/1999/xlink">
    <title>icon/*16/发布回单</title>
    <g id="组件" stroke="none" stroke-width="1" fill="none" fill-rule="evenodd">
        <g id="画板" transform="translate(-899.000000, -862.000000)">
            <g id="icon/*16/发布回单" transform="translate(899.000000, 862.000000)">
                <rect id="矩形" fill-opacity="0.01" fill="#FFFFFF" fill-rule="nonzero" x="0" y="0" width="16" height="16"></rect>
                <path d="M9.33892088,14.6666667 C7.78212364,14.6666667 6.4469278,14.6666667 3.33333333,14.6666667 C2.96514333,14.6666667 2.66666667,14.3682 2.66666667,14 L2.66666667,2 C2.66666667,1.63181 2.96514333,1.33333333 3.33333333,1.33333333 L10,1.33333333 L13.3333333,4.66666667 C13.3333333,7.89893764 13.3333333,8.32314087 13.3333333,9.93927636" id="路径" stroke="#4885FF" stroke-linecap="round" stroke-linejoin="round"></path>
                <line x1="5.33333333" y1="6.75" x2="10.3333333" y2="6.75" id="路径" stroke="#4885FF" stroke-linecap="round" stroke-linejoin="round"></line>
                <line x1="5.33333333" y1="9.41666667" x2="10.3333333" y2="9.41666667" id="路径" stroke="#4885FF" stroke-linecap="round" stroke-linejoin="round"></line>
                <line x1="11.3333333" y1="13.3333333" x2="14.3333333" y2="13.3333333" id="路径备份-2" stroke="#4885FF" stroke-linecap="round" stroke-linejoin="round"></line>
                <line x1="11.3333333" y1="13.3333333" x2="14.3333333" y2="13.3333333" id="路径备份-2" stroke="#4885FF" stroke-linecap="round" stroke-linejoin="round" transform="translate(12.833333, 13.333333) rotate(90.000000) translate(-12.833333, -13.333333) "></line>
            </g>
        </g>
    </g>
</svg>