<?xml version="1.0" encoding="UTF-8"?>
<svg width="16px" height="17px" viewBox="0 0 16 17" version="1.1" xmlns="http://www.w3.org/2000/svg" xmlns:xlink="http://www.w3.org/1999/xlink">
    <title>icon/*16/任务调度</title>
    <g id="运单列表" stroke="none" stroke-width="1" fill="none" fill-rule="evenodd">
        <g id="状态标识" transform="translate(-106.000000, -219.000000)">
            <g id="编组" transform="translate(106.000000, 219.620983)">
                <rect id="矩形" fill-opacity="0.01" fill="#FFFFFF" fill-rule="nonzero" x="0" y="0" width="16" height="16"></rect>
                <path d="M14.3333333,1.33333333 L1.66666667,1.33333333 C1.48257333,1.33333333 1.33333333,1.49614 1.33333333,1.69697 L1.33333333,4.9697 C1.33333333,5.17053333 1.48257333,5.33333333 1.66666667,5.33333333 L14.3333333,5.33333333 C14.5174333,5.33333333 14.6666667,5.17053333 14.6666667,4.9697 L14.6666667,1.69697 C14.6666667,1.49614 14.5174333,1.33333333 14.3333333,1.33333333 Z" id="路径" stroke="#4885ff" stroke-linejoin="round"></path>
                <path d="M14.3333333,10.6666667 L1.66666667,10.6666667 C1.48257333,10.6666667 1.33333333,10.8294667 1.33333333,11.0303 L1.33333333,14.3030333 C1.33333333,14.5038667 1.48257333,14.6666667 1.66666667,14.6666667 L14.3333333,14.6666667 C14.5174333,14.6666667 14.6666667,14.5038667 14.6666667,14.3030333 L14.6666667,11.0303 C14.6666667,10.8294667 14.5174333,10.6666667 14.3333333,10.6666667 Z" id="路径" stroke="#4885ff" stroke-linejoin="round"></path>
                <polyline id="路径" stroke="#4885ff" stroke-linecap="round" stroke-linejoin="round" points="4.66666667 5.33333333 4.66666667 8.00276667 11.3333333 8.00573333 11.3333333 10.6666667"></polyline>
                <line x1="6" y1="12.6666667" x2="10" y2="12.6666667" id="路径" stroke="#4885ff" stroke-linecap="round" stroke-linejoin="round"></line>
                <line x1="6" y1="3.33333333" x2="10" y2="3.33333333" id="路径" stroke="#4885ff" stroke-linecap="round" stroke-linejoin="round"></line>
            </g>
        </g>
    </g>
</svg>
