<?xml version="1.0" encoding="UTF-8"?>
<svg width="16px" height="16px" viewBox="0 0 16 16" version="1.1" xmlns="http://www.w3.org/2000/svg" xmlns:xlink="http://www.w3.org/1999/xlink">
    <title>切片</title>
    <g id="运单列表" stroke="none" stroke-width="1" fill="none" fill-rule="evenodd">
        <g id="任务管理/找车中" transform="translate(-252.000000, -149.000000)">
            <g id="按钮/图标/2字备份-4" transform="translate(246.000000, 142.000000)">
                <g id="icon/*16/默认" transform="translate(6.000000, 7.000000)">
                    <rect id="矩形" x="0" y="0" width="16" height="16"></rect>
                    <g id="编组" transform="translate(3.000000, 1.000000)" stroke="#4885FF" stroke-linecap="round" stroke-linejoin="round">
                        <path d="M3.69107716,13 C2.11581049,12.4109 0.801910494,10.3950333 0.144310494,9.21426667 C-0.139622839,8.70446667 0.00994382727,8.07823333 0.465610494,7.7137 C0.973510494,7.3074 1.70567716,7.34793333 2.16561049,7.80786667 L2.69107716,8.33333333 L2.69107716,4.5 C2.69107716,4.03976667 3.06417716,3.66666667 3.52441049,3.66666667 C3.98464383,3.66666667 4.35774383,4.03976667 4.35774383,4.5 L4.35774383,6.5 C4.35774383,6.03976667 4.73084383,5.66666667 5.19107716,5.66666667 C5.65131049,5.66666667 6.02441049,6.03976667 6.02441049,6.5 L6.02441049,7.16666667 C6.02441049,6.70643333 6.39751049,6.33333333 6.85774383,6.33333333 C7.31797716,6.33333333 7.69107716,6.70643333 7.69107716,7.16666667 L7.69107716,7.83333333 C7.69107716,7.3731 8.06417716,7 8.52441049,7 C8.98464383,7 9.35774383,7.3731 9.35774383,7.83333333 L9.35774383,10.456 C9.35774383,10.8127667 9.26954383,11.1653333 9.06391049,11.4569 C8.72271049,11.9406333 8.10941049,12.6778667 7.35774383,13 C6.19107716,13.5 5.14777716,13.5447667 3.69107716,13 Z" id="路径"></path>
                        <path d="M6.02441049,2.66666667 C6.02441049,1.19390667 4.83051049,0 3.35774383,0 C1.88497716,0 0.691077161,1.19390667 0.691077161,2.66666667 C0.691077161,2.89686667 0.720243827,3.12026667 0.775077161,3.33333333 M0.775077161,3.33333333 C0.804510494,3.4476 0.841277161,3.55886667 0.884910494,3.66666667 L0.775077161,3.33333333 Z" id="形状"></path>
                    </g>
                </g>
            </g>
        </g>
    </g>
</svg>