<?xml version="1.0" encoding="UTF-8"?>
<svg width="14px" height="14px" viewBox="0 0 14 14" version="1.1" xmlns="http://www.w3.org/2000/svg" xmlns:xlink="http://www.w3.org/1999/xlink">
    <title>DownCircleOutline</title>
    <g id="组件规范" stroke="none" stroke-width="1" fill="none" fill-rule="evenodd">
        <g id="DownCircleOutline" transform="translate(0.000000, 0.277779)" fill="#D3DCE5" fill-rule="nonzero">
            <path d="M6.72222527,0 C10.4347296,0 13.4444505,3.00972095 13.4444505,6.72222527 C13.4444505,10.4347296 10.4347296,13.4444505 6.72222527,13.4444505 C3.00972095,13.4444505 0,10.4347296 0,6.72222527 C0,3.00972095 3.00972095,0 6.72222527,0 Z M6.72222527,0.916667733 C3.51602232,0.916667733 0.916667733,3.51603664 0.916667733,6.72222527 C0.916667733,9.92842822 3.51603664,12.5277828 6.72222527,12.5277828 C9.92842822,12.5277828 12.5277828,9.9284139 12.5277828,6.72222527 C12.5277828,3.51602232 9.9284139,0.916667733 6.72222527,0.916667733 Z M4.48250522,5.05297333 L6.90984137,7.27130924 L9.26751078,5.11652418 L9.26751078,5.11652418 C9.31731463,5.07096064 9.3946251,5.074398 9.44018807,5.12420189 C9.46079189,5.14672313 9.47223291,5.176139 9.47223291,5.20666317 L9.47223291,6.11599756 L9.47223291,6.11599713 C9.47230773,6.1503915 9.45788749,6.18322554 9.43251069,6.20644187 L7.23555891,8.2139442 L7.19522553,8.24663873 L7.19522554,8.24663873 C7.12769405,8.29568189 7.04801013,8.32527278 6.96483686,8.33219434 L6.91594796,8.33372212 L6.90983685,8.33372212 L6.90983686,8.33372212 C6.80562821,8.33766674 6.70320276,8.30586115 6.61955826,8.24358318 L6.58411373,8.2139443 L4.31749521,6.14289111 L4.3174952,6.1428911 C4.29211825,6.11967491 4.27769792,6.08684088 4.27777268,6.0524465 L4.27777268,5.14311211 L4.27777268,5.14310871 C4.27777268,5.07560716 4.332536,5.0209285 4.40003755,5.0209285 C4.43056172,5.0209285 4.4599773,5.03237088 4.48249797,5.05297535 L4.48250522,5.05297333 Z" id="形状"></path>
        </g>
    </g>
</svg>