<?xml version="1.0" encoding="UTF-8"?>
<svg width="52px" height="63px" viewBox="0 0 52 63" version="1.1" xmlns="http://www.w3.org/2000/svg" xmlns:xlink="http://www.w3.org/1999/xlink">
    <title>编组 18备份 6</title>
    <g id="车辆分布管理" stroke="none" stroke-width="1" fill="none" fill-rule="evenodd">
        <g id="车辆分布监控" transform="translate(-314.000000, -399.000000)">
            <g id="编组-18备份-6" transform="translate(318.000000, 403.000000)">
                <path d="M22,-1.8 C28.5722463,-1.8 34.5223215,0.864638907 38.8293201,5.1728473 C43.1361358,9.48087271 45.8,15.4323424 45.8,22.0061796 C45.8,30.3954277 38.48493,41.557334 23.2054835,55.336716 C22.8007423,55.7017216 22.3984034,56.0613576 21.998767,56.4131872 C21.5997425,56.0597002 21.1983251,55.7008806 20.7945165,55.336716 C5.51507004,41.557334 -1.8,30.3954277 -1.8,22.0061796 C-1.8,15.4323424 0.863864221,9.48087271 5.17067989,5.1728473 C9.4776785,0.864638907 15.4277537,-1.8 22,-1.8 Z" id="椭圆形备份" stroke-opacity="0.2" stroke="#4885FF" stroke-width="3.6" fill="#4885FF"></path>
                <ellipse id="椭圆形" fill="#FFFFFF" cx="22" cy="23.4" rx="14.8648649" ry="15"></ellipse>
                <g id="运力管理" transform="translate(21.500000, 23.800000) scale(-1, 1) translate(-21.500000, -23.800000) translate(13.000000, 17.000000)" fill="#4885FF" fill-rule="nonzero">
                    <path d="M0.17,5.82533333 C0.181333333,5.80266667 0.181333333,5.78 0.192666667,5.76866667 L3.52466667,2.43666667 C3.66066667,2.30066667 3.83066667,2.25533333 4.00066667,2.26666667 L6.8,2.26666667 C6.8,1.02 7.82,2.80410615e-14 9.06666667,2.80410615e-14 L14.7333333,2.80410615e-14 C15.98,2.80410615e-14 17,1.02 17,2.26666667 L17,10.7666667 C17,11.084 16.7506667,11.3333333 16.4333333,11.3333333 L15.8666667,11.3333333 C15.8666667,12.58 14.8466667,13.6 13.6,13.6 C12.3533333,13.6 11.3333333,12.58 11.3333333,11.3333333 L5.66666667,11.3333333 C5.66666667,12.58 4.64666667,13.6 3.4,13.6 C2.15333333,13.6 1.13333333,12.58 1.13333333,11.3333333 L0.566666667,11.3333333 C0.249333333,11.3333333 0,11.084 0,10.7666667 L0,6.23333333 C0,6.07466667 0.068,5.92733333 0.17,5.82533333 Z M13.6,12.4666667 C14.2233333,12.4666667 14.7333333,11.9566667 14.7333333,11.3333333 C14.7333333,10.71 14.2233333,10.2 13.6,10.2 C12.9766667,10.2 12.4666667,10.71 12.4666667,11.3333333 C12.4666667,11.9566667 12.9766667,12.4666667 13.6,12.4666667 Z M3.4,12.4666667 C4.02333333,12.4666667 4.53333333,11.9566667 4.53333333,11.3333333 C4.53333333,10.71 4.02333333,10.2 3.4,10.2 C2.77666667,10.2 2.26666667,10.71 2.26666667,11.3333333 C2.26666667,11.9566667 2.77666667,12.4666667 3.4,12.4666667 Z M6.8,6.8 L6.8,3.4 L4.53333333,3.4 L1.13333333,6.8 L6.8,6.8 Z" id="形状结合"></path>
                </g>
            </g>
        </g>
    </g>
</svg>