<?xml version="1.0" encoding="UTF-8"?>
<svg width="64px" height="14px" viewBox="0 0 64 14" version="1.1" xmlns="http://www.w3.org/2000/svg" xmlns:xlink="http://www.w3.org/1999/xlink">
    <title>编组</title>
    <defs>
        <polygon id="path-1" points="0 14 63.6689352 14 63.6689352 0 0 0"></polygon>
    </defs>
    <g id="组织管理2.0" stroke="none" stroke-width="1" fill="none" fill-rule="evenodd">
        <g id="001-2备份-2" transform="translate(-586.000000, -70.000000)">
            <g id="编组" transform="translate(586.000000, 70.000000)">
                <polygon id="Fill-1" fill="#337EFC" points="0 14 38.4585615 14 38.4585615 0 0 0"></polygon>
                <polygon id="Fill-2" fill="#F7931E" points="38.3376289 14 63.6689352 14 63.6689352 0 38.3376289 0"></polygon>
                <g>
                    <path d="M5.40507007,3.61972052 C5.13191447,3.61972052 4.91006363,3.36657941 4.91006363,3.05536807 C4.91006363,2.74302916 5.13191447,2.49129752 5.40507007,2.49129752 L12.5288217,2.49129752 C12.8014135,2.49129752 13.0235462,2.74302916 13.0235462,3.05536807 C13.0235462,3.36657941 12.8014135,3.61972052 12.5288217,3.61972052 L5.40507007,3.61972052 Z" id="Fill-3" fill="#FFFFFF"></path>
                    <path d="M5.40563386,5.65107925 C5.13191447,5.65107925 4.91006363,5.39793814 4.91006363,5.0867268 C4.91006363,4.77438789 5.13191447,4.52265625 5.40563386,4.52265625 L12.5291036,4.52265625 C12.8016954,4.52265625 13.0235462,4.77438789 13.0235462,5.0867268 C13.0235462,5.39793814 12.8016954,5.65107925 12.5291036,5.65107925 L5.40563386,5.65107925 Z" id="Fill-5" fill="#FFFFFF"></path>
                    <path d="M4.91012001,11.4186372 L4.91012001,6.93933634 C4.91012001,6.66759021 5.13563547,6.44658505 5.41330139,6.44658505 L6.03346891,6.44658505 C6.03628785,6.44658505 6.03826111,6.44968589 6.03826111,6.45222294 L6.03826111,11.4186372 C6.03826111,11.7236469 5.7856838,11.9708682 5.47419056,11.9708682 C5.16269733,11.9708682 4.91012001,11.7236469 4.91012001,11.4186372" id="Fill-7" fill="#FFFFFF"></path>
                    <mask id="mask-2" fill="white">
                        <use xlink:href="#path-1"></use>
                    </mask>
                    <g id="Clip-10"></g>
                    <polygon id="Fill-9" fill="#FFFFFF" mask="url(#mask-2)" points="7.16659955 9.71379671 8.29474066 9.71379671 8.29474066 5.42533827 7.16659955 5.42533827"></polygon>
                    <polygon id="Fill-11" fill="#FFFFFF" mask="url(#mask-2)" points="5.81266108 10.1651095 12.1307587 10.1651095 12.1307587 9.03668653 5.81266108 9.03668653"></polygon>
                    <polygon id="Fill-12" fill="#FFFFFF" mask="url(#mask-2)" points="5.81266108 7.57506443 12.1307587 7.57506443 12.1307587 6.44664143 5.81266108 6.44664143"></polygon>
                    <path d="M12.4695111,11.97084 C12.1580179,11.97084 11.9054406,11.7233368 11.9054406,11.4177634 L11.9054406,6.44655686 L12.5363201,6.44655686 C12.811167,6.44655686 13.0335817,6.66474307 13.0335817,6.93423405 L13.0335817,11.4177634 C13.0335817,11.7233368 12.7810043,11.97084 12.4695111,11.97084" id="Fill-13" fill="#FFFFFF" mask="url(#mask-2)"></path>
                    <polygon id="Fill-14" fill="#FFFFFF" mask="url(#mask-2)" points="9.64896102 9.71379671 10.7771021 9.71379671 10.7771021 5.42533827 9.64896102 5.42533827"></polygon>
                    <path d="M6.82804446,4.07106153 C6.51683312,4.07106153 6.2639739,3.80608086 6.2639739,3.47795586 L6.2639739,2.25876289 C6.2639739,1.93176546 6.51683312,1.66565722 6.82804446,1.66565722 C7.1392558,1.66565722 7.39239691,1.93176546 7.39239691,2.25876289 L7.39239691,3.47795586 C7.39239691,3.80608086 7.1392558,4.07106153 6.82804446,4.07106153" id="Fill-15" fill="#FFFFFF" mask="url(#mask-2)"></path>
                    <path d="M3.71150532,3.63832555 C3.40029398,3.63832555 3.14715287,3.37334488 3.14715287,3.04521988 L3.14715287,2.2587347 C3.14715287,1.93173727 3.40029398,1.66562903 3.71150532,1.66562903 C4.02271666,1.66562903 4.27557587,1.93173727 4.27557587,2.2587347 L4.27557587,3.04521988 C4.27557587,3.37334488 4.02271666,3.63832555 3.71150532,3.63832555" id="Fill-16" fill="#FFFFFF" mask="url(#mask-2)"></path>
                    <path d="M14.7973381,3.63832555 C14.4861268,3.63832555 14.2332676,3.37334488 14.2332676,3.04521988 L14.2332676,2.2587347 C14.2332676,1.93173727 14.4861268,1.66562903 14.7973381,1.66562903 C15.1085495,1.66562903 15.3616906,1.93173727 15.3616906,2.2587347 L15.3616906,3.04521988 C15.3616906,3.37334488 15.1085495,3.63832555 14.7973381,3.63832555" id="Fill-17" fill="#FFFFFF" mask="url(#mask-2)"></path>
                    <path d="M11.3411163,4.07106153 C11.0301869,4.07106153 10.7770457,3.80608086 10.7770457,3.47795586 L10.7770457,2.25876289 C10.7770457,1.93176546 11.0301869,1.66565722 11.3411163,1.66565722 C11.6523276,1.66565722 11.9054687,1.93176546 11.9054687,2.25876289 L11.9054687,3.47795586 C11.9054687,3.80608086 11.6523276,4.07106153 11.3411163,4.07106153" id="Fill-18" fill="#FFFFFF" mask="url(#mask-2)"></path>
                    <path d="M30.3893363,3.36221005 C30.078125,3.36221005 29.8252658,3.09722938 29.8252658,2.76910438 L29.8252658,2.25859375 C29.8252658,1.93187822 30.078125,1.66576997 30.3893363,1.66576997 C30.7005477,1.66576997 30.9534069,1.93187822 30.9534069,2.25859375 L30.9534069,2.76910438 C30.9534069,3.09722938 30.7005477,3.36221005 30.3893363,3.36221005" id="Fill-19" fill="#FFFFFF" mask="url(#mask-2)"></path>
                    <path d="M3.6688547,11.97084 C3.98034794,11.97084 4.23320715,11.7207998 4.23320715,11.4126893 L4.23320715,5.08077883 C4.23320715,4.77238644 3.98034794,4.52262806 3.6688547,4.52262806 C3.35736147,4.52262806 3.10478415,4.77238644 3.10478415,5.08077883 L3.10478415,11.4126893 C3.10478415,11.7207998 3.35736147,11.97084 3.6688547,11.97084" id="Fill-20" fill="#FFFFFF" mask="url(#mask-2)"></path>
                    <path d="M17.1967381,3.61972052 C16.9264014,3.61972052 16.7082152,3.36657941 16.7082152,3.05536807 C16.7082152,2.74302916 16.9264014,2.49129752 17.1967381,2.49129752 L22.7635873,2.49129752 C23.0330783,2.49129752 23.2521102,2.74302916 23.2521102,3.05536807 C23.2521102,3.36657941 23.0330783,3.61972052 22.7635873,3.61972052 L17.1967381,3.61972052 Z" id="Fill-21" fill="#FFFFFF" mask="url(#mask-2)"></path>
                    <path d="M16.5503826,6.10213837 C16.2628504,6.10213837 16.0311332,5.84927916 16.0311332,5.53806782 C16.0311332,5.2257289 16.2628504,4.97399726 16.5503826,4.97399726 L23.4099992,4.97399726 C23.6964038,4.97399726 23.9292486,5.2257289 23.9292486,5.53806782 C23.9292486,5.84927916 23.6964038,6.10213837 23.4099992,6.10213837 L16.5503826,6.10213837 Z" id="Fill-22" fill="#FFFFFF" mask="url(#mask-2)"></path>
                    <path d="M15.0998953,11.97084 C14.6948131,11.97084 14.3672519,11.6604744 14.3672519,11.2785076 L14.3672519,10.842417 L23.7162774,10.842417 C24.0458119,10.842417 24.3130477,11.0947125 24.3130477,11.4070514 C24.3130477,11.7182627 24.0458119,11.97084 23.7162774,11.97084 L15.0998953,11.97084 Z" id="Fill-23" fill="#FFFFFF" mask="url(#mask-2)"></path>
                    <path d="M22.7636155,9.71376852 L17.1967663,9.71376852 C16.9264296,9.71376852 16.7082434,9.46062742 16.7082434,9.14941608 C16.7082434,8.83707716 16.9264296,8.58534552 17.1967663,8.58534552 L22.7636155,8.58534552 C23.0331065,8.58534552 23.2521384,8.83707716 23.2521384,9.14941608 C23.2521384,9.46062742 23.0331065,9.71376852 22.7636155,9.71376852" id="Fill-24" fill="#FFFFFF" mask="url(#mask-2)"></path>
                    <path d="M20.227384,5.95761115 L17.6249356,9.50863402 C17.4651015,9.72653834 16.9252738,9.77897068 16.6972213,9.62646585 C16.4691688,9.47396102 16.4141994,9.17374356 16.5737516,8.95583924 L19.1762001,5.40481637 C19.3360341,5.18691205 19.6500644,5.1344797 19.8783988,5.28698454 C20.1061695,5.43948937 20.1614207,5.73970683 20.0015867,5.95761115 L20.227384,5.95761115 Z" id="Fill-25" fill="#FFFFFF" mask="url(#mask-2)"></path>
                    <path d="M22.3352771,9.50854945 L19.7328286,5.95752658 C19.5729945,5.73962226 19.854607,5.4394048 20.0829414,5.28689997 C20.310712,5.13439514 20.6253061,5.18682748 20.7848582,5.4047318 L23.386461,8.95575467 C23.5462951,9.17365899 23.4913257,9.47387645 23.2629913,9.62638128 C23.0349388,9.77888611 22.7206266,9.72645377 22.5610744,9.50854945" id="Fill-26" fill="#FFFFFF" mask="url(#mask-2)"></path>
                    <path d="M14.7898961,4.52254349 C15.1013893,4.52254349 15.3542486,4.77230187 15.3542486,5.08069427 L15.3542486,11.4126047 C15.3542486,11.7209971 15.1013893,11.9707555 14.7898961,11.9707555 C14.4786848,11.9707555 14.2258255,11.7209971 14.2258255,11.4126047 L14.2258255,5.08069427 C14.2258255,4.77230187 14.4786848,4.52254349 14.7898961,4.52254349" id="Fill-27" fill="#FFFFFF" mask="url(#mask-2)"></path>
                    <path d="M25.899408,3.61972052 C25.6366825,3.61972052 25.424698,3.36657941 25.424698,3.05536807 C25.424698,2.74302916 25.6366825,2.49129752 25.899408,2.49129752 L34.8791519,2.49129752 C35.1410317,2.49129752 35.353862,2.74302916 35.353862,3.05536807 C35.353862,3.36657941 35.1410317,3.61972052 34.8791519,3.61972052 L25.899408,3.61972052 Z" id="Fill-28" fill="#FFFFFF" mask="url(#mask-2)"></path>
                    <path d="M25.4248107,4.24504671 L25.4248107,2.99428157 C25.4248107,2.71576997 25.6779518,2.49110019 25.9891632,2.49110019 C26.3000926,2.49110019 26.5532337,2.71576997 26.5532337,2.99428157 L26.5532337,4.24504671 C26.5532337,4.52327642 26.3000926,4.74822809 25.9891632,4.74822809 C25.6779518,4.74822809 25.4248107,4.52327642 25.4248107,4.24504671" id="Fill-29" fill="#FFFFFF" mask="url(#mask-2)"></path>
                    <path d="M34.2254671,4.24504671 L34.2254671,2.99428157 C34.2254671,2.71576997 34.4783264,2.49110019 34.7895377,2.49110019 C35.1004671,2.49110019 35.3538901,2.71576997 35.3538901,2.99428157 L35.3538901,4.24504671 C35.3538901,4.52327642 35.1004671,4.74822809 34.7895377,4.74822809 C34.4783264,4.74822809 34.2254671,4.52327642 34.2254671,4.24504671" id="Fill-30" fill="#FFFFFF" mask="url(#mask-2)"></path>
                    <path d="M27.2959407,6.10242026 C27.0106637,6.10242026 26.7789465,5.89043573 26.7789465,5.62968347 L26.7789465,5.44673405 C26.7789465,5.1859818 27.0106637,4.97399726 27.2959407,4.97399726 L33.7084729,4.97399726 C33.99375,4.97399726 34.2254671,5.1859818 34.2254671,5.44673405 L34.2254671,5.62968347 C34.2254671,5.89043573 33.99375,6.10242026 33.7084729,6.10242026 L27.2959407,6.10242026 Z" id="Fill-31" fill="#FFFFFF" mask="url(#mask-2)"></path>
                    <path d="M27.2571239,9.03671472 C26.9932708,9.03671472 26.7790311,8.82473019 26.7790311,8.56369604 L26.7790311,8.38102851 C26.7790311,8.12027626 26.9932708,7.90829172 27.2571239,7.90829172 L33.747177,7.90829172 C34.0110301,7.90829172 34.2255517,8.12027626 34.2255517,8.38102851 L34.2255517,8.56369604 C34.2255517,8.82473019 34.0110301,9.03671472 33.747177,9.03671472 L27.2571239,9.03671472 Z" id="Fill-32" fill="#FFFFFF" mask="url(#mask-2)"></path>
                    <path d="M25.9222697,11.97084 C25.6479865,11.97084 25.4247262,11.7599831 25.4247262,11.5009222 L25.4247262,11.3123349 C25.4247262,11.053274 25.6479865,10.842417 25.9222697,10.842417 L34.8563466,10.842417 C35.1306298,10.842417 35.3538901,11.053274 35.3538901,11.3123349 L35.3538901,11.5009222 C35.3538901,11.7599831 35.1306298,11.97084 34.8563466,11.97084 L25.9222697,11.97084 Z" id="Fill-33" fill="#FFFFFF" mask="url(#mask-2)"></path>
                    <path d="M33.2325226,11.4227529 L33.2325226,10.4865818 C33.2325226,10.1841092 33.4853818,9.93942494 33.7965931,9.93942494 C34.1075226,9.93942494 34.3606637,10.1841092 34.3606637,10.4865818 L34.3606637,11.4227529 C34.3606637,11.7260712 34.1075226,11.9707555 33.7965931,11.9707555 C33.4853818,11.9707555 33.2325226,11.7260712 33.2325226,11.4227529" id="Fill-34" fill="#FFFFFF" mask="url(#mask-2)"></path>
                    <path d="M31.0662774,11.3921956 L31.0662774,6.00491302 C31.0662774,5.68439916 30.8137001,5.42533827 30.5022068,5.42533827 C30.1907136,5.42533827 29.9381363,5.68439916 29.9381363,6.00491302 L29.9381363,11.3921956 C29.9381363,11.7118637 30.1907136,11.9709246 30.5022068,11.9709246 C30.8137001,11.9709246 31.0662774,11.7118637 31.0662774,11.3921956" id="Fill-35" fill="#FFFFFF" mask="url(#mask-2)"></path>
                    <path d="M41.031693,11.9774646 C40.7588193,11.9774646 40.5366865,11.7666076 40.5366865,11.5075467 L40.5366865,11.3189594 C40.5366865,11.0598985 40.7588193,10.8490416 41.031693,10.8490416 L49.9223582,10.8490416 C50.195232,10.8490416 50.4173647,11.0598985 50.4173647,11.3189594 L50.4173647,11.5075467 C50.4173647,11.7666076 50.195232,11.9774646 49.9223582,11.9774646 L41.031693,11.9774646 Z" id="Fill-36" fill="#FFFFFF" mask="url(#mask-2)"></path>
                    <path d="M52.0844596,11.9774646 C51.811304,11.9774646 51.5891712,11.7666076 51.5891712,11.5075467 L51.5891712,11.3189594 C51.5891712,11.0598985 51.811304,10.8490416 52.0844596,10.8490416 L60.9748429,10.8490416 C61.2479986,10.8490416 61.4698494,11.0598985 61.4698494,11.3189594 L61.4698494,11.5075467 C61.4698494,11.7666076 61.2479986,11.9774646 60.9748429,11.9774646 L52.0844596,11.9774646 Z" id="Fill-37" fill="#FFFFFF" mask="url(#mask-2)"></path>
                    <path d="M46.5561453,11.116221 L46.5561453,5.72893847 C46.5561453,5.40842461 46.303568,5.14936372 45.9920747,5.14936372 C45.6805815,5.14936372 45.4277223,5.40842461 45.4277223,5.72893847 L45.4277223,11.116221 C45.4277223,11.4358892 45.6805815,11.6949501 45.9920747,11.6949501 C46.303568,11.6949501 46.5561453,11.4358892 46.5561453,11.116221" id="Fill-38" fill="#FFFFFF" mask="url(#mask-2)"></path>
                    <path d="M55.5522672,11.116221 L55.5522672,2.21766269 C55.5522672,1.89686695 55.2996899,1.63780606 54.9879148,1.63780606 C54.6764216,1.63780606 54.4238442,1.89686695 54.4238442,2.21766269 L54.4238442,11.116221 C54.4238442,11.4358892 54.6764216,11.6949501 54.9879148,11.6949501 C55.2996899,11.6949501 55.5522672,11.4358892 55.5522672,11.116221" id="Fill-39" fill="#FFFFFF" mask="url(#mask-2)"></path>
                    <path d="M58.6354865,11.116221 L58.6354865,2.21766269 C58.6354865,1.89686695 58.3829091,1.63780606 58.071134,1.63780606 C57.7596408,1.63780606 57.5070635,1.89686695 57.5070635,2.21766269 L57.5070635,11.116221 C57.5070635,11.4358892 57.7596408,11.6949501 58.071134,11.6949501 C58.3829091,11.6949501 58.6354865,11.4358892 58.6354865,11.116221" id="Fill-40" fill="#FFFFFF" mask="url(#mask-2)"></path>
                    <path d="M43.4787049,11.13274 L43.4787049,7.35930251 C43.4787049,7.03878866 43.2261276,6.77972777 42.9146343,6.77972777 C42.6031411,6.77972777 42.3505638,7.03878866 42.3505638,7.35930251 L42.3505638,11.13274 C42.3505638,11.4524082 42.6031411,11.7114691 42.9146343,11.7114691 C43.2261276,11.7114691 43.4787049,11.4524082 43.4787049,11.13274" id="Fill-41" fill="#FFFFFF" mask="url(#mask-2)"></path>
                    <path d="M46.1203649,8.46286244 L48.7794741,8.46286244 C49.0999879,8.46286244 49.3590488,8.21028512 49.3590488,7.89879188 C49.3590488,7.58729865 49.0999879,7.33472133 48.7794741,7.33472133 L46.1203649,7.33472133 C45.8006967,7.33472133 45.5416358,7.58729865 45.5416358,7.89879188 C45.5416358,8.21028512 45.8006967,8.46286244 46.1203649,8.46286244" id="Fill-42" fill="#FFFFFF" mask="url(#mask-2)"></path>
                    <path d="M52.0990617,5.712053 L52.8945675,8.24910197 C52.9906935,8.55495731 53.3092341,8.72663096 53.6066326,8.63360583 C53.9037492,8.54029881 54.0672479,8.2175298 53.9714038,7.91167445 L53.1756161,5.37434359 C53.080054,5.06933392 52.7617953,4.89794217 52.4643967,4.9909673 C52.1669982,5.08427432 52.0034995,5.40704333 52.0990617,5.712053" id="Fill-43" fill="#FFFFFF" mask="url(#mask-2)"></path>
                    <path d="M60.9542365,5.712053 L60.1587307,8.24910197 C60.0626047,8.55495731 59.7440641,8.72663096 59.4466656,8.63360583 C59.149549,8.54029881 58.9863322,8.2175298 59.0818943,7.91167445 L59.877682,5.37434359 C59.9735261,5.06933392 60.2917848,4.89794217 60.5891833,4.9909673 C60.8865818,5.08427432 61.0497986,5.40704333 60.9542365,5.712053" id="Fill-44" fill="#FFFFFF" mask="url(#mask-2)"></path>
                    <path d="M41.510124,6.62214884 C41.2885551,6.84371778 40.926039,6.84371778 40.70447,6.62214884 C40.4806459,6.39832474 40.4806459,6.03496295 40.70447,5.81113885 L44.9359858,1.81697809 C45.1592461,1.59399968 45.5240174,1.59399968 45.7472777,1.81697809 C45.9696923,2.03967461 45.9696923,2.40021746 45.7472777,2.62263209 L41.510124,6.62214884 Z" id="Fill-45" fill="#FFFFFF" mask="url(#mask-2)"></path>
                    <path d="M49.4408827,6.62214884 C49.6624517,6.84371778 50.0249678,6.84371778 50.2465367,6.62214884 C50.4706427,6.39832474 50.4706427,6.03496295 50.2465367,5.81113885 L45.7429929,1.81415915 C45.5197326,1.59118073 45.1549613,1.59118073 44.931701,1.81415915 C44.7092864,2.03685567 44.7092864,2.39768041 44.931701,2.62009504 L49.4408827,6.62214884 Z" id="Fill-46" fill="#FFFFFF" mask="url(#mask-2)"></path>
                </g>
            </g>
        </g>
    </g>
</svg>