<?xml version="1.0" encoding="UTF-8"?>
<svg width="24px" height="16px" viewBox="0 0 24 16" version="1.1" xmlns="http://www.w3.org/2000/svg" xmlns:xlink="http://www.w3.org/1999/xlink">
    <title>合并形状</title>
    <g id="任务管理" stroke="none" stroke-width="1" fill="none" fill-rule="evenodd">
        <g id="推荐车型车长" transform="translate(-468.000000, -174.000000)" fill="#FF8243" fill-rule="nonzero">
            <g id="分组-26" transform="translate(468.000000, 174.000000)">
                <path d="M23.2308344,3.10752092e-17 C23.4982901,-1.80555915e-17 23.5952759,0.0278476833 23.6930537,0.0801398111 C23.7908315,0.132431939 23.8675681,0.209168511 23.9198602,0.306946289 C23.9721523,0.404724067 24,0.501709938 24,0.76916556 L24,12.0858027 C24,12.3532583 23.9721523,12.4502442 23.9198602,12.548022 C23.8675681,12.6457998 23.7908315,12.7225363 23.6930537,12.7748285 C23.5952759,12.8271206 23.4982901,12.8549683 23.2308344,12.8549683 L13.912,12.854 L11.4631867,15.7907114 C11.3788589,15.8917865 11.2642841,15.9616083 11.1377548,15.9908895 L11.0409023,16.005104 C10.7102117,16.0263269 10.4249295,15.7754538 10.4037066,15.4447633 L10.4037066,15.4447633 L10.237,12.854 L0.76916556,12.8549683 C0.501709938,12.8549683 0.404724067,12.8271206 0.306946289,12.7748285 C0.209168511,12.7225363 0.132431939,12.6457998 0.0801398111,12.548022 C0.0278476833,12.4502442 7.45687562e-16,12.3532583 -1.28339174e-15,12.0858027 L7.73939399e-17,0.76916556 C-4.49681078e-17,0.501709938 0.0278476833,0.404724067 0.0801398111,0.306946289 C0.132431939,0.209168511 0.209168511,0.132431939 0.306946289,0.0801398111 C0.404724067,0.0278476833 0.501709938,-8.07375491e-17 0.76916556,1.38956192e-16 L23.2308344,3.10752092e-17 Z" id="合并形状" transform="translate(12.000000, 8.000000) scale(-1, 1) translate(-12.000000, -8.000000) "></path>
            </g>
        </g>
    </g>
</svg>