<?xml version="1.0" encoding="UTF-8"?>
<svg width="12px" height="12px" viewBox="0 0 12 12" version="1.1" xmlns="http://www.w3.org/2000/svg" xmlns:xlink="http://www.w3.org/1999/xlink">
    <title>形状</title>
    <g id="组织架构" stroke="none" stroke-width="1" fill="none" fill-rule="evenodd">
        <g id="组织架构-默认状态备份-2" transform="translate(-410.000000, -273.000000)" fill="#666666" fill-rule="nonzero">
            <g id="编组-25" transform="translate(396.000000, 204.000000)">
                <g id="编组-12" transform="translate(0.000000, 32.000000)">
                    <path d="M20.7551622,48.9963956 L20.7551622,48.9963956 C20.5573516,48.9972915 20.3623847,48.9493201 20.1875858,48.8567451 L18.6441608,47.9956314 L18.6441607,47.9956314 C18.2648809,47.7928633 18.0286635,47.3972346 18.030154,46.9672574 L18.030154,42.0614677 L18.030154,42.0614682 C18.0284144,41.9885449 17.9940364,41.9202503 17.9364924,41.8754001 L14.360126,39.0099526 L14.3213003,38.9635356 L14.3213004,38.9635356 C13.8782848,38.4993847 13.8955316,37.7640902 14.3598209,37.3212032 C14.5776329,37.1134339 14.8676077,36.9982866 15.168662,37 L24.8166459,37 L24.8166459,37 C25.282944,37 25.7059582,37.2731958 25.8973612,37.6982738 L25.8973613,37.6982738 C26.0899006,38.1236777 26.0069449,38.6231582 25.6872221,38.9635345 L25.6407913,39.0099515 L22.0183968,41.9058095 L22.0183969,41.9058095 C21.9643267,41.9524387 21.9329689,42.0200927 21.9323399,42.0914767 L21.9323399,47.820367 L21.9323399,47.8203671 C21.9407971,48.4631745 21.4265737,48.9912156 20.7835792,49 L20.7583625,49 L20.7551603,48.9963987 L20.7551622,48.9963956 Z M15.0412269,38.3765875 L18.5613455,41.1809681 L18.5613456,41.1809681 C18.837693,41.4002548 18.9990487,41.733187 18.9997779,42.0856084 L18.9997779,46.9287968 L18.9997779,46.9287969 C18.9958249,47.0140965 19.0403741,47.0943348 19.1149258,47.1361926 L20.6407357,47.9713067 L20.6407357,47.9713067 C20.7155152,48.0095644 20.8041654,48.0095644 20.8789454,47.9713067 L20.8789453,47.9713067 C20.9512516,47.9272121 20.9951056,47.848497 20.9944888,47.763911 L20.9944888,42.1160303 L20.9944888,42.1160322 C20.9921326,41.7646825 21.1506892,41.4315096 21.4250054,41.2113907 L24.9530421,38.375402 L24.9530422,38.375402 C25.0060256,38.304491 25.0148827,38.2099683 24.9759926,38.1304771 L24.9759926,38.1304771 C24.9374081,38.0509432 24.8567695,38.00034 24.7682518,38.0001143 L15.236711,38.0001143 L15.236711,38.0001143 C15.1474204,37.9972386 15.0653446,38.0488414 15.0293655,38.1304771 L15.0293655,38.1304771 C14.9862976,38.2081334 14.9908937,38.3034211 15.0412365,38.3765872 L15.0412269,38.3765875 Z M25.6118761,42.9995496 L23.4047394,42.9995496 L23.4047394,42.9995496 C23.1904197,43.0111592 23.0093689,42.7969131 23.0003499,42.5210171 C22.9913314,42.245121 23.1577606,42.0120523 23.3720803,42.0004421 C23.3829617,41.9998526 23.3938576,41.9998526 23.404739,42.0004421 L25.6118757,42.0004421 L25.6118757,42.0004421 C25.82596,42.0011709 25.9993692,42.2244029 25.9999357,42.5 L25.9999357,42.5 C26.0037632,42.7709649 25.8362286,42.9946226 25.6257372,42.9995496 C25.6211167,42.9996577 25.6164951,42.9996577 25.6118745,42.9995495 L25.6118761,42.9995496 Z M25.6118305,44.9972728 L23.4047323,44.9972728 L23.4047323,44.9972728 C23.1904164,45.0088559 23.0093687,44.7950978 23.0003499,44.5198303 C22.9913316,44.2445627 23.1577578,44.0120249 23.3720738,44.0004411 C23.382955,43.999853 23.3938507,43.999853 23.4047319,44.0004411 L25.6118302,44.0004411 L25.6118302,44.0004411 C25.8257779,44.001167 25.9991288,44.2236216 25.9998834,44.498415 L25.9998834,44.4984147 C26.0050396,44.7687291 25.8386089,44.9932303 25.6281494,44.9998531 C25.6227108,45.0000243 25.61727,45.0000458 25.6118308,44.9999179 L25.6118308,44.9972714 L25.6118305,44.9972728 Z M25.611897,46.9968939 L23.4047426,46.9968939 L23.4047426,46.9968939 C23.1904212,47.0084726 23.0093689,46.7947958 23.0003499,46.5196328 C22.9913313,46.2444698 23.1577619,46.0120203 23.3720833,46.0004409 C23.3829648,45.999853 23.3938607,45.999853 23.4047422,46.0004409 L25.6118966,46.0004409 C25.8261899,46.0008818 25.9999597,46.2239811 25.9999597,46.4991079 L25.9999597,46.4991096 C26.0030023,46.7718092 25.8332822,46.996043 25.6208795,46.9999493 C25.617885,47 25.6148901,47.0000146 25.6118955,46.9999798 L25.6118955,46.9968935 L25.611897,46.9968939 Z" id="形状"></path>
                </g>
            </g>
        </g>
    </g>
</svg>