<?xml version="1.0" encoding="UTF-8"?>
<svg width="64px" height="64px" viewBox="0 0 64 64" version="1.1" xmlns="http://www.w3.org/2000/svg" xmlns:xlink="http://www.w3.org/1999/xlink">
    <title>Icon/Steps-Finished</title>
    <g id="组件规范" stroke="none" stroke-width="1" fill="none" fill-rule="evenodd">
        <g id="图标" fill="#4885FF">
            <path d="M32,0 C49.673112,0 64,14.326888 64,32 C64,49.673112 49.673112,64 32,64 C14.326888,64 0,49.673112 0,32 C0,14.326888 14.326888,0 32,0 Z M32,2.66666667 C15.7996473,2.66666667 2.66666667,15.7996473 2.66666667,32 C2.66666667,48.2003527 15.7996473,61.3333333 32,61.3333333 C48.2003527,61.3333333 61.3333333,48.2003527 61.3333333,32 C61.3333333,15.7996473 48.2003527,2.66666667 32,2.66666667 Z M45.5197358,21.3474459 C46.1353771,21.9017719 46.1850831,22.8502177 45.6307571,23.4658591 L27.7413999,43.3340031 C27.5300877,43.568689 27.2615029,43.7211345 26.9759141,43.7892292 C26.4930445,43.9242656 25.9590289,43.811184 25.5699323,43.4607736 L25.457747,43.3485414 L18.3914638,35.5006389 C17.8371379,34.8849976 17.8868438,33.9365517 18.5024852,33.3822257 C19.0796489,32.8625452 19.9493166,32.873752 20.5125211,33.3844557 L20.6208983,33.4932471 L26.5931683,40.1251504 L43.4013227,21.4584672 C43.9556486,20.8428259 44.9040945,20.79312 45.5197358,21.3474459 Z" id="Icon/Steps-Finished"></path>
        </g>
    </g>
</svg>
