<?xml version="1.0" encoding="UTF-8"?>
<svg width="24px" height="24px" viewBox="0 0 24 24" version="1.1" xmlns="http://www.w3.org/2000/svg" xmlns:xlink="http://www.w3.org/1999/xlink">
    <title>编组</title>
    <g id="审批流" stroke="none" stroke-width="1" fill="none" fill-rule="evenodd">
        <g id="创建流程-发起申请" transform="translate(-186.000000, -593.000000)" fill-rule="nonzero">
            <g id="编组" transform="translate(186.000000, 593.000000)">
                <path d="M20.2747698,18.9530841 L3.72523025,18.9530841 C2.13433449,18.9530841 0.844723412,17.644201 0.844723412,16.0295308 L0.844723412,12.8330555 L23.1552766,12.8330555 L23.1552766,16.0295308 C23.1552766,17.644201 21.8656655,18.9530841 20.2747698,18.9530841 L20.2747698,18.9530841 Z" id="路径" fill="#4885FF"></path>
                <path d="M20.3395319,0 L3.66046812,0 C1.64157916,0 0,1.66611098 0,3.71517028 L0,16.0952608 C0,18.1443201 1.64157916,19.8104311 3.66046812,19.8104311 L20.3395319,19.8104311 C22.3584208,19.8104311 24,18.1443201 24,16.0952608 L24,3.71517028 C24,1.66611098 22.3584208,0 20.3395319,0 Z M22.3105532,16.0952608 C22.3105532,17.1983806 21.4264093,18.0957371 20.3395319,18.0957371 L3.66046812,18.0957371 C2.57359066,18.0957371 1.68944682,17.1983806 1.68944682,16.0952608 L1.68944682,3.71517028 C1.68944682,2.61205049 2.57359066,1.71469397 3.66046812,1.71469397 L20.3395319,1.71469397 C21.4264093,1.71469397 22.3105532,2.61205049 22.3105532,3.71517028 L22.3105532,16.0952608 Z M16.6311961,22.285306 L7.5011439,22.285306 C7.03513815,22.285306 6.65642048,22.6696833 6.65642048,23.142653 C6.65642048,23.6156228 7.03513815,24 7.5011439,24 L16.6311961,24 C17.0972019,24 17.4759195,23.6156228 17.4759195,23.142653 C17.4759195,22.6696833 17.0972019,22.285306 16.6311961,22.285306 Z" id="形状" fill="#525866"></path>
            </g>
        </g>
    </g>
</svg>
