<?xml version="1.0" encoding="UTF-8"?>
<svg width="42px" height="43px" viewBox="0 0 42 43" version="1.1" xmlns="http://www.w3.org/2000/svg" xmlns:xlink="http://www.w3.org/1999/xlink">
    <title>可开票订单备份 备份</title>
    <g id="首页" stroke="none" stroke-width="1" fill="none" fill-rule="evenodd">
        <g id="画板" transform="translate(-251.000000, -688.000000)">
            <g id="可开票订单备份-备份" transform="translate(251.000000, 688.000000)">
                <g id="配载调度备份-3" transform="translate(0.000000, 0.000000)">
                    <g id="编组-12备份" transform="translate(-0.000000, -0.000000)">
                        <rect id="矩形" fill="#EEEFEF" x="0" y="0" width="42" height="42.2047146" rx="7.0656"></rect>
                        <g id="编组" transform="translate(11.000000, 10.000000)" fill-rule="nonzero">
                            <path d="M19.25,22 L0.750000001,22 C0.31250001,22 0,21.6944444 0,21.2666667 L0,0.733333333 C0,0.305555565 0.312499981,0 0.750000001,0 L19.25,0 C19.6875,0 20,0.305555565 20,0.733333333 L20,21.2666667 C20,21.6944444 19.6875,22 19.25,22 Z" id="路径" fill="#ADADAE"></path>
                            <path d="M5.11265971,8.25 C4.90360047,8.25 4.76422764,8.18292684 4.62485483,8.04878049 L3.16144018,6.6402439 C2.88269454,6.37195123 2.88269454,5.96951221 3.16144018,5.7012195 C3.44018582,5.43292683 3.85830429,5.43292683 4.13704993,5.7012195 L5.60046458,7.10975609 C5.87921022,7.37804876 5.87921022,7.78048778 5.60046458,8.04878049 C5.46109175,8.18292684 5.25203251,8.25 5.11265971,8.25 Z" id="路径" fill="#FCFCFC"></path>
                            <path d="M5.54727396,8.25 C5.34023463,8.25 5.20220839,8.18357489 5.06418219,8.05072464 C4.78812975,7.78502416 4.78812975,7.38647344 5.06418219,7.12077293 L8.44582469,3.86594202 C8.72187713,3.60024155 9.13595581,3.60024155 9.41200828,3.86594202 C9.68806075,4.13164249 9.68806072,4.53019322 9.41200828,4.79589369 L6.03036574,8.05072464 C5.8923395,8.18357489 5.68530017,8.25 5.54727396,8.25 L5.54727396,8.25 Z" id="路径" fill="#FCFCFC"></path>
                            <path d="M5.11265971,15.5833333 C4.90360047,15.5833333 4.76422764,15.5162602 4.62485483,15.3821138 L3.16144018,13.9735772 C2.88269454,13.7052846 2.88269454,13.3028456 3.16144018,13.0345528 C3.44018582,12.7662601 3.85830429,12.7662602 4.13704993,13.0345528 L5.60046458,14.4430894 C5.87921022,14.7113821 5.87921022,15.1138211 5.60046458,15.3821138 C5.46109175,15.5162602 5.25203251,15.5833333 5.11265971,15.5833333 Z" id="路径" fill="#FCFCFC"></path>
                            <path d="M5.54727396,15.5833333 C5.34023463,15.5833333 5.20220839,15.5169082 5.06418219,15.384058 C4.78812975,15.1183575 4.78812975,14.7198068 5.06418219,14.4541063 L8.44582469,11.1992754 C8.72187713,10.9335749 9.13595581,10.9335749 9.41200828,11.1992754 C9.68806075,11.4649758 9.68806072,11.8635266 9.41200828,12.129227 L6.03036574,15.384058 C5.8923395,15.5169082 5.68530017,15.5833333 5.54727396,15.5833333 Z" id="路径" fill="#FCFCFC"></path>
                            <path d="M16.6,7 L11.4,7 C11.16,7 11,6.80000001 11,6.5 C11,6.20000001 11.16,6 11.4,6 L16.6,6 C16.84,6 17,6.19999999 17,6.5 C17,6.80000003 16.84,7 16.6,7 Z M16.6,14 L11.4,14 C11.16,14 11,13.8 11,13.5 C11,13.2 11.16,13 11.4,13 L16.6,13 C16.84,13 17,13.2 17,13.5 C17,13.8 16.84,14 16.6,14 Z" id="形状" fill="#FCFCFC"></path>
                        </g>
                    </g>
                </g>
            </g>
        </g>
    </g>
</svg>