<?xml version="1.0" encoding="UTF-8"?>
<svg width="37px" height="36px" viewBox="0 0 37 36" version="1.1" xmlns="http://www.w3.org/2000/svg" xmlns:xlink="http://www.w3.org/1999/xlink">
    <title>客户对账G</title>
    <defs>
        <linearGradient x1="50%" y1="0%" x2="50%" y2="100%" id="linearGradient-1">
            <stop stop-color="#CECECE" offset="0%"></stop>
            <stop stop-color="#E0E0E0" offset="100%"></stop>
        </linearGradient>
    </defs>
    <g id="首页" stroke="none" stroke-width="1" fill="none" fill-rule="evenodd">
        <g id="画板" transform="translate(-324.000000, -779.000000)">
            <g id="编组-3备份" transform="translate(324.500000, 779.000000)">
                <path d="M4.45531235,31.4102385 C10.3957288,37.3499206 25.6042712,37.6154699 31.5446877,31.6757878 C37.4851041,25.7361057 37.4851041,10.2638943 31.5446877,4.32421219 C25.6042712,-1.61546988 10.3957288,-1.3499206 4.45531235,4.58976147 C-1.48510412,10.5294435 -1.48510412,25.4705565 4.45531235,31.4102385 Z" id="椭圆形备份" fill="url(#linearGradient-1)"></path>
                <g id="编组-19" transform="translate(8.181818, 9.000000)">
                    <g id="成交_transaction备份" transform="translate(4.909091, 0.000000)">
                        <path d="M14.25,0 L1.29545455,0 C0.579996591,0 0,0.579996591 0,1.29545455 L0,14.25 C0,14.9654795 0.579996591,15.5454545 1.29545455,15.5454545 L14.25,15.5454545 C14.9654795,15.5454545 15.5454545,14.9654795 15.5454545,14.25 L15.5454545,1.29545455 C15.5454545,0.579996591 14.9654795,0 14.25,0 Z" id="路径" fill="#FFFFFF" opacity="0.699999988"></path>
                        <line x1="3.45454545" y1="3.88636364" x2="12.0909091" y2="3.88636364" id="路径" stroke="#D6D6D6" stroke-width="1.49850032" stroke-linecap="round" stroke-linejoin="bevel"></line>
                        <line x1="3.45454545" y1="7.34090909" x2="6.90909091" y2="7.34090909" id="路径" stroke="#A660FB" stroke-width="1.49850032" stroke-linecap="round" stroke-linejoin="bevel"></line>
                    </g>
                    <g id="成交_transaction" transform="translate(0.000000, 3.272727)">
                        <path d="M14.25,0 L1.29545455,0 C0.579996591,0 0,0.579996591 0,1.29545455 L0,14.25 C0,14.9654795 0.579996591,15.5454545 1.29545455,15.5454545 L14.25,15.5454545 C14.9654795,15.5454545 15.5454545,14.9654795 15.5454545,14.25 L15.5454545,1.29545455 C15.5454545,0.579996591 14.9654795,0 14.25,0 Z" id="路径" fill="#FFFFFF"></path>
                        <line x1="3.45454545" y1="3.88636364" x2="12.0909091" y2="3.88636364" id="路径" stroke="#D6D6D6" stroke-width="1.49850032" stroke-linecap="round" stroke-linejoin="bevel"></line>
                        <line x1="3.45454545" y1="7.15909091" x2="12.0909091" y2="7.15909091" id="路径备份-9" stroke="#D6D6D6" stroke-width="1.49850032" stroke-linecap="round" stroke-linejoin="bevel"></line>
                        <line x1="3.45454545" y1="10.6136364" x2="6.90909091" y2="10.6136364" id="路径备份-10" stroke="#D6D6D6" stroke-width="1.49850032" stroke-linecap="round" stroke-linejoin="bevel"></line>
                    </g>
                </g>
            </g>
        </g>
    </g>
</svg>