<?xml version="1.0" encoding="UTF-8"?>
<svg width="36px" height="36px" viewBox="0 0 36 36" version="1.1" xmlns="http://www.w3.org/2000/svg" xmlns:xlink="http://www.w3.org/1999/xlink">
    <title>平台订单G</title>
    <defs>
        <linearGradient x1="50%" y1="0%" x2="50%" y2="100%" id="linearGradient-1">
            <stop stop-color="#CECECE" offset="0%"></stop>
            <stop stop-color="#E0E0E0" offset="100%"></stop>
        </linearGradient>
    </defs>
    <g id="首页" stroke="none" stroke-width="1" fill="none" fill-rule="evenodd">
        <g id="画板" transform="translate(-192.000000, -209.000000)">
            <g id="编组-3" transform="translate(192.000000, 209.000000)">
                <path d="M4.45531235,31.4102385 C10.3957288,37.3499206 25.6042712,37.6154699 31.5446877,31.6757878 C37.4851041,25.7361057 37.4851041,10.2638943 31.5446877,4.32421219 C25.6042712,-1.61546988 10.3957288,-1.3499206 4.45531235,4.58976147 C-1.48510412,10.5294435 -1.48510412,25.4705565 4.45531235,31.4102385 Z" id="椭圆形备份" fill="url(#linearGradient-1)"></path>
                <g id="编组" transform="translate(6.750000, 8.250000)" fill="#FFFFFF" fill-rule="nonzero">
                    <path d="M12.9080144,5.5953955 L15.6026187,0.977241117 C16.1481583,0.0427303405 17.3563236,-0.27744576 18.3011742,0.262096417 L20.0119714,1.23907006 C20.956798,1.77865334 21.2805084,2.97362752 20.7350104,3.90816202 L19.3847449,6.22163559 C19.0113084,5.82195101 18.4859296,5.59489518 17.9357036,5.5953955 L12.9080144,5.5953955 Z M4.97631597,6.57236896 L17.9357036,6.57236896 C18.5276508,6.57213719 19.0885083,6.83446254 19.463914,7.28714668 C19.8393198,7.73983081 19.9897069,8.33516194 19.8736852,8.90929005 L18.6883754,14.7711319 C18.5037291,15.6848464 17.6924671,16.3424745 16.7503938,16.3421056 L6.16162582,16.3421056 C5.21955252,16.3424745 4.40829053,15.6848464 4.22364422,14.7711319 L3.03833437,8.90929005 C2.92231266,8.33516194 3.07269983,7.73983081 3.44810556,7.28714668 C3.8235113,6.83446254 4.38436877,6.57213719 4.97631597,6.57236896 L4.97631597,6.57236896 Z M6.51721877,18.7845395 C6.51721877,19.593891 7.18057039,20.25 7.99885608,20.25 C8.81714177,20.25 9.48049339,19.593891 9.48049339,18.7845395 C9.48049339,17.9751881 8.81714177,17.3190791 7.99885608,17.3190791 C7.18057039,17.3190791 6.51721877,17.9751881 6.51721877,18.7845395 Z M13.4315262,18.7845395 C13.4315262,19.593891 14.0948778,20.25 14.9131635,20.25 C15.7314492,20.25 16.3948008,19.593891 16.3948008,18.7845395 C16.3948008,17.9751881 15.7314492,17.3190791 14.9131635,17.3190791 C14.0948778,17.3190791 13.4315262,17.9751881 13.4315262,18.7845395 Z" id="形状"></path>
                    <path d="M2.19525591,4.48265156 L1.99891374,3.8219324 C1.91942624,3.55595458 1.97837546,3.27136976 2.15875432,3.05028177 C2.33913317,2.82919378 2.62087778,2.69619466 2.9227037,2.68965517 L2.94528307,2.68965517 C3.31183831,2.69043858 3.64763889,2.87691677 3.81704237,3.17376421 C3.85217811,3.23580045 3.87919735,3.30139709 3.89754265,3.36920081 L5.36520048,8.28111441 C5.50779486,8.75890741 5.19924693,9.25179703 4.6760394,9.38201419 C4.15283187,9.51223134 3.61309278,9.23046545 3.4704984,8.75267244 L2.19525591,4.48265156 L0.981861219,4.48265156 C0.631093893,4.4827006 0.306948541,4.31183974 0.131549375,4.03444209 C-0.0438497916,3.75704445 -0.0438497916,3.4152623 0.131549375,3.13786465 C0.306948541,2.86046701 0.631093893,2.68965517 0.981861219,2.68965517 L2.92368542,2.68965517 L2.19525591,4.48265156 Z" id="路径"></path>
                </g>
            </g>
        </g>
    </g>
</svg>