<?xml version="1.0" encoding="UTF-8"?>
<svg width="36px" height="36px" viewBox="0 0 36 36" version="1.1" xmlns="http://www.w3.org/2000/svg" xmlns:xlink="http://www.w3.org/1999/xlink">
    <title>订单管理</title>
    <defs>
        <linearGradient x1="50%" y1="0%" x2="50%" y2="100%" id="linearGradient-1">
            <stop stop-color="#4476FF" offset="0%"></stop>
            <stop stop-color="#6EB4FF" offset="100%"></stop>
        </linearGradient>
    </defs>
    <g id="首页" stroke="none" stroke-width="1" fill="none" fill-rule="evenodd">
        <g id="画板" transform="translate(-61.000000, -439.000000)">
            <g id="编组-3" transform="translate(61.000000, 439.000000)">
                <path d="M4.45531235,31.4102385 C10.3957288,37.3499206 25.6042712,37.6154699 31.5446877,31.6757878 C37.4851041,25.7361057 37.4851041,10.2638943 31.5446877,4.32421219 C25.6042712,-1.61546988 10.3957288,-1.3499206 4.45531235,4.58976147 C-1.48510412,10.5294435 -1.48510412,25.4705565 4.45531235,31.4102385 Z" id="椭圆形备份" fill="url(#linearGradient-1)"></path>
                <path d="M20.3975478,9 C21.2153228,9 21.9156967,9.50234445 22.201832,10.21352 L22.2534479,10.3584526 L24.8075873,10.3584526 C25.5218987,10.3584526 26.1107154,10.9021818 26.1758331,11.5953448 L26.1818083,11.7269678 L26.1818601,20.4679627 C22.9835545,20.6784548 20.4545455,23.3393411 20.4545455,26.5909091 C20.4545455,26.7286988 20.4590869,26.8654279 20.4680284,27.0009547 L12.0126036,27 C11.2963874,27 10.7092514,26.4580535 10.6426548,25.7634224 L10.6363636,25.6314848 L10.6363636,11.7269678 C10.6363636,11.0147717 11.1813692,10.4309313 11.8799213,10.3647085 L12.0126036,10.3584526 L14.6031729,10.3584526 C14.832757,9.62073737 15.4963691,9.07228572 16.2971712,9.00661096 L16.4590729,9 L20.3975478,9 Z M17.7826919,21.648703 L14.5647191,21.648703 C14.2085158,21.648703 13.9191007,21.9364937 13.9191007,22.2906977 C13.9191007,22.6127013 14.1582868,22.8798179 14.4693959,22.9257233 L14.5647191,22.9326923 L17.7826919,22.9326923 C18.1388952,22.9326923 18.4283104,22.6449016 18.4283104,22.2906977 C18.4283104,21.9364937 18.1388952,21.648703 17.7826919,21.648703 Z M22.3263076,18.0684258 L14.532337,18.0684258 C14.1761337,18.0684258 13.8867186,18.3562165 13.8867186,18.7104204 C13.8867186,19.032424 14.1259047,19.2995406 14.4370138,19.345446 L14.532337,19.352415 L22.3242838,19.352415 C22.680487,19.352415 22.9699022,19.0646243 22.9699022,18.7104204 C22.9699022,18.3562165 22.6825109,18.0684258 22.3263076,18.0684258 Z M22.3263076,14.4881485 L14.532337,14.4881485 C14.1761337,14.4881485 13.8867186,14.7759392 13.8867186,15.1301431 C13.8867186,15.4521467 14.1259047,15.7192633 14.4370138,15.7651688 L14.532337,15.7721377 L22.3242838,15.7721377 C22.680487,15.7721377 22.9699022,15.484347 22.9699022,15.1301431 C22.9699022,14.7759392 22.6825109,14.4881485 22.3263076,14.4881485 Z" id="形状结合" fill="#FFFFFF" fill-rule="nonzero"></path>
                <g id="编组" transform="translate(22.090909, 22.090909)" fill="#FFFFFF" fill-rule="nonzero">
                    <path d="M5.46334311,2.29618768 L4.90447214,2.29618768 C4.85828446,2.12859238 4.79164223,1.96957478 4.70784457,1.82177419 L5.10307918,1.42653959 C5.20601173,1.32360704 5.20601173,1.15601173 5.10307918,1.05307918 L4.67353372,0.623533724 C4.57060117,0.520601173 4.40300587,0.520601173 4.30007331,0.623533724 L3.90483871,1.01876833 C3.75703812,0.934970674 3.59802053,0.868328446 3.43042522,0.822140762 L3.43042522,0.263929619 C3.43042522,0.118768328 3.31165689,0 3.1664956,0 L2.55945748,0 C2.41429619,0 2.29552786,0.118768328 2.29552786,0.263929619 L2.29552786,0.822800586 C2.12793255,0.86898827 1.96891496,0.935630499 1.82111437,1.01942815 L1.42587977,0.624193548 C1.32294721,0.521260997 1.15535191,0.521260997 1.05241935,0.624193548 L0.6228739,1.053739 C0.519941349,1.15667155 0.519941349,1.32426686 0.6228739,1.42719941 L1.0181085,1.82243402 C0.93431085,1.9702346 0.867668622,2.1292522 0.821480938,2.29684751 L0.263929619,2.29684751 C0.118768328,2.29684751 0,2.41561584 0,2.56077713 L0,3.16781525 C0,3.31297654 0.118768328,3.43174487 0.263929619,3.43174487 L0.822800586,3.43174487 C0.86898827,3.59934018 0.935630499,3.75835777 1.01942815,3.90615836 L0.624193548,4.30139296 C0.521260997,4.40432551 0.521260997,4.57192082 0.624193548,4.67485337 L1.053739,5.10439883 C1.15667155,5.20733138 1.32426686,5.20733138 1.42719941,5.10439883 L1.82243402,4.70916422 C1.9702346,4.79296188 2.1292522,4.85960411 2.29684751,4.90579179 L2.29684751,5.46334311 C2.29684751,5.6085044 2.41561584,5.72727273 2.56077713,5.72727273 L3.16781525,5.72727273 C3.31297654,5.72727273 3.43174487,5.6085044 3.43174487,5.46334311 L3.43174487,4.90447214 C3.59934018,4.85828446 3.75835777,4.79164223 3.90615836,4.70784457 L4.30139296,5.10307918 C4.40432551,5.20601173 4.57192082,5.20601173 4.67485337,5.10307918 L5.10439883,4.67353372 C5.20733138,4.57060117 5.20733138,4.40300587 5.10439883,4.30007331 L4.70916422,3.90483871 C4.79296188,3.75703812 4.85960411,3.59802053 4.90579179,3.43042522 L5.46334311,3.43042522 C5.6085044,3.43042522 5.72727273,3.31165689 5.72727273,3.1664956 L5.72727273,2.55945748 C5.72727273,2.41495601 5.6085044,2.29618768 5.46334311,2.29618768 L5.46334311,2.29618768 Z M2.86363636,4.09090909 C2.18584711,4.09090909 1.63636364,3.54142562 1.63636364,2.86363636 C1.63636364,2.18584711 2.18584711,1.63636364 2.86363636,1.63636364 C3.54142562,1.63636364 4.09090909,2.18584711 4.09090909,2.86363636 C4.09090909,3.54142562 3.54142562,4.09090909 2.86363636,4.09090909 Z" id="形状"></path>
                </g>
            </g>
        </g>
    </g>
</svg>