<?xml version="1.0" encoding="UTF-8"?>
<svg width="37px" height="36px" viewBox="0 0 37 36" version="1.1" xmlns="http://www.w3.org/2000/svg" xmlns:xlink="http://www.w3.org/1999/xlink">
    <title>运输专票</title>
    <defs>
        <linearGradient x1="109.738495%" y1="-15.0318128%" x2="50%" y2="100%" id="linearGradient-1">
            <stop stop-color="#FF5B00" offset="0%"></stop>
            <stop stop-color="#FFA01F" offset="100%"></stop>
        </linearGradient>
    </defs>
    <g id="首页" stroke="none" stroke-width="1" fill="none" fill-rule="evenodd">
        <g id="画板" transform="translate(-59.000000, -924.000000)">
            <g id="编组-3" transform="translate(59.500000, 924.000000)">
                <path d="M4.45531235,31.4102385 C10.3957288,37.3499206 25.6042712,37.6154699 31.5446877,31.6757878 C37.4851041,25.7361057 37.4851041,10.2638943 31.5446877,4.32421219 C25.6042712,-1.61546988 10.3957288,-1.3499206 4.45531235,4.58976147 C-1.48510412,10.5294435 -1.48510412,25.4705565 4.45531235,31.4102385 Z" id="椭圆形备份" fill="url(#linearGradient-1)"></path>
                <g id="编组-28" transform="translate(9.818182, 8.181818)">
                    <g id="编组" fill="#FFFFFF" fill-rule="nonzero">
                        <path d="M15.4010695,0 C15.9326805,0 16.3636364,0.438990719 16.3636364,0.980513213 L16.3636364,18.299318 C16.3636364,18.6191493 16.2105748,18.9188987 15.95344,19.1024344 C15.6963052,19.2859701 15.3674546,19.3302228 15.0723529,19.2210004 L12.6014438,18.3056913 C12.3890909,18.2270957 12.1563636,18.2270957 11.9440107,18.3056913 L8.51053477,19.5774169 C8.29818181,19.6560125 8.06545456,19.6560125 7.8531016,19.5774169 L4.41962567,18.3056913 C4.20727272,18.2270957 3.97454547,18.2270957 3.76219252,18.3056913 L1.29128344,19.2210004 C0.996181734,19.3302228 0.667331205,19.2859701 0.410196409,19.1024344 C0.153061613,18.9188987 0,18.6191493 0,18.299318 L0,0.980513213 C0,0.438990719 0.430955865,0 0.962566858,0 L15.4010695,0 Z" id="形状"></path>
                    </g>
                    <line x1="4.09090909" y1="5.125" x2="12.7272727" y2="5.125" id="路径" stroke="#FF9159" stroke-width="1.49850032" stroke-linecap="round" stroke-linejoin="bevel"></line>
                    <line x1="4.09090909" y1="8.39772727" x2="12.7272727" y2="8.39772727" id="路径备份-9" stroke="#FF9159" stroke-width="1.49850032" stroke-linecap="round" stroke-linejoin="bevel"></line>
                    <line x1="4.09090909" y1="11.8522727" x2="7.54545455" y2="11.8522727" id="路径备份-10" stroke="#FF9159" stroke-width="1.49850032" stroke-linecap="round" stroke-linejoin="bevel"></line>
                </g>
            </g>
        </g>
    </g>
</svg>