<?xml version="1.0" encoding="UTF-8"?>
<svg width="42px" height="43px" viewBox="0 0 42 43" version="1.1" xmlns="http://www.w3.org/2000/svg" xmlns:xlink="http://www.w3.org/1999/xlink">
    <title>运输专票</title>
    <g id="首页" stroke="none" stroke-width="1" fill="none" fill-rule="evenodd">
        <g id="画板" transform="translate(-403.000000, -154.000000)">
            <g id="运输专票" transform="translate(403.000000, 154.000000)">
                <rect id="矩形" fill="#FFA01F" opacity="0.100000001" x="0" y="0" width="42" height="42.2047146" rx="7.0656"></rect>
                <g id="编组" transform="translate(12.000000, 10.000000)">
                    <path d="M2.205,0.000814346103 L16.17,0.000814346103 C17.3877879,0.000814346103 18.375,1.09457849 18.375,2.44380494 L18.375,20.2466917 C18.375,20.7829126 18.1365615,21.284716 17.7377217,21.588473 C17.3388819,21.8922299 16.8306458,21.9590133 16.37874,21.7670462 C12.054,19.9307316 9.65643,19.0121671 9.18749999,19.0121672 C8.71856998,19.0121672 6.32099999,19.9307316 1.99625999,21.7670462 C1.54435422,21.9590133 1.0361181,21.8922299 0.637278317,21.588473 C0.238438539,21.284716 0,20.7829126 0,20.2466917 L0,2.44299059 C0,1.09376415 0.987212127,0 2.205,0 L2.205,0.000814346103 Z" id="路径" fill="#FF8814"></path>
                    <path d="M18.375,2.41522435 L18.375,13.4906381 L9.38297872,13.5775862 L9.38297872,0 L16.2999182,0 C17.4459542,0 18.375,1.08133277 18.375,2.41522435 L18.375,2.41522435 Z" id="路径" fill="#FF8814" fill-rule="nonzero"></path>
                    <rect id="矩形" fill="#FFFFFF" x="9.625" y="10.5" width="6.1875" height="6.02884615" rx="1.3195008"></rect>
                    <path d="M6.97637894,11.5032328 C7.36987741,11.5032328 7.68883519,11.8834052 7.68883519,12.3518319 C7.68964693,12.7809031 7.41930196,13.1429001 7.05952252,13.1944908 L6.97637894,13.200431 L2.66724812,13.200431 C2.47772291,13.1997569 2.29618645,13.1099721 2.16257515,12.9508287 C2.02896384,12.7916853 1.95422255,12.5762195 1.95479045,12.3518319 C1.95479045,11.9165005 2.2300276,11.5575431 2.58410454,11.509173 L2.66724812,11.5032328 L6.97637894,11.5032328 Z M14.215604,6.41163793 C14.5689642,6.41163793 14.856383,6.79181034 14.856383,7.26023708 C14.856383,7.69556844 14.6091025,8.05452588 14.2901465,8.10289603 L14.2148873,8.10883621 L3.31304433,8.10883621 C2.95825063,8.10883621 2.67154865,7.72866381 2.67154865,7.26023708 C2.67154865,6.82490573 2.91882911,6.46594829 3.23778506,6.41757814 L3.31304433,6.41163793 L14.2148873,6.41163793 L14.215604,6.41163793 Z" id="形状" fill="#FFFFFF" fill-rule="nonzero"></path>
                </g>
            </g>
        </g>
    </g>
</svg>