<?xml version="1.0" encoding="UTF-8"?>
<svg width="42px" height="43px" viewBox="0 0 42 43" version="1.1" xmlns="http://www.w3.org/2000/svg" xmlns:xlink="http://www.w3.org/1999/xlink">
    <title>配载调度备份</title>
    <g id="首页" stroke="none" stroke-width="1" fill="none" fill-rule="evenodd">
        <g id="画板" transform="translate(-240.000000, -240.000000)">
            <g id="配载调度备份" transform="translate(240.000000, 240.000000)">
                <g id="编组-12备份" transform="translate(-0.000000, -0.000000)">
                    <rect id="矩形" fill="#3371FF" opacity="0.200000003" x="0" y="0" width="42" height="42.2047146" rx="7.0656"></rect>
                    <path d="M29.5567629,32 L13.459809,32 C12.6607668,32 12,31.2988994 12,30.4506257 L12,13.4503857 C12,12.6032709 12.6607668,11.9021703 13.459809,11.9021703 L14.1902413,11.9021703 L14.1902413,14.2256523 C14.1902413,15.073926 14.851008,15.7738678 15.6500503,15.7738678 L27.3485775,15.7738678 C28.1486752,15.7738678 28.809442,15.073926 28.809442,14.2256523 L28.809442,11.9021703 L29.5388187,11.9021703 C30.3389165,11.9021703 30.9996833,12.6032709 30.9996833,13.4515446 L30.9996833,30.4517846 C31.0165719,31.2988994 30.3558051,32 29.5567629,32 Z M25.1593917,14.0921784 L17.8582357,14.0921784 C17.0581379,14.0921784 16.3973711,13.431353 16.3973711,12.6318089 L16.3973711,11.9021703 C19.3180447,9.76459135 19.3528774,9.7296386 20.1181424,9 L23.0208718,9 C23.73336,9.67720948 23.7164714,9.76459135 26.6192007,11.9021703 L26.6192007,12.6318089 C26.6192007,13.4488294 25.9753226,14.0921784 25.1583362,14.0921784 L25.1593917,14.0921784 Z M21.5082859,10.4603695 C20.7092437,10.4603695 20.0484769,11.1201026 20.0484769,11.9196467 C20.0484769,12.7191908 20.7092437,13.3800161 21.5082859,13.3800161 C22.3083837,13.3800161 22.9680949,12.7191908 22.9680949,11.9196467 C22.9680949,11.1026262 22.3083837,10.4603695 21.5082859,10.4603695 Z" id="形状" fill="#487CFF" fill-rule="nonzero"></path>
                    <g id="编组" transform="translate(20.220866, 24.000000)" fill="#FFFFFF" fill-rule="nonzero">
                        <path d="M0.490015535,0.000703708287 L6.96836405,0.000703708287 C7.23910323,0.000703708287 7.45837959,0.207598384 7.45837959,0.463049983 L7.45837959,0.945100534 C7.45837959,1.20044733 7.23899216,1.40744681 6.96836405,1.40744681 L0.490015535,1.40744681 C0.219387428,1.40744681 0,1.20044733 0,0.945100534 L0,0.463049983 C0,0.207598384 0.219276354,0 0.490015535,0 L0.490015535,0.000703708287 Z M0.490015535,2.50283137 L6.2225261,2.50283137 C6.49326528,2.50283137 6.71254163,2.70972604 6.71254163,2.96517767 L6.71254163,3.44722819 C6.71254163,3.70257499 6.4931542,3.90957447 6.2225261,3.90957447 L0.490015535,3.90957447 C0.219387428,3.90957447 0,3.70257499 0,3.44722819 L0,2.96517767 C0,2.70972607 0.219276354,2.50212766 0.490015535,2.50212766 L0.490015535,2.50283137 Z" id="形状" transform="translate(3.729190, 1.954787) scale(-1, 1) translate(-3.729190, -1.954787) "></path>
                    </g>
                </g>
            </g>
        </g>
    </g>
</svg>