<?xml version="1.0" encoding="UTF-8"?>
<svg width="18px" height="18px" viewBox="0 0 18 18" version="1.1" xmlns="http://www.w3.org/2000/svg" xmlns:xlink="http://www.w3.org/1999/xlink">
    <title>装货/默认</title>
    <g id="组件规范" stroke="none" stroke-width="1" fill="none" fill-rule="evenodd">
        <g id="增减表格" transform="translate(-924.000000, -755.000000)" fill="#4885FF" fill-rule="nonzero">
            <g id="装货/默认" transform="translate(924.000000, 755.000000)">
                <path d="M9,0 C13.9704581,0 18,4.02954192 18,9 C18,13.9704581 13.9704581,18 9,18 C4.02954192,18 0,13.9704581 0,9 C0,4.02954192 4.02954192,0 9,0 Z M9,1.2272736 C4.70739965,1.2272736 1.2272736,4.70741883 1.2272736,9 C1.2272736,13.2926003 4.70741883,16.7727264 9,16.7727264 C13.2926003,16.7727264 16.7727264,13.2925812 16.7727264,9 C16.7727264,4.70739965 13.2925812,1.2272736 9,1.2272736 Z M9.61364077,5.27727648 L9.61364077,8.3863632 L12.7227235,8.3863632 C12.8127235,8.3863632 12.8863599,8.45999962 12.8863599,8.54999962 L12.8863599,9.44999962 L12.8863599,9.44999962 C12.8863599,9.54037355 12.8130975,9.61364004 12.7227235,9.61364004 C12.7227235,9.61364004 12.7227235,9.61364004 12.7227235,9.61364004 L9.61364077,9.61364004 L9.61364077,12.7227228 L9.61364077,12.7227228 C9.61364077,12.8130967 9.5403743,12.8863592 9.45000036,12.8863592 C9.45000036,12.8863592 9.45000035,12.8863592 9.45000035,12.8863592 L8.55000035,12.8863592 L8.55000034,12.8863592 C8.4596264,12.8863592 8.38636392,12.8130967 8.38636392,12.7227228 C8.38636392,12.7227228 8.38636392,12.7227228 8.38636392,12.7227228 L8.38636392,9.61364004 L5.2772772,9.61364004 L5.27727719,9.61364004 C5.18690326,9.61364004 5.11364077,9.54037355 5.11364077,9.44999962 C5.11364077,9.44999961 5.11364077,9.4499996 5.11364077,9.4499996 L5.11364077,8.5499996 C5.11364077,8.4599996 5.18727719,8.38636318 5.27727719,8.38636318 L8.38636392,8.38636318 L8.38636392,5.27727646 C8.38636392,5.18727646 8.46000033,5.11364004 8.55000033,5.11364004 L9.45000033,5.11364004 C9.54000033,5.11364004 9.61364077,5.18727646 9.61364077,5.27727646 L9.61364077,5.27727648 Z" id="形状"></path>
            </g>
        </g>
    </g>
</svg>