<?xml version="1.0" encoding="UTF-8"?>
<svg width="45px" height="13px" viewBox="0 0 45 13" version="1.1" xmlns="http://www.w3.org/2000/svg" xmlns:xlink="http://www.w3.org/1999/xlink">
    <title>编组 67备份 4</title>
    <defs>
        <rect id="path-1" x="0" y="0" width="45" height="9.89" rx="0.83"></rect>
    </defs>
    <g id="首页" stroke="none" stroke-width="1" fill="none" fill-rule="evenodd">
        <g id="首页交互" transform="translate(-797.000000, -841.000000)">
            <g id="编组-67备份-4" transform="translate(797.000000, 841.000000)">
                <g id="bq2备份-3" fill="#347EFB" fill-rule="nonzero">
                    <path d="M0.730025289,9 C0.476179592,9 0.384129008,8.97356939 0.291326815,8.92393824 C0.198524623,8.87430708 0.125692919,8.80147538 0.0760617633,8.70867318 C0.0264306076,8.61587099 1.76079769e-16,8.52382041 -3.03048265e-16,8.26997471 L1.96625969e-17,0.730025289 C-1.14245351e-17,0.476179592 0.0264306076,0.384129008 0.0760617633,0.291326815 C0.125692919,0.198524623 0.198524623,0.125692919 0.291326815,0.0760617633 C0.384129008,0.0264306076 0.476179592,5.00678495e-17 0.730025289,-8.61710291e-17 L44.2699747,2.94938954e-17 C44.5238204,-1.71368026e-17 44.615871,0.0264306076 44.7086732,0.0760617633 C44.8014754,0.125692919 44.8743071,0.198524623 44.9239382,0.291326815 C44.9735694,0.384129008 45,0.476179592 45,0.730025289 L45,8.26997471 C45,8.52382041 44.9735694,8.61587099 44.9239382,8.70867318 C44.8743071,8.80147538 44.8014754,8.87430708 44.7086732,8.92393824 C44.615871,8.97356939 44.5238204,9 44.2699747,9 L24,9 L21.1640042,11.8711566 C21.0674978,11.9688595 20.9389354,12.0283972 20.8020008,12.0388016 C20.4883963,12.0626296 20.2148531,11.8277193 20.1910251,11.5141147 L20.1910251,11.5141147 L20,9 L0.730025289,9 Z" id="合并形状"></path>
                </g>
                <g id="位图备份-2">
                    <mask id="mask-2" fill="white">
                        <use xlink:href="#path-1"></use>
                    </mask>
                    <g id="蒙版"></g>
                    <g id="编组" mask="url(#mask-2)">
                        <g transform="translate(0.000000, 0.000000)">
                            <polygon id="Fill-1" fill="#337EFC" points="0 9.89493538 27.1817844 9.89493538 27.1817844 0 0 0"></polygon>
                            <polygon id="Fill-2" fill="#F7931E" points="27.0963114 9.89493538 45 9.89493538 45 0 27.0963114 0"></polygon>
                            <g id="编组" stroke-width="1" fill="none" transform="translate(2.194403, 1.157570)">
                                <path d="M1.62579861,1.40077968 C1.43273739,1.40077968 1.27593741,1.22186433 1.27593741,1.00190604 C1.27593741,0.781150796 1.43273739,0.603231634 1.62579861,0.603231634 L6.6607316,0.603231634 C6.85339434,0.603231634 7.01039356,0.781150796 7.01039356,1.00190604 C7.01039356,1.22186433 6.85339434,1.40077968 6.6607316,1.40077968 L1.62579861,1.40077968 Z" id="Fill-3" fill="#FFFFFF"></path>
                                <path d="M1.62619709,2.83650564 C1.43273739,2.83650564 1.27593741,2.65759029 1.27593741,2.43763199 C1.27593741,2.21687675 1.43273739,2.03895759 1.62619709,2.03895759 L6.66093084,2.03895759 C6.85359358,2.03895759 7.01039356,2.21687675 7.01039356,2.43763199 C7.01039356,2.65759029 6.85359358,2.83650564 6.66093084,2.83650564 L1.62619709,2.83650564 Z" id="Fill-5" fill="#FFFFFF"></path>
                                <path d="M1.27597726,6.91290661 L1.27597726,3.7470214 C1.27597726,3.55495637 1.43536733,3.3987541 1.63161635,3.3987541 L2.06993903,3.3987541 C2.07193141,3.3987541 2.07332607,3.40094571 2.07332607,3.40273885 L2.07332607,6.91290661 C2.07332607,7.12848168 1.8948092,7.30321304 1.67465167,7.30321304 C1.45449414,7.30321304 1.27597726,7.12848168 1.27597726,6.91290661" id="Fill-7" fill="#FFFFFF"></path>
                                <polygon id="Fill-9" fill="#FFFFFF" points="2.87081435 5.70795755 3.66816316 5.70795755 3.66816316 2.67695618 2.87081435 2.67695618"></polygon>
                                <polygon id="Fill-11" fill="#FFFFFF" points="1.91387623 6.02693692 6.37938821 6.02693692 6.37938821 5.22938887 1.91387623 5.22938887"></polygon>
                                <polygon id="Fill-12" fill="#FFFFFF" points="1.91387623 4.196342 6.37938821 4.196342 6.37938821 3.39879395 1.91387623 3.39879395"></polygon>
                                <path d="M6.61881201,7.30319311 C6.39865448,7.30319311 6.22013761,7.12826252 6.22013761,6.91228897 L6.22013761,3.39873418 L6.66603132,3.39873418 C6.86028796,3.39873418 7.01748642,3.55294407 7.01748642,3.7434152 L7.01748642,6.91228897 C7.01748642,7.12826252 6.83896954,7.30319311 6.61881201,7.30319311" id="Fill-13" fill="#FFFFFF"></path>
                                <polygon id="Fill-14" fill="#FFFFFF" points="4.62530052 5.70795755 5.42264933 5.70795755 5.42264933 2.67695618 4.62530052 2.67695618"></polygon>
                                <path d="M2.63153001,1.71977898 C2.41157172,1.71977898 2.23285561,1.53249565 2.23285561,1.3005831 L2.23285561,0.43888055 C2.23285561,0.207764953 2.41157172,0.0196846733 2.63153001,0.0196846733 C2.8514883,0.0196846733 3.03040366,0.207764953 3.03040366,0.43888055 L3.03040366,1.3005831 C3.03040366,1.53249565 2.8514883,1.71977898 2.63153001,1.71977898" id="Fill-15" fill="#FFFFFF"></path>
                                <path d="M0.428819052,1.41392936 C0.208860759,1.41392936 0.0299454089,1.22664603 0.0299454089,0.994733487 L0.0299454089,0.438860627 C0.0299454089,0.207745029 0.208860759,0.0196647496 0.428819052,0.0196647496 C0.648777345,0.0196647496 0.827493458,0.207745029 0.827493458,0.438860627 L0.827493458,0.994733487 C0.827493458,1.22664603 0.648777345,1.41392936 0.428819052,1.41392936" id="Fill-16" fill="#FFFFFF"></path>
                                <path d="M8.26407614,1.41392936 C8.04411784,1.41392936 7.86540173,1.22664603 7.86540173,0.994733487 L7.86540173,0.438860627 C7.86540173,0.207745029 8.04411784,0.0196647496 8.26407614,0.0196647496 C8.48403443,0.0196647496 8.66294978,0.207745029 8.66294978,0.438860627 L8.66294978,0.994733487 C8.66294978,1.22664603 8.48403443,1.41392936 8.26407614,1.41392936" id="Fill-17" fill="#FFFFFF"></path>
                                <path d="M5.82128389,1.71977898 C5.60152483,1.71977898 5.42260948,1.53249565 5.42260948,1.3005831 L5.42260948,0.43888055 C5.42260948,0.207764953 5.60152483,0.0196846733 5.82128389,0.0196846733 C6.04124218,0.0196846733 6.22015753,0.207764953 6.22015753,0.43888055 L6.22015753,1.3005831 C6.22015753,1.53249565 6.04124218,1.71977898 5.82128389,1.71977898" id="Fill-18" fill="#FFFFFF"></path>
                                <path d="M19.2842058,1.21877615 C19.0642475,1.21877615 18.8855314,1.03149282 18.8855314,0.799580273 L18.8855314,0.438761008 C18.8855314,0.207844648 19.0642475,0.0197643684 19.2842058,0.0197643684 C19.5041641,0.0197643684 19.6828802,0.207844648 19.6828802,0.438761008 L19.6828802,0.799580273 C19.6828802,1.03149282 19.5041641,1.21877615 19.2842058,1.21877615" id="Fill-19" fill="#FFFFFF"></path>
                                <path d="M0.398674406,7.30319311 C0.618831936,7.30319311 0.797548049,7.12646938 0.797548049,6.9087027 L0.797548049,2.43342808 C0.797548049,2.21546216 0.618831936,2.03893767 0.398674406,2.03893767 C0.178516875,2.03893767 0,2.21546216 0,2.43342808 L0,6.9087027 C0,7.12646938 0.178516875,7.30319311 0.398674406,7.30319311" id="Fill-20" fill="#FFFFFF"></path>
                                <path d="M9.95992668,1.40077968 C9.76885784,1.40077968 9.61464795,1.22186433 9.61464795,1.00190604 C9.61464795,0.781150796 9.76885784,0.603231634 9.95992668,0.603231634 L13.8944705,0.603231634 C14.0849416,0.603231634 14.2397492,0.781150796 14.2397492,1.00190604 C14.2397492,1.22186433 14.0849416,1.40077968 13.8944705,1.40077968 L9.95992668,1.40077968 Z" id="Fill-21" fill="#FFFFFF"></path>
                                <path d="M9.50309482,3.1553057 C9.29987249,3.1553057 9.13609919,2.97658958 9.13609919,2.75663129 C9.13609919,2.53587605 9.29987249,2.35795688 9.50309482,2.35795688 L14.3513422,2.35795688 C14.5537676,2.35795688 14.7183378,2.53587605 14.7183378,2.75663129 C14.7183378,2.97658958 14.5537676,3.1553057 14.3513422,3.1553057 L9.50309482,3.1553057 Z" id="Fill-22" fill="#FFFFFF"></path>
                                <path d="M8.47791783,7.30319311 C8.19161343,7.30319311 7.96009935,7.08383253 7.96009935,6.81386561 L7.96009935,6.50564506 L14.5678138,6.50564506 C14.8007226,6.50564506 14.9895998,6.6839627 14.9895998,6.90471795 C14.9895998,7.12467624 14.8007226,7.30319311 14.5678138,7.30319311 L8.47791783,7.30319311 Z" id="Fill-23" fill="#FFFFFF"></path>
                                <path d="M13.8944904,5.70793763 L9.9599466,5.70793763 C9.76887776,5.70793763 9.61466787,5.52902227 9.61466787,5.30906398 C9.61466787,5.08830874 9.76887776,4.91038958 9.9599466,4.91038958 L13.8944904,4.91038958 C14.0849615,4.91038958 14.2397692,5.08830874 14.2397692,5.30906398 C14.2397692,5.52902227 14.0849615,5.70793763 13.8944904,5.70793763" id="Fill-24" fill="#FFFFFF"></path>
                                <path d="M12.1019299,3.05315659 L10.2625686,5.56295244 C10.1496009,5.71696309 9.76806089,5.75402128 9.60687768,5.64623375 C9.44569448,5.53844621 9.40684315,5.32625819 9.51961162,5.17224753 L11.358973,2.66245168 C11.4719407,2.50844103 11.6938914,2.47138284 11.8552738,2.57917037 C12.0162578,2.68695791 12.0553084,2.89914593 11.9423406,3.05315659 L12.1019299,3.05315659 Z" id="Fill-25" fill="#FFFFFF"></path>
                                <path d="M13.5917489,5.56289266 L11.7523875,3.05309682 C11.6394198,2.89908616 11.8384582,2.68689814 11.9998406,2.5791106 C12.1608246,2.47132307 12.3831737,2.50838126 12.4959422,2.66239191 L14.3347059,5.17218776 C14.4476736,5.32619841 14.4088222,5.53838644 14.2474398,5.64617397 C14.0862566,5.75396151 13.8641067,5.71690332 13.7513382,5.56289266" id="Fill-26" fill="#FFFFFF"></path>
                                <path d="M8.25881626,2.03887789 C8.47897379,2.03887789 8.65768991,2.21540239 8.65768991,2.43336831 L8.65768991,6.90864293 C8.65768991,7.12660884 8.47897379,7.30313334 8.25881626,7.30313334 C8.03885797,7.30313334 7.86014186,7.12660884 7.86014186,6.90864293 L7.86014186,2.43336831 C7.86014186,2.21540239 8.03885797,2.03887789 8.25881626,2.03887789" id="Fill-27" fill="#FFFFFF"></path>
                                <path d="M16.1108093,1.40077968 C15.9251199,1.40077968 15.7752932,1.22186433 15.7752932,1.00190604 C15.7752932,0.781150796 15.9251199,0.603231634 16.1108093,0.603231634 L22.4575225,0.603231634 C22.6426143,0.603231634 22.7930386,0.781150796 22.7930386,1.00190604 C22.7930386,1.22186433 22.6426143,1.40077968 22.4575225,1.40077968 L16.1108093,1.40077968 Z" id="Fill-28" fill="#FFFFFF"></path>
                                <path d="M15.7753729,1.84274842 L15.7753729,0.958731255 C15.7753729,0.761884522 15.9542883,0.603092167 16.1742465,0.603092167 C16.3940056,0.603092167 16.572921,0.761884522 16.572921,0.958731255 L16.572921,1.84274842 C16.572921,2.03939591 16.3940056,2.1983875 16.1742465,2.1983875 C15.9542883,2.1983875 15.7753729,2.03939591 15.7753729,1.84274842" id="Fill-29" fill="#FFFFFF"></path>
                                <path d="M21.9955105,1.84274842 L21.9955105,0.958731255 C21.9955105,0.761884522 22.1742266,0.603092167 22.3941849,0.603092167 C22.613944,0.603092167 22.7930586,0.761884522 22.7930586,0.958731255 L22.7930586,1.84274842 C22.7930586,2.03939591 22.613944,2.1983875 22.3941849,2.1983875 C22.1742266,2.1983875 21.9955105,2.03939591 21.9955105,1.84274842" id="Fill-30" fill="#FFFFFF"></path>
                                <path d="M17.0978522,3.15550493 C16.8962238,3.15550493 16.7324505,3.00567827 16.7324505,2.82138351 L16.7324505,2.69207831 C16.7324505,2.50778355 16.8962238,2.35795688 17.0978522,2.35795688 L21.6301088,2.35795688 C21.8317372,2.35795688 21.9955105,2.50778355 21.9955105,2.69207831 L21.9955105,2.82138351 C21.9955105,3.00567827 21.8317372,3.15550493 21.6301088,3.15550493 L17.0978522,3.15550493 Z" id="Fill-31" fill="#FFFFFF"></path>
                                <path d="M17.0704172,5.2294088 C16.8839308,5.2294088 16.7325103,5.07958213 16.7325103,4.89508813 L16.7325103,4.76598217 C16.7325103,4.58168741 16.8839308,4.43186075 17.0704172,4.43186075 L21.6574641,4.43186075 C21.8439505,4.43186075 21.9955703,4.58168741 21.9955703,4.76598217 L21.9955703,4.89508813 C21.9955703,5.07958213 21.8439505,5.2294088 21.6574641,5.2294088 L17.0704172,5.2294088 Z" id="Fill-32" fill="#FFFFFF"></path>
                                <path d="M16.1269675,7.30319311 C15.9331093,7.30319311 15.7753131,7.1541634 15.7753131,6.97106406 L15.7753131,6.83777412 C15.7753131,6.65467478 15.9331093,6.50564506 16.1269675,6.50564506 L22.4414042,6.50564506 C22.6352624,6.50564506 22.7930586,6.65467478 22.7930586,6.83777412 L22.7930586,6.97106406 C22.7930586,7.1541634 22.6352624,7.30319311 22.4414042,7.30319311 L16.1269675,7.30319311 Z" id="Fill-33" fill="#FFFFFF"></path>
                                <path d="M21.293716,6.91581548 L21.293716,6.25414746 C21.293716,6.04036553 21.4724322,5.86742731 21.6923905,5.86742731 C21.9121495,5.86742731 22.0910649,6.04036553 22.0910649,6.25414746 L22.0910649,6.91581548 C22.0910649,7.13019512 21.9121495,7.30313334 21.6923905,7.30313334 C21.4724322,7.30313334 21.293716,7.13019512 21.293716,6.91581548" id="Fill-34" fill="#FFFFFF"></path>
                                <path d="M19.7626549,6.89421813 L19.7626549,3.08658865 C19.7626549,2.86005552 19.584138,2.67695618 19.3639805,2.67695618 C19.143823,2.67695618 18.9653061,2.86005552 18.9653061,3.08658865 L18.9653061,6.89421813 C18.9653061,7.12015355 19.143823,7.30325289 19.3639805,7.30325289 C19.584138,7.30325289 19.7626549,7.12015355 19.7626549,6.89421813" id="Fill-35" fill="#FFFFFF"></path>
                                <path d="M26.8060223,7.3078752 C26.6131603,7.3078752 26.4561611,7.15884548 26.4561611,6.97574614 L26.4561611,6.8424562 C26.4561611,6.65935686 26.6131603,6.51032715 26.8060223,6.51032715 L33.0897765,6.51032715 C33.2826384,6.51032715 33.4396377,6.65935686 33.4396377,6.8424562 L33.4396377,6.97574614 C33.4396377,7.15884548 33.2826384,7.3078752 33.0897765,7.3078752 L26.8060223,7.3078752 Z" id="Fill-36" fill="#FFFFFF"></path>
                                <path d="M34.6179088,7.3078752 C34.4248476,7.3078752 34.2678484,7.15884548 34.2678484,6.97574614 L34.2678484,6.8424562 C34.2678484,6.65935686 34.4248476,6.51032715 34.6179088,6.51032715 L40.9014637,6.51032715 C41.094525,6.51032715 41.2513249,6.65935686 41.2513249,6.8424562 L41.2513249,6.97574614 C41.2513249,7.15884548 41.094525,7.3078752 40.9014637,7.3078752 L34.6179088,7.3078752 Z" id="Fill-37" fill="#FFFFFF"></path>
                                <path d="M30.7106008,6.69916453 L30.7106008,2.89153506 C30.7106008,2.66500193 30.5320839,2.48190259 30.3119264,2.48190259 C30.0917688,2.48190259 29.9130527,2.66500193 29.9130527,2.89153506 L29.9130527,6.69916453 C29.9130527,6.92509995 30.0917688,7.10819929 30.3119264,7.10819929 C30.5320839,7.10819929 30.7106008,6.92509995 30.7106008,6.69916453" id="Fill-38" fill="#FFFFFF"></path>
                                <path d="M37.0688897,6.69916453 L37.0688897,0.409831711 C37.0688897,0.18309934 36.8903728,0 36.6700161,0 C36.4498585,0 36.2713417,0.18309934 36.2713417,0.409831711 L36.2713417,6.69916453 C36.2713417,6.92509995 36.4498585,7.10819929 36.6700161,7.10819929 C36.8903728,7.10819929 37.0688897,6.92509995 37.0688897,6.69916453" id="Fill-39" fill="#FFFFFF"></path>
                                <path d="M39.2480508,6.69916453 L39.2480508,0.409831711 C39.2480508,0.18309934 39.0695339,0 38.8491771,0 C38.6290196,0 38.4505027,0.18309934 38.4505027,0.409831711 L38.4505027,6.69916453 C38.4505027,6.92509995 38.6290196,7.10819929 38.8491771,7.10819929 C39.0695339,7.10819929 39.2480508,6.92509995 39.2480508,6.69916453" id="Fill-40" fill="#FFFFFF"></path>
                                <path d="M28.5355241,6.71083985 L28.5355241,4.04384555 C28.5355241,3.81731242 28.3570072,3.63421308 28.1368497,3.63421308 C27.9166921,3.63421308 27.7381752,3.81731242 27.7381752,4.04384555 L27.7381752,6.71083985 C27.7381752,6.93677527 27.9166921,7.11987461 28.1368497,7.11987461 C28.3570072,7.11987461 28.5355241,6.93677527 28.5355241,6.71083985" id="Fill-41" fill="#FFFFFF"></path>
                                <path d="M30.4025994,4.82382085 L32.2820075,4.82382085 C32.5085407,4.82382085 32.69164,4.64530397 32.69164,4.42514644 C32.69164,4.20498891 32.5085407,4.02647203 32.2820075,4.02647203 L30.4025994,4.02647203 C30.176664,4.02647203 29.9935646,4.20498891 29.9935646,4.42514644 C29.9935646,4.64530397 30.176664,4.82382085 30.4025994,4.82382085" id="Fill-42" fill="#FFFFFF"></path>
                                <path d="M34.6282293,2.87960073 L35.1904778,4.67273899 C35.2584178,4.88891176 35.4835563,5.01024745 35.6937519,4.94449905 C35.9037483,4.87855141 36.0193061,4.65042438 35.9515653,4.4342516 L35.3891176,2.6409141 C35.3215761,2.42533904 35.0966369,2.30420258 34.8864412,2.36995099 C34.6762456,2.43589863 34.5606878,2.66402566 34.6282293,2.87960073" id="Fill-43" fill="#FFFFFF"></path>
                                <path d="M40.8868995,2.87960073 L40.324651,4.67273899 C40.256711,4.88891176 40.0315725,5.01024745 39.8213769,4.94449905 C39.6113805,4.87855141 39.4960219,4.65042438 39.5635634,4.4342516 L40.1260111,2.6409141 C40.1937519,2.42533904 40.4186911,2.30420258 40.6288868,2.36995099 C40.8390824,2.43589863 40.954441,2.66402566 40.8868995,2.87960073" id="Fill-44" fill="#FFFFFF"></path>
                                <path d="M27.1441683,3.52283927 C26.9875676,3.67944001 26.731348,3.67944001 26.5747473,3.52283927 C26.4165527,3.36464463 26.4165527,3.10782738 26.5747473,2.94963274 L29.5655027,0.126635409 C29.7232988,-0.0309615206 29.9811123,-0.0309615206 30.1389084,0.126635409 C30.2961069,0.2840331 30.2961069,0.53885797 30.1389084,0.696056424 L27.1441683,3.52283927 Z" id="Fill-45" fill="#FFFFFF"></path>
                                <path d="M32.7494787,3.52283927 C32.9060794,3.67944001 33.1622989,3.67944001 33.3188997,3.52283927 C33.4772936,3.36464463 33.4772936,3.10782738 33.3188997,2.94963274 L30.13588,0.124643033 C29.9780839,-0.0329538964 29.7202704,-0.0329538964 29.5624743,0.124643033 C29.4052758,0.282040724 29.4052758,0.537064832 29.5624743,0.694263286 L32.7494787,3.52283927 Z" id="Fill-46" fill="#FFFFFF"></path>
                            </g>
                        </g>
                    </g>
                </g>
            </g>
        </g>
    </g>
</svg>