<?xml version="1.0" encoding="UTF-8"?>
<svg width="32px" height="32px" viewBox="0 0 32 32" version="1.1" xmlns="http://www.w3.org/2000/svg" xmlns:xlink="http://www.w3.org/1999/xlink">
    <title>成本</title>
    <defs>
        <path d="M0,15.9841954 C0,24.8120228 7.15636804,31.9683908 15.9841954,31.9683908 C24.8120228,31.9683908 31.9683908,24.8120228 31.9683908,15.9841954 C31.9683908,7.15636804 24.8120228,2.61349052e-15 15.9841954,2.61349052e-15 C7.15636804,2.61349052e-15 0,7.15636804 0,15.9841954 Z" id="path-1"></path>
        <filter x="-7.8%" y="-7.8%" width="115.6%" height="115.6%" filterUnits="objectBoundingBox" id="filter-2">
            <feGaussianBlur stdDeviation="2" in="SourceAlpha" result="shadowBlurInner1"></feGaussianBlur>
            <feOffset dx="0" dy="1" in="shadowBlurInner1" result="shadowOffsetInner1"></feOffset>
            <feComposite in="shadowOffsetInner1" in2="SourceAlpha" operator="arithmetic" k2="-1" k3="1" result="shadowInnerInner1"></feComposite>
            <feColorMatrix values="0 0 0 0 0.818925067   0 0 0 0 0.886828167   0 0 0 0 1  0 0 0 1 0" type="matrix" in="shadowInnerInner1"></feColorMatrix>
        </filter>
    </defs>
    <g id="毛利" stroke="none" stroke-width="1" fill="none" fill-rule="evenodd">
        <g transform="translate(-428.000000, -560.000000)" fill-rule="nonzero" id="编组-49">
            <g transform="translate(102.000000, 125.000000)">
                <g id="编组-77" transform="translate(0.000000, 433.000000)">
                    <g id="编组-94" transform="translate(163.000000, 2.000000)">
                        <g id="成本" transform="translate(163.000000, 0.000000)">
                            <g id="路径" opacity="0.758212135">
                                <use fill="#FFFFFF" xlink:href="#path-1"></use>
                                <use fill="black" fill-opacity="1" filter="url(#filter-2)" xlink:href="#path-1"></use>
                            </g>
                            <path d="M22.4317529,20.237069 L17.5969828,23.0280172 C17.1659483,23.2758621 16.6307471,22.966954 16.6307471,22.4712644 L16.6307471,17.8340517 C16.6307471,17.6041667 16.7528736,17.3922414 16.954023,17.2772989 L21.7887931,14.4863506 C22.2198276,14.2385057 22.7550287,14.5474138 22.7550287,15.0431034 L22.7550287,19.6803161 C22.7550287,19.9066092 22.6329023,20.1221264 22.4317529,20.237069 Z" id="路径" fill="#22D0FF"></path>
                            <path d="M9.53663793,20.237069 L14.371408,23.0280172 C14.8024425,23.2758621 15.3376437,22.966954 15.3376437,22.4712644 L15.3376437,17.8340517 C15.3376437,17.6041667 15.2155172,17.3922414 15.0143678,17.2772989 L10.1795977,14.4863506 C9.74856322,14.2385057 9.21336207,14.5474138 9.21336207,15.0431034 L9.21336207,19.6803161 C9.21336207,19.9066092 9.33548851,20.1221264 9.53663793,20.237069 Z" id="路径" fill="#148AF4"></path>
                            <path d="M15.6645115,8.94396552 L10.1939655,12.0689655 C9.75933908,12.3168103 9.75933908,12.9418103 10.1939655,13.1896552 L15.6645115,16.3146552 C15.862069,16.4295977 16.1063218,16.4295977 16.3038793,16.3146552 L21.7744253,13.1896552 C22.2090517,12.9418103 22.2090517,12.3168103 21.7744253,12.0689655 L16.3038793,8.94396552 C16.1063218,8.83261494 15.862069,8.83261494 15.6645115,8.94396552 L15.6645115,8.94396552 Z" id="路径" fill="#FFD96E"></path>
                            <path d="M15.6645115,8.94396552 L10.1939655,12.0689655 C9.75933908,12.3168103 9.75933908,12.9418103 10.1939655,13.1896552 L15.6645115,16.3146552 C15.862069,16.4295977 16.1063218,16.4295977 16.3038793,16.3146552 L21.7744253,13.1896552 C22.2090517,12.9418103 22.2090517,12.3168103 21.7744253,12.0689655 L16.3038793,8.94396552 C16.1063218,8.83261494 15.862069,8.83261494 15.6645115,8.94396552 L15.6645115,8.94396552 Z" id="路径" fill="#B8DDFF"></path>
                        </g>
                    </g>
                </g>
            </g>
        </g>
    </g>
</svg>