<?xml version="1.0" encoding="UTF-8"?>
<svg width="14px" height="14px" viewBox="0 0 14 14" version="1.1" xmlns="http://www.w3.org/2000/svg" xmlns:xlink="http://www.w3.org/1999/xlink">
    <title>DownCircleOutline-Hover</title>
    <g id="组件规范" stroke="none" stroke-width="1" fill="none" fill-rule="evenodd">
        <path d="M8.4204686,4.39882537 C8.4204686,4.33164636 8.36588566,4.2770395 8.29870665,4.2770395 L7.38969072,4.2770395 C7.35540144,4.27636364 7.32251172,4.29105904 7.29871915,4.31625117 L5.22876601,6.58214308 L5.19867541,6.61783193 C5.13709466,6.70180569 5.10490472,6.80397376 5.10910341,6.90754139 L5.10910341,6.91383943 L5.11050297,6.96282412 C5.11750078,7.04609809 5.1468916,7.12587316 5.19587629,7.19305217 L5.22876601,7.23363949 L7.23573883,9.42955326 C7.25883162,9.45544517 7.29172134,9.47014058 7.32601062,9.47014058 L8.23502655,9.47014058 C8.26511715,9.47014058 8.29450797,9.4582443 8.31760075,9.43795064 C8.36728522,9.39176507 8.37078413,9.31478913 8.32529834,9.26510465 L6.17137145,6.90754139 L8.38897844,4.48139956 C8.4092721,4.45900656 8.4204686,4.42961575 8.4204686,4.39882537 M13.44,6.72 C13.44,10.4323399 10.4316401,13.44 6.72,13.44 C3.00905967,13.44 0,10.4323399 0,6.72 C0,3.00905967 3.00905967,0 6.72,0 C10.4316401,0 13.44,3.00905967 13.44,6.72" id="DownCircleOutline-Hover" fill="#CAD5E1" transform="translate(6.720000, 6.720000) scale(1, -1) rotate(90.000000) translate(-6.720000, -6.720000) "></path>
    </g>
</svg>