<?xml version="1.0" encoding="UTF-8"?>
<svg width="45px" height="10px" viewBox="0 0 45 10" version="1.1" xmlns="http://www.w3.org/2000/svg" xmlns:xlink="http://www.w3.org/1999/xlink">
    <title>编组</title>
    <defs>
        <polygon id="path-1" points="0 9.89493538 45 9.89493538 45 0 0 0"></polygon>
    </defs>
    <g id="首页" stroke="none" stroke-width="1" fill="none" fill-rule="evenodd">
        <g id="首页交互" transform="translate(-889.000000, -839.000000)">
            <g id="编组" transform="translate(889.000000, 839.000000)">
                <polygon id="Fill-1" fill="#337EFC" points="0 9.89493538 27.1817844 9.89493538 27.1817844 0 0 0"></polygon>
                <polygon id="Fill-2" fill="#F7931E" points="27.0963114 9.89493538 45 9.89493538 45 0 27.0963114 0"></polygon>
                <g transform="translate(-0.000000, -0.000000)">
                    <path d="M3.82020136,2.55835005 C3.62714014,2.55835005 3.47034016,2.3794347 3.47034016,2.1594764 C3.47034016,1.93872116 3.62714014,1.760802 3.82020136,1.760802 L8.85513435,1.760802 C9.0477971,1.760802 9.20479631,1.93872116 9.20479631,2.1594764 C9.20479631,2.3794347 9.0477971,2.55835005 8.85513435,2.55835005 L3.82020136,2.55835005 Z" id="Fill-3" fill="#FFFFFF"></path>
                    <path d="M3.82059984,3.994076 C3.62714014,3.994076 3.47034016,3.81516065 3.47034016,3.59520236 C3.47034016,3.37444712 3.62714014,3.19652795 3.82059984,3.19652795 L8.85533359,3.19652795 C9.04799633,3.19652795 9.20479631,3.37444712 9.20479631,3.59520236 C9.20479631,3.81516065 9.04799633,3.994076 8.85533359,3.994076 L3.82059984,3.994076 Z" id="Fill-5" fill="#FFFFFF"></path>
                    <path d="M3.47038001,8.07047697 L3.47038001,4.90459176 C3.47038001,4.71252673 3.62977008,4.55632447 3.8260191,4.55632447 L4.26434179,4.55632447 C4.26633416,4.55632447 4.26772882,4.55851608 4.26772882,4.56030922 L4.26772882,8.07047697 C4.26772882,8.28605204 4.08921195,8.4607834 3.86905442,8.4607834 C3.64889689,8.4607834 3.47038001,8.28605204 3.47038001,8.07047697" id="Fill-7" fill="#FFFFFF"></path>
                    <mask id="mask-2" fill="white">
                        <use xlink:href="#path-1"></use>
                    </mask>
                    <g id="Clip-10"></g>
                    <polygon id="Fill-9" fill="#FFFFFF" mask="url(#mask-2)" points="5.0652171 6.86552791 5.86256591 6.86552791 5.86256591 3.83452655 5.0652171 3.83452655"></polygon>
                    <polygon id="Fill-11" fill="#FFFFFF" mask="url(#mask-2)" points="4.10827899 7.18450729 8.57379096 7.18450729 8.57379096 6.38695924 4.10827899 6.38695924"></polygon>
                    <polygon id="Fill-12" fill="#FFFFFF" mask="url(#mask-2)" points="4.10827899 5.35391236 8.57379096 5.35391236 8.57379096 4.55636431 4.10827899 4.55636431"></polygon>
                    <path d="M8.81321476,8.46076348 C8.59305723,8.46076348 8.41454036,8.28583288 8.41454036,8.06985934 L8.41454036,4.55630454 L8.86043407,4.55630454 C9.05469072,4.55630454 9.21188917,4.71051443 9.21188917,4.90098556 L9.21188917,8.06985934 C9.21188917,8.28583288 9.0333723,8.46076348 8.81321476,8.46076348" id="Fill-13" fill="#FFFFFF" mask="url(#mask-2)"></path>
                    <polygon id="Fill-14" fill="#FFFFFF" mask="url(#mask-2)" points="6.81970327 6.86552791 7.61705208 6.86552791 7.61705208 3.83452655 6.81970327 3.83452655"></polygon>
                    <path d="M4.82593276,2.87734934 C4.60597447,2.87734934 4.42725836,2.69006601 4.42725836,2.45815347 L4.42725836,1.59645091 C4.42725836,1.36533532 4.60597447,1.17725504 4.82593276,1.17725504 C5.04589106,1.17725504 5.22480641,1.36533532 5.22480641,1.59645091 L5.22480641,2.45815347 C5.22480641,2.69006601 5.04589106,2.87734934 4.82593276,2.87734934" id="Fill-15" fill="#FFFFFF" mask="url(#mask-2)"></path>
                    <path d="M2.6232218,2.57149973 C2.40326351,2.57149973 2.22434816,2.3842164 2.22434816,2.15230385 L2.22434816,1.59643099 C2.22434816,1.36531539 2.40326351,1.17723511 2.6232218,1.17723511 C2.8431801,1.17723511 3.02189621,1.36531539 3.02189621,1.59643099 L3.02189621,2.15230385 C3.02189621,2.3842164 2.8431801,2.57149973 2.6232218,2.57149973" id="Fill-16" fill="#FFFFFF" mask="url(#mask-2)"></path>
                    <path d="M10.4584789,2.57149973 C10.2385206,2.57149973 10.0598045,2.3842164 10.0598045,2.15230385 L10.0598045,1.59643099 C10.0598045,1.36531539 10.2385206,1.17723511 10.4584789,1.17723511 C10.6784372,1.17723511 10.8573525,1.36531539 10.8573525,1.59643099 L10.8573525,2.15230385 C10.8573525,2.3842164 10.6784372,2.57149973 10.4584789,2.57149973" id="Fill-17" fill="#FFFFFF" mask="url(#mask-2)"></path>
                    <path d="M8.01568664,2.87734934 C7.79592758,2.87734934 7.61701223,2.69006601 7.61701223,2.45815347 L7.61701223,1.59645091 C7.61701223,1.36533532 7.79592758,1.17725504 8.01568664,1.17725504 C8.23564493,1.17725504 8.41456028,1.36533532 8.41456028,1.59645091 L8.41456028,2.45815347 C8.41456028,2.69006601 8.23564493,2.87734934 8.01568664,2.87734934" id="Fill-18" fill="#FFFFFF" mask="url(#mask-2)"></path>
                    <path d="M21.4786085,2.37634651 C21.2586502,2.37634651 21.0799341,2.18906318 21.0799341,1.95715064 L21.0799341,1.59633137 C21.0799341,1.36541501 21.2586502,1.17733473 21.4786085,1.17733473 C21.6985668,1.17733473 21.8772829,1.36541501 21.8772829,1.59633137 L21.8772829,1.95715064 C21.8772829,2.18906318 21.6985668,2.37634651 21.4786085,2.37634651" id="Fill-19" fill="#FFFFFF" mask="url(#mask-2)"></path>
                    <path d="M2.59307716,8.46076348 C2.81323469,8.46076348 2.9919508,8.28403974 2.9919508,8.06627306 L2.9919508,3.59099845 C2.9919508,3.37303253 2.81323469,3.19650803 2.59307716,3.19650803 C2.37291963,3.19650803 2.19440275,3.37303253 2.19440275,3.59099845 L2.19440275,8.06627306 C2.19440275,8.28403974 2.37291963,8.46076348 2.59307716,8.46076348" id="Fill-20" fill="#FFFFFF" mask="url(#mask-2)"></path>
                    <path d="M12.1543294,2.55835005 C11.9632606,2.55835005 11.8090507,2.3794347 11.8090507,2.1594764 C11.8090507,1.93872116 11.9632606,1.760802 12.1543294,1.760802 L16.0888732,1.760802 C16.2793444,1.760802 16.434152,1.93872116 16.434152,2.1594764 C16.434152,2.3794347 16.2793444,2.55835005 16.0888732,2.55835005 L12.1543294,2.55835005 Z" id="Fill-21" fill="#FFFFFF" mask="url(#mask-2)"></path>
                    <path d="M11.6974976,4.31287606 C11.4942752,4.31287606 11.3305019,4.13415995 11.3305019,3.91420166 C11.3305019,3.69344641 11.4942752,3.51552725 11.6974976,3.51552725 L16.5457449,3.51552725 C16.7481703,3.51552725 16.9127406,3.69344641 16.9127406,3.91420166 C16.9127406,4.13415995 16.7481703,4.31287606 16.5457449,4.31287606 L11.6974976,4.31287606 Z" id="Fill-22" fill="#FFFFFF" mask="url(#mask-2)"></path>
                    <path d="M10.6723206,8.46076348 C10.3860162,8.46076348 10.1545021,8.2414029 10.1545021,7.97143597 L10.1545021,7.66321543 L16.7622166,7.66321543 C16.9951253,7.66321543 17.1840026,7.84153307 17.1840026,8.06228831 C17.1840026,8.2822466 16.9951253,8.46076348 16.7622166,8.46076348 L10.6723206,8.46076348 Z" id="Fill-23" fill="#FFFFFF" mask="url(#mask-2)"></path>
                    <path d="M16.0888932,6.86550799 L12.1543494,6.86550799 C11.9632805,6.86550799 11.8090706,6.68659264 11.8090706,6.46663435 C11.8090706,6.2458791 11.9632805,6.06795994 12.1543494,6.06795994 L16.0888932,6.06795994 C16.2793643,6.06795994 16.4341719,6.2458791 16.4341719,6.46663435 C16.4341719,6.68659264 16.2793643,6.86550799 16.0888932,6.86550799" id="Fill-24" fill="#FFFFFF" mask="url(#mask-2)"></path>
                    <path d="M14.2963327,4.21072695 L12.4569713,6.7205228 C12.3440036,6.87453345 11.9624636,6.91159164 11.8012804,6.80380411 C11.6400972,6.69601658 11.6012459,6.48382855 11.7140144,6.3298179 L13.5533757,3.82002205 C13.6663435,3.6660114 13.8882941,3.62895321 14.0496766,3.73674074 C14.2106605,3.84452827 14.2497111,4.0567163 14.1367434,4.21072695 L14.2963327,4.21072695 Z" id="Fill-25" fill="#FFFFFF" mask="url(#mask-2)"></path>
                    <path d="M15.7861517,6.72046303 L13.9467903,4.21066718 C13.8338226,4.05665653 14.0328609,3.8444685 14.1942434,3.73668097 C14.3552273,3.62889343 14.5775765,3.66595163 14.6903449,3.81996228 L16.5291086,6.32975813 C16.6420763,6.48376878 16.603225,6.69595681 16.4418425,6.80374434 C16.2806593,6.91153187 16.0585094,6.87447368 15.945741,6.72046303" id="Fill-26" fill="#FFFFFF" mask="url(#mask-2)"></path>
                    <path d="M10.453219,3.19644826 C10.6733765,3.19644826 10.8520927,3.37297276 10.8520927,3.59093867 L10.8520927,8.06621329 C10.8520927,8.28417921 10.6733765,8.46070371 10.453219,8.46070371 C10.2332607,8.46070371 10.0545446,8.28417921 10.0545446,8.06621329 L10.0545446,3.59093867 C10.0545446,3.37297276 10.2332607,3.19644826 10.453219,3.19644826" id="Fill-27" fill="#FFFFFF" mask="url(#mask-2)"></path>
                    <path d="M18.3052121,2.55835005 C18.1195226,2.55835005 17.969696,2.3794347 17.969696,2.1594764 C17.969696,1.93872116 18.1195226,1.760802 18.3052121,1.760802 L24.6519253,1.760802 C24.837017,1.760802 24.9874414,1.93872116 24.9874414,2.1594764 C24.9874414,2.3794347 24.837017,2.55835005 24.6519253,2.55835005 L18.3052121,2.55835005 Z" id="Fill-28" fill="#FFFFFF" mask="url(#mask-2)"></path>
                    <path d="M17.9697757,3.00031878 L17.9697757,2.11630162 C17.9697757,1.91945489 18.148691,1.76066253 18.3686493,1.76066253 C18.5884084,1.76066253 18.7673237,1.91945489 18.7673237,2.11630162 L18.7673237,3.00031878 C18.7673237,3.19696628 18.5884084,3.35595787 18.3686493,3.35595787 C18.148691,3.35595787 17.9697757,3.19696628 17.9697757,3.00031878" id="Fill-29" fill="#FFFFFF" mask="url(#mask-2)"></path>
                    <path d="M24.1899133,3.00031878 L24.1899133,2.11630162 C24.1899133,1.91945489 24.3686294,1.76066253 24.5885877,1.76066253 C24.8083467,1.76066253 24.9874613,1.91945489 24.9874613,2.11630162 L24.9874613,3.00031878 C24.9874613,3.19696628 24.8083467,3.35595787 24.5885877,3.35595787 C24.3686294,3.35595787 24.1899133,3.19696628 24.1899133,3.00031878" id="Fill-30" fill="#FFFFFF" mask="url(#mask-2)"></path>
                    <path d="M19.292255,4.3130753 C19.0906265,4.3130753 18.9268532,4.16324864 18.9268532,3.97895387 L18.9268532,3.84964868 C18.9268532,3.66535391 19.0906265,3.51552725 19.292255,3.51552725 L23.8245115,3.51552725 C24.02614,3.51552725 24.1899133,3.66535391 24.1899133,3.84964868 L24.1899133,3.97895387 C24.1899133,4.16324864 24.02614,4.3130753 23.8245115,4.3130753 L19.292255,4.3130753 Z" id="Fill-31" fill="#FFFFFF" mask="url(#mask-2)"></path>
                    <path d="M19.26482,6.38697916 C19.0783336,6.38697916 18.926913,6.2371525 18.926913,6.05265849 L18.926913,5.92355254 C18.926913,5.73925777 19.0783336,5.58943111 19.26482,5.58943111 L23.8518669,5.58943111 C24.0383532,5.58943111 24.189973,5.73925777 24.189973,5.92355254 L24.189973,6.05265849 C24.189973,6.2371525 24.0383532,6.38697916 23.8518669,6.38697916 L19.26482,6.38697916 Z" id="Fill-32" fill="#FFFFFF" mask="url(#mask-2)"></path>
                    <path d="M18.3213702,8.46076348 C18.1275121,8.46076348 17.9697159,8.31173377 17.9697159,8.12863443 L17.9697159,7.99534448 C17.9697159,7.81224514 18.1275121,7.66321543 18.3213702,7.66321543 L24.635807,7.66321543 C24.8296651,7.66321543 24.9874613,7.81224514 24.9874613,7.99534448 L24.9874613,8.12863443 C24.9874613,8.31173377 24.8296651,8.46076348 24.635807,8.46076348 L18.3213702,8.46076348 Z" id="Fill-33" fill="#FFFFFF" mask="url(#mask-2)"></path>
                    <path d="M23.4881188,8.07338584 L23.4881188,7.41171783 C23.4881188,7.1979359 23.6668349,7.02499768 23.8867932,7.02499768 C24.1065523,7.02499768 24.2854676,7.1979359 24.2854676,7.41171783 L24.2854676,8.07338584 C24.2854676,8.28776548 24.1065523,8.46070371 23.8867932,8.46070371 C23.6668349,8.46070371 23.4881188,8.28776548 23.4881188,8.07338584" id="Fill-34" fill="#FFFFFF" mask="url(#mask-2)"></path>
                    <path d="M21.9570577,8.05178849 L21.9570577,4.24415902 C21.9570577,4.01762588 21.7785408,3.83452655 21.5583833,3.83452655 C21.3382257,3.83452655 21.1597088,4.01762588 21.1597088,4.24415902 L21.1597088,8.05178849 C21.1597088,8.27772391 21.3382257,8.46082325 21.5583833,8.46082325 C21.7785408,8.46082325 21.9570577,8.27772391 21.9570577,8.05178849" id="Fill-35" fill="#FFFFFF" mask="url(#mask-2)"></path>
                    <path d="M29.000425,8.46544556 C28.8075631,8.46544556 28.6505638,8.31641585 28.6505638,8.13331651 L28.6505638,8.00002657 C28.6505638,7.81692723 28.8075631,7.66789751 29.000425,7.66789751 L35.2841792,7.66789751 C35.4770412,7.66789751 35.6340404,7.81692723 35.6340404,8.00002657 L35.6340404,8.13331651 C35.6340404,8.31641585 35.4770412,8.46544556 35.2841792,8.46544556 L29.000425,8.46544556 Z" id="Fill-36" fill="#FFFFFF" mask="url(#mask-2)"></path>
                    <path d="M36.8123116,8.46544556 C36.6192503,8.46544556 36.4622511,8.31641585 36.4622511,8.13331651 L36.4622511,8.00002657 C36.4622511,7.81692723 36.6192503,7.66789751 36.8123116,7.66789751 L43.0958665,7.66789751 C43.2889277,7.66789751 43.4457277,7.81692723 43.4457277,8.00002657 L43.4457277,8.13331651 C43.4457277,8.31641585 43.2889277,8.46544556 43.0958665,8.46544556 L36.8123116,8.46544556 Z" id="Fill-37" fill="#FFFFFF" mask="url(#mask-2)"></path>
                    <path d="M32.9050035,7.85673489 L32.9050035,4.04910542 C32.9050035,3.82257229 32.7264866,3.63947295 32.5063291,3.63947295 C32.2861716,3.63947295 32.1074555,3.82257229 32.1074555,4.04910542 L32.1074555,7.85673489 C32.1074555,8.08267031 32.2861716,8.26576965 32.5063291,8.26576965 C32.7264866,8.26576965 32.9050035,8.08267031 32.9050035,7.85673489" id="Fill-38" fill="#FFFFFF" mask="url(#mask-2)"></path>
                    <path d="M39.2632925,7.85673489 L39.2632925,1.56740207 C39.2632925,1.3406697 39.0847756,1.15757036 38.8644188,1.15757036 C38.6442613,1.15757036 38.4657444,1.3406697 38.4657444,1.56740207 L38.4657444,7.85673489 C38.4657444,8.08267031 38.6442613,8.26576965 38.8644188,8.26576965 C39.0847756,8.26576965 39.2632925,8.08267031 39.2632925,7.85673489" id="Fill-39" fill="#FFFFFF" mask="url(#mask-2)"></path>
                    <path d="M41.4424535,7.85673489 L41.4424535,1.56740207 C41.4424535,1.3406697 41.2639367,1.15757036 41.0435799,1.15757036 C40.8234224,1.15757036 40.6449055,1.3406697 40.6449055,1.56740207 L40.6449055,7.85673489 C40.6449055,8.08267031 40.8234224,8.26576965 41.0435799,8.26576965 C41.2639367,8.26576965 41.4424535,8.08267031 41.4424535,7.85673489" id="Fill-40" fill="#FFFFFF" mask="url(#mask-2)"></path>
                    <path d="M30.7299268,7.86841022 L30.7299268,5.20141592 C30.7299268,4.97488278 30.5514099,4.79178344 30.3312524,4.79178344 C30.1110949,4.79178344 29.932578,4.97488278 29.932578,5.20141592 L29.932578,7.86841022 C29.932578,8.09434564 30.1110949,8.27744498 30.3312524,8.27744498 C30.5514099,8.27744498 30.7299268,8.09434564 30.7299268,7.86841022" id="Fill-41" fill="#FFFFFF" mask="url(#mask-2)"></path>
                    <path d="M32.5970021,5.98139121 L34.4764103,5.98139121 C34.7029434,5.98139121 34.8860427,5.80287433 34.8860427,5.5827168 C34.8860427,5.36255927 34.7029434,5.1840424 34.4764103,5.1840424 L32.5970021,5.1840424 C32.3710667,5.1840424 32.1879674,5.36255927 32.1879674,5.5827168 C32.1879674,5.80287433 32.3710667,5.98139121 32.5970021,5.98139121" id="Fill-42" fill="#FFFFFF" mask="url(#mask-2)"></path>
                    <path d="M36.8226321,4.03717109 L37.3848805,5.83030935 C37.4528205,6.04648213 37.677959,6.16781782 37.8881547,6.10206941 C38.0981511,6.03612177 38.2137089,5.80799474 38.1459681,5.59182196 L37.5835204,3.79848447 C37.5159789,3.5829094 37.2910396,3.46177295 37.080844,3.52752135 C36.8706483,3.59346899 36.7550905,3.82159603 36.8226321,4.03717109" id="Fill-43" fill="#FFFFFF" mask="url(#mask-2)"></path>
                    <path d="M43.0813022,4.03717109 L42.5190538,5.83030935 C42.4511137,6.04648213 42.2259753,6.16781782 42.0157796,6.10206941 C41.8057832,6.03612177 41.6904246,5.80799474 41.7579662,5.59182196 L42.3204139,3.79848447 C42.3881547,3.5829094 42.6130939,3.46177295 42.8232895,3.52752135 C43.0334852,3.59346899 43.1488438,3.82159603 43.0813022,4.03717109" id="Fill-44" fill="#FFFFFF" mask="url(#mask-2)"></path>
                    <path d="M29.3385711,4.68040963 C29.1819703,4.83701037 28.9257508,4.83701037 28.7691501,4.68040963 C28.6109554,4.52221499 28.6109554,4.26539774 28.7691501,4.1072031 L31.7599054,1.28420577 C31.9177016,1.12660884 32.175515,1.12660884 32.3333112,1.28420577 C32.4905096,1.44160346 32.4905096,1.69642833 32.3333112,1.85362679 L29.3385711,4.68040963 Z" id="Fill-45" fill="#FFFFFF" mask="url(#mask-2)"></path>
                    <path d="M34.9438814,4.68040963 C35.1004822,4.83701037 35.3567017,4.83701037 35.5133024,4.68040963 C35.6716963,4.52221499 35.6716963,4.26539774 35.5133024,4.1072031 L32.3302828,1.2822134 C32.1724866,1.12461647 31.9146732,1.12461647 31.756877,1.2822134 C31.5996786,1.43961109 31.5996786,1.6946352 31.756877,1.85183365 L34.9438814,4.68040963 Z" id="Fill-46" fill="#FFFFFF" mask="url(#mask-2)"></path>
                </g>
            </g>
        </g>
    </g>
</svg>