<?xml version="1.0" encoding="UTF-8"?>
<svg width="40px" height="15px" viewBox="0 0 40 15" version="1.1" xmlns="http://www.w3.org/2000/svg" xmlns:xlink="http://www.w3.org/1999/xlink">
    <title>bq2备份</title>
    <g id="首页" stroke="none" stroke-width="1" fill="none" fill-rule="evenodd">
        <g id="首页备份" transform="translate(-632.000000, -261.000000)" fill-rule="nonzero">
            <g id="bq2备份" transform="translate(632.000000, 261.000000)">
                <path d="M39.2699747,-2.63504136e-15 C39.5238204,-2.68167206e-15 39.615871,0.0264306076 39.7086732,0.0760617633 C39.8014754,0.125692919 39.8743071,0.198524623 39.9239382,0.291326815 C39.9735694,0.384129008 40,0.476179592 40,0.730025289 L40,11.3125492 C40,11.5663948 39.9735694,11.6584454 39.9239382,11.7512476 C39.8743071,11.8440498 39.8014754,11.9168815 39.7086732,11.9665127 C39.615871,12.0161438 39.5238204,12.0425744 39.2699747,12.0425744 L22.393,12.042 L20.0537254,14.8003951 C19.9738523,14.894565 19.8661351,14.9595697 19.7473826,14.9869501 L19.6565118,15.0002986 C19.3426706,15.020775 19.0716525,14.7829559 19.0511761,14.4691147 L19.0511761,14.4691147 L18.893,12.042 L0.730025289,12.0425744 C0.476179592,12.0425744 0.384129008,12.0161438 0.291326815,11.9665127 C0.198524623,11.9168815 0.125692919,11.8440498 0.0760617633,11.7512476 C0.0264306076,11.6584454 4.66078398e-16,11.5663948 -8.02160581e-16,11.3125492 L1.96625969e-17,0.730025289 C-1.14245351e-17,0.476179592 0.0264306076,0.384129008 0.0760617633,0.291326815 C0.125692919,0.198524623 0.198524623,0.125692919 0.291326815,0.0760617633 C0.384129008,0.0264306076 0.476179592,-2.7461916e-15 0.730025289,-2.52399775e-15 L39.2699747,-2.63504136e-15 Z" id="合并形状" fill="#F73542"></path>
                <path d="M6.68330483,4.10475373 L6.68330483,3.55806445 L8.02269357,3.55806445 L8.02269357,4.09564224 L8.86095046,4.09564224 L8.86095046,3.55806445 L10.2367852,3.55806445 L10.2367852,2.73803053 L8.86095046,2.73803053 L8.86095046,2.09111488 L8.02269357,2.09111488 L8.02269357,2.73803053 L6.68330483,2.73803053 L6.68330483,2.09111488 L5.83593645,2.09111488 L5.83593645,2.73803053 L4.55121664,2.73803053 L4.55121664,3.55806445 L5.83593645,3.55806445 L5.83593645,4.10475373 L6.68330483,4.10475373 Z M3.64917933,4.10475373 L4.26876051,3.47606106 C3.88607802,3.02048666 3.41228064,2.57402374 2.84736838,2.11844934 L2.2277872,2.71980755 C2.8382569,3.2118279 3.31205427,3.67651379 3.64917933,4.10475373 Z M3.54895296,6.31884531 L4.16853414,5.69926413 C3.7494057,5.24368973 3.23005088,4.79722682 2.61958118,4.34165242 L2,4.94301062 C2.67425011,5.43503098 3.18449344,5.89060538 3.54895296,6.31884531 Z M5.416808,10.4281264 L5.416808,8.84272749 L5.9452743,9.30741338 C6.30973382,8.79717005 6.56485549,8.24136928 6.71975078,7.64001107 C6.83820013,7.86779827 6.97487245,8.1502544 7.13887923,8.48737946 L7.53067322,7.91335571 C7.29377453,7.58534214 7.06598733,7.28466304 6.83820013,7.0113184 L6.86553459,6.72886227 L7.88602125,6.72886227 C7.85868678,7.69468 7.54889619,8.55115987 6.95664947,9.31652486 L7.52156173,9.80854522 C7.9953591,9.18896403 8.31426118,8.51471392 8.47826797,7.78579488 C8.59671731,8.03180506 8.74250112,8.34159565 8.9065079,8.72427814 L9.2891904,8.1502544 C9.05229171,7.78579488 8.81539302,7.44866982 8.58760582,7.14799072 L8.61494029,6.72886227 L9.37119379,6.72886227 L9.37119379,9.30741338 C9.37119379,9.53520058 9.26185594,9.65364992 9.0614032,9.65364992 L8.35981862,9.61720397 L8.56938285,10.3734575 L9.30741338,10.3734575 C9.86321414,10.3734575 10.1456703,10.0727784 10.1456703,9.48053165 L10.1456703,5.98172026 L8.61494029,5.98172026 L8.61494029,5.1890208 L10.3734575,5.1890208 L10.3734575,4.38720986 L4.33254093,4.38720986 L4.33254093,5.1890208 L6.1730615,5.1890208 L6.1730615,5.98172026 L4.64233152,5.98172026 L4.64233152,10.4281264 L5.416808,10.4281264 Z M7.89513274,5.98172026 L6.88375757,5.98172026 L6.88375757,5.1890208 L7.89513274,5.1890208 L7.89513274,5.98172026 Z M5.416808,8.7607241 L5.416808,6.72886227 L6.15483853,6.72886227 C6.09105811,7.47600429 5.84504794,8.1502544 5.416808,8.7607241 Z M2.97492922,10.382569 C3.46694957,9.35297082 3.90430099,8.25048077 4.29609498,7.0842103 L3.53984147,6.79264269 C3.15715898,7.89513274 2.69247309,8.97028832 2.16400678,10.0272209 L2.97492922,10.382569 Z M11.9224104,7.30288602 C12.6968869,7.04776435 13.2526877,6.68330483 13.5989242,6.22773043 C13.6991506,6.08194662 13.7902655,5.91793984 13.8722689,5.73571008 L15.649009,5.73571008 L15.649009,4.98856806 L14.0909446,4.98856806 C14.118279,4.84278426 14.136502,4.67877747 14.154725,4.51477069 L15.4303333,4.51477069 L15.4303333,3.81318611 L14.172948,3.81318611 L14.172948,3.33027725 L15.649009,3.33027725 L15.649009,2.58313523 L14.172948,2.58313523 L14.172948,2.08200339 L13.3255796,2.08200339 L13.3255796,2.58313523 L11.5397279,2.58313523 L11.5397279,3.33027725 L13.3255796,3.33027725 L13.3255796,3.81318611 L11.7675151,3.81318611 L11.7675151,4.51477069 L13.2982451,4.51477069 C13.2800221,4.67877747 13.2526877,4.83367277 13.2162417,4.98856806 L11.3483867,4.98856806 L11.3483867,5.73571008 L12.8973396,5.73571008 C12.642218,6.09105811 12.1775321,6.38262573 11.485059,6.61041293 L11.9224104,7.30288602 Z M16.9519518,6.80175418 L16.9519518,3.16627046 L18.2457831,3.16627046 C18.0362189,3.56717594 17.7810972,3.94074694 17.4895296,4.29609498 C18.0908878,4.82456128 18.4006784,5.19813229 18.4006784,5.43503098 C18.4006784,5.65370669 18.2275601,5.77215603 17.8813236,5.79037901 C17.6899823,5.79037901 17.4621951,5.77215603 17.2070735,5.73571008 L17.5168641,6.555744 C17.9359925,6.555744 18.2731176,6.51929805 18.5191277,6.44640614 C19.0293711,6.31884531 19.2936042,5.98172026 19.3027157,5.43503098 C19.3027157,5.08879443 19.0202596,4.71522342 18.4735703,4.29609498 C18.7651379,3.85874355 19.0202596,3.41228064 19.2298238,2.95670624 L19.2298238,2.36445952 L16.0863604,2.36445952 L16.0863604,6.80175418 L16.9519518,6.80175418 Z M15.8767962,10.5465757 L15.8767962,8.10469696 L17.8357661,8.10469696 L17.8357661,8.95206534 C17.8357661,9.10696064 17.7355398,9.18896403 17.5441985,9.18896403 L16.842614,9.16162957 L17.0612897,9.95432902 L17.8175432,9.95432902 C18.3915669,9.95432902 18.6831345,9.68098438 18.6831345,9.14340659 L18.6831345,7.30288602 L15.8767962,7.30288602 L15.8767962,6.52840954 L15.0203164,6.52840954 L15.0203164,7.30288602 L12.2413125,7.30288602 L12.2413125,10.0181094 L13.0977924,10.0181094 L13.0977924,8.10469696 L15.0203164,8.10469696 L15.0203164,10.5465757 L15.8767962,10.5465757 Z M26.7923588,3.62184486 L27.5668353,3.23005088 C27.2934907,2.81092243 27.0110346,2.41912845 26.7194669,2.05466893 L25.954102,2.41912845 C26.2456696,2.77447648 26.5281257,3.17538195 26.7923588,3.62184486 Z M27.3663826,10.3734575 C27.6579502,10.3734575 27.9130719,10.1547818 28.1408591,9.73565331 C28.3230888,9.38941677 28.4962071,8.95206534 28.6602139,8.43271053 L27.8857374,7.94980166 C27.6852847,8.89739642 27.5030549,9.38941677 27.3208252,9.42586272 C27.056592,9.41675123 26.7650244,9.15251808 26.4461223,8.63316326 C26.3732304,8.49649094 26.3003385,8.35070714 26.2274466,8.18670035 C26.9563656,7.53067322 27.5759468,6.7106393 28.0861901,5.74482157 L27.3390481,5.35302758 C26.9472541,6.1001696 26.4734568,6.74708525 25.917656,7.30288602 C25.8265411,7.00220691 25.7445377,6.67419334 25.6716458,6.3279568 C25.5987539,5.97260877 25.5349735,5.58081478 25.4985276,5.15257485 L28.2228625,4.65144301 L28.0953016,3.83140909 L25.4165242,4.32342944 C25.3618552,3.64917933 25.3436323,2.89292582 25.3436323,2.06378042 L24.4689294,2.06378042 C24.4689294,2.94759475 24.5053754,3.7494057 24.5691558,4.47832474 L23.4119968,4.68788896 L23.5395576,5.51703437 L24.6511592,5.30747014 C24.7240511,5.91793984 24.8242774,6.45551763 24.9518383,6.91109203 C25.0429532,7.25732858 25.1431795,7.57623066 25.2525174,7.87690976 C24.6511592,8.33248416 23.9586861,8.69694368 23.1750981,8.97028832 L23.6488955,9.70831885 C24.3595916,9.45319718 25.0065072,9.11607213 25.5987539,8.69694368 C25.7354262,8.99762278 25.8903215,9.26185594 26.0634398,9.48964314 C26.5007912,10.0727784 26.9290312,10.3734575 27.3663826,10.3734575 Z M21.4894728,10.4190149 C22.0817196,10.4190149 22.3823987,10.1092243 22.3823987,9.50786611 L22.3823987,6.95664947 C22.7286352,6.80175418 23.0657603,6.63774739 23.3937738,6.46462912 L23.3937738,5.5717033 C23.0657603,5.75393306 22.7286352,5.91793984 22.3823987,6.07283514 L22.3823987,4.49654771 L23.3755508,4.49654771 L23.3755508,3.6674023 L22.3823987,3.6674023 L22.3823987,2.09111488 L21.5168073,2.09111488 L21.5168073,3.6674023 L20.3505368,3.6674023 L20.3505368,4.49654771 L21.5168073,4.49654771 L21.5168073,6.40996019 C21.0885674,6.555744 20.6603274,6.68330483 20.222976,6.7835312 L20.4598747,7.70379149 C20.8152227,7.58534214 21.1705708,7.45778131 21.5168073,7.33022048 L21.5168073,9.2891904 C21.5168073,9.50786611 21.4074694,9.62631546 21.1887937,9.62631546 C20.970118,9.62631546 20.7423308,9.60809248 20.5054321,9.57164653 L20.7058849,10.4190149 L21.4894728,10.4190149 Z M34.1453297,10.5283528 L34.1453297,8.64227475 L37.5165802,8.64227475 L37.5165802,7.80401786 L34.1453297,7.80401786 L34.1453297,6.64685888 L36.8878876,6.64685888 L36.8878876,5.85415942 L34.1453297,5.85415942 L34.1453297,4.63322003 L33.2615153,4.63322003 L33.2615153,5.85415942 L31.2296535,5.85415942 C31.6578934,5.30747014 32.0587989,4.69700045 32.4232584,4.00452736 L37.3799079,4.00452736 L37.3799079,3.16627046 L32.8332754,3.16627046 C32.9699477,2.85647987 33.10662,2.53757779 33.2432924,2.19134125 L32.377701,2 C32.2228057,2.40090547 32.0587989,2.79269946 31.8947921,3.16627046 L29.7900384,3.16627046 L29.7900384,4.00452736 L31.4665522,4.00452736 C31.0565352,4.75166938 30.6100723,5.36213907 30.1271635,5.85415942 L30.3276162,6.64685888 L33.2615153,6.64685888 L33.2615153,7.80401786 L29.6715891,7.80401786 L29.6715891,8.64227475 L33.2615153,8.64227475 L33.2615153,10.5283528 L34.1453297,10.5283528 Z" id="满帮找车" fill="#FFFFFF"></path>
            </g>
        </g>
    </g>
</svg>