<?xml version="1.0" encoding="UTF-8"?>
<svg width="57px" height="148px" viewBox="0 0 57 148" version="1.1" xmlns="http://www.w3.org/2000/svg" xmlns:xlink="http://www.w3.org/1999/xlink">
  <title>编组 2</title>
  <g id="首页" stroke="none" stroke-width="1" fill="none" fill-rule="evenodd">
    <g id="画板" transform="translate(-506.000000, -917.000000)">
      <g id="编组-2" transform="translate(507.000000, 917.000000)">
        <path d="M3.63797881e-12,4.5 L45,4.5 C49.418278,4.5 53,8.081722 53,12.5 L53,135.5 C53,139.918278 49.418278,143.5 45,143.5 L3.63797881e-12,143.5 L3.63797881e-12,143.5" id="Path" transform="translate(26.500000, 74.000000) scale(-1, 1) translate(-26.500000, -74.000000) "></path>
        <g id="编组-17" transform="translate(0.000000, 64.500000)">
          <polyline id="Line" stroke="#BFC5DF" stroke-linecap="square" points="0 4.5 45.141557 4.5 54 4.5"></polyline>
          <polygon id="Path-8" fill="#BFC5DF" points="50 1.2490009e-16 56 4.53271484 50 9"></polygon>
        </g>
        <polygon id="Path-8备份-2" points="50 139 56 143.532715 50 148"></polygon>
        <polygon id="Path-8备份" points="50 1.2490009e-16 56 4.53271484 50 9"></polygon>
      </g>
    </g>
  </g>
</svg>
