<?xml version="1.0" encoding="UTF-8"?>
<svg width="210px" height="57px" viewBox="0 0 210 57" version="1.1" xmlns="http://www.w3.org/2000/svg" xmlns:xlink="http://www.w3.org/1999/xlink">
    <title>编组 30</title>
    <defs>
        <polygon id="path-1" points="0.00032987217 0.000473917117 70.1570181 0.000473917117 70.1570181 46.1031311 0.00032987217 46.1031311"></polygon>
    </defs>
    <g id="登陆页" stroke="none" stroke-width="1" fill="none" fill-rule="evenodd">
        <g id="画板" transform="translate(-48.000000, -21.000000)">
            <g id="编组-7" transform="translate(48.000000, 21.000000)">
                <g id="编组-6" transform="translate(0.000000, 0.000000)">
                    <g id="编组-30" transform="translate(0.000000, 0.000000)">
                        <g id="编组-5" transform="translate(0.000000, 0.000000)">
                            <g id="编组" transform="translate(0.000000, 5.011216)">
                                <path d="M31.8183915,37.973494 L31.944951,38.0852384 C32.673341,37.4919565 33.3855745,36.8894587 34.0762659,36.2869608 L31.5639263,34.0762659 C31.4077465,34.1776422 29.8042114,35.1533893 29.0650504,35.5496785 L31.8183915,37.973494 Z" id="Fill-1" fill="#4885FF"></path>
                                <g id="Group-5">
                                    <mask id="mask-2" fill="white">
                                        <use xlink:href="#path-1"></use>
                                    </mask>
                                    <g id="Clip-4"></g>
                                    <path d="M67.0517462,20.5407527 C62.1437375,14.7163113 54.7698291,13.8905107 48.6318444,16.8915909 C47.4875147,17.4519979 46.38125,18.1296993 45.3475468,18.9495759 C44.8015516,19.3820253 44.274589,19.8488337 43.7702274,20.350001 L46.6179668,23.2681457 C47.6266899,22.585705 48.785294,22.031222 50.0057538,21.608251 C52.1730809,20.8570923 54.5450076,20.5360135 56.6814069,20.7469066 C63.1036897,21.3807708 66.2880667,24.8024524 66.9470673,28.5452128 C67.9700648,34.3637302 62.8860054,40.9559173 54.3606301,39.0519553 C51.2345402,38.3541123 49.1362059,36.8174361 46.6298622,34.7156137 C46.4918765,34.599504 46.3550803,34.4798399 46.2194737,34.3613606 C45.7603143,33.9620854 45.3094817,33.5450384 44.8634073,33.1173282 C43.4466747,31.7548165 42.0775235,30.2560536 40.6572224,28.6708008 C40.6334318,28.6447354 37.0814894,24.7230712 36.2928298,23.9031946 C36.1405697,23.7444324 35.9883096,23.5868549 35.8360495,23.4280927 C35.6052803,23.1875798 35.3721321,22.945882 35.1389838,22.7053691 C34.7309744,22.2835829 34.3158277,21.8677206 33.9006811,21.4518583 C31.9712603,19.5182765 29.9442979,17.6652606 27.5366853,16.1333235 C24.8519118,14.4260371 21.9268528,13.4355503 19.0124996,13.1203954 C19.811865,12.2578662 20.8086928,11.4225873 21.9494539,10.6536568 C25.4121813,8.319615 30.2024264,6.59929586 34.8356532,6.59929586 C41.405438,6.59929586 47.2829152,9.01864275 51.2500041,12.8324908 C52.8356502,12.3597584 54.4641194,12.133463 56.0818828,12.1666372 C55.697664,11.4972293 55.2848964,10.8479628 54.8447696,10.223577 C50.3578552,3.87901161 43.0553187,0.00118479279 34.9760179,0 C25.56801,0.00118479279 17.2662667,5.30313255 13.2242373,13.3869738 C9.02400006,14.2506877 5.23653043,16.5835447 2.72661808,20.2469241 C1.04105135,22.7089235 0.253581218,25.3332395 0.0525503234,28.0535238 C-0.0390436344,29.3022954 -0.00692627254,30.5700237 0.117974579,31.8519695 C0.443906325,35.19427 1.65366029,38.2534049 4.15881451,40.8860145 C8.58030465,45.5339567 15.4355771,47.293374 21.486726,45.2792262 C21.7174952,45.2022147 21.9613492,45.1038769 22.2147195,44.9925064 C22.8059169,44.7792437 23.4125782,44.5020021 24.0287557,44.1773689 C25.7583351,43.2638937 27.5664236,41.9535128 29.3340681,40.4583043 L29.1568278,40.277031 L27.6841873,38.7687898 L26.9942588,38.0614685 L26.2341479,37.2830596 C25.3253455,37.7084003 24.3404131,38.1005667 23.2983831,38.4429718 C21.1798267,39.1419995 18.805521,39.6230254 16.2087729,39.6621236 C7.38720414,39.7960052 1.76666582,34.4158611 2.71353323,27.3414633 C3.53074166,21.636686 9.17388108,18.0005569 15.5914058,19.1948281 C18.3499303,19.7078433 20.4518332,21.150921 22.4764165,22.7006299 C24.7055994,24.4067316 26.724235,26.273965 28.6584139,28.2063621 C29.2103567,28.7572907 29.7587309,29.3129585 30.299968,29.8733655 C31.0612684,30.6600679 34.9320053,34.7369399 35.1032979,34.9146589 C36.5569059,36.4252697 38.0390626,37.9133694 39.6211401,39.3185337 C40.3217744,39.9405499 41.0366831,40.5507182 41.7872777,41.1324514 C42.4415203,41.6395428 43.1159849,42.1288622 43.8178087,42.5944857 C50.5731605,47.0824808 59.64691,46.3905619 65.2519844,40.8575795 C67.4109848,38.7249525 69.2143152,36.1361802 69.8697473,32.7642599 C69.9316029,32.4514746 69.9922691,32.1327654 70.0327131,31.7998386 C70.175457,30.6446656 70.1968686,29.4492097 70.0886211,28.2573081 C69.8352509,25.4635667 68.8681614,22.694706 67.0517462,20.5407527 Z" id="Fill-3" fill="#4885FF"></path>
                                </g>
                                <path d="M41.7254851,24.0538348 C41.6201348,24.1721288 40.0999198,25.8814227 40.0897246,25.8922753 L42.2930169,28.0628072 C42.9115247,27.4832752 43.5458916,26.8939758 44.0986971,26.3925829 L41.7254851,24.0538348 Z" id="Fill-6" fill="#4885FF"></path>
                            </g>
                            <g id="编组-4" transform="translate(82.183935, 0.000000)">
                                <g id="编组-3" transform="translate(3.006729, 0.000000)" fill="#263647">
                                    <path d="M12.7994461,29.6663962 L28.5578641,29.6663962 C30.7933773,29.6663962 32.6121695,27.7904041 32.6121695,25.4835266 L32.6121695,21.0613939 L29.6017195,21.0613939 L29.6017195,25.4835266 C29.6017195,26.0785083 29.1336781,26.5612693 28.5578641,26.5612693 L16.3518388,26.5612693 L18.3615426,15.1581591 L34.4032488,15.1581591 L35.1556047,12.0519735 L11.1017699,12.0519735 L11.1017699,15.1581591 L15.3100363,15.1581591 L12.7994461,29.6663962 Z" id="Fill-8"></path>
                                    <polygon id="Fill-10" points="31.4550147 2.78122465 12.9520649 2.78122465 12.9520649 5.56244929 30.7215103 5.56244929"></polygon>
                                    <path d="M102.977996,14.5029135 L114.175307,14.5029135 L114.175307,20.8381263 C114.175307,21.4160214 113.698359,21.8857542 113.112872,21.8857542 L102.977996,21.8857542 L102.977996,14.5029135 Z M104.039387,32.2075156 C103.4539,32.2075156 102.977996,31.7377827 102.977996,31.1588576 L102.977996,24.9081143 L113.112872,24.9081143 C115.38594,24.9081143 117.23633,23.0817188 117.23633,20.8381263 L117.23633,11.4815836 L102.977996,11.4815836 L102.977996,5.80255459 L118.424002,5.80255459 L119.188997,2.78122465 L99.9159291,2.78122465 L99.9159291,31.1588576 C99.9159291,33.4034801 101.766319,35.2288455 104.039387,35.2288455 L119.503135,35.2288455 L120.269174,32.2075156 L104.039387,32.2075156 Z" id="Fill-12"></path>
                                    <path d="M6.78002437,33.0932008 C6.49952198,33.058835 6.24821686,32.916165 6.07407597,32.6943495 C5.89993508,32.4704513 5.82277085,32.1934423 5.85718193,31.9122678 L8.30036819,12.0519735 L0,12.0519735 L0,15.106362 L4.84361938,15.106362 L2.82170808,31.5394512 C2.68719206,32.6297835 2.98646413,33.7076192 3.66321526,34.5740533 C4.34100914,35.4404874 5.31598958,35.9903398 6.40567359,36.1246788 C6.57355792,36.1455065 6.74248501,36.1559204 6.91036935,36.1559204 L34.390219,36.1559204 L35.1556047,33.1004905 L6.91036935,33.1004905 C6.86657343,33.1004905 6.82382028,33.0984077 6.78002437,33.0932008" id="Fill-14"></path>
                                    <polygon id="Fill-16" points="9.25147491 4.63537441 0 4.63537441 0 7.41659906 8.45548586 7.41659906"></polygon>
                                    <polygon id="Fill-18" points="56.433997 4.63537441 56.433997 1.85414976 49.032817 1.85414976 49.7526081 4.63537441"></polygon>
                                    <polygon id="Fill-20" points="70.3112093 1.85414976 62.9100294 1.85414976 62.9100294 4.63537441 69.590532 4.63537441"></polygon>
                                    <path d="M46.4597756,9.29688944 C46.4597756,8.69657234 46.9225897,8.20754397 47.4919729,8.20754397 L61.0597344,8.20754397 L61.0597344,0 L58.0829058,0 L58.0829058,5.06898772 L47.4919729,5.06898772 C45.2814265,5.06898772 43.4819321,6.96624658 43.4819321,9.29688944 L43.4819321,12.9790483 L46.4597756,12.9790483 L46.4597756,9.29688944 Z" id="Fill-22"></path>
                                    <path d="M72.8189643,9.49046308 L72.8189643,12.9790483 L75.8620943,12.9790483 L75.8620943,9.49046308 C75.8620943,7.32513429 74.0225206,5.56244929 71.7627398,5.56244929 L61.9848819,5.56244929 L61.9848819,8.47838562 L71.7627398,8.47838562 C72.3458421,8.47838562 72.8189643,8.93272688 72.8189643,9.49046308" id="Fill-24"></path>
                                    <path d="M51.9811592,13.1354179 L65.507546,13.1354179 L65.4884466,14.675827 L51.9811592,14.675827 L51.9811592,13.1354179 Z M49.032817,17.6144228 L65.4884466,17.6144228 C67.1279782,17.6144228 68.4609144,16.2853442 68.4609144,14.652791 L68.4609144,10.1978237 L49.032817,10.1978237 L49.032817,17.6144228 Z" id="Fill-26"></path>
                                    <path d="M61.1403162,27.3560249 L72.2750046,27.3560249 L73.0290444,24.2319334 L61.1403162,24.2319334 L61.1403162,22.5937292 L70.5087204,22.5937292 L71.2627602,19.4685725 L46.8999714,19.4685725 L46.8999714,22.5937292 L58.1231284,22.5937292 L58.1231284,24.2319334 L45.3661743,24.2319334 L45.3661743,27.3560249 L58.1231284,27.3560249 L58.1231284,28.7300713 L42.5567846,28.7300713 L42.5567846,31.8541629 L58.1231284,31.8541629 L58.1231284,32.8756439 C58.1231284,33.4731943 57.6540395,33.9589037 57.0769368,33.9589037 L50.5487833,33.9589037 L51.244187,37.0829953 L57.0769368,37.0829953 C59.3174533,37.0829953 61.1403162,35.1955455 61.1403162,32.8756439 L61.1403162,31.8541629 L75.1080545,31.8541629 L75.8620943,28.7300713 L61.1403162,28.7300713 L61.1403162,27.3560249 Z" id="Fill-28"></path>
                                    <path d="M93.4398966,7.27177669 L93.4398966,1 L90.3822671,1 L90.3822671,7.29611735 L84.1884217,7.29611735 L84.1884217,10.2707488 L90.3822671,10.2707488 C92.0677375,10.2707488 93.4398966,8.92491317 93.4398966,7.27177669" id="Fill-30"></path>
                                    <path d="M90.6644541,12.3913686 L90.6644541,37.0829953 L93.8078598,37.0829953 L93.8335815,12.3660406 L98.2051981,12.3660406 L98.9907816,9.27074882 L93.8335815,9.27074882 C92.0866496,9.27074882 90.6644541,10.6711757 90.6644541,12.3913686" id="Fill-32"></path>
                                    <polygon id="Fill-34" points="86.9638642 31.520546 89.7393067 31.520546 89.7393067 14.8331981 86.9638642 14.8331981"></polygon>
                                    <polygon id="Fill-36" points="95.2901916 31.520546 98.0656341 31.520546 98.0656341 14.8331981 95.2901916 14.8331981"></polygon>
                                </g>
                                <path d="M11.0767909,55.8650313 L11.0767909,55.0111201 L7.49276953,55.0111201 L7.49276953,49.9718417 L10.6197681,49.9718417 L10.6197681,49.1299575 L7.49276953,49.1299575 L7.49276953,45.2452632 L6.60277765,45.2452632 L6.60277765,55.0111201 L3.99293657,55.0111201 L3.99293657,55.8650313 L11.0767909,55.8650313 Z M2.87443326,47.8190235 L3.46375221,47.2176777 C2.91051401,46.592278 2.22497972,45.9668783 1.40714933,45.3414785 L0.805803465,45.9307975 C1.67174152,46.592278 2.36930273,47.2176777 2.87443326,47.8190235 Z M1.81606453,55.8530043 C2.65794874,55.3117931 3.46375221,54.6863934 4.20942109,53.9888321 L3.98090965,53.0747864 C3.48780604,53.5438362 3.03078318,53.9527514 2.59781416,54.301532 L2.59781416,48.9254999 L0,48.9254999 L0,49.7553572 L1.76795686,49.7553572 L1.76795686,54.6022049 C1.76795686,54.7705818 1.67174152,54.9389586 1.49133776,55.0832816 L1.81606453,55.8530043 Z M25.0941631,56.2017849 C26.2607741,56.2017849 26.9102277,55.6726006 27.0425237,54.6142319 C27.1627929,53.6761323 27.2229275,51.1985873 27.2229275,47.1815969 L22.5564836,47.1815969 C22.7248604,46.6524125 22.8691834,46.0751205 23.0014795,45.4497208 L22.1836491,45.2332363 C21.8468954,47.0372739 21.2936572,48.4203694 20.5239345,49.3825228 L21.1613611,49.9237341 C21.5702763,49.4186035 21.9310839,48.7932038 22.2558106,48.0234811 L23.0856679,48.0234811 C22.6286451,50.3326493 21.7867608,52.0284446 20.5479884,53.0868133 L21.1132535,53.7362669 C22.4602682,52.5456021 23.3743139,50.6453491 23.8553906,48.0234811 L24.7934902,48.0234811 C24.5649788,49.8515726 24.2161982,51.3308834 23.7471484,52.4493867 C23.2420178,53.5558631 22.496349,54.5661242 21.4860879,55.4801699 L22.0152723,56.1657042 C23.1097218,55.1674701 23.9275521,54.0369398 24.4807903,52.7861404 C24.9498401,51.6195294 25.3106476,50.0319763 25.5752398,48.0234811 L26.3930702,48.0234811 C26.3690164,51.5112872 26.3209087,53.6039708 26.2367203,54.2774782 C26.128478,55.0472009 25.7075359,55.4320622 24.973894,55.4320622 C24.6972749,55.4320622 24.3725481,55.4080084 23.9876867,55.3839546 L24.1921443,56.1657042 C24.6251133,56.189758 24.9257863,56.2017849 25.0941631,56.2017849 Z M19.6579965,56.2739465 L19.6579965,52.3050637 C19.9827232,52.1487138 20.30745,51.9923639 20.6201499,51.823987 L20.6201499,51.0061566 C20.30745,51.1745335 19.9947502,51.3308834 19.6579965,51.4872333 L19.6579965,48.6007732 L20.6682575,48.6007732 L20.6682575,47.7588889 L19.6579965,47.7588889 L19.6579965,45.2572901 L18.8161123,45.2572901 L18.8161123,47.7588889 L17.974228,47.7588889 C18.0463895,47.2417315 18.0944972,46.7125471 18.118551,46.1833628 L17.3608552,46.1232282 C17.3007207,47.5303775 17.0481554,48.8653653 16.5911325,50.1402186 L17.3488283,50.3567031 C17.541259,49.791438 17.6976089,49.202119 17.829905,48.6007732 L18.8161123,48.6007732 L18.8161123,51.8480409 C18.1426049,52.112633 17.4450437,52.3291175 16.7234286,52.4974944 L16.9278862,53.3393786 C17.5773398,53.134921 18.2027395,52.9064096 18.8161123,52.6658712 L18.8161123,56.2739465 L19.6579965,56.2739465 Z M43.3089295,50.7054837 L44.0185176,50.2003532 C43.5855486,49.4546843 42.9721758,48.6007732 42.1543454,47.6145659 L41.4447573,48.035508 C41.7334033,48.3963156 41.9979955,48.7450962 42.2625877,49.0938768 C40.8915191,49.2622536 39.5204505,49.3825228 38.137355,49.4546843 C38.5703241,48.9856345 39.0634277,48.2519926 39.6286928,47.2537584 L44.0185176,47.2537584 L44.0185176,46.4720088 L40.8554384,46.4720088 C40.6870615,45.9668783 40.5186847,45.5098554 40.326254,45.1009402 L39.448289,45.2452632 C39.6407197,45.6180976 39.8211235,46.0270128 39.9895003,46.4720088 L36.6339904,46.4720088 L36.6339904,47.2537584 L38.7387009,47.2537584 C38.0170859,48.4444232 37.4397938,49.1780652 36.982771,49.4667112 C36.9346633,49.490765 36.8745287,49.5148189 36.8023672,49.5388727 L36.9947979,50.2725147 C39.0634277,50.1522455 40.9877345,49.9958956 42.7556913,49.791438 C42.948122,50.1041378 43.1405527,50.4048108 43.3089295,50.7054837 Z M35.6477831,47.5784852 L36.2611559,46.9651124 C35.7560254,46.4479549 35.1426526,45.9307975 34.4090106,45.4136401 L33.7836109,46.0149859 C34.5773875,46.5682241 35.1907603,47.0853816 35.6477831,47.5784852 Z M35.4072448,50.657376 L36.0206176,50.0319763 C35.515487,49.4546843 34.8780604,48.8653653 34.1203646,48.2880733 L33.5069918,48.8894192 C34.3127953,49.5148189 34.9502219,50.1041378 35.4072448,50.657376 Z M36.4175058,56.2619195 C37.0910132,55.7086813 37.5841168,55.0472009 37.8727629,54.2774782 C38.137355,53.5438362 38.293705,52.3892521 38.3418126,50.813726 L37.4999284,50.813726 C37.4518207,52.2329022 37.3195247,53.2672171 37.0910132,53.9046437 C36.8504749,54.5540973 36.4415597,55.1073355 35.8642676,55.5763852 L36.4175058,56.2619195 Z M40.326254,56.0334081 L40.326254,50.8257529 L39.448289,50.8257529 L39.448289,56.0334081 L40.326254,56.0334081 Z M43.2247411,56.1536773 C43.7058178,56.1296234 44.0064907,55.9973274 44.1508137,55.7808428 C44.2951367,55.5403045 44.3672982,54.890851 44.3672982,53.8324822 L43.6096024,53.5438362 C43.6096024,54.1812628 43.5855486,54.6503126 43.5374409,54.9389586 C43.5133871,55.2035508 43.3931179,55.3358469 43.1766334,55.3599007 L42.6474491,55.3599007 C42.4910991,55.3358469 42.4189376,55.2396316 42.4189376,55.0592278 L42.4189376,50.8257529 L41.5890803,50.8257529 L41.5890803,55.2155777 C41.5890803,55.8409774 41.925834,56.1536773 42.6233952,56.1536773 L43.2247411,56.1536773 Z M34.5413067,56.1175965 C35.1185988,54.7705818 35.6357562,53.3273517 36.1168329,51.7879063 L35.3471102,51.4872333 C34.8900873,52.9545173 34.360903,54.3736935 33.7355033,55.7688159 L34.5413067,56.1175965 Z M53.3453921,48.2038849 L54.1391686,47.903212 C53.9707918,47.5784852 53.7422803,47.2297046 53.4776882,46.8688971 L55.4982103,46.8688971 L55.4982103,46.1112013 L52.2749964,46.1112013 C52.3712118,45.8706629 52.479454,45.6301246 52.5756694,45.3655324 L51.7458121,45.1851286 C51.4090584,46.0991743 50.879874,46.9410586 50.158259,47.6867274 L50.9159548,48.1678041 C51.2767623,47.7709159 51.5894621,47.3379468 51.8781081,46.8688971 L52.5636424,46.8688971 C52.8643154,47.3018661 53.1289076,47.746862 53.3453921,48.2038849 Z M51.2767623,50.7175106 L51.2767623,49.2863075 L59.7918198,49.2863075 L59.7918198,50.7175106 L60.633704,50.7175106 L60.633704,48.5406386 L56.0634754,48.5406386 C55.9432062,48.2038849 55.8109101,47.903212 55.678614,47.6265929 L56.3280676,48.0234811 C56.5926598,47.6626736 56.845225,47.2778122 57.0617095,46.8688971 L57.8194053,46.8688971 C58.1080514,47.2537584 58.3606166,47.6626736 58.5771011,48.0956426 L59.3468238,47.8069966 C59.2025008,47.5183506 58.9980432,47.2056507 58.745478,46.8688971 L60.8862693,46.8688971 L60.8862693,46.1112013 L57.4104901,46.1112013 C57.5067055,45.8706629 57.5908939,45.6301246 57.6750823,45.3775593 L56.845225,45.1971555 C56.5806328,46.0630936 56.1717177,46.8448432 55.5944256,47.5664583 L55.6665871,47.6145659 L54.8247029,47.7588889 C54.956999,47.9994273 55.0772682,48.2519926 55.1975373,48.5406386 L50.4348781,48.5406386 L50.4348781,50.7175106 L51.2767623,50.7175106 Z M59.5272276,56.2739465 L59.5272276,53.1830287 L52.9725576,53.1830287 L52.9725576,52.3531714 L58.9739894,52.3531714 L58.9739894,49.9958956 L52.1066196,49.9958956 L52.1066196,56.2619195 L52.9725576,56.2619195 L52.9725576,55.7688159 L58.6733165,55.7688159 L58.6733165,56.2739465 L59.5272276,56.2739465 Z M58.1321052,51.6556102 L52.9725576,51.6556102 L52.9725576,50.6934568 L58.1321052,50.6934568 L58.1321052,51.6556102 Z M58.6733165,54.9990932 L52.9725576,54.9990932 L52.9725576,53.8805899 L58.6733165,53.8805899 L58.6733165,54.9990932 Z M77.741994,55.9131389 L77.741994,55.0832816 L74.5909416,55.0832816 L74.5909416,53.5197824 L77.296998,53.5197824 L77.296998,52.701952 L74.5909416,52.701952 L74.5909416,51.2827757 L77.0925404,51.2827757 L77.0925404,45.7263399 L71.2113778,45.7263399 L71.2113778,51.2827757 L73.7250036,51.2827757 L73.7250036,52.701952 L71.0069203,52.701952 L71.0069203,53.5197824 L73.7250036,53.5197824 L73.7250036,55.0832816 L70.5017897,55.0832816 L70.5017897,55.9131389 L77.741994,55.9131389 Z M66.9177683,54.7465279 C68.1926216,54.4338281 69.3832864,54.0489667 70.4897628,53.5919439 L70.4897628,52.7500597 C70.0567938,52.9424903 69.6238248,53.1108672 69.1668019,53.2672171 L69.1668019,50.5371069 L70.4897628,50.5371069 L70.4897628,49.7072496 L69.1668019,49.7072496 L69.1668019,46.8568701 L70.6340858,46.8568701 L70.6340858,46.0390398 L66.7974992,46.0390398 L66.7974992,46.8568701 L68.27681,46.8568701 L68.27681,49.7072496 L66.965876,49.7072496 L66.965876,50.5371069 L68.27681,50.5371069 L68.27681,53.5558631 C67.7596526,53.7001861 67.2304682,53.8204553 66.7012838,53.9166706 L66.9177683,54.7465279 Z M73.7250036,48.1317234 L72.0412351,48.1317234 L72.0412351,46.4960626 L73.7250036,46.4960626 L73.7250036,48.1317234 Z M76.2626831,48.1317234 L74.5909416,48.1317234 L74.5909416,46.4960626 L76.2626831,46.4960626 L76.2626831,48.1317234 Z M76.2626831,50.513053 L74.5909416,50.513053 L74.5909416,48.8894192 L76.2626831,48.8894192 L76.2626831,50.513053 Z M73.7250036,50.513053 L72.0412351,50.513053 L72.0412351,48.8894192 L73.7250036,48.8894192 L73.7250036,50.513053 Z M83.8095738,56.2739465 C85.7218537,56.0574619 87.1049492,55.6004391 87.9468334,54.878824 C89.7388441,55.6966544 91.8435546,56.1657042 94.260965,56.2619195 L94.4774495,55.4320622 C92.1682814,55.3599007 90.1718131,54.9630125 88.4880447,54.2534243 C88.8247984,53.7723476 89.0533098,53.134921 89.1976328,52.3411445 L93.0703002,52.3411445 L93.0703002,47.5784852 L89.3419558,47.5784852 L89.3419558,46.5321434 L94.0685343,46.5321434 L94.0685343,45.7263399 L83.7614661,45.7263399 L83.7614661,46.5321434 L88.4760178,46.5321434 L88.4760178,47.5784852 L84.795781,47.5784852 L84.795781,52.3411445 L88.3196678,52.3411445 C88.1993987,52.9665442 87.9829141,53.4837016 87.6942681,53.8926168 C87.0207608,53.5438362 86.395361,53.134921 85.8300959,52.6658712 L85.1686155,53.1228941 C85.7579344,53.6280246 86.407388,54.0730206 87.1049492,54.4578819 C86.3352265,55.0111201 85.1084809,55.3478738 83.4367394,55.4801699 L83.8095738,56.2739465 Z M88.4760178,49.5869804 L85.6496922,49.5869804 L85.6496922,48.3241541 L88.4760178,48.3241541 L88.4760178,49.5869804 Z M92.2163891,49.5869804 L89.3419558,49.5869804 L89.3419558,48.3241541 L92.2163891,48.3241541 L92.2163891,49.5869804 Z M92.2163891,51.5834487 L89.3058751,51.5834487 L89.3419558,50.7295375 L89.3419558,50.3085954 L92.2163891,50.3085954 L92.2163891,51.5834487 Z M88.439937,51.5834487 L85.6496922,51.5834487 L85.6496922,50.3085954 L88.4760178,50.3085954 L88.4760178,50.7295375 C88.4760178,51.0181836 88.4639908,51.3068296 88.439937,51.5834487 Z M103.407436,56.2258388 L103.407436,53.7964015 C103.960674,53.6761323 104.501885,53.5558631 105.03107,53.4115401 L105.03107,52.6177636 C104.525939,52.7380327 103.984728,52.8583019 103.407436,52.9785711 L103.407436,51.246695 L104.682289,51.246695 L104.682289,50.4288646 L103.407436,50.4288646 L103.407436,48.5646924 L102.565551,48.5646924 L102.565551,50.4288646 L101.230564,50.4288646 C101.603398,49.6110342 101.940152,48.6609077 102.252852,47.5784852 L104.75445,47.5784852 L104.75445,46.736601 L102.481363,46.736601 C102.589605,46.291605 102.697848,45.8345822 102.80609,45.3535055 L101.988259,45.2332363 C101.880017,45.7503937 101.771775,46.2555243 101.651506,46.736601 L100.160168,46.736601 L100.160168,47.5784852 L101.435021,47.5784852 C101.098268,48.7450962 100.73746,49.7072496 100.352599,50.4649454 L100.545029,51.246695 L102.565551,51.246695 L102.565551,53.134921 C101.819883,53.2551902 101.026106,53.3754594 100.184222,53.4716747 L100.292464,54.3135589 C101.086241,54.2053167 101.843936,54.0850475 102.565551,53.9647783 L102.565551,56.2258388 L103.407436,56.2258388 Z M110.479263,50.9219682 L111.080609,50.3085954 C110.431155,49.7072496 109.649406,49.1179306 108.723333,48.5165847 C109.228464,47.9152389 109.625352,47.2657853 109.913998,46.5441703 L109.913998,45.8706629 L105.235527,45.8706629 L105.235527,46.7005202 L108.927791,46.7005202 C108.158068,48.191858 106.762946,49.358469 104.75445,50.1883263 L105.295662,50.8979144 C106.438219,50.4048108 107.400372,49.8034649 108.170095,49.0818499 C109.132248,49.7192765 109.901971,50.3326493 110.479263,50.9219682 Z M111.020474,55.8650313 L111.020474,55.035174 L108.218203,55.035174 L108.218203,52.2810099 L110.479263,52.2810099 L110.479263,51.4391257 L105.199446,51.4391257 L105.199446,52.2810099 L107.364292,52.2810099 L107.364292,55.035174 L104.525939,55.035174 L104.525939,55.8650313 L111.020474,55.8650313 Z M119.553572,56.2258388 L119.553572,50.2364339 C119.890326,50.7415645 120.299241,51.4150718 120.768291,52.256956 L121.273421,51.4992602 C120.684103,50.6694029 120.10681,49.9237341 119.553572,49.2742805 L119.553572,48.4323963 L120.996802,48.4323963 L120.996802,47.602539 L119.553572,47.602539 L119.553572,45.2572901 L118.699661,45.2572901 L118.699661,47.602539 L116.943731,47.602539 L116.943731,48.4323963 L118.687634,48.4323963 C118.302773,49.9477879 117.665346,51.3068296 116.751301,52.4974944 L117.124135,53.4355939 C117.773589,52.4734406 118.290746,51.4150718 118.699661,50.2484608 L118.699661,56.2258388 L119.553572,56.2258388 Z M127.238772,50.9099413 L127.816065,50.224407 C126.805803,48.9495538 126.096215,47.3259199 125.699327,45.3294516 L124.977712,45.7263399 C125.410681,47.8430774 126.15635,49.5629265 127.238772,50.9099413 Z M121.658283,50.8979144 C122.500167,49.7192765 123.173674,48.0114542 123.690832,45.7744476 L122.897055,45.4617477 C122.476113,47.5063237 121.838687,49.1179306 120.996802,50.3206223 L121.658283,50.8979144 Z M126.589319,56.346108 L127.395122,55.9853004 C126.914046,54.5420703 126.336754,53.1950556 125.6873,51.9322293 L124.893524,52.1968215 C125.242304,52.8703288 125.579058,53.6280246 125.903785,54.445855 C124.845416,54.7104472 123.702859,54.9028779 122.48814,55.023147 C123.233809,53.72424 123.991505,51.9442562 124.749201,49.6831957 L123.895289,49.3945497 C122.848948,52.7139789 121.98301,54.6262588 121.285448,55.1313893 L121.453825,55.9612466 C123.197728,55.7928698 124.773254,55.5282776 126.192431,55.1915239 C126.324727,55.5523314 126.457023,55.9371928 126.589319,56.346108 Z" id="让物流管理更轻松" fill="#999B9C" fill-rule="nonzero"></path>
                            </g>
                        </g>
                    </g>
                </g>
            </g>
        </g>
    </g>
</svg>