<?xml version="1.0" encoding="UTF-8"?>
<svg width="24px" height="24px" viewBox="0 0 24 24" version="1.1" xmlns="http://www.w3.org/2000/svg" xmlns:xlink="http://www.w3.org/1999/xlink">
    <title>编组</title>
    <g id="审批流" stroke="none" stroke-width="1" fill="none" fill-rule="evenodd">
        <g id="创建流程-发起申请" transform="translate(-108.000000, -591.000000)" fill-rule="nonzero">
            <g id="编组" transform="translate(108.000000, 591.000000)">
                <path d="M3.40978125,23.2550313 C3.40978125,23.2550313 0.606183334,23.1731666 0.857806604,20.2355884 C1.10942987,17.2980102 6.31631596,16.2378624 11.9263712,16.2378624 C17.5364263,16.2378624 22.8905692,17.5436043 23.1436222,19.7457646 C23.3966751,21.947925 22.7933511,23.181353 20.3843443,23.181353 C17.9753374,23.181353 3.40978125,23.2550313 3.40978125,23.2550313 L3.40978125,23.2550313 Z" id="路径" fill="#FFBD27"></path>
                <path d="M15.9694996,10.8975554 C17.449216,9.77737351 18.402811,8.04866401 18.402811,6.10983513 C18.402811,2.7411029 15.5305886,0 12.0007144,0 C8.47084022,0 5.59861777,2.73973849 5.59861777,6.10847072 C5.59861777,8.0472996 6.5507831,9.7760091 8.03192917,10.896191 C3.42121867,12.0204662 0,16.0181922 0,20.7649801 L0,21.3366686 C0,22.8047754 1.25239764,24 2.79073082,24 L21.2092683,24 C22.7476015,24 24,22.8047754 24,21.3366686 L24,20.7649801 C24.0014288,16.0195566 20.5816398,12.0218306 15.9694996,10.8975554 L15.9694996,10.8975554 Z M7.31423098,6.10847072 C7.31423098,3.64297897 9.41585716,1.63592951 12.0007144,1.63592951 C14.5855716,1.63592951 16.6871978,3.64161455 16.6871978,6.10847072 C16.6871978,8.57532689 14.5855716,10.5810119 12.0007144,10.5810119 C9.41585716,10.5810119 7.31423098,8.57532689 7.31423098,6.10847072 Z M22.2858156,21.338033 C22.2858156,21.9042638 21.8040142,22.3640705 21.210698,22.3640705 L2.79073082,22.3640705 C2.19741458,22.3640705 1.71561321,21.9042638 1.71561321,21.338033 L1.71561321,20.7663445 C1.71561321,16.0536669 5.73300747,12.2183059 10.6725438,12.2183059 L13.3274553,12.2183059 C18.265562,12.2183059 22.2843859,16.0523024 22.2843859,20.7663445 L22.2843859,21.338033 L22.2858156,21.338033 Z" id="形状" fill="#525866"></path>
                <path d="M17.0574843,18.7674815 L6.94394446,18.7674815 C6.47072115,18.7674815 6.08613786,19.1345082 6.08613786,19.5861285 C6.08613786,20.0377487 6.47072115,20.4047754 6.94394446,20.4047754 L17.0574843,20.4047754 C17.5307076,20.4047754 17.9152909,20.0377487 17.9152909,19.5861285 C17.9152909,19.1345082 17.5307076,18.7674815 17.0574843,18.7674815 Z" id="路径" fill="#525866"></path>
            </g>
        </g>
    </g>
</svg>
