<?xml version="1.0" encoding="UTF-8"?>
<svg width="32px" height="32px" viewBox="0 0 32 32" version="1.1" xmlns="http://www.w3.org/2000/svg" xmlns:xlink="http://www.w3.org/1999/xlink">
    <title>收入</title>
    <defs>
        <path d="M0,15.9841954 C0,24.8120228 7.15636804,31.9683908 15.9841954,31.9683908 C24.8120228,31.9683908 31.9683908,24.8120228 31.9683908,15.9841954 C31.9683908,7.15636804 24.8120228,2.61349052e-15 15.9841954,2.61349052e-15 C7.15636804,2.61349052e-15 0,7.15636804 0,15.9841954 Z" id="path-1"></path>
        <filter x="-7.8%" y="-7.8%" width="115.6%" height="115.6%" filterUnits="objectBoundingBox" id="filter-2">
            <feGaussianBlur stdDeviation="2" in="SourceAlpha" result="shadowBlurInner1"></feGaussianBlur>
            <feOffset dx="0" dy="1" in="shadowBlurInner1" result="shadowOffsetInner1"></feOffset>
            <feComposite in="shadowOffsetInner1" in2="SourceAlpha" operator="arithmetic" k2="-1" k3="1" result="shadowInnerInner1"></feComposite>
            <feColorMatrix values="0 0 0 0 0.818925067   0 0 0 0 0.886828167   0 0 0 0 1  0 0 0 1 0" type="matrix" in="shadowInnerInner1"></feColorMatrix>
        </filter>
    </defs>
    <g id="毛利" stroke="none" stroke-width="1" fill="none" fill-rule="evenodd">
        <g transform="translate(-277.000000, -560.000000)" fill-rule="nonzero" id="编组-49">
            <g transform="translate(102.000000, 125.000000)">
                <g id="编组-77" transform="translate(0.000000, 433.000000)">
                    <g id="编组-94" transform="translate(163.000000, 2.000000)">
                        <g id="收入" transform="translate(12.000000, 0.000000)">
                            <g id="路径" opacity="0.758212135">
                                <use fill="#FFFFFF" xlink:href="#path-1"></use>
                                <use fill="black" fill-opacity="1" filter="url(#filter-2)" xlink:href="#path-1"></use>
                            </g>
                            <path d="M15.9841954,8.41954023 C12.7011494,8.41954023 10.0359195,11.0811782 10.0359195,14.3642241 C10.0359195,16.3936782 11.0524425,18.1824713 12.6005747,19.2528736 C13.0387931,19.5581897 13.4626437,19.8814655 13.8362069,20.2622126 L13.8829023,20.308908 C13.8829023,20.316092 14.9317529,20.3196839 15.9806034,20.3196839 C17.029454,20.3196839 18.0783046,20.316092 18.0783046,20.308908 L18.125,20.2622126 C18.4985632,19.8814655 18.9224138,19.5545977 19.3606322,19.2528736 C20.9123563,18.1788793 21.9253018,16.3900862 21.9253018,14.3642241 C21.9324713,11.0811782 19.2672414,8.41954023 15.9841954,8.41954023 L15.9841954,8.41954023 Z M16.6020115,23.1070402 L15.3663793,23.1070402 C14.8886494,23.1070402 14.450431,22.8376437 14.2349138,22.4066092 L17.733477,22.4066092 C17.5179598,22.8376437 17.0797414,23.1070402 16.6020115,23.1070402 Z M18.0998563,21.0093391 L13.8685345,21.0093391 C13.6853448,21.0093391 13.5344828,21.1602011 13.5344828,21.3433908 L13.5344828,21.3757184 C13.5344828,21.558908 13.6853448,21.7097701 13.8685345,21.7097701 L18.0962644,21.7097701 C18.279454,21.7097701 18.4303161,21.558908 18.4303161,21.3757184 L18.4303161,21.3433908 C18.433908,21.1602011 18.283046,21.0093391 18.0998563,21.0093391 Z" id="形状" fill="#148AF4"></path>
                            <path d="M17.7586207,11.8857759 C17.6867816,11.8318966 17.5969828,11.8067529 17.5071839,11.8067529 C17.3635057,11.8067529 17.2306034,11.875 17.1408046,11.9935345 L15.9841954,13.670977 L14.8204023,11.9863506 C14.7377874,11.875 14.6012931,11.8067529 14.4612069,11.8067529 C14.3678161,11.8067529 14.2816092,11.8354885 14.220546,11.8821839 C14.0193966,12.0150862 13.9619253,12.2808908 14.0948276,12.5 L15.3520115,14.3103448 L14.6192529,14.3103448 C14.4252874,14.3103448 14.2636494,14.4719828 14.2636494,14.6659483 C14.2636494,14.8670977 14.4252874,15.0359195 14.6192529,15.0359195 L15.5423851,15.0359195 L15.5423851,15.3591954 L14.6192529,15.3591954 C14.4252874,15.3591954 14.2636494,15.5244253 14.2636494,15.7219828 C14.2636494,15.9195402 14.4252874,16.0847701 14.6192529,16.0847701 L15.5423851,16.0847701 L15.5423851,16.9216954 C15.5423851,17.1659483 15.7363506,17.3563218 15.9841954,17.3563218 C16.2320402,17.3563218 16.4260057,17.1659483 16.4260057,16.9216954 L16.4260057,16.0847701 L17.3491379,16.0847701 C17.5466954,16.0847701 17.7047414,15.9231322 17.7047414,15.7219828 C17.7047414,15.5208333 17.5466954,15.3591954 17.3491379,15.3591954 L16.4260057,15.3591954 L16.4260057,15.0359195 L17.3491379,15.0359195 C17.5466954,15.0359195 17.7047414,14.8706897 17.7047414,14.6659483 C17.7047414,14.4683908 17.5466954,14.3103448 17.3491379,14.3103448 L16.6235632,14.3103448 L17.8771552,12.5 C18.0064655,12.2916667 17.9561782,12.0258621 17.7586207,11.8857759 L17.7586207,11.8857759 Z" id="路径" fill="#B8DDFF"></path>
                            <path d="M17.7478448,21.7097701 L14.216954,21.7097701 C14.0337644,21.7097701 13.8829023,21.8606322 13.8829023,22.0438218 L13.8829023,22.0761494 C13.8829023,22.2593391 14.0337644,22.4102011 14.216954,22.4102011 L17.7478448,22.4102011 C17.9310345,22.4102011 18.0818966,22.2593391 18.0818966,22.0761494 L18.0818966,22.0438218 C18.0818966,21.8570402 17.9346264,21.7097701 17.7478448,21.7097701 Z M18.0998563,20.308908 L13.8685345,20.308908 C13.6853448,20.308908 13.5344828,20.4597701 13.5344828,20.6429598 L13.5344828,20.6752874 C13.5344828,20.858477 13.6853448,21.0093391 13.8685345,21.0093391 L18.0962644,21.0093391 C18.279454,21.0093391 18.4303161,20.858477 18.4303161,20.6752874 L18.4303161,20.6429598 C18.433908,20.4597701 18.283046,20.308908 18.0998563,20.308908 Z" id="形状" fill="#B8DDFF"></path>
                        </g>
                    </g>
                </g>
            </g>
        </g>
    </g>
</svg>