<?xml version="1.0" encoding="UTF-8"?>
<svg width="30px" height="30px" viewBox="0 0 30 30" version="1.1" xmlns="http://www.w3.org/2000/svg" xmlns:xlink="http://www.w3.org/1999/xlink">
    <title>手机</title>
    <g id="登陆页" stroke="none" stroke-width="1" fill="none" fill-rule="evenodd">
        <g id="画板" transform="translate(-1272.000000, -30.000000)" fill-rule="nonzero">
            <g id="编组-7" transform="translate(48.000000, 21.000000)">
                <g id="编组-6" transform="translate(0.000000, 0.000000)">
                    <g id="手机" transform="translate(1224.000000, 9.000000)">
                        <rect id="矩形" fill="#000000" opacity="0" x="0" y="0" width="30" height="30"></rect>
                        <path d="M21.875,2.49999999 C23.7734375,2.49999999 25.3125,4.03906248 25.3125,5.93750001 L25.3125,24.0625 C25.3125,25.9609375 23.7734375,27.5 21.875,27.5 L8.12499999,27.5 C6.22656249,27.5 4.6875,25.9609375 4.6875,24.0625 L4.6875,5.93750001 C4.6875,4.03906251 6.22656249,2.49999999 8.12499999,2.49999999 L21.875,2.49999999 Z M17.5,22.8125 L12.5,22.8125 C11.9822331,22.8125 11.5625,23.2322331 11.5625,23.75 C11.5625,24.267767 11.9822331,24.6875 12.5,24.6875 L17.5,24.6875 C18.0177669,24.6875 18.4375,24.267767 18.4375,23.75 C18.4375,23.2322331 18.0177669,22.8125 17.5,22.8125 Z M21.875,4.37499999 L8.12499999,4.37499999 C7.71059922,4.37499999 7.31317123,4.53962006 7.02014564,4.83264565 C6.72712005,5.12567125 6.5625,5.52309924 6.5625,5.93750001 L6.5625,20 L23.4375,20 L23.4375,5.93750001 C23.4375,5.52309924 23.2728799,5.12567125 22.9798544,4.83264565 C22.6868288,4.53962006 22.2894008,4.37499999 21.875,4.37499999 L21.875,4.37499999 Z" id="形状" fill="#4885FF"></path>
                    </g>
                </g>
            </g>
        </g>
    </g>
</svg>