<?xml version="1.0" encoding="UTF-8"?>
<svg width="20px" height="20px" viewBox="0 0 20 20" version="1.1" xmlns="http://www.w3.org/2000/svg" xmlns:xlink="http://www.w3.org/1999/xlink">
    <title>UpCircleOutline</title>
    <g id="组件规范" stroke="none" stroke-width="1" fill="none" fill-rule="evenodd">
        <g id="画板备份-2" transform="translate(-1062.000000, -6345.000000)" fill="#B0B9CF" fill-rule="nonzero">
            <g id="编组-88" transform="translate(822.000000, 6128.000000)">
                <g id="矩形-2备份" transform="translate(0.000000, 55.000000)">
                    <g id="编组-44" transform="translate(240.396815, 162.396833)">
                        <g id="UpCircleOutline" transform="translate(9.603179, 9.603179) rotate(-270.000000) translate(-9.603179, -9.603179) ">
                            <path d="M9.60317896,0 C14.9067566,0 19.2063579,4.29960136 19.2063579,9.60317896 C19.2063579,14.9067566 14.9067566,19.2063579 9.60317896,19.2063579 C4.29960136,19.2063579 0,14.9067566 0,9.60317896 C0,4.29960136 4.29960136,0 9.60317896,0 Z M9.60317896,1.30952533 C5.02288903,1.30952533 1.30952533,5.02290949 1.30952533,9.60317896 C1.30952533,14.1834689 5.02290949,17.8968326 9.60317896,17.8968326 C14.1834689,17.8968326 17.8968326,14.1834484 17.8968326,9.60317896 C17.8968326,5.02288903 14.1834484,1.30952533 9.60317896,1.30952533 Z M9.87992463,6.96405572 C10.0196074,6.96100017 10.1601631,7.00203196 10.278894,7.08846063 L10.3365131,7.1351671 L13.4750157,10.0030276 L13.4750157,10.0030276 C13.5112685,10.0361936 13.5318689,10.0830993 13.5317621,10.1322341 L13.5317621,11.4312833 L13.5317621,11.4312881 C13.5317621,11.5277189 13.4535288,11.6058644 13.357098,11.6058313 C13.3134921,11.6058162 13.27147,11.589485 13.2392974,11.56005 L9.87119828,8.48178567 L6.40357519,11.650837 L6.40357519,11.650837 C6.33242684,11.7159278 6.22198332,11.7110172 6.15689336,11.6398689 C6.12745932,11.6076957 6.11111501,11.565673 6.11111501,11.522067 L6.11111501,10.223022 L6.11111501,10.2230226 C6.11100813,10.1738878 6.13160847,10.126982 6.16786104,10.0938159 L9.40588751,7.13516844 C9.52112574,7.02996997 9.66429982,6.97366038 9.80922131,6.96493015 L9.87993568,6.96405714 L9.87992463,6.96405572 Z" id="形状"></path>
                        </g>
                    </g>
                </g>
            </g>
        </g>
    </g>
</svg>