<?xml version="1.0" encoding="UTF-8"?>
<svg width="16px" height="17px" viewBox="0 0 16 17" version="1.1" xmlns="http://www.w3.org/2000/svg" xmlns:xlink="http://www.w3.org/1999/xlink">
    <title>icon/*20/选中</title>
    <g id="组件规范" stroke="none" stroke-width="1" fill="none" fill-rule="evenodd">
        <g id="开单页面交互" transform="translate(-372.000000, -1631.000000)">
            <g id="输入框/24宽/开单页/激活状态" transform="translate(218.000000, 1627.000000)">
                <g id="编组" transform="translate(152.000000, 2.000000)">
                    <rect id="矩形" x="0" y="0" width="20" height="20"></rect>
                    <path d="M8.14632856,12.762346 C5.17992315,13.052537 3,14.0222242 3,15.17375 C3,16.5544619 6.13400675,17.67375 10,17.67375 C13.8659932,17.67375 17,16.5544619 17,15.17375 C17,13.9941848 14.7126231,13.0054215 11.6355987,12.7423636" id="路径" stroke="#9DA1B0"></path>
                    <path d="M10,2.5 C11.2426407,2.5 12.3676407,3.00367966 13.1819805,3.81801948 C13.9963203,4.63235931 14.5,5.75735931 14.5,7 C14.5,8.70739132 12.9582137,11.2704071 9.99993606,14.7118707 C7.04159029,11.2700813 5.5,8.70728278 5.5,7 C5.5,5.75735931 6.00367966,4.63235931 6.81801948,3.81801948 C7.63235931,3.00367966 8.75735931,2.5 10,2.5 Z" id="椭圆形" stroke="#9DA1B0"></path>
                    <circle id="椭圆形" stroke="#9DA1B0" cx="10" cy="7.17375" r="2"></circle>
                </g>
            </g>
        </g>
    </g>
</svg>