<?xml version="1.0" encoding="UTF-8"?>
<svg width="12px" height="12px" viewBox="0 0 12 12" version="1.1" xmlns="http://www.w3.org/2000/svg" xmlns:xlink="http://www.w3.org/1999/xlink">
    <title>形状备份</title>
    <g id="组件规范" stroke="none" stroke-width="1" fill="none" fill-rule="evenodd">
        <g id="画板备份-2" transform="translate(-743.000000, -6204.000000)" fill="#FF8243" fill-rule="nonzero">
            <g id="编组-88备份" transform="translate(265.000000, 6128.000000)">
                <g id="矩形" transform="translate(0.000000, 55.000000)">
                    <path d="M484,21 L483.895206,21 L483.895206,21 C480.639429,21.0962741 478.038895,23.7430462 478,27 L478,27.0000127 C478.032945,30.2999814 480.700038,32.9670783 484,33.0000197 L484.104807,33.0000197 L484.104807,33.0000197 C487.327045,32.9138215 489.917747,30.3199502 490.000013,27.0976183 L490.000013,26.8952177 L490.000013,26.8952258 C489.90415,23.6392728 487.257143,21.0385041 484.000018,21 L484,21 Z M484.504807,30.6000112 L484.504807,30.6000112 C484.348827,30.7472586 484.140831,30.8266603 483.926407,30.8208114 L483.926407,30.8208114 C483.711091,30.8228269 483.503621,30.7400691 483.348806,30.5904111 L483.348806,30.5904111 C483.040363,30.2748658 483.040363,29.770755 483.348806,29.4552097 L483.348806,29.4552097 C483.505387,29.310047 483.713015,29.2326903 483.926407,29.2400099 L483.926407,29.2400099 C484.14393,29.2341761 484.355157,29.313386 484.515208,29.4608101 L484.515208,29.4608101 C484.66639,29.6104435 484.749905,29.8153285 484.746409,30.0280112 L484.746409,30.0280133 C484.74958,30.2441109 484.661931,30.451622 484.504806,30.6000132 L484.504807,30.6000112 Z M486.017606,26.5344088 C485.922406,26.6392089 485.617606,26.9232092 485.113605,27.3648098 L485.113605,27.3648098 C484.938505,27.5085052 484.795435,27.687275 484.693605,27.88961 L484.693605,27.8896099 C484.586217,28.1012039 484.531339,28.335537 484.533605,28.5728103 L484.533605,28.7192105 L483.328002,28.7192105 L483.328002,28.5760107 C483.328002,28.1760049 483.391202,27.8296098 483.538402,27.5464095 C483.685602,27.2632092 484.084003,26.8216087 484.767208,26.2120056 L484.892809,26.0648051 L484.892809,26.0648051 C485.072421,25.8578435 485.173023,25.5940108 485.176809,25.3200038 L485.176809,25.3200031 C485.189886,25.0179836 485.083223,24.7230106 484.880008,24.4992022 C484.680808,24.300002 484.400008,24.2056015 484.040007,24.2056015 C483.577607,24.2056015 483.252006,24.3424016 483.052006,24.6360023 C482.873606,24.8760026 482.789606,25.2248034 482.789606,25.6656035 L481.589604,25.6656035 C481.589604,24.888803 481.810405,24.2792035 482.272005,23.8376053 C482.733606,23.3960048 483.333607,23.1760049 484.112004,23.1760049 C484.795204,23.1760049 485.352001,23.3544055 485.772002,23.736006 C486.192002,24.1176064 486.402402,24.6080074 486.402402,25.2488046 C486.405602,25.7704056 486.269602,26.2000061 486.017601,26.5376108 L486.017606,26.5344088 Z" id="形状备份"></path>
                </g>
            </g>
        </g>
    </g>
</svg>