<?xml version="1.0" encoding="UTF-8"?>
<svg width="87px" height="60px" viewBox="0 0 87 60" version="1.1" xmlns="http://www.w3.org/2000/svg" xmlns:xlink="http://www.w3.org/1999/xlink">
    <title>回单未回</title>
    <defs>
        <polygon id="path-1" points="0 0 86.8085106 0 86.8085106 60 0 60"></polygon>
        <path d="M12.6976891,47.8807233 L12.6976891,47.3251049 L22.7940692,47.3251049 L22.7940692,47.8807233 L24.2545519,47.8807233 L24.2545519,34.4188832 L11.2372065,34.4188832 L11.2372065,47.8807233 L12.6976891,47.8807233 Z M22.7940692,45.9916207 L12.6976891,45.9916207 L12.6976891,35.7523673 L22.7940692,35.7523673 L22.7940692,45.9916207 Z M20.9367163,43.7691471 L20.9367163,37.8954669 L14.5867917,37.8954669 L14.5867917,43.7691471 L20.9367163,43.7691471 Z M19.5079832,42.515037 L15.9837751,42.515037 L15.9837751,39.1654518 L19.5079832,39.1654518 L19.5079832,42.515037 Z M32.9116157,48.245844 L32.9116157,45.4042527 L39.2615403,45.4042527 L39.2615403,43.9755197 L32.9116157,43.9755197 L32.9116157,42.7214096 L37.8169325,42.7214096 L37.8169325,35.9111155 L34.9277168,35.9111155 C35.3722115,35.3078726 35.7690818,34.6411305 36.1183276,33.9108892 L34.657845,33.3870204 C34.2927243,34.2760099 33.8641044,35.1173749 33.3561104,35.9111155 L30.1493985,35.9111155 L31.1018872,35.4348711 C30.6256429,34.7046298 30.1176489,34.0537625 29.5779053,33.4663945 L28.3237952,34.0696373 C28.8159144,34.6093809 29.2762839,35.2284986 29.7207786,35.9111155 L26.5140667,35.9111155 L26.5140667,42.7214096 L31.4193834,42.7214096 L31.4193834,43.9755197 L25.0694589,43.9755197 L25.0694589,45.4042527 L31.4193834,45.4042527 L31.4193834,48.245844 L32.9116157,48.245844 Z M31.4193834,38.6574578 L27.9745494,38.6574578 L27.9745494,37.2287248 L31.4193834,37.2287248 L31.4193834,38.6574578 Z M36.3564498,38.6574578 L32.9116157,38.6574578 L32.9116157,37.2287248 L36.3564498,37.2287248 L36.3564498,38.6574578 Z M36.3564498,41.3879254 L32.9116157,41.3879254 L32.9116157,39.9274428 L36.3564498,39.9274428 L36.3564498,41.3879254 Z M31.4193834,41.3879254 L27.9745494,41.3879254 L27.9745494,39.9274428 L31.4193834,39.9274428 L31.4193834,41.3879254 Z M47.3471109,48.1347203 L47.3471109,41.0228047 L47.4106102,41.0228047 C48.4583477,43.3722768 50.2522014,45.4836268 52.8080461,47.3886041 L53.8716585,46.0233704 C51.4110627,44.5470129 49.6489586,42.8801577 48.601221,41.0228047 L53.5065378,41.0228047 L53.5065378,39.5623221 L47.3471109,39.5623221 L47.3471109,37.1017263 L52.6651728,37.1017263 L52.6651728,35.6412437 L47.3471109,35.6412437 L47.3471109,33.593393 L45.823129,33.593393 L45.823129,35.6412437 L40.6161909,35.6412437 L40.6161909,37.1017263 L45.823129,37.1017263 L45.823129,39.5623221 L39.6637022,39.5623221 L39.6637022,41.0228047 L44.5690189,41.0228047 C43.4577821,43.023031 41.7115529,44.6898862 39.3303312,45.9916207 L40.2034458,47.404479 C42.7751652,45.7217489 44.6325182,43.5945242 45.7596298,41.0228047 L45.823129,41.0228047 L45.823129,48.1347203 L47.3471109,48.1347203 Z M55.9565504,47.8807233 L55.9565504,47.3251049 L66.0529304,47.3251049 L66.0529304,47.8807233 L67.5134131,47.8807233 L67.5134131,34.4188832 L54.4960677,34.4188832 L54.4960677,47.8807233 L55.9565504,47.8807233 Z M66.0529304,45.9916207 L55.9565504,45.9916207 L55.9565504,35.7523673 L66.0529304,35.7523673 L66.0529304,45.9916207 Z M64.1955775,43.7691471 L64.1955775,37.8954669 L57.8456529,37.8954669 L57.8456529,43.7691471 L64.1955775,43.7691471 Z M62.7668445,42.515037 L59.2426363,42.515037 L59.2426363,39.1654518 L62.7668445,39.1654518 L62.7668445,42.515037 Z" id="path-3"></path>
    </defs>
    <g id="运单3.0" stroke="none" stroke-width="1" fill="none" fill-rule="evenodd">
        <g id="回单未回">
            <mask id="mask-2" fill="white">
                <use xlink:href="#path-1"></use>
            </mask>
            <g id="蒙版"></g>
            <g id="编组-4" opacity="0.600000024" mask="url(#mask-2)" fill-rule="nonzero">
                <g transform="translate(43.911907, 19.230769) rotate(-5.000000) translate(-43.911907, -19.230769) translate(3.553565, -21.538462)">
                    <polygon id="路径" fill="#FF1111" points="17.8117574 25.9705899 19.2224465 27.1794872 19.9441427 25.5429785 21.8290407 24.7541811 20.2008211 23.7485634 19.9540947 22.0512821 18.2264613 23.0664558 16.1899844 22.8063993 16.7496025 24.4397528 15.7372154 25.9761586"></polygon>
                    <polygon id="路径" fill="#FF1111" points="53.9025637 63.0769231 52.544428 64.188859 50.7652109 64.0562463 51.4461034 65.6406495 50.7652109 67.225613 52.544428 67.0929994 53.9025637 68.2051282 54.3211143 66.5382025 55.841732 65.640644 54.3211143 64.7437431"></polygon>
                    <polygon id="路径" fill="#FF1111" points="41.7427449 65.9956769 39.8030607 66.4827622 37.9777646 65.6410256 37.9861811 67.3908547 36.5509518 68.5917206 38.4954866 69.1859152 39.4341419 70.7692308 40.6279941 69.3863324 42.6427772 69.1654492 41.4354384 67.7157109"></polygon>
                    <polygon id="路径" fill="#FF1111" points="28.7070823 64.3327319 27.4485059 63.0769231 26.930273 64.6990501 25.3826054 65.4362115 26.8148987 66.4939698 27.1168334 68.2051282 28.5199508 67.2364103 30.2549286 67.5570968 29.6900784 65.9006379 30.4591265 64.3874395"></polygon>
                    <path d="M40.3584422,0 C18.1046752,0 1.44283407e-13,18.2889988 1.44283407e-13,40.7692308 C1.44283407e-13,63.2495632 18.1047747,81.5384615 40.3584422,81.5384615 C62.6122091,81.5384615 80.7166853,63.2494627 80.7166853,40.7692308 C80.7166853,18.2888983 62.6120101,0 40.3584422,0 Z M40.3584422,78.8318916 C19.5822363,78.8318916 2.67939163,61.7570596 2.67939163,40.7693313 C2.67939163,19.7816029 19.5822363,2.70677102 40.3584422,2.70677102 C61.1346481,2.70677102 78.0372937,19.7816029 78.0372937,40.7693313 C78.0372937,61.7570596 61.1346481,78.8318916 40.3584422,78.8318916 Z" id="形状" fill="#FF1111"></path>
                    <path d="M39.8506906,6.15384615 C21.2360624,6.15384615 6.09182531,21.4522667 6.09182531,40.2564103 C6.09182531,59.0605538 21.2359632,74.3589744 39.8506906,74.3589744 C58.4654179,74.3589744 73.6095558,59.0605538 73.6095558,40.2564103 C73.6095558,21.4522667 58.4653187,6.15384615 39.8506906,6.15384615 Z M39.8506906,72.8162276 C22.0781754,72.8162276 7.61902365,58.2099675 7.61902365,40.2564103 C7.61902365,22.302853 22.0780762,7.69659289 39.8506906,7.69659289 C57.6233049,7.69659289 72.0823575,22.302853 72.0823575,40.2564103 C72.0823575,46.9327054 70.081684,53.1453544 66.6558603,58.3168548 L66.0222526,56.5773693 L66.8337134,54.8203366 L64.9280109,54.9624465 L63.5386039,53.7243988 L63.0016923,55.5734689 L61.3305188,56.5652627 L62.9046865,57.5652646 L63.2614083,59.4163903 L64.7707698,58.1856221 L66.6433596,58.3360434 C60.8549543,67.0608748 51.0061032,72.8162276 39.8506866,72.8162276 L39.8506906,72.8162276 Z" id="形状" fill="#FF1111"></path>
                    <path d="M52.7958193,24.4252882 C49.0482402,21.2408919 44.3104023,19.4871795 39.4548428,19.4871795 C29.3642968,19.4871795 20.6706839,26.9261102 18.783128,37.1752625 L20.1028505,37.4358974 C21.8696016,27.8416775 30.0083029,20.8782018 39.4548627,20.8782018 C44.0004328,20.8782018 48.4355354,22.5197227 51.9438429,25.5005873 L52.7958193,24.4252727 L52.7958193,24.4252882 Z" id="路径" fill="#FF1111"></path>
                    <path d="M40.246705,60.1473284 C35.7011393,60.1473284 31.2658414,58.5057033 27.7575374,55.5249695 L26.9055618,56.6002779 C30.6530704,59.7846559 35.3911133,61.5384615 40.2466581,61.5384615 C50.3369948,61.5384615 59.0306991,54.0994703 60.9182531,43.850377 L59.5985318,43.5897436 C57.8316827,53.183805 49.6929893,60.1473439 40.2466382,60.1473439 L40.246705,60.1473284 Z" id="路径" fill="#FF1111"></path>
                    <g id="回单未回" fill="none" transform="translate(39.375310, 40.816432) rotate(-18.000000) translate(-39.375310, -40.816432) ">
                        <use fill="#525866" xlink:href="#path-3"></use>
                        <use fill="#FF0000" xlink:href="#path-3"></use>
                    </g>
                </g>
            </g>
        </g>
    </g>
</svg>