<?xml version="1.0" encoding="UTF-8"?>
<svg width="36px" height="36px" viewBox="0 0 36 36" version="1.1" xmlns="http://www.w3.org/2000/svg" xmlns:xlink="http://www.w3.org/1999/xlink">
    <title>创建运单G</title>
    <defs>
        <linearGradient x1="50%" y1="0%" x2="50%" y2="100%" id="linearGradient-1">
            <stop stop-color="#CECECE" offset="0%"></stop>
            <stop stop-color="#E0E0E0" offset="100%"></stop>
        </linearGradient>
        <linearGradient x1="50%" y1="0%" x2="50%" y2="100%" id="linearGradient-2">
            <stop stop-color="#FFFFFF" offset="0%"></stop>
            <stop stop-color="#FFFFFF" offset="100%"></stop>
        </linearGradient>
    </defs>
    <g id="首页" stroke="none" stroke-width="1" fill="none" fill-rule="evenodd">
        <g id="画板" transform="translate(-193.000000, -52.000000)">
            <g id="编组-3" transform="translate(193.000000, 52.000000)">
                <path d="M4.45531235,31.4102385 C10.3957288,37.3499206 25.6042712,37.6154699 31.5446877,31.6757878 C37.4851041,25.7361057 37.4851041,10.2638943 31.5446877,4.32421219 C25.6042712,-1.61546988 10.3957288,-1.3499206 4.45531235,4.58976147 C-1.48510412,10.5294435 -1.48510412,25.4705565 4.45531235,31.4102385 Z" id="椭圆形备份" fill="url(#linearGradient-1)"></path>
                <path d="M23.1553877,9.28877005 C24.385602,9.28877005 25.3828877,10.2860558 25.3828877,11.5162701 L25.3839397,21.5860903 C25.2437033,21.5761683 25.10212,21.571123 24.9593583,21.571123 C21.9723444,21.571123 19.5012024,23.7798327 19.0900412,26.6531432 L13.2103877,26.6534759 C11.9801734,26.6534759 10.9828877,25.6561902 10.9828877,24.4259759 L10.9828877,11.5162701 C10.9828877,10.2860558 11.9801734,9.28877005 13.2103877,9.28877005 L23.1553877,9.28877005 Z M19.0299465,18.6064171 L14.371123,18.6064171 C13.9033053,18.6064171 13.5240642,18.9856583 13.5240642,19.4534759 C13.5240642,19.8853076 13.8472046,20.2416658 14.2648697,20.293935 L14.371123,20.3005348 L19.0299465,20.3005348 C19.4977642,20.3005348 19.8770053,19.9212936 19.8770053,19.4534759 C19.8770053,18.9856583 19.4977642,18.6064171 19.0299465,18.6064171 Z M21.9946524,15.2181818 L14.371123,15.2181818 C13.9033053,15.2181818 13.5240642,15.597423 13.5240642,16.0652406 C13.5240642,16.4970723 13.8472046,16.8534306 14.2648697,16.9056997 L14.371123,16.9122995 L21.9946524,16.9122995 C22.4624701,16.9122995 22.8417112,16.5330583 22.8417112,16.0652406 C22.8417112,15.597423 22.4624701,15.2181818 21.9946524,15.2181818 Z M21.9946524,11.8299465 L14.371123,11.8299465 C13.9033053,11.8299465 13.5240642,12.2091877 13.5240642,12.6770053 C13.5240642,13.108837 13.8472046,13.4651953 14.2648697,13.5174644 L14.371123,13.5240642 L21.9946524,13.5240642 C22.4624701,13.5240642 22.8417112,13.144823 22.8417112,12.6770053 C22.8417112,12.2091877 22.4624701,11.8299465 21.9946524,11.8299465 Z" id="形状结合" fill="url(#linearGradient-2)"></path>
                <path d="M23.6887701,22.4470588 C24.1565877,22.4470588 24.5358289,22.8263 24.5358289,23.2941176 L24.5355936,24.1410588 L25.3828877,24.1411765 C25.8507054,24.1411765 26.2299465,24.5204176 26.2299465,24.9882353 C26.2299465,25.456053 25.8507054,25.8352941 25.3828877,25.8352941 L24.5355936,25.8350588 L24.5358289,26.6823529 C24.5358289,27.1501706 24.1565877,27.5294118 23.6887701,27.5294118 C23.2209524,27.5294118 22.8417112,27.1501706 22.8417112,26.6823529 L22.8415936,25.8350588 L21.9946524,25.8352941 C21.5268347,25.8352941 21.1475936,25.456053 21.1475936,24.9882353 C21.1475936,24.5204176 21.5268347,24.1411765 21.9946524,24.1411765 L22.8415936,24.1410588 L22.8417112,23.2941176 C22.8417112,22.8263 23.2209524,22.4470588 23.6887701,22.4470588 Z" id="形状结合" fill="#FFFFFF"></path>
            </g>
        </g>
    </g>
</svg>