<?xml version="1.0" encoding="UTF-8"?>
<svg width="42px" height="43px" viewBox="0 0 42 43" version="1.1" xmlns="http://www.w3.org/2000/svg" xmlns:xlink="http://www.w3.org/1999/xlink">
    <title>发货找车备份 2</title>
    <g id="首页" stroke="none" stroke-width="1" fill="none" fill-rule="evenodd">
        <g id="画板" transform="translate(-476.000000, -1012.000000)">
            <g id="发货找车备份-2" transform="translate(476.000000, 1012.000000)">
                <g id="编组-2备份-6" transform="translate(0.000000, -0.000000)">
                    <g id="平台订单备份-3" transform="translate(0.000000, -0.000000)">
                        <g id="编组-8备份" transform="translate(0.000000, -0.000000)">
                            <rect id="矩形备份-3" fill="#FFA01F" opacity="0.200000003" x="0" y="0" width="42" height="42.2047146" rx="7.0656"></rect>
                            <g id="编组-4" transform="translate(8.000000, 12.000000)">
                                <path d="M6.70179786,3.70117063 C8.00090414,3.70117063 9.06387676,4.71217901 9.146836,5.99031602 L9.15204786,6.15142063 L9.15204786,11.4291399 C9.15204786,12.3958514 8.59221401,13.2318067 7.77906667,13.6304854 L7.77924068,13.6480667 C7.77924068,15.0533855 6.65242504,16.1926215 5.26242752,16.1926215 C3.94972741,16.1926215 2.87175212,15.1765678 2.75591968,13.8798963 L2.45025,13.8793899 C1.15114372,13.8793899 0.0881710976,12.8683815 0.00521185786,11.5902445 L6.70486251e-13,11.4291399 L6.70486251e-13,8.79028026 C6.70486251e-13,7.90568718 0.766156791,6.51335204 2.29847037,4.61327484 C2.72485813,4.08455171 3.34957615,3.75873416 4.02147746,3.70810225 L4.20577954,3.70117063 L6.70179786,3.70117063 Z M23.7953244,2.45025 L23.7956424,8.01569864 C23.039477,7.66321174 22.1975936,7.4665977 21.3102892,7.4665977 C18.0283506,7.4665977 15.3678137,10.1564605 15.3678137,13.4745743 C15.3678137,13.6108564 15.3723018,13.7460787 15.3811368,13.8800983 L12.5175026,13.8793899 C11.1642669,13.8793899 10.0672526,12.7823756 10.0672526,11.4291399 L10.0672526,2.45025 C10.0672526,1.09701429 11.1642669,6.92674577e-16 12.5175026,0 L21.3450744,0 C22.6983101,9.53329386e-16 23.7953244,1.09701429 23.7953244,2.45025 Z" id="形状结合" fill="#FF8814"></path>
                                <ellipse id="椭圆形" stroke="#FF8814" stroke-width="1.3" cx="21.3102892" cy="13.4745743" rx="3.67180038" ry="3.71943756"></ellipse>
                                <path d="" id="矩形" stroke="#FF8814" stroke-width="1.1" transform="translate(25.632090, 16.854137) rotate(40.000000) translate(-25.632090, -16.854137) "></path>
                            </g>
                        </g>
                    </g>
                </g>
            </g>
        </g>
    </g>
</svg>