<?xml version="1.0" encoding="UTF-8"?>
<svg width="42px" height="43px" viewBox="0 0 42 43" version="1.1" xmlns="http://www.w3.org/2000/svg" xmlns:xlink="http://www.w3.org/1999/xlink">
    <title>司机付款备份</title>
    <g id="首页" stroke="none" stroke-width="1" fill="none" fill-rule="evenodd">
        <g id="画板" transform="translate(-321.000000, -239.000000)">
            <g id="司机付款备份" transform="translate(321.000000, 239.000000)">
                <g id="编组-8备份-2" transform="translate(0.000000, -0.000000)">
                    <rect id="矩形备份-3" fill="#3371FF" opacity="0.200000003" x="2.16102998e-13" y="0" width="42" height="42.2047146" rx="7.0656"></rect>
                    <g id="编组" transform="translate(12.250000, 9.730769)">
                        <path d="M2.205,0.000823294961 L16.17,0.000823294961 C17.3877879,0.000823294961 18.375,1.10660683 18.375,2.47065994 L18.375,20.4691828 C18.375,21.0112962 18.1365615,21.518614 17.7377217,21.8257089 C17.3388819,22.1328039 16.8306458,22.2003211 16.37874,22.0062445 C12.054,20.1497506 9.65643,19.221092 9.18749999,19.2210921 C8.71856998,19.2210921 6.32099999,20.1497506 1.99625999,22.0062445 C1.54435422,22.2003211 1.0361181,22.1328039 0.637278317,21.8257089 C0.238438539,21.518614 0,21.0112962 0,20.4691828 L0,2.46983665 C0,1.10578353 0.987212127,0 2.205,0 L2.205,0.000823294961 Z" id="路径" fill="#487CFF"></path>
                        <path d="M18.375,2.44176528 L18.375,13.6388869 L9.38297872,13.7267905 L9.38297872,0 L16.2999182,0 C17.4459542,0 18.375,1.09321555 18.375,2.44176528 L18.375,2.44176528 Z" id="路径" fill="#487CFF" fill-rule="nonzero"></path>
                        <path d="M12.1141598,6.89562653 C12.3481601,7.12289121 12.3481601,7.49139608 12.1141598,7.71866076 L10.429196,9.35525378 L11.4261833,9.35525378 C11.7571205,9.35525378 12.0253681,9.61581884 12.0253681,9.93723758 C12.0253681,10.2586745 11.7571205,10.5192214 11.4261833,10.5192214 L9.70352703,10.5192214 L9.70352703,11.4285711 L11.4261833,11.4285711 C11.7571205,11.4285711 12.0253681,11.6891361 12.0253681,12.0105549 C12.0253681,12.3319918 11.7571205,12.5925387 11.4261833,12.5925387 L9.70352703,12.5925387 L9.70352703,14.3021161 C9.70352703,14.6235531 9.4352795,14.8840999 9.10434225,14.8840999 C8.77342373,14.8840999 8.50515747,14.6235531 8.50515747,14.3021161 L8.50515747,12.5925387 L6.78250122,12.5925387 C6.4515827,12.5925387 6.18331644,12.3319918 6.18331644,12.0105549 C6.18331644,11.6891361 6.4515827,11.4285711 6.78250122,11.4285711 L8.50515747,11.4285711 L8.50515747,10.5192214 L6.78250122,10.5192214 C6.4515827,10.5192214 6.18331644,10.2586745 6.18331644,9.93723758 C6.18331644,9.61581884 6.4515827,9.35525378 6.78250122,9.35525378 L7.98545829,9.35525378 L6.30051324,7.71866076 C6.06883469,7.49366945 6.06653158,7.13025694 6.29352899,6.90248303 L6.30049451,6.89562653 C6.53215433,6.67059886 6.90630778,6.66836186 7.14081372,6.88884278 L7.14787287,6.89560835 L9.20732714,8.89592306 L11.2668001,6.89560835 C11.5007818,6.66832548 11.8801781,6.66832548 12.1141598,6.89560835 L12.1141598,6.89562653 Z" id="形状" fill="#FFFFFF" fill-rule="nonzero"></path>
                    </g>
                </g>
            </g>
        </g>
    </g>
</svg>