<?xml version="1.0" encoding="UTF-8"?>
<svg width="36px" height="36px" viewBox="0 0 36 36" version="1.1" xmlns="http://www.w3.org/2000/svg" xmlns:xlink="http://www.w3.org/1999/xlink">
    <title>客户下单</title>
    <defs>
        <linearGradient x1="50%" y1="0%" x2="50%" y2="100%" id="linearGradient-1">
            <stop stop-color="#4476FF" offset="0%"></stop>
            <stop stop-color="#6EB4FF" offset="100%"></stop>
        </linearGradient>
    </defs>
    <g id="首页" stroke="none" stroke-width="1" fill="none" fill-rule="evenodd">
        <g id="画板" transform="translate(-61.000000, -367.000000)">
            <g id="编组-3" transform="translate(61.000000, 367.000000)">
                <path d="M4.45531235,31.4102385 C10.3957288,37.3499206 25.6042712,37.6154699 31.5446877,31.6757878 C37.4851041,25.7361057 37.4851041,10.2638943 31.5446877,4.32421219 C25.6042712,-1.61546988 10.3957288,-1.3499206 4.45531235,4.58976147 C-1.48510412,10.5294435 -1.48510412,25.4705565 4.45531235,31.4102385 Z" id="椭圆形备份" fill="url(#linearGradient-1)"></path>
                <path d="M20.3975478,9 C21.2698411,9 22.0085581,9.57155635 22.2534479,10.3584526 L22.2534479,10.3584526 L24.8075873,10.3584526 C25.5665432,10.3584526 26.1838272,10.9722719 26.1818083,11.7269678 L26.1818083,11.7269678 L26.1818083,25.6314848 C26.1818083,26.3881932 25.5665432,27 24.8055634,27 L24.8055634,27 L12.0126036,27 C11.2516238,27 10.6363636,26.3881932 10.6363636,25.6314848 L10.6363636,25.6314848 L10.6363636,11.7269678 C10.6363636,10.9702594 11.2516238,10.3584526 12.0126036,10.3584526 L12.0126036,10.3584526 L14.6031729,10.3584526 C14.8480626,9.57155635 15.5867797,9 16.4590729,9 L16.4590729,9 Z M17.7826919,21.648703 L14.5647191,21.648703 C14.2085158,21.648703 13.9191007,21.9364937 13.9191007,22.2906977 C13.9191007,22.6449016 14.2085158,22.9326923 14.5647191,22.9326923 L14.5647191,22.9326923 L17.7826919,22.9326923 C18.1388952,22.9326923 18.4283104,22.6449016 18.4283104,22.2906977 C18.4283104,21.9364937 18.1388952,21.648703 17.7826919,21.648703 L17.7826919,21.648703 Z M22.3263076,18.0684258 L14.532337,18.0684258 C14.1761337,18.0684258 13.8867186,18.3562165 13.8867186,18.7104204 C13.8867186,19.0646243 14.1761337,19.352415 14.532337,19.352415 L14.532337,19.352415 L22.3242838,19.352415 C22.680487,19.352415 22.9699022,19.0646243 22.9699022,18.7104204 C22.9699022,18.3562165 22.6825109,18.0684258 22.3263076,18.0684258 L22.3263076,18.0684258 Z M22.3263076,14.4881485 L14.532337,14.4881485 C14.1761337,14.4881485 13.8867186,14.7759392 13.8867186,15.1301431 C13.8867186,15.484347 14.1761337,15.7721377 14.532337,15.7721377 L14.532337,15.7721377 L22.3242838,15.7721377 C22.680487,15.7721377 22.9699022,15.484347 22.9699022,15.1301431 C22.9699022,14.7759392 22.6825109,14.4881485 22.3263076,14.4881485 L22.3263076,14.4881485 Z" id="形状结合" fill="#FFFFFF" fill-rule="nonzero"></path>
            </g>
        </g>
    </g>
</svg>