<?xml version="1.0" encoding="UTF-8"?>
<svg width="37px" height="36px" viewBox="0 0 37 36" version="1.1" xmlns="http://www.w3.org/2000/svg" xmlns:xlink="http://www.w3.org/1999/xlink">
    <title>平台支付G</title>
    <defs>
        <linearGradient x1="50%" y1="0%" x2="50%" y2="100%" id="linearGradient-1">
            <stop stop-color="#CECECE" offset="0%"></stop>
            <stop stop-color="#E0E0E0" offset="100%"></stop>
        </linearGradient>
    </defs>
    <g id="首页" stroke="none" stroke-width="1" fill="none" fill-rule="evenodd">
        <g id="画板" transform="translate(-419.000000, -851.000000)">
            <g id="编组-3" transform="translate(419.500000, 851.000000)">
                <path d="M4.45531235,31.4102385 C10.3957288,37.3499206 25.6042712,37.6154699 31.5446877,31.6757878 C37.4851041,25.7361057 37.4851041,10.2638943 31.5446877,4.32421219 C25.6042712,-1.61546988 10.3957288,-1.3499206 4.45531235,4.58976147 C-1.48510412,10.5294435 -1.48510412,25.4705565 4.45531235,31.4102385 Z" id="椭圆形备份" fill="url(#linearGradient-1)"></path>
                <g id="编组" transform="translate(8.250000, 8.250000)" fill-rule="nonzero">
                    <path d="M9.74984847,0 C10.7688187,-0.0011715075 11.7387822,0.437202541 12.4112001,1.20279766 L14.5190084,1.10263858 C15.2485759,1.067797 15.9248351,1.48397555 16.2224691,2.15097009 C16.520103,2.81796463 16.3781807,3.59922918 15.8649742,4.11893367 L14.3381871,5.66430849 C16.2908791,6.7868879 17.8526781,8.60348995 18.7426022,10.8109783 C19.5212858,12.7405917 19.6994479,14.9046483 19.2775317,17.3018184 C19.0537722,18.5731764 17.9492029,19.5 16.658283,19.5 L2.84141393,19.5 C1.55049404,19.5 0.445924699,18.5731764 0.222165262,17.3018184 C-0.199307746,14.9046483 -0.0211456541,12.7414781 0.757094727,10.8109783 C1.64790519,8.60260359 3.2105906,6.78511517 5.16461215,5.66297894 L3.63915464,4.11937685 C3.1257594,3.599828 2.98358472,2.81858153 3.28102769,2.15147778 C3.57847065,1.48437402 4.25463541,1.0679899 4.98423411,1.10263858 L7.08938321,1.20279766 C7.76159726,0.437435233 8.73118738,-0.000916081798 9.74984847,0 Z" id="路径" fill="#FFFFFF"></path>
                    <path d="M11.0147143,7.8372179 C11.1934323,7.51377921 11.5847017,7.40402671 11.8907321,7.59149167 C12.1967624,7.77895664 12.3028009,8.19334492 12.1281429,8.51927061 L11.0884286,10.4290182 L12.1071429,10.4294729 C12.4621831,10.4294729 12.75,10.7348383 12.75,11.1115256 C12.75,11.4882129 12.4621831,11.7935783 12.1071429,11.7935783 L10.3928571,11.7935783 L10.3928571,13.1576838 L12.1071429,13.1576838 C12.4621831,13.1576838 12.75,13.4630492 12.75,13.8397365 C12.75,14.2164238 12.4621831,14.5217892 12.1071429,14.5217892 L10.3928571,14.5217892 L10.3928571,16.5679473 C10.3928571,16.9446346 10.1050402,17.25 9.75,17.25 C9.39495981,17.25 9.10714287,16.9446346 9.10714286,16.5679473 L9.10714286,14.5217892 L7.39285714,14.5217892 C7.03781695,14.5217892 6.75,14.2164238 6.75,13.8397365 C6.75,13.4630492 7.03781695,13.1576838 7.39285714,13.1576838 L9.10714286,13.1576838 L9.10714286,11.7935783 L7.39285714,11.7935783 C7.03781695,11.7935783 6.75,11.4882129 6.75,11.1115256 C6.75,10.7348383 7.03781695,10.4294729 7.39285714,10.4294729 L8.41114286,10.4294729 L7.37185714,8.51927061 C7.1971991,8.19334492 7.30323757,7.77895664 7.60926795,7.59149167 C7.91529833,7.40402671 8.30656772,7.51377921 8.48528571,7.8372179 L9.75,10.1607441 L11.0147143,7.8372179 Z" id="路径" fill="#D6D6D6"></path>
                </g>
            </g>
        </g>
    </g>
</svg>