<?xml version="1.0" encoding="UTF-8"?>
<svg width="42px" height="43px" viewBox="0 0 42 43" version="1.1" xmlns="http://www.w3.org/2000/svg" xmlns:xlink="http://www.w3.org/1999/xlink">
    <title>开单调度备份</title>
    <g id="首页" stroke="none" stroke-width="1" fill="none" fill-rule="evenodd">
        <g id="画板" transform="translate(-79.000000, -239.000000)">
            <g id="开单调度备份" transform="translate(79.000000, 239.000000)">
                <g id="编组-8备份" transform="translate(-0.000000, -0.000000)">
                    <rect id="矩形备份-3" fill="#3371FF" opacity="0.200000003" x="0" y="0" width="42" height="42.2047146" rx="7.0656"></rect>
                    <g id="编组" transform="translate(12.250000, 9.730769)">
                        <path d="M2.205,0.000823294961 L16.17,0.000823294961 C17.3877879,0.000823294961 18.375,1.10660683 18.375,2.47065994 L18.375,20.4691828 C18.375,21.0112962 18.1365615,21.518614 17.7377217,21.8257089 C17.3388819,22.1328039 16.8306458,22.2003211 16.37874,22.0062445 C12.054,20.1497506 9.65643,19.221092 9.18749999,19.2210921 C8.71856998,19.2210921 6.32099999,20.1497506 1.99625999,22.0062445 C1.54435422,22.2003211 1.0361181,22.1328039 0.637278317,21.8257089 C0.238438539,21.518614 0,21.0112962 0,20.4691828 L0,2.46983665 C0,1.10578353 0.987212127,0 2.205,0 L2.205,0.000823294961 Z" id="路径" fill="#487CFF"></path>
                        <path d="M18.375,2.44176528 L18.375,13.6388869 L9.38297872,13.7267905 L9.38297872,0 L16.2999182,0 C17.4459542,0 18.375,1.09321555 18.375,2.44176528 L18.375,2.44176528 Z" id="路径" fill="#487CFF" fill-rule="nonzero"></path>
                        <path d="M6.97637894,11.6296419 C7.36987741,11.6296419 7.68883519,12.013992 7.68883519,12.4875663 C7.68964693,12.9213526 7.41930196,13.2873275 7.05952252,13.3394853 L6.97637894,13.3454907 L2.66724812,13.3454907 C2.47772291,13.3448091 2.29618645,13.2540378 2.16257515,13.0931455 C2.02896384,12.9322533 1.95422255,12.7144197 1.95479045,12.4875663 C1.95479045,12.0474511 2.2300276,11.6845491 2.58410454,11.6356474 L2.66724812,11.6296419 L6.97637894,11.6296419 Z M14.215604,6.48209549 C14.5689642,6.48209549 14.856383,6.86644561 14.856383,7.34001991 C14.856383,7.78013513 14.6091025,8.14303715 14.2901465,8.19193884 L14.2148873,8.1979443 L3.31304433,8.1979443 C2.95825063,8.1979443 2.67154865,7.81359418 2.67154865,7.34001991 C2.67154865,6.89990469 2.91882911,6.53700267 3.23778506,6.48810098 L3.31304433,6.48209549 L14.2148873,6.48209549 L14.215604,6.48209549 Z" id="形状" fill="#FFFFFF" fill-rule="nonzero"></path>
                    </g>
                </g>
            </g>
        </g>
    </g>
</svg>