<?xml version="1.0" encoding="UTF-8"?>
<svg width="42px" height="43px" viewBox="0 0 42 43" version="1.1" xmlns="http://www.w3.org/2000/svg" xmlns:xlink="http://www.w3.org/1999/xlink">
    <title>开票申请备份</title>
    <g id="首页" stroke="none" stroke-width="1" fill="none" fill-rule="evenodd">
        <g id="画板" transform="translate(-865.000000, -325.000000)">
            <g id="开票申请备份" transform="translate(865.000000, 325.000000)">
                <g id="配载调度备份-3" transform="translate(0.000000, 0.000000)" fill="#FFA01F" opacity="0.200000003">
                    <g id="编组-12备份" transform="translate(-0.000000, -0.000000)">
                        <rect id="矩形" x="0" y="0" width="42" height="42.2047146" rx="7.0656"></rect>
                    </g>
                </g>
                <g id="编组" transform="translate(10.000000, 12.000000)" fill="#FF8814" fill-rule="nonzero">
                    <path d="M3.42857143,0 C1.54285714,0 0,1.425 0,3.16666667 L0,6.33333333 C1.89353571,6.33333333 3.42857143,7.75110937 3.42857143,9.5 C3.42857143,11.2488906 1.89353571,12.6666667 0,12.6666667 L0,15.8333333 C0,17.575 1.54285714,19 3.42857143,19 L6,19 L6,0 L3.42857143,0 Z M23,6.33333333 L23,3.16666667 C23,1.425 21.56,0 19.8,0 L7,0 L7,19 L19.8,19 C21.56,19 23,17.575 23,15.8333333 L23,12.6666667 C21.2327,12.6666667 19.8,11.2488906 19.8,9.5 C19.8,7.75110937 21.2327,6.33333333 23,6.33333333 Z M17,12.5 C17,12.775 16.64,13 16.2,13 L9.8,13 C9.36,13 9,12.775 9,12.5 C9,12.225 9.36,12 9.8,12 L16.2,12 C16.64,12 17,12.225 17,12.5 Z M17,6.5 C17,6.775 16.64,7 16.2,7 L9.8,7 C9.36,7 9,6.775 9,6.5 C9,6.225 9.36,6 9.8,6 L16.2,6 C16.64,6 17,6.225 17,6.5 Z" id="形状"></path>
                </g>
            </g>
        </g>
    </g>
</svg>