<?xml version="1.0" encoding="UTF-8"?>
<svg width="26px" height="26px" viewBox="0 0 26 26" version="1.1" xmlns="http://www.w3.org/2000/svg" xmlns:xlink="http://www.w3.org/1999/xlink">
    <title>编组 28</title>
    <defs>
        <circle id="path-1" cx="10" cy="10" r="10"></circle>
        <filter x="-22.5%" y="-22.5%" width="145.0%" height="145.0%" filterUnits="objectBoundingBox" id="filter-2">
            <feOffset dx="0" dy="0" in="SourceAlpha" result="shadowOffsetOuter1"></feOffset>
            <feGaussianBlur stdDeviation="1.5" in="shadowOffsetOuter1" result="shadowBlurOuter1"></feGaussianBlur>
            <feColorMatrix values="0 0 0 0 0.615686275   0 0 0 0 0.631372549   0 0 0 0 0.690196078  0 0 0 0.2 0" type="matrix" in="shadowBlurOuter1"></feColorMatrix>
        </filter>
        <linearGradient x1="50%" y1="0%" x2="50%" y2="100%" id="linearGradient-3">
            <stop stop-color="#17D0B1" offset="0%"></stop>
            <stop stop-color="#1ECFC5" offset="100%"></stop>
        </linearGradient>
    </defs>
    <g id="资金流水表" stroke="none" stroke-width="1" fill="none" fill-rule="evenodd">
        <g id="资金流水表-资金费用明细表" transform="translate(-301.000000, -185.000000)">
            <g id="编组-28" transform="translate(304.000000, 188.000000)">
                <g id="椭圆形">
                    <use fill="black" fill-opacity="1" filter="url(#filter-2)" xlink:href="#path-1"></use>
                    <use fill="#FFFFFF" fill-rule="evenodd" xlink:href="#path-1"></use>
                </g>
                <path d="M14.9581367,10.1300353 C14.8862628,10.5542665 14.7420541,11.0490898 14.5259714,11.4733211 C14.3819931,11.6855498 14.2380148,11.7561419 14.0219321,11.6855498 C13.8058494,11.5441394 13.7337451,11.402729 13.8058494,11.1905002 C14.0219321,10.766269 14.1659104,10.342264 14.2380148,9.91803279 C14.5259714,8.78674949 14.4540974,7.72628453 14.3819931,7.09005081 L9.91659185,5.03993922 L5.45142098,7.09005081 C5.37931664,7.72628453 5.30721229,8.71615741 5.5953993,9.91803279 C6.09943861,12.2509652 7.61201726,13.8770718 9.91659185,14.8669447 C10.6369442,14.5841239 11.2130878,14.230711 11.7892315,13.8064797 C11.9332098,13.6650693 12.1492925,13.7356614 12.2935012,13.8770718 C12.4374795,14.0184822 12.3653751,14.230711 12.2213968,14.3718951 C11.5731488,14.8669447 10.8530269,15.2203576 10.0608005,15.5737705 L9.77261353,15.5737705 C7.10774758,14.5133055 5.45142098,12.6751964 4.87504697,10.0594432 C4.65925439,8.98883456 4.61070517,7.89219443 4.73106864,6.80722998 C4.80317299,6.66581957 4.87504697,6.59522749 4.94715131,6.52440916 L9.77261353,4.26229508 L10.0608005,4.26229508 L14.8862628,6.52440916 C15.0302411,6.59522749 15.1023454,6.66581957 15.1023454,6.80722998 C15.1742194,7.44346371 15.2463237,8.64556534 14.9581367,10.1300353 Z M10.0608005,12.2509652 C9.48465689,12.2509652 8.8364089,11.9681444 8.40424357,11.5441394 C7.46803894,10.6250848 7.46803894,9.21098073 8.40424357,8.29192618 C9.3404482,7.37287163 10.7809225,7.37287163 11.7171271,8.29192618 C12.5093535,9.06957032 12.5814578,10.342264 11.9332098,11.2613186 L13.4457885,12.7460148 C13.5897668,12.8874252 13.5897668,13.0994277 13.4457885,13.2408381 C13.3736841,13.3114302 13.3018101,13.3114302 13.1576014,13.3114302 C13.0136231,13.3114302 12.9415188,13.3114302 12.8696448,13.2408381 L11.4291705,11.826734 C10.9970052,12.1095548 10.5648398,12.2509652 10.0608005,12.2509652 L10.0608005,12.2509652 Z M11.2130878,8.78674949 C10.9249008,8.43333659 10.4927355,8.29192618 10.0608005,8.29192618 C9.62863521,8.29192618 9.19646988,8.50415492 8.90828288,8.78674949 C8.26026525,9.42320947 8.26026525,10.4128561 8.90828288,11.0490898 C9.55653087,11.6147315 10.5648398,11.6147315 11.2130878,11.0490898 C11.8613358,10.4128561 11.8613358,9.42320947 11.2130878,8.78674949 Z" id="形状" fill="url(#linearGradient-3)" fill-rule="nonzero"></path>
            </g>
        </g>
    </g>
</svg>