<?xml version="1.0" encoding="UTF-8"?>
<svg width="20px" height="20px" viewBox="0 0 20 20" version="1.1" xmlns="http://www.w3.org/2000/svg" xmlns:xlink="http://www.w3.org/1999/xlink">
    <title>编组 44</title>
    <g id="运单3.0" stroke="none" stroke-width="1" fill="none" fill-rule="evenodd">
        <g id="创建运单3.0" transform="translate(-724.000000, -241.000000)">
            <g id="编组-18" transform="translate(80.000000, 54.000000)">
                <g id="编组-49" transform="translate(22.000000, 71.000000)">
                    <g id="编组-44" transform="translate(622.000000, 116.000000)">
                        <rect id="矩形" x="0" y="0" width="20" height="20"></rect>
                        <g id="编组" transform="translate(1.000000, 1.500000)">
                            <path d="M17.0095491,15.2685019 L16.1780042,15.2685019 L16.1780042,7.88111584 C16.1780042,6.87138269 15.5320719,5.98786616 14.5668858,5.67974906 L11.3223756,4.65145461 L11.3223756,2.15310747 C11.3223756,0.965186107 10.3571895,0 9.1692681,0 L4.02408365,0 C2.83616229,0 1.87097616,0.965186107 1.87097616,2.15310747 L1.87097616,15.2685019 L0.74245085,15.2685019 C0.334102886,15.2685019 0,15.6026048 0,16.0109527 C0,16.4193007 0.334102886,16.7534036 0.74245085,16.7534036 L17.0095491,16.7534036 C17.4178971,16.7534036 17.752,16.4193007 17.752,16.0109527 C17.752,15.6026048 17.4178971,15.2685019 17.0095491,15.2685019 L17.0095491,15.2685019 Z M3.35587788,15.2685019 L3.35587788,2.15310747 C3.35587788,1.7855943 3.65657048,1.4849017 4.02408365,1.4849017 L9.17298034,1.4849017 C9.54049351,1.4849017 9.84118611,1.7855943 9.84118611,2.15310747 L9.84118611,15.2685019 L3.35587788,15.2685019 Z M11.3223756,15.2685019 L11.3223756,6.21060141 L14.117703,7.09783018 C14.4629427,7.20548555 14.6931025,7.52102717 14.6931025,7.88482811 L14.6931025,15.2722141 L11.3223756,15.2722141 L11.3223756,15.2685019 Z" id="形状" fill="#A2ADC7" fill-rule="nonzero"></path>
                            <rect id="矩形" stroke="#A2ADC7" stroke-width="1.3" stroke-linejoin="round" x="4.5" y="4" width="4" height="2"></rect>
                            <rect id="矩形备份-24" stroke="#A2ADC7" stroke-width="1.3" stroke-linejoin="round" x="4.5" y="9" width="4" height="2"></rect>
                        </g>
                    </g>
                </g>
            </g>
        </g>
    </g>
</svg>