<?xml version="1.0" encoding="UTF-8"?>
<svg width="42px" height="42px" viewBox="0 0 42 42" version="1.1" xmlns="http://www.w3.org/2000/svg" xmlns:xlink="http://www.w3.org/1999/xlink">
    <title>整车调度</title>
    <g id="首页" stroke="none" stroke-width="1" fill="none" fill-rule="evenodd">
        <g id="画板" transform="translate(-157.000000, -70.000000)">
            <g id="整车调度" transform="translate(157.000000, 70.000000)">
                <rect id="矩形备份-7" fill="#3371FF" opacity="0.100000001" x="0" y="0" width="42" height="42" rx="7.0656"></rect>
                <path d="M15.7725,16 C16.9492267,16 17.9128392,16.9124505 17.9944071,18.068421 L18,18.2275 L18,25.1799074 C18,26.1567986 17.3711451,26.9868128 16.4961654,27.28722 C16.4275297,28.7969819 15.2242373,30 13.75,30 C12.3157583,30 11.1379596,28.8613714 11.0112819,27.4082247 L10.2275,27.4074074 C9.0507733,27.4074074 8.08716082,26.494957 8.00559286,25.3389864 L8,25.1799074 L8,21.7037037 C8,20.6841748 8.8852809,19.0628627 10.6558427,16.8397676 C11.0400507,16.3573609 11.6050687,16.0580214 12.2143022,16.0075948 L12.3982621,16 L15.7725,16 Z M31.7725,12 C33.0027143,12 34,12.9972857 34,14.2275 L34,25.2010714 C34,26.4312857 33.0027143,27.4285714 31.7725,27.4285714 L30.4887616,27.4288862 C30.3623106,28.8704073 29.1844062,30 27.75,30 C26.3155938,30 25.1376894,28.8704073 25.0112384,27.4288862 L21.2275,27.4285714 C19.9972857,27.4285714 19,26.4312857 19,25.2010714 L19,14.2275 C19,12.9972857 19.9972857,12 21.2275,12 L31.7725,12 Z" id="形状结合" fill="#487CFF"></path>
                <path d="M14.4900155,21.0007037 L20.9683641,21.0007037 C21.2391032,21.0007037 21.4583796,21.2075984 21.4583796,21.46305 L21.4583796,21.9451005 C21.4583796,22.2004473 21.2389922,22.4074468 20.9683641,22.4074468 L14.4900155,22.4074468 C14.2193874,22.4074468 14,22.2004473 14,21.9451005 L14,21.46305 C14,21.2075984 14.2192764,21 14.4900155,21 L14.4900155,21.0007037 Z M30.185909,21.0007037 L32.1892297,21.0007037 C32.4599689,21.0007037 32.6792453,21.2075984 32.6792453,21.46305 L32.6792453,21.9451005 C32.6792453,22.2004473 32.4598579,22.4074468 32.1892297,22.4074468 L30.185909,22.4074468 C29.9152809,22.4074468 29.6958935,22.2004473 29.6958935,21.9451005 L29.6958935,21.46305 C29.6958935,21.2075984 29.9151698,21 30.185909,21 L30.185909,21.0007037 Z M14.4900155,23.5028314 L20.2225261,23.5028314 C20.4932653,23.5028314 20.7125416,23.709726 20.7125416,23.9651777 L20.7125416,24.4472282 C20.7125416,24.702575 20.4931542,24.9095745 20.2225261,24.9095745 L14.4900155,24.9095745 C14.2193874,24.9095745 14,24.702575 14,24.4472282 L14,23.9651777 C14,23.7097261 14.2192764,23.5021277 14.4900155,23.5021277 L14.4900155,23.5028314 Z" id="形状" fill="#FFFFFF" fill-rule="nonzero" transform="translate(23.339623, 22.954787) scale(-1, 1) translate(-23.339623, -22.954787) "></path>
            </g>
        </g>
    </g>
</svg>