<?xml version="1.0" encoding="UTF-8"?>
<svg width="42px" height="43px" viewBox="0 0 42 43" version="1.1" xmlns="http://www.w3.org/2000/svg" xmlns:xlink="http://www.w3.org/1999/xlink">
    <title>满运宝账户备份</title>
    <defs>
        <filter id="filter-1">
            <feColorMatrix in="SourceGraphic" type="matrix" values="0 0 0 0 1.000000 0 0 0 0 1.000000 0 0 0 0 1.000000 0 0 0 1.000000 0"></feColorMatrix>
        </filter>
    </defs>
    <g id="首页" stroke="none" stroke-width="1" fill="none" fill-rule="evenodd">
        <g id="画板" transform="translate(-240.000000, -324.000000)">
            <g id="满运宝账户备份" transform="translate(240.000000, 324.000000)">
                <rect id="矩形" fill="#FFA01F" opacity="0.200000003" x="0" y="0" width="42" height="42.2047146" rx="7.0656"></rect>
                <g id="编组-4" transform="translate(10.500000, 11.500000)">
                    <g id="编组-3">
                        <g id="编组" fill="#FF8814">
                            <path d="M21.875,4.37696512 L21.875,17.6331053 C21.875,18.6429211 21.1754449,19.4615385 20.3125,19.4615385 L1.5625,19.4615385 C0.699555077,19.4615385 0,18.6429211 0,17.6331053 L0,4.37696512 L21.875,4.37696512 Z" id="路径" fill-rule="nonzero"></path>
                            <path d="M0,1.36883607 C0,1.00579818 0.164620053,0.657629365 0.457645644,0.400922805 C0.750671236,0.144216244 1.14809923,0 1.5625,0 L20.3125,0 C20.7269008,0 21.1243288,0.144216244 21.4173544,0.400922805 C21.7103799,0.657629365 21.875,1.00579818 21.875,1.36883607 L21.875,3.57266211 L0,3.57266211 L0,1.36883607 Z" id="路径"></path>
                        </g>
                        <g filter="url(#filter-1)" id="编组">
                            <g transform="translate(2.293146, 6.517111)">
                                <path d="M6.48470172,4.9563867 C5.93977263,5.45759601 5.23135653,5.79173906 4.41395255,5.79173906 C3.59654858,5.79173906 2.88814282,5.45759601 2.28871461,4.9563867 C0.926381532,5.68035805 0,6.62708087 0,8.35347082 L8.71892756,8.35347082 C8.71892756,6.62708087 7.79254602,5.73604327 6.48470172,4.9563867 L6.48470172,4.9563867 Z M4.35946378,5.12346351 C5.72179686,5.12346351 6.81166538,3.95397865 6.81166538,2.56173176 C6.81166538,1.16948486 5.72179686,0 4.35946378,0 C2.9971307,0 1.90726217,1.16948486 1.90726217,2.56173176 C1.90726217,4.00966388 3.05161948,5.12346351 4.35946378,5.12346351 Z" id="形状" fill="#FFB45D" fill-rule="nonzero"></path>
                            </g>
                        </g>
                    </g>
                    <path d="M18.1091815,12.9238382 C18.4888352,12.9200869 18.8042253,13.2889523 18.8264643,13.7627384 C18.8487033,14.2365246 18.5699869,14.6489665 18.1925875,14.7007435 L18.1091815,14.7060903 L14.5448205,14.7060903 C14.1676446,14.7055673 13.8560685,14.3378677 13.8339643,13.8671888 C13.81186,13.39651 14.0868783,12.9857633 14.4614145,12.9300761 L14.5448205,12.9238382 L18.1091815,12.9238382 Z" id="路径" fill="#FFFFFF" fill-rule="nonzero"></path>
                    <path d="M20.572214,10.0721895 C20.970076,10.0684382 21.3005924,10.4373036 21.323898,10.9110898 C21.3472036,11.3848759 21.0551199,11.7973179 20.6596202,11.8490948 L20.572214,11.8544416 L14.2221884,11.8544416 C13.8269229,11.8539186 13.5004035,11.486219 13.4772392,11.0155402 C13.4540748,10.5448613 13.742283,10.1341146 14.1347821,10.0784274 L14.2221884,10.0721895 L20.572214,10.0721895 Z" id="路径" fill="#FFFFFF" fill-rule="nonzero"></path>
                </g>
            </g>
        </g>
    </g>
</svg>