<?xml version="1.0" encoding="UTF-8"?>
<svg width="36px" height="36px" viewBox="0 0 36 36" version="1.1" xmlns="http://www.w3.org/2000/svg" xmlns:xlink="http://www.w3.org/1999/xlink">
    <title>签收管理</title>
    <defs>
        <linearGradient x1="50%" y1="0%" x2="50%" y2="100%" id="linearGradient-1">
            <stop stop-color="#4476FF" offset="0%"></stop>
            <stop stop-color="#6EB4FF" offset="100%"></stop>
        </linearGradient>
        <linearGradient x1="50%" y1="0%" x2="50%" y2="100%" id="linearGradient-2">
            <stop stop-color="#FFFFFF" offset="0%"></stop>
            <stop stop-color="#FFFFFF" offset="100%"></stop>
        </linearGradient>
    </defs>
    <g id="首页" stroke="none" stroke-width="1" fill="none" fill-rule="evenodd">
        <g id="画板" transform="translate(-458.000000, -439.000000)">
            <g id="编组-3" transform="translate(458.000000, 439.000000)">
                <path d="M4.45531235,31.4102385 C10.3957288,37.3499206 25.6042712,37.6154699 31.5446877,31.6757878 C37.4851041,25.7361057 37.4851041,10.2638943 31.5446877,4.32421219 C25.6042712,-1.61546988 10.3957288,-1.3499206 4.45531235,4.58976147 C-1.48510412,10.5294435 -1.48510412,25.4705565 4.45531235,31.4102385 Z" id="椭圆形备份" fill="url(#linearGradient-1)"></path>
                <path d="M26.7322928,20.7729214 L26.8563083,20.9436142 C27.1192545,21.3055284 27.0390249,21.8120779 26.6771106,22.075024 L22.2564833,25.2867977 C22.1317989,25.3773862 21.9838582,25.4305234 21.8300296,25.4399707 L20.6181743,25.5143965 C20.5288724,25.5198809 20.4520329,25.4519335 20.4465484,25.3626316 C20.4450967,25.3389928 20.4488456,25.3153233 20.4575311,25.2932901 L20.9027981,24.1637459 C20.9593187,24.0203657 21.0555713,23.896086 21.1802557,23.8054975 L25.600883,20.5937237 C25.9627973,20.3307776 26.4693467,20.4110071 26.7322928,20.7729214 Z" id="矩形" fill="#FFFFFF" transform="translate(23.848319, 22.823805) rotate(-5.000000) translate(-23.848319, -22.823805) "></path>
                <line x1="19.2272727" y1="26.9845032" x2="26.1817845" y2="26.9845032" id="直线-2" stroke="#FFFFFF" stroke-width="0.81" stroke-linecap="round"></line>
                <path d="M22.3372059,8.47058824 C23.5674202,8.47058824 24.5647059,9.46787396 24.5647059,10.6980882 L24.5657579,19.1315449 C24.4255215,19.1216228 24.2839382,19.1165775 24.1411765,19.1165775 C20.8664528,19.1165775 18.2117647,21.7712656 18.2117647,25.0459893 C18.2117647,25.3137145 18.2295083,25.5772955 18.2638838,25.8356203 L12.3922059,25.8352941 C11.1619916,25.8352941 10.1647059,24.8380084 10.1647059,23.6077941 L10.1647059,10.6980882 C10.1647059,9.46787396 11.1619916,8.47058824 12.3922059,8.47058824 L22.3372059,8.47058824 Z M18.2117647,17.7882353 L13.5529412,17.7882353 C13.0851235,17.7882353 12.7058824,18.1674764 12.7058824,18.6352941 C12.7058824,19.0671258 13.0290227,19.423484 13.4466879,19.4757532 L13.5529412,19.4823529 L18.2117647,19.4823529 C18.6795824,19.4823529 19.0588235,19.1031118 19.0588235,18.6352941 C19.0588235,18.1674764 18.6795824,17.7882353 18.2117647,17.7882353 Z M21.1764706,14.4 L13.5529412,14.4 C13.0851235,14.4 12.7058824,14.7792412 12.7058824,15.2470588 C12.7058824,15.6788905 13.0290227,16.0352487 13.4466879,16.0875179 L13.5529412,16.0941176 L21.1764706,16.0941176 C21.6442883,16.0941176 22.0235294,15.7148765 22.0235294,15.2470588 C22.0235294,14.7792412 21.6442883,14.4 21.1764706,14.4 Z M21.1764706,11.0117647 L13.5529412,11.0117647 C13.0851235,11.0117647 12.7058824,11.3910059 12.7058824,11.8588235 C12.7058824,12.2906552 13.0290227,12.6470134 13.4466879,12.6992826 L13.5529412,12.7058824 L21.1764706,12.7058824 C21.6442883,12.7058824 22.0235294,12.3266412 22.0235294,11.8588235 C22.0235294,11.3910059 21.6442883,11.0117647 21.1764706,11.0117647 Z" id="形状结合" fill="url(#linearGradient-2)"></path>
            </g>
        </g>
    </g>
</svg>