<?xml version="1.0" encoding="UTF-8"?>
<svg width="20px" height="20px" viewBox="0 0 20 20" version="1.1" xmlns="http://www.w3.org/2000/svg" xmlns:xlink="http://www.w3.org/1999/xlink">
    <title>编组 46备份</title>
    <g id="运单3.0" stroke="none" stroke-width="1" fill="none" fill-rule="evenodd">
        <g id="创建运单3.0" transform="translate(-895.000000, -241.000000)">
            <g id="编组-18" transform="translate(80.000000, 54.000000)">
                <g id="编组-49" transform="translate(22.000000, 71.000000)">
                    <g id="编组-46备份" transform="translate(793.000000, 116.000000)">
                        <rect id="矩形" x="0" y="0" width="20" height="20"></rect>
                        <g id="编组-42" transform="translate(2.500000, 2.000000)" stroke="#A2ADC7" stroke-width="1.3">
                            <path d="M5.41058381,7.66666667 L9.58941619,7.66666667 C11.3722065,7.66666667 12.9397933,8.84650451 13.4331826,10.5596619 L13.896887,12.1697464 C14.3554234,13.7618866 13.4364559,15.4242885 11.8443157,15.8828248 C11.5744142,15.9605565 11.294934,16 11.0140621,16 L3.98593786,16 C2.32908361,16 0.98593786,14.6568542 0.98593786,13 C0.98593786,12.7191282 1.02538141,12.4396479 1.10311302,12.1697464 L1.56681736,10.5596619 C2.0602067,8.84650451 3.62779348,7.66666667 5.41058381,7.66666667 Z" id="矩形"></path>
                            <circle id="椭圆形" fill="#FFFFFF" cx="7.5" cy="4.16666667" r="4.16666667"></circle>
                        </g>
                    </g>
                </g>
            </g>
        </g>
    </g>
</svg>